<?xml version="1.0" encoding="utf-8"?>
<!-- Generator: Adobe Illustrator 16.0.0, SVG Export Plug-In . SVG Version: 6.00 Build 0)  -->
<!DOCTYPE svg PUBLIC "-//W3C//DTD SVG 1.1//EN" "http://www.w3.org/Graphics/SVG/1.1/DTD/svg11.dtd">
<svg version="1.1" id="Layer_1" xmlns="http://www.w3.org/2000/svg" xmlns:xlink="http://www.w3.org/1999/xlink" x="0px" y="0px"
	 width="841.89px" height="595.281px" viewBox="0 0 841.89 595.281" enable-background="new 0 0 841.89 595.281"
	 xml:space="preserve">
<polyline fill="none" stroke="#D1D3D4" stroke-width="1.642" stroke-miterlimit="10" stroke-dasharray="3.2841,3.2841" points="
	164.058,271.141 164.058,324.39 260.39,324.39 "/>
<polyline fill="none" stroke="#D1D3D4" stroke-width="1.642" stroke-miterlimit="10" stroke-dasharray="3.2841,3.2841" points="
	194.709,272.603 194.709,419.763 369.755,419.763 "/>
<polyline fill="none" stroke="#D1D3D4" stroke-width="1.642" stroke-miterlimit="10" stroke-dasharray="3.2841,3.2841" points="
	298.77,368.313 298.77,469.574 373.922,469.574 "/>
<polyline fill="none" stroke="#D1D3D4" stroke-width="1.642" stroke-miterlimit="10" stroke-dasharray="3.2841,3.2841" points="
	330.693,371.048 330.693,563.714 563.216,563.714 563.216,386.919 "/>
<polyline fill="none" stroke="#D1D3D4" stroke-width="1.642" stroke-miterlimit="10" stroke-dasharray="3.2841,3.2841" points="
	498.585,498.033 586.181,498.033 586.181,381.904 "/>
<polyline fill="none" stroke="#D1D3D4" stroke-width="1.642" stroke-miterlimit="10" stroke-dasharray="3.2841,3.2841" points="
	542.384,381.904 542.384,472.308 650.101,472.308 650.101,444.939 "/>
<polyline fill="none" stroke="#D1D3D4" stroke-width="1.642" stroke-miterlimit="10" stroke-dasharray="3.2841,3.2841" points="
	218.791,121.458 369.755,121.458 369.755,239.687 "/>
<polyline fill="none" stroke="#D1D3D4" stroke-width="1.642" stroke-miterlimit="10" stroke-dasharray="3.2841,3.2841" points="
	260.39,158.542 260.39,99.199 409.816,99.199 409.816,352.46 "/>
<polyline fill="none" stroke="#D1D3D4" stroke-width="1.642" stroke-miterlimit="10" stroke-dasharray="3.2841,3.2841" points="
	379.071,236.4 486.992,236.4 486.992,366.123 "/>
<polyline fill="none" stroke="#D1D3D4" stroke-width="1.642" stroke-miterlimit="10" stroke-dasharray="3.2841,3.2841" points="
	604.8,276.946 604.8,233.664 687.365,233.664 687.365,381.904 "/>
<path fill="#939598" d="M519.468,431.24c0-0.779-0.035-1.547-0.059-2.32l14.617-2.576l-3.896-22.063l-14.588,2.569
	c-0.488-1.477-1.021-2.928-1.592-4.362l12.834-7.408l-11.201-19.4l-12.848,7.418c-0.959-1.213-1.947-2.403-2.98-3.561l9.533-11.357
	l-17.166-14.399l-9.523,11.352c-1.314-0.815-2.65-1.602-4.018-2.336l5.063-13.912l-21.057-7.66l-5.059,13.906
	c-1.514-0.309-3.039-0.565-4.58-0.791v-14.817h-22.404v14.817c-1.541,0.226-3.07,0.482-4.58,0.791l-5.063-13.91l-21.054,7.664
	l5.065,13.912c-1.367,0.734-2.705,1.521-4.021,2.336l-9.523-11.352l-17.161,14.396l9.532,11.361
	c-1.031,1.152-2.018,2.348-2.979,3.561l-12.853-7.418l-11.197,19.4l12.833,7.408c-0.573,1.436-1.103,2.889-1.593,4.362l-14.59-2.569
	l-3.892,22.063l14.614,2.578c-0.023,0.771-0.057,1.539-0.057,2.318c0,0.776,0.033,1.545,0.057,2.315l-14.614,2.578l3.892,22.064
	l14.59-2.574c0.49,1.477,1.02,2.932,1.591,4.367l-12.831,7.408l11.202,19.399l12.848-7.418c0.96,1.213,1.946,2.406,2.978,3.563
	l-9.532,11.358l17.163,14.396l9.527-11.349c1.311,0.813,2.649,1.595,4.016,2.33l-5.065,13.916l21.058,7.662l5.059-13.912
	c1.51,0.313,3.039,0.568,4.582,0.795v14.814h22.402v-14.814c1.541-0.227,3.068-0.481,4.58-0.795l5.061,13.912l21.059-7.666
	l-5.064-13.912c1.365-0.735,2.701-1.518,4.02-2.334l9.523,11.353l17.16-14.4l-9.531-11.354c1.029-1.154,2.021-2.347,2.98-3.563
	l12.85,7.418l11.199-19.399l-12.834-7.408c0.572-1.437,1.104-2.89,1.592-4.365l14.592,2.572l3.889-22.064l-14.611-2.574
	C519.433,432.785,519.468,432.017,519.468,431.24z M451.902,370.027c15.141,2.496,28.441,10.459,37.783,21.813l-19.857,11.463
	c-4.877-4.899-11.033-8.535-17.926-10.354V370.027z M465.646,412.726c-0.771-0.993-1.611-1.946-2.494-2.836l2.104-2.098
	c0.971,0.971,1.891,2.018,2.74,3.109L465.646,412.726z M466.042,453.873c-0.939,1.01-1.953,1.969-3.008,2.852l-1.908-2.282
	c0.963-0.804,1.885-1.679,2.744-2.599L466.042,453.873z M469.488,419.205c-0.5-1.152-1.078-2.281-1.717-3.359l2.559-1.516
	c0.701,1.184,1.338,2.424,1.887,3.688L469.488,419.205z M473.626,421.921c0.387,1.324,0.691,2.688,0.912,4.047l-2.939,0.469
	c-0.197-1.237-0.477-2.479-0.826-3.684L473.626,421.921z M468.285,445.732l2.607,1.43c-0.662,1.207-1.406,2.389-2.217,3.506
	l-2.41-1.74C467.003,447.908,467.681,446.833,468.285,445.732z M469.888,442.313c0.459-1.169,0.85-2.378,1.158-3.595l2.883,0.732
	c-0.34,1.338-0.77,2.666-1.273,3.951L469.888,442.313z M471.746,435.011c0.154-1.246,0.232-2.514,0.232-3.771
	c0-0.351-0.006-0.695-0.018-1.043l2.973-0.104c0.014,0.379,0.02,0.765,0.02,1.146c0,1.379-0.086,2.771-0.256,4.137L471.746,435.011z
	 M462.154,405.044l-1.832,2.342c-0.988-0.77-2.035-1.485-3.115-2.133l1.52-2.553C459.916,403.41,461.066,404.195,462.154,405.044z
	 M451.138,399.382c1.32,0.39,2.631,0.867,3.898,1.418l-1.189,2.729c-1.154-0.504-2.348-0.939-3.549-1.293L451.138,399.382z
	 M442.968,398.058c1.379,0.054,2.768,0.188,4.125,0.406l-0.475,2.937c-1.236-0.199-2.502-0.322-3.76-0.369L442.968,398.058z
	 M463.302,431.236c0,11.905-9.65,21.555-21.555,21.555c-11.9,0-21.551-9.648-21.551-21.555c0-11.902,9.649-21.547,21.551-21.547
	C453.652,409.689,463.302,419.333,463.302,431.236z M459.693,459.181c-1.162,0.748-2.381,1.429-3.617,2.021l-1.285-2.687
	c1.127-0.539,2.234-1.155,3.295-1.838L459.693,459.181z M429.175,458.738l-1.236,2.705c-1.254-0.576-2.486-1.236-3.658-1.963
	l1.568-2.525C426.916,457.613,428.035,458.214,429.175,458.738z M412.329,424.265c-0.289,1.222-0.502,2.474-0.636,3.724
	l-2.956-0.314c0.146-1.375,0.382-2.752,0.698-4.09L412.329,424.265z M410.642,419.611c0.482-1.291,1.054-2.564,1.693-3.787
	l2.634,1.381c-0.583,1.113-1.103,2.273-1.543,3.449L410.642,419.611z M411.526,431.763c0.021,1.261,0.118,2.525,0.296,3.765
	l-2.944,0.418c-0.192-1.361-0.303-2.748-0.326-4.131L411.526,431.763z M412.586,439.222c0.33,1.211,0.741,2.412,1.222,3.57
	l-2.748,1.139c-0.524-1.272-0.979-2.596-1.342-3.926L412.586,439.222z M415.466,446.183c0.618,1.086,1.316,2.148,2.07,3.156
	l-2.382,1.783c-0.827-1.107-1.592-2.275-2.272-3.467L415.466,446.183z M416.93,413.978l-2.438-1.698
	c0.788-1.131,1.657-2.226,2.577-3.248l2.209,1.99C418.438,411.953,417.648,412.947,416.93,413.978z M419.983,452.216
	c0.872,0.906,1.809,1.767,2.784,2.551l-1.868,2.313c-1.069-0.861-2.1-1.805-3.06-2.801L419.983,452.216z M420.028,406.126
	c1.044-0.904,2.153-1.748,3.297-2.514l1.648,2.475c-1.041,0.693-2.053,1.465-3.002,2.287L420.028,406.126z M438.824,398.164
	l0.258,2.963c-1.252,0.109-2.508,0.299-3.732,0.564l-0.627-2.906C436.068,398.492,437.447,398.285,438.824,398.164z M428.24,404.189
	l-1.33-2.66c1.236-0.617,2.521-1.162,3.818-1.619l0.986,2.807C430.535,403.13,429.365,403.626,428.24,404.189z M431.595,370.029
	v22.918c-6.889,1.819-13.045,5.455-17.927,10.354l-19.856-11.463C403.155,380.488,416.452,372.523,431.595,370.029z M383.649,453.06
	c-2.547-6.788-3.952-14.141-3.952-21.817c0-7.68,1.405-15.031,3.957-21.82l19.858,11.467c-0.89,3.304-1.374,6.771-1.374,10.354
	c0,3.584,0.484,7.051,1.374,10.354L383.649,453.06z M431.595,492.455c-15.144-2.494-28.441-10.459-37.785-21.814l19.857-11.467
	c4.878,4.906,11.04,8.539,17.928,10.361V492.455z M435.843,463.917c-1.357-0.242-2.715-0.576-4.029-0.986l0.889-2.84
	c1.197,0.375,2.432,0.678,3.666,0.9L435.843,463.917z M441.751,464.441c-0.602,0-1.197-0.017-1.791-0.048l0.158-2.971
	c1.252,0.068,2.547,0.055,3.775-0.031l0.213,2.968C443.335,464.414,442.544,464.441,441.751,464.441z M447.64,460.896
	c1.232-0.242,2.461-0.566,3.65-0.966l0.938,2.824c-1.307,0.437-2.656,0.789-4.01,1.06L447.64,460.896z M451.902,492.457v-22.922
	c6.893-1.822,13.049-5.455,17.926-10.361l19.857,11.467C480.347,481.996,467.048,489.96,451.902,492.457z M499.845,453.06
	l-19.859-11.467c0.891-3.303,1.377-6.77,1.377-10.354c0-3.582-0.486-7.054-1.377-10.355l19.859-11.467
	c2.553,6.791,3.959,14.139,3.959,21.822C503.804,438.919,502.396,446.271,499.845,453.06z"/>
<path fill="#939598" d="M261.223,194.47c0-0.7-0.028-1.391-0.052-2.085l13.145-2.316l-3.5-19.84l-13.12,2.313
	c-0.438-1.325-0.915-2.634-1.433-3.924l11.539-6.661l-10.074-17.447l-11.547,6.669c-0.864-1.092-1.756-2.16-2.68-3.197l8.571-10.214
	l-15.435-12.952l-8.561,10.208c-1.186-0.732-2.385-1.437-3.617-2.1l4.555-12.509l-18.931-6.889l-4.553,12.506
	c-1.358-0.279-2.734-0.513-4.115-0.711v-13.325h-20.147v13.325c-1.385,0.198-2.763,0.432-4.12,0.711l-4.553-12.509l-18.928,6.892
	l4.551,12.509c-1.229,0.663-2.433,1.368-3.612,2.1l-8.567-10.208l-15.429,12.949l8.57,10.217c-0.925,1.038-1.814,2.105-2.679,3.197
	l-11.552-6.669l-10.073,17.447l11.538,6.661c-0.515,1.29-0.99,2.599-1.429,3.924l-13.12-2.313l-3.499,19.84l13.144,2.318
	c-0.023,0.693-0.057,1.383-0.057,2.083c0,0.7,0.033,1.39,0.057,2.083l-13.144,2.32l3.499,19.839l13.12-2.314
	c0.438,1.328,0.914,2.636,1.429,3.927l-11.538,6.66l10.073,17.449l11.552-6.67c0.864,1.092,1.754,2.16,2.679,3.199l-8.57,10.215
	l15.435,12.951l8.562-10.206c1.185,0.73,2.388,1.435,3.612,2.097l-4.551,12.511l18.932,6.889l4.549-12.506
	c1.357,0.277,2.735,0.511,4.12,0.711v13.324h20.147v-13.324c1.381-0.2,2.757-0.434,4.115-0.711l4.553,12.506l18.931-6.891
	l-4.555-12.509c1.227-0.662,2.432-1.367,3.617-2.1l8.561,10.209l15.431-12.952l-8.567-10.212c0.924-1.038,1.815-2.108,2.68-3.2
	l11.552,6.67l10.069-17.449l-11.539-6.66c0.514-1.291,0.994-2.599,1.433-3.925l13.12,2.313l3.495-19.839l-13.14-2.316
	C261.194,195.859,261.223,195.17,261.223,194.47z M244.888,159.121c1.28-0.741,2.921-0.302,3.659,0.979
	c0.74,1.282,0.301,2.921-0.98,3.662c-1.282,0.74-2.921,0.3-3.661-0.982C243.166,161.5,243.606,159.86,244.888,159.121z
	 M229.567,142.939c0.951-1.135,2.642-1.283,3.775-0.331c1.135,0.951,1.281,2.641,0.331,3.775c-0.952,1.133-2.643,1.282-3.776,0.329
	C228.765,145.763,228.616,144.072,229.567,142.939z M209.638,132.972c0.506-1.392,2.043-2.109,3.435-1.601
	c1.391,0.505,2.107,2.043,1.601,3.435c-0.506,1.391-2.043,2.108-3.434,1.601C209.849,135.901,209.131,134.361,209.638,132.972z
	 M190.18,127.744c1.479,0,2.679,1.2,2.679,2.68s-1.199,2.679-2.679,2.679s-2.68-1.199-2.68-2.679S188.7,127.744,190.18,127.744z
	 M167.429,132.165c1.39-0.506,2.928,0.211,3.435,1.602c0.506,1.391-0.212,2.929-1.604,3.435c-1.391,0.506-2.928-0.211-3.435-1.602
	C165.32,134.209,166.036,132.67,167.429,132.165z M147.562,144.101c1.133-0.952,2.824-0.804,3.773,0.33
	c0.951,1.135,0.805,2.825-0.331,3.776c-1.132,0.951-2.822,0.803-3.773-0.331C146.279,146.743,146.426,145.052,147.562,144.101z
	 M125.427,184.026c0.257-1.458,1.646-2.431,3.104-2.174c1.457,0.257,2.431,1.647,2.174,3.105c-0.257,1.457-1.646,2.43-3.104,2.173
	C126.143,186.874,125.17,185.484,125.427,184.026z M128.935,209.374c-1.459,0.257-2.849-0.716-3.104-2.174
	c-0.258-1.457,0.715-2.847,2.172-3.104c1.458-0.256,2.847,0.717,3.104,2.175C131.365,207.726,130.392,209.117,128.935,209.374z
	 M132.973,162.112c0.741-1.282,2.379-1.721,3.661-0.981c1.281,0.741,1.721,2.38,0.98,3.661c-0.74,1.282-2.378,1.721-3.66,0.98
	C132.673,165.033,132.233,163.394,132.973,162.112z M137.795,229.819c-1.282,0.74-2.921,0.302-3.66-0.98
	c-0.739-1.28-0.301-2.92,0.979-3.661c1.283-0.74,2.922-0.3,3.661,0.982C139.517,227.44,139.076,229.08,137.795,229.819z
	 M153.114,246.001c-0.951,1.133-2.641,1.282-3.775,0.331c-1.133-0.951-1.282-2.642-0.33-3.776c0.951-1.134,2.642-1.281,3.775-0.329
	C153.917,243.177,154.064,244.868,153.114,246.001z M173.044,255.967c-0.505,1.391-2.043,2.109-3.434,1.603
	c-1.391-0.506-2.108-2.044-1.603-3.436c0.507-1.391,2.044-2.107,3.435-1.601C172.833,253.039,173.55,254.577,173.044,255.967z
	 M192.502,261.196c-1.479,0-2.68-1.2-2.681-2.68c0-1.48,1.2-2.679,2.682-2.679c1.479-0.001,2.677,1.199,2.677,2.679
	C195.181,259.997,193.983,261.196,192.502,261.196z M215.254,256.776c-1.39,0.506-2.929-0.211-3.436-1.602
	c-0.507-1.391,0.212-2.928,1.604-3.434c1.389-0.507,2.928,0.21,3.434,1.601C217.362,254.732,216.645,256.269,215.254,256.776z
	 M235.121,244.839c-1.134,0.951-2.823,0.803-3.776-0.331c-0.951-1.134-0.803-2.824,0.332-3.775c1.134-0.951,2.824-0.803,3.774,0.33
	C236.402,242.198,236.255,243.888,235.121,244.839z M242.791,210.163l-8.494-1.497c-0.285,0.861-0.594,1.705-0.924,2.541
	l7.469,4.313l-6.522,11.296l-7.479-4.318c-0.556,0.708-1.134,1.4-1.732,2.072l5.548,6.611l-9.988,8.384l-5.55-6.608
	c-0.764,0.473-1.543,0.928-2.338,1.357l2.951,8.1l-12.258,4.463l-2.944-8.098c-0.882,0.18-1.773,0.329-2.669,0.459v8.625h-13.04
	v-8.625c-0.896-0.13-1.788-0.28-2.665-0.459l-2.948,8.098l-12.258-4.463l2.949-8.1c-0.794-0.429-1.573-0.884-2.338-1.357
	l-5.548,6.608l-9.987-8.384l5.548-6.611c-0.602-0.675-1.176-1.368-1.735-2.072l-7.479,4.318l-6.518-11.296l7.47-4.313
	c-0.337-0.836-0.645-1.682-0.929-2.541l-8.493,1.497l-2.267-12.842l8.51-1.502c-0.013-0.448-0.033-0.896-0.033-1.349
	c0-0.453,0.021-0.9,0.033-1.349l-8.51-1.501l2.267-12.843l8.493,1.498c0.284-0.86,0.592-1.705,0.929-2.541l-7.47-4.313l6.518-11.296
	l7.479,4.321c0.56-0.708,1.134-1.4,1.735-2.074l-5.548-6.612l9.987-8.382l5.548,6.607c0.765-0.474,1.54-0.929,2.338-1.358
	l-2.949-8.1l12.258-4.463l2.943,8.1c0.882-0.183,1.774-0.331,2.67-0.462v-8.625h13.04v8.625c0.896,0.131,1.787,0.279,2.669,0.462
	l2.944-8.098l12.258,4.461l-2.951,8.1c0.8,0.43,1.574,0.885,2.338,1.358l5.55-6.607l9.988,8.382l-5.548,6.614
	c0.599,0.672,1.177,1.365,1.732,2.072l7.479-4.321l6.522,11.296l-7.469,4.313c0.33,0.835,0.639,1.68,0.924,2.541l8.494-1.498
	l2.265,12.843l-8.507,1.5c0.015,0.45,0.033,0.897,0.033,1.35c0,0.453-0.019,0.901-0.033,1.351l8.507,1.5L242.791,210.163z
	 M249.708,226.828c-0.74,1.281-2.379,1.721-3.661,0.981c-1.281-0.741-1.72-2.379-0.979-3.662c0.739-1.28,2.379-1.72,3.66-0.98
	C250.011,223.907,250.449,225.546,249.708,226.828z M253.747,179.566c1.459-0.258,2.85,0.715,3.104,2.173
	c0.258,1.458-0.716,2.848-2.173,3.104c-1.458,0.257-2.848-0.717-3.104-2.174C251.317,181.213,252.29,179.823,253.747,179.566z
	 M257.255,204.914c-0.256,1.458-1.646,2.43-3.104,2.173c-1.457-0.256-2.431-1.646-2.172-3.104c0.255-1.457,1.646-2.431,3.104-2.173
	C256.54,202.066,257.514,203.456,257.255,204.914z"/>
<path fill="#FFFFFF" d="M561.673,293.231c-7.023,0.36-13.402,3.167-18.303,7.583l18.303,18.303V293.231z"/>
<path fill="#FFFFFF" d="M564.763,319.115l18.299-18.303c-4.898-4.416-11.273-7.222-18.299-7.583V319.115z"/>
<path fill="#FFFFFF" d="M561.673,326.574l-18.303,18.303c4.896,4.418,11.273,7.225,18.303,7.586V326.574z"/>
<path fill="#FFFFFF" d="M559.488,324.39h-25.887c0.359,7.025,3.166,13.402,7.584,18.304L559.488,324.39z"/>
<path fill="#FFFFFF" d="M559.488,321.3L541.185,303c-4.416,4.898-7.223,11.277-7.584,18.301L559.488,321.3L559.488,321.3z"/>
<path fill="#FFFFFF" d="M592.832,321.3c-0.359-7.021-3.168-13.399-7.584-18.301L566.947,321.3H592.832z"/>
<path fill="#FFFFFF" d="M599.992,296.597l4.809-2.777c-8.389-11.995-21.828-20.187-37.24-21.497v5.543
	C580.927,279.142,592.587,286.244,599.992,296.597z"/>
<path fill="#FFFFFF" d="M566.949,324.39l18.299,18.304c4.418-4.9,7.225-11.275,7.584-18.304H566.949z"/>
<path fill="#FFFFFF" d="M567.56,367.826v5.543c15.412-1.312,28.852-9.5,37.242-21.498l-4.811-2.777
	C592.587,359.449,580.927,366.548,567.56,367.826z"/>
<path fill="#FFFFFF" d="M604.343,304.119c2.604,5.705,4.066,12.045,4.066,18.727c0,6.683-1.463,13.021-4.066,18.73l4.813,2.776
	c3.063-6.53,4.781-13.813,4.781-21.508c0-7.688-1.719-14.973-4.781-21.504L604.343,304.119z"/>
<path fill="#FFFFFF" d="M526.443,349.093l-4.809,2.777c8.385,11.998,21.826,20.188,37.236,21.498v-5.545
	C545.505,366.548,533.847,359.449,526.443,349.093z"/>
<path fill="#FFFFFF" d="M564.763,326.576v25.885c7.023-0.361,13.402-3.166,18.301-7.584L564.763,326.576z"/>
<path fill="#FFFFFF" d="M518.025,322.845c0-6.682,1.463-13.02,4.064-18.727l-4.811-2.777c-3.064,6.531-4.783,13.816-4.783,21.504
	c0,7.689,1.719,14.976,4.783,21.506l4.811-2.776C519.488,335.865,518.025,329.527,518.025,322.845z"/>
<path fill="#FFFFFF" d="M558.871,277.868v-5.545c-15.41,1.31-28.852,9.503-37.236,21.5l4.811,2.774
	C533.847,286.244,545.505,279.142,558.871,277.868z"/>
<path fill="#C7C8CA" d="M620.546,322.845c0-0.569-0.025-1.141-0.045-1.709l10.781-1.899l-2.871-16.273l-10.762,1.896
	c-0.359-1.088-0.75-2.159-1.178-3.222l9.471-5.465l-8.268-14.31l-9.477,5.47c-0.707-0.896-1.438-1.771-2.195-2.621l7.031-8.38
	l-12.662-10.625l-7.023,8.374c-0.971-0.602-1.957-1.178-2.965-1.724l3.734-10.261l-15.529-5.651l-3.732,10.261
	c-1.111-0.229-2.24-0.419-3.381-0.583V255.19h-16.521v10.932c-1.139,0.164-2.264,0.354-3.379,0.583l-3.736-10.261l-15.529,5.651
	l3.736,10.261c-1.008,0.546-1.994,1.123-2.965,1.724l-7.025-8.374l-12.658,10.621l7.029,8.382c-0.758,0.85-1.488,1.728-2.197,2.623
	l-9.477-5.47l-8.262,14.31l9.467,5.464c-0.424,1.063-0.814,2.136-1.174,3.222l-10.768-1.896l-2.867,16.273l10.779,1.899
	c-0.02,0.568-0.043,1.14-0.043,1.709c0,0.576,0.023,1.144,0.043,1.709l-10.779,1.902l2.867,16.273l10.768-1.896
	c0.357,1.09,0.75,2.164,1.172,3.221l-9.465,5.468l8.262,14.309l9.477-5.469c0.709,0.895,1.439,1.771,2.197,2.623l-7.029,8.381
	l12.658,10.623l7.029-8.373c0.967,0.602,1.955,1.178,2.961,1.723l-3.736,10.26l15.531,5.652l3.736-10.258
	c1.109,0.229,2.236,0.418,3.377,0.58v10.932h16.521V379.57c1.141-0.162,2.27-0.353,3.377-0.58l3.736,10.26l15.529-5.652
	l-3.736-10.26c1.008-0.545,1.996-1.121,2.967-1.725l7.023,8.373l12.658-10.623l-7.027-8.377c0.758-0.853,1.488-1.73,2.195-2.627
	l9.479,5.471l8.264-14.312l-9.469-5.465c0.428-1.059,0.814-2.131,1.178-3.221l10.762,1.895l2.871-16.271l-10.781-1.902
	C620.521,323.988,620.546,323.421,620.546,322.845z M567.56,272.323c15.412,1.31,28.852,9.502,37.24,21.497l-4.809,2.777
	c-7.404-10.354-19.064-17.456-32.436-18.731v-5.543H567.56z M585.248,303c4.416,4.898,7.225,11.277,7.584,18.301h-25.885
	L585.248,303z M564.763,319.115v-25.884c7.023,0.36,13.4,3.167,18.299,7.583L564.763,319.115z M541.185,303l18.303,18.301h-25.887
	C533.962,314.277,536.769,307.898,541.185,303z M543.371,300.813c4.898-4.416,11.277-7.222,18.303-7.583v25.885L543.371,300.813z
	 M559.488,324.39l-18.303,18.304c-4.418-4.9-7.225-11.275-7.584-18.304H559.488z M561.673,326.574v25.889
	c-7.025-0.361-13.404-3.168-18.303-7.586L561.673,326.574z M564.763,326.576l18.301,18.301c-4.898,4.418-11.275,7.223-18.301,7.584
	V326.576z M585.248,342.693l-18.299-18.304h25.883C592.472,331.416,589.666,337.792,585.248,342.693z M558.871,272.323v5.545
	c-13.365,1.273-25.023,8.375-32.428,18.729l-4.809-2.774C530.021,281.827,543.46,273.633,558.871,272.323z M517.279,344.351
	c-3.063-6.53-4.781-13.815-4.781-21.506c0-7.688,1.719-14.973,4.781-21.504l4.813,2.777c-2.604,5.705-4.063,12.045-4.063,18.727
	c0,6.683,1.461,13.021,4.063,18.729L517.279,344.351z M558.871,373.369c-15.41-1.312-28.852-9.5-37.236-21.498l4.811-2.777
	c7.402,10.355,19.063,17.455,32.43,18.73v5.545H558.871L558.871,373.369z M567.56,373.369v-5.543
	c13.367-1.277,25.027-8.377,32.432-18.732l4.811,2.777C596.412,363.869,582.972,372.06,567.56,373.369z M609.154,344.353
	l-4.811-2.776c2.604-5.709,4.064-12.049,4.064-18.73c0-6.681-1.463-13.02-4.064-18.727l4.811-2.777
	c3.063,6.531,4.781,13.816,4.781,21.504C613.937,330.537,612.218,337.82,609.154,344.353z"/>
<circle fill="#FFFFFF" cx="653.646" cy="401.774" r="9.411"/>
<path fill="#FFFFFF" d="M636.015,407.796c1.857,5.445,6.166,9.752,11.609,11.611v16.084c-14.088-2.5-25.195-13.605-27.695-27.695
	H636.015L636.015,407.796z"/>
<path fill="#FFFFFF" d="M659.671,419.408c5.445-1.859,9.75-6.166,11.609-11.611h16.084c-2.5,14.09-13.605,25.195-27.693,27.695
	V419.408z"/>
<path fill="#FFFFFF" d="M647.625,384.14c-5.443,1.861-9.752,6.168-11.609,11.611h-16.086c2.5-14.09,13.607-25.195,27.695-27.693
	V384.14z"/>
<path fill="#FFFFFF" d="M671.281,395.751c-1.859-5.443-6.166-9.75-11.609-11.611v-16.082c14.088,2.5,25.193,13.604,27.693,27.693
	H671.281z"/>
<path fill="#939598" d="M693.322,388.662c-0.264-0.793-0.549-1.574-0.855-2.344l6.9-3.984l-6.025-10.432l-6.906,3.985
	c-0.514-0.651-1.047-1.291-1.598-1.912l5.123-6.104l-9.229-7.746l-5.119,6.104c-0.707-0.438-1.428-0.856-2.16-1.256l2.721-7.479
	l-11.316-4.119l-2.725,7.479c-0.811-0.168-1.633-0.305-2.461-0.426v-7.969h-12.047v7.969c-0.828,0.121-1.65,0.258-2.461,0.426
	l-2.723-7.479l-11.318,4.121l2.723,7.479c-0.73,0.396-1.453,0.816-2.162,1.257l-5.119-6.104l-9.227,7.744l5.123,6.104
	c-0.551,0.621-1.084,1.263-1.602,1.914l-6.908-3.985l-6.021,10.432l6.9,3.982c-0.307,0.771-0.594,1.553-0.855,2.346l-7.844-1.383
	l-2.092,11.86l7.857,1.388c-0.016,0.416-0.031,0.83-0.031,1.246c0,0.418,0.018,0.832,0.031,1.246l-7.857,1.387l2.092,11.858
	l7.844-1.383c0.264,0.795,0.551,1.576,0.855,2.351l-6.9,3.979l6.023,10.435l6.906-3.988c0.518,0.652,1.051,1.293,1.602,1.912
	l-5.123,6.108l9.229,7.74l5.123-6.102c0.703,0.438,1.426,0.856,2.156,1.256l-2.723,7.479l11.32,4.119l2.721-7.479
	c0.811,0.168,1.633,0.305,2.461,0.426v7.965h12.047v-7.965c0.828-0.121,1.65-0.258,2.461-0.426l2.725,7.479l11.314-4.121
	l-2.721-7.479c0.734-0.396,1.455-0.816,2.162-1.256l5.119,6.104l9.227-7.744l-5.125-6.104c0.555-0.619,1.088-1.261,1.602-1.914
	l6.91,3.988l6.021-10.433l-6.9-3.981c0.313-0.771,0.594-1.554,0.855-2.347l7.846,1.381l2.09-11.86l-7.854-1.385
	c0.012-0.416,0.029-0.828,0.029-1.246s-0.02-0.832-0.029-1.248l7.854-1.388l-2.09-11.86L693.322,388.662z M659.671,435.492v-16.084
	c5.445-1.859,9.75-6.166,11.609-11.611h16.084C684.865,421.886,673.759,432.992,659.671,435.492z M653.646,392.365
	c5.197,0,9.412,4.213,9.412,9.41c0,5.196-4.215,9.407-9.412,9.407c-5.195,0-9.41-4.211-9.41-9.407
	C644.236,396.578,648.451,392.365,653.646,392.365z M619.929,407.796h16.086c1.857,5.445,6.166,9.752,11.609,11.611v16.084
	C633.537,432.992,622.429,421.886,619.929,407.796z M647.625,368.058v16.082c-5.443,1.861-9.752,6.168-11.609,11.611h-16.086
	C622.429,381.662,633.537,370.556,647.625,368.058z M687.365,395.751h-16.084c-1.859-5.443-6.166-9.75-11.609-11.611v-16.082
	C673.759,370.558,684.865,381.662,687.365,395.751z"/>
<path fill="#DCDDDE" d="M657.05,392.587"/>
<g>
	<path fill="#C7C8CA" d="M390.357,272.376c-0.436-1.313-0.907-2.608-1.418-3.884l11.422-6.595l-9.97-17.268l-11.436,6.602
		c-0.854-1.083-1.735-2.14-2.648-3.166l8.484-10.11l-15.275-12.82l-8.479,10.104c-1.173-0.725-2.36-1.422-3.576-2.078l4.507-12.383
		l-18.738-6.817l-4.507,12.38c-1.344-0.278-2.703-0.507-4.074-0.705v-13.188h-19.942v13.188c-1.371,0.198-2.729,0.426-4.072,0.705
		l-4.509-12.382l-18.738,6.819l4.51,12.383c-1.216,0.656-2.406,1.354-3.578,2.078l-8.479-10.104l-15.273,12.815l8.486,10.113
		c-0.918,1.028-1.799,2.085-2.651,3.168l-11.437-6.602l-9.97,17.268l11.423,6.595c-0.512,1.276-0.983,2.571-1.414,3.884
		l-12.988-2.291l-3.464,19.637l13.009,2.294c-0.021,0.688-0.051,1.37-0.051,2.063c0,0.692,0.029,1.376,0.051,2.063l-13.009,2.293
		l3.464,19.639l12.988-2.291c0.431,1.313,0.902,2.604,1.412,3.883l-11.421,6.596l9.971,17.271l11.436-6.604
		c0.853,1.082,1.733,2.142,2.651,3.168l-8.486,10.111l15.276,12.816l8.479-10.105c1.169,0.727,2.359,1.422,3.575,2.078l-4.51,12.383
		l18.741,6.82l4.506-12.381c1.343,0.276,2.701,0.508,4.072,0.705v13.188h19.942v-13.188c1.371-0.197,2.73-0.429,4.074-0.705
		l4.507,12.381l18.733-6.822l-4.502-12.381c1.216-0.656,2.403-1.354,3.576-2.078l8.479,10.105l15.271-12.82l-8.48-10.107
		c0.913-1.024,1.795-2.086,2.648-3.168l11.436,6.604l9.966-17.271l-11.418-6.594c0.511-1.279,0.982-2.572,1.418-3.885l12.981,2.291
		l3.462-19.639l-13.001-2.293c0.02-0.688,0.049-1.371,0.049-2.063c0-0.693-0.029-1.376-0.049-2.063l13.007-2.294l-3.468-19.637
		L390.357,272.376z M380.967,294.081c0,31.086-25.202,56.288-56.288,56.288c-31.088,0-56.289-25.201-56.289-56.288
		s25.201-56.287,56.289-56.287C355.765,237.793,380.967,262.994,380.967,294.081z"/>
	<path fill="#DCDDDE" d="M324.679,239.687c-30.039,0-54.393,24.353-54.393,54.393c0,30.041,24.354,54.392,54.393,54.392
		c30.042,0,54.395-24.352,54.395-54.392C379.071,264.04,354.721,239.687,324.679,239.687z M324.679,337.388
		c-23.919,0-43.309-19.391-43.309-43.308c0-23.918,19.39-43.309,43.309-43.309c23.92,0,43.312,19.39,43.312,43.309
		C367.989,318,348.599,337.388,324.679,337.388z"/>
	<path fill="#DCDDDE" d="M324.679,252.604c-22.907,0-41.477,18.569-41.477,41.476c0,22.908,18.569,41.478,41.477,41.478
		c22.908,0,41.479-18.569,41.479-41.478C366.157,271.173,347.587,252.604,324.679,252.604z M324.679,300.253
		c-3.408,0-6.173-2.763-6.173-6.173c0-3.408,2.765-6.172,6.173-6.172c3.41,0,6.173,2.764,6.173,6.172
		C330.852,297.49,328.089,300.253,324.679,300.253z"/>
</g>
<g>
	<path fill="#C7C8CA" d="M759.056,368.099c-0.176-0.53-0.367-1.057-0.574-1.571l4.621-2.668l-4.033-6.986l-4.627,2.672
		c-0.346-0.438-0.701-0.865-1.07-1.281l3.432-4.09l-6.18-5.188l-3.43,4.088c-0.475-0.293-0.955-0.574-1.447-0.84l1.822-5.013
		l-7.58-2.76l-1.822,5.012c-0.545-0.112-1.096-0.207-1.648-0.286v-5.337h-8.066v5.337c-0.559,0.079-1.105,0.174-1.648,0.286
		l-1.824-5.012l-7.58,2.76l1.824,5.013c-0.492,0.266-0.975,0.547-1.447,0.84l-3.432-4.088l-6.178,5.186l3.434,4.092
		c-0.373,0.416-0.729,0.845-1.074,1.281l-4.627-2.672l-4.033,6.986l4.621,2.668c-0.205,0.518-0.396,1.041-0.57,1.571l-5.256-0.928
		l-1.402,7.945l5.264,0.928c-0.008,0.277-0.02,0.555-0.02,0.836c0,0.279,0.012,0.558,0.02,0.834l-5.264,0.928l1.402,7.945
		l5.256-0.928c0.174,0.531,0.365,1.055,0.57,1.572l-4.621,2.668l4.033,6.985l4.627-2.672c0.346,0.439,0.701,0.865,1.074,1.281
		l-3.434,4.092l6.18,5.187l3.43-4.089c0.475,0.293,0.955,0.574,1.447,0.843l-1.824,5.01l7.582,2.758l1.822-5.008
		c0.543,0.111,1.094,0.205,1.648,0.285v5.336h8.066v-5.336c0.557-0.08,1.105-0.174,1.648-0.285l1.822,5.008l7.578-2.76l-1.82-5.008
		c0.492-0.269,0.973-0.55,1.447-0.843l3.43,4.089l6.178-5.188l-3.43-4.088c0.369-0.416,0.725-0.846,1.07-1.283l4.627,2.672
		l4.031-6.985l-4.619-2.668c0.207-0.519,0.398-1.041,0.574-1.572l5.252,0.928l1.4-7.944l-5.26-0.929
		c0.008-0.276,0.02-0.555,0.02-0.834c0-0.281-0.012-0.559-0.02-0.836l5.262-0.928l-1.402-7.945L759.056,368.099z M755.257,376.88
		c0,12.576-10.197,22.771-22.773,22.771c-12.578,0-22.773-10.195-22.773-22.771c0-12.578,10.195-22.772,22.773-22.772
		C745.06,354.107,755.257,364.302,755.257,376.88z"/>
	<path fill="#DCDDDE" d="M732.482,354.873c-12.152,0-22.006,9.854-22.006,22.006c0,12.154,9.854,22.008,22.006,22.008
		c12.154,0,22.008-9.854,22.008-22.008C754.49,364.726,744.636,354.873,732.482,354.873z M732.482,394.402
		c-9.678,0-17.521-7.849-17.521-17.523s7.846-17.521,17.521-17.521c9.68,0,17.521,7.846,17.521,17.521
		S742.162,394.402,732.482,394.402z"/>
	<path fill="#DCDDDE" d="M732.482,360.099c-9.268,0-16.779,7.515-16.779,16.779c0,9.271,7.512,16.781,16.779,16.781
		c9.27,0,16.781-7.512,16.781-16.781C749.265,367.611,741.751,360.099,732.482,360.099z M732.482,379.376
		c-1.379,0-2.496-1.119-2.496-2.498s1.117-2.496,2.496-2.496c1.381,0,2.498,1.117,2.498,2.496S733.863,379.376,732.482,379.376z"/>
</g>
<circle fill="#FFFFFF" cx="191.341" cy="194.47" r="54.628"/>
<g>
	<path fill="#58595B" d="M155.731,175.937h3.863c1.793,0,3.088,0.261,3.887,0.783c0.798,0.522,1.197,1.348,1.197,2.475
		c0,0.76-0.196,1.392-0.588,1.896c-0.392,0.504-0.956,0.822-1.691,0.953v0.089c0.914,0.172,1.586,0.512,2.017,1.02
		c0.43,0.507,0.646,1.194,0.646,2.061c0,1.169-0.408,2.085-1.225,2.747c-0.815,0.662-1.951,0.993-3.405,0.993h-4.7L155.731,175.937
		L155.731,175.937z M157.858,181.314h2.048c0.891,0,1.54-0.141,1.95-0.423c0.409-0.282,0.614-0.761,0.614-1.438
		c0-0.611-0.222-1.054-0.663-1.327c-0.442-0.273-1.145-0.41-2.105-0.41h-1.844V181.314L157.858,181.314z M157.858,183.041v4.122
		h2.262c0.891,0,1.563-0.17,2.017-0.512c0.454-0.342,0.681-0.88,0.681-1.616c0-0.676-0.231-1.178-0.694-1.504
		c-0.463-0.327-1.166-0.49-2.109-0.49H157.858z"/>
	<path fill="#58595B" d="M174.49,188.953l-0.294-1.291h-0.107c-0.29,0.457-0.704,0.816-1.241,1.077
		c-0.538,0.261-1.15,0.392-1.839,0.392c-1.193,0-2.083-0.297-2.671-0.891c-0.588-0.593-0.882-1.493-0.882-2.697v-6.437h2.11v6.072
		c0,0.754,0.154,1.319,0.463,1.696c0.309,0.377,0.793,0.565,1.451,0.565c0.879,0,1.524-0.263,1.937-0.788
		c0.412-0.525,0.619-1.405,0.619-2.64v-4.905h2.101v9.847H174.49z"/>
	<path fill="#58595B" d="M185.734,186.148c0,0.962-0.35,1.699-1.05,2.212c-0.701,0.514-1.704,0.771-3.01,0.771
		c-1.312,0-2.365-0.199-3.16-0.597v-1.807c1.157,0.534,2.234,0.801,3.231,0.801c1.288,0,1.932-0.389,1.932-1.167
		c0-0.249-0.071-0.457-0.213-0.623c-0.143-0.166-0.377-0.338-0.704-0.517c-0.326-0.178-0.78-0.38-1.362-0.604
		c-1.133-0.439-1.9-0.878-2.301-1.317c-0.4-0.439-0.602-1.009-0.602-1.709c0-0.843,0.34-1.497,1.02-1.963
		c0.68-0.466,1.604-0.699,2.773-0.699c1.157,0,2.253,0.234,3.285,0.704l-0.677,1.576c-1.063-0.439-1.955-0.659-2.68-0.659
		c-1.104,0-1.655,0.314-1.655,0.943c0,0.309,0.144,0.57,0.432,0.784c0.287,0.214,0.915,0.507,1.883,0.881
		c0.813,0.313,1.403,0.603,1.771,0.864c0.368,0.261,0.641,0.563,0.819,0.903C185.646,185.266,185.734,185.673,185.734,186.148z"/>
	<path fill="#58595B" d="M187.871,176.497c0-0.374,0.103-0.662,0.308-0.863c0.204-0.202,0.496-0.303,0.876-0.303
		c0.368,0,0.655,0.101,0.859,0.303c0.205,0.202,0.308,0.49,0.308,0.863c0,0.356-0.103,0.637-0.308,0.841
		c-0.204,0.205-0.491,0.308-0.859,0.308c-0.38,0-0.672-0.103-0.876-0.308C187.974,177.134,187.871,176.854,187.871,176.497z
		 M190.088,188.953h-2.092v-9.847h2.092V188.953z"/>
	<path fill="#58595B" d="M201.742,188.953h-2.101v-6.054c0-0.76-0.153-1.327-0.459-1.7c-0.306-0.374-0.791-0.561-1.455-0.561
		c-0.885,0-1.532,0.261-1.941,0.784c-0.409,0.522-0.614,1.397-0.614,2.626v4.906h-2.092v-9.847h1.638l0.294,1.291h0.106
		c0.297-0.469,0.719-0.831,1.265-1.086c0.546-0.255,1.151-0.383,1.816-0.383c2.362,0,3.543,1.202,3.543,3.606V188.953z"/>
	<path fill="#58595B" d="M208.954,189.131c-1.531,0-2.729-0.447-3.593-1.34c-0.863-0.894-1.295-2.124-1.295-3.69
		c0-1.608,0.4-2.873,1.202-3.793c0.801-0.92,1.902-1.38,3.303-1.38c1.3,0,2.326,0.396,3.08,1.184
		c0.754,0.79,1.131,1.875,1.131,3.259v1.13h-6.563c0.029,0.956,0.288,1.69,0.774,2.204c0.487,0.514,1.173,0.77,2.057,0.77
		c0.582,0,1.123-0.055,1.625-0.165s1.04-0.292,1.616-0.547v1.7c-0.511,0.244-1.027,0.416-1.55,0.517
		C210.222,189.08,209.625,189.131,208.954,189.131z M208.571,180.513c-0.665,0-1.197,0.21-1.598,0.632s-0.64,1.036-0.717,1.843
		h4.469c-0.012-0.813-0.208-1.429-0.587-1.848C209.758,180.722,209.236,180.513,208.571,180.513z"/>
	<path fill="#58595B" d="M221.774,186.148c0,0.962-0.35,1.699-1.05,2.212c-0.701,0.514-1.704,0.771-3.01,0.771
		c-1.312,0-2.365-0.199-3.16-0.597v-1.807c1.157,0.534,2.234,0.801,3.231,0.801c1.288,0,1.932-0.389,1.932-1.167
		c0-0.249-0.071-0.457-0.213-0.623c-0.143-0.166-0.377-0.338-0.704-0.517c-0.326-0.178-0.78-0.38-1.362-0.604
		c-1.133-0.439-1.9-0.878-2.301-1.317c-0.4-0.439-0.602-1.009-0.602-1.709c0-0.843,0.34-1.497,1.02-1.963
		c0.68-0.466,1.604-0.699,2.773-0.699c1.157,0,2.253,0.234,3.285,0.704l-0.677,1.576c-1.063-0.439-1.955-0.659-2.68-0.659
		c-1.104,0-1.655,0.314-1.655,0.943c0,0.309,0.144,0.57,0.432,0.784c0.287,0.214,0.915,0.507,1.883,0.881
		c0.813,0.313,1.403,0.603,1.771,0.864s0.641,0.563,0.819,0.903C221.686,185.266,221.774,185.673,221.774,186.148z"/>
	<path fill="#58595B" d="M230.65,186.148c0,0.962-0.35,1.699-1.05,2.212c-0.701,0.514-1.704,0.771-3.01,0.771
		c-1.312,0-2.365-0.199-3.16-0.597v-1.807c1.157,0.534,2.234,0.801,3.231,0.801c1.288,0,1.932-0.389,1.932-1.167
		c0-0.249-0.071-0.457-0.213-0.623c-0.143-0.166-0.377-0.338-0.704-0.517c-0.326-0.178-0.78-0.38-1.362-0.604
		c-1.133-0.439-1.9-0.878-2.301-1.317c-0.4-0.439-0.602-1.009-0.602-1.709c0-0.843,0.34-1.497,1.02-1.963
		c0.68-0.466,1.604-0.699,2.773-0.699c1.157,0,2.253,0.234,3.285,0.704l-0.677,1.576c-1.063-0.439-1.955-0.659-2.68-0.659
		c-1.104,0-1.655,0.314-1.655,0.943c0,0.309,0.144,0.57,0.432,0.784c0.287,0.214,0.915,0.507,1.883,0.881
		c0.813,0.313,1.403,0.603,1.771,0.864s0.641,0.563,0.819,0.903C230.562,185.266,230.65,185.673,230.65,186.148z"/>
	<path fill="#58595B" d="M166.329,210.833l-3.774-10.871h-0.071c0.101,1.615,0.151,3.128,0.151,4.541v6.33h-1.932v-13.016h3
		l3.614,10.354h0.054l3.722-10.354h3.009v13.016h-2.048v-6.437c0-0.647,0.017-1.49,0.049-2.528c0.033-1.039,0.062-1.668,0.085-1.888
		h-0.071l-3.908,10.853H166.329z"/>
	<path fill="#58595B" d="M177.183,198.377c0-0.374,0.103-0.662,0.308-0.863c0.204-0.202,0.496-0.303,0.876-0.303
		c0.368,0,0.655,0.101,0.859,0.303c0.205,0.202,0.308,0.49,0.308,0.863c0,0.356-0.103,0.637-0.308,0.841
		c-0.204,0.205-0.491,0.308-0.859,0.308c-0.38,0-0.672-0.103-0.876-0.308C177.285,199.014,177.183,198.733,177.183,198.377z
		 M179.399,210.833h-2.092v-9.847h2.092V210.833z"/>
	<path fill="#58595B" d="M189.006,208.028c0,0.962-0.35,1.699-1.05,2.212c-0.701,0.514-1.704,0.771-3.01,0.771
		c-1.312,0-2.365-0.199-3.16-0.597v-1.807c1.157,0.534,2.234,0.801,3.231,0.801c1.288,0,1.932-0.389,1.932-1.167
		c0-0.249-0.071-0.457-0.213-0.623c-0.143-0.166-0.377-0.338-0.704-0.517c-0.326-0.178-0.78-0.38-1.362-0.605
		c-1.133-0.439-1.9-0.878-2.301-1.317c-0.4-0.438-0.602-1.009-0.602-1.709c0-0.843,0.34-1.497,1.02-1.963
		c0.68-0.466,1.604-0.699,2.773-0.699c1.157,0,2.253,0.234,3.285,0.704l-0.677,1.576c-1.063-0.439-1.955-0.659-2.68-0.659
		c-1.104,0-1.655,0.314-1.655,0.943c0,0.309,0.144,0.57,0.432,0.784c0.287,0.214,0.915,0.507,1.883,0.881
		c0.813,0.314,1.403,0.603,1.771,0.864c0.368,0.261,0.641,0.563,0.819,0.903C188.917,207.146,189.006,207.553,189.006,208.028z"/>
	<path fill="#58595B" d="M197.882,208.028c0,0.962-0.35,1.699-1.05,2.212c-0.701,0.514-1.704,0.771-3.01,0.771
		c-1.313,0-2.365-0.199-3.16-0.597v-1.807c1.157,0.534,2.234,0.801,3.231,0.801c1.288,0,1.932-0.389,1.932-1.167
		c0-0.249-0.071-0.457-0.213-0.623c-0.143-0.166-0.377-0.338-0.704-0.517c-0.326-0.178-0.78-0.38-1.362-0.605
		c-1.133-0.439-1.9-0.878-2.301-1.317c-0.4-0.438-0.602-1.009-0.602-1.709c0-0.843,0.34-1.497,1.02-1.963
		c0.68-0.466,1.604-0.699,2.773-0.699c1.157,0,2.253,0.234,3.285,0.704l-0.677,1.576c-1.063-0.439-1.955-0.659-2.68-0.659
		c-1.104,0-1.655,0.314-1.655,0.943c0,0.309,0.144,0.57,0.432,0.784c0.287,0.214,0.915,0.507,1.883,0.881
		c0.813,0.314,1.403,0.603,1.771,0.864c0.368,0.261,0.641,0.563,0.819,0.903C197.793,207.146,197.882,207.553,197.882,208.028z"/>
	<path fill="#58595B" d="M200.019,198.377c0-0.374,0.103-0.662,0.308-0.863c0.204-0.202,0.496-0.303,0.876-0.303
		c0.368,0,0.655,0.101,0.859,0.303c0.205,0.202,0.308,0.49,0.308,0.863c0,0.356-0.103,0.637-0.308,0.841
		c-0.204,0.205-0.491,0.308-0.859,0.308c-0.38,0-0.672-0.103-0.876-0.308C200.121,199.014,200.019,198.733,200.019,198.377z
		 M202.235,210.833h-2.092v-9.847h2.092V210.833z"/>
	<path fill="#58595B" d="M213.961,205.891c0,1.609-0.412,2.864-1.237,3.766c-0.825,0.902-1.974,1.354-3.445,1.354
		c-0.92,0-1.733-0.208-2.439-0.624c-0.707-0.415-1.25-1.012-1.63-1.79c-0.38-0.777-0.569-1.679-0.569-2.707
		c0-1.596,0.409-2.843,1.229-3.739c0.819-0.896,1.974-1.344,3.463-1.344c1.425,0,2.553,0.458,3.384,1.375
		S213.961,204.336,213.961,205.891z M206.794,205.891c0,2.273,0.84,3.41,2.52,3.41c1.662,0,2.493-1.137,2.493-3.41
		c0-2.249-0.837-3.374-2.511-3.374c-0.879,0-1.515,0.291-1.91,0.873C206.991,203.971,206.794,204.805,206.794,205.891z"/>
	<path fill="#58595B" d="M225.027,210.833h-2.101v-6.054c0-0.76-0.153-1.327-0.459-1.7c-0.306-0.374-0.791-0.561-1.455-0.561
		c-0.885,0-1.532,0.261-1.941,0.784c-0.409,0.522-0.614,1.397-0.614,2.626v4.906h-2.092v-9.847h1.638l0.294,1.291h0.106
		c0.297-0.469,0.719-0.831,1.265-1.086c0.546-0.255,1.151-0.383,1.816-0.383c2.362,0,3.543,1.202,3.543,3.606V210.833z"/>
</g>
<circle fill="#FFFFFF" cx="324.678" cy="294.08" r="54.628"/>
<g>
	<path fill="#58595B" d="M289.069,275.547h3.863c1.793,0,3.088,0.261,3.887,0.783c0.798,0.522,1.197,1.348,1.197,2.475
		c0,0.76-0.196,1.392-0.588,1.896c-0.392,0.504-0.956,0.822-1.691,0.953v0.089c0.914,0.172,1.586,0.512,2.017,1.02
		c0.43,0.507,0.646,1.194,0.646,2.063c0,1.169-0.408,2.085-1.225,2.747c-0.815,0.662-1.951,0.993-3.405,0.993h-4.7L289.069,275.547
		L289.069,275.547z M291.196,280.924h2.048c0.891,0,1.54-0.141,1.95-0.423c0.409-0.282,0.614-0.761,0.614-1.438
		c0-0.611-0.222-1.054-0.663-1.327c-0.442-0.273-1.145-0.41-2.105-0.41h-1.844V280.924z M291.196,282.651v4.122h2.262
		c0.891,0,1.563-0.17,2.017-0.512c0.454-0.342,0.681-0.88,0.681-1.616c0-0.676-0.231-1.178-0.694-1.504
		c-0.463-0.327-1.166-0.49-2.109-0.49H291.196z"/>
	<path fill="#58595B" d="M307.828,288.563l-0.294-1.291h-0.107c-0.29,0.457-0.704,0.816-1.241,1.077
		c-0.538,0.261-1.15,0.392-1.839,0.392c-1.193,0-2.083-0.297-2.671-0.891c-0.588-0.593-0.882-1.493-0.882-2.697v-6.437h2.11v6.072
		c0,0.754,0.154,1.319,0.463,1.696c0.309,0.377,0.793,0.565,1.451,0.565c0.879,0,1.524-0.263,1.937-0.788
		c0.412-0.525,0.619-1.405,0.619-2.64v-4.905h2.101v9.847H307.828z"/>
	<path fill="#58595B" d="M319.072,285.758c0,0.962-0.35,1.699-1.05,2.212c-0.701,0.514-1.704,0.771-3.01,0.771
		c-1.312,0-2.365-0.199-3.16-0.597v-1.807c1.157,0.534,2.234,0.801,3.231,0.801c1.288,0,1.932-0.389,1.932-1.167
		c0-0.249-0.071-0.457-0.213-0.623c-0.143-0.166-0.377-0.338-0.704-0.517c-0.326-0.178-0.78-0.38-1.362-0.605
		c-1.133-0.439-1.9-0.878-2.301-1.317c-0.4-0.439-0.602-1.009-0.602-1.709c0-0.843,0.34-1.497,1.02-1.963
		c0.68-0.466,1.604-0.699,2.773-0.699c1.157,0,2.253,0.234,3.285,0.704l-0.677,1.576c-1.063-0.439-1.955-0.659-2.68-0.659
		c-1.104,0-1.655,0.314-1.655,0.943c0,0.309,0.144,0.57,0.432,0.784c0.287,0.214,0.915,0.507,1.883,0.881
		c0.813,0.314,1.403,0.603,1.771,0.864c0.368,0.261,0.641,0.563,0.819,0.903C318.983,284.876,319.072,285.284,319.072,285.758z"/>
	<path fill="#58595B" d="M321.209,276.107c0-0.374,0.103-0.662,0.308-0.863c0.204-0.202,0.496-0.303,0.876-0.303
		c0.368,0,0.655,0.101,0.859,0.303c0.205,0.202,0.308,0.49,0.308,0.863c0,0.356-0.103,0.637-0.308,0.841
		c-0.204,0.205-0.491,0.308-0.859,0.308c-0.38,0-0.672-0.103-0.876-0.308C321.312,276.744,321.209,276.464,321.209,276.107z
		 M323.426,288.563h-2.092v-9.847h2.092V288.563z"/>
	<path fill="#58595B" d="M335.08,288.563h-2.101v-6.054c0-0.76-0.153-1.327-0.459-1.7c-0.306-0.374-0.791-0.561-1.455-0.561
		c-0.885,0-1.532,0.261-1.941,0.784c-0.409,0.521-0.614,1.396-0.614,2.626v4.906h-2.092v-9.847h1.638l0.294,1.291h0.106
		c0.297-0.469,0.719-0.831,1.265-1.086c0.546-0.255,1.151-0.383,1.816-0.383c2.362,0,3.543,1.202,3.543,3.606V288.563z"/>
	<path fill="#58595B" d="M342.292,288.741c-1.531,0-2.729-0.447-3.593-1.34c-0.863-0.894-1.295-2.124-1.295-3.69
		c0-1.608,0.4-2.873,1.202-3.793c0.801-0.92,1.902-1.38,3.303-1.38c1.3,0,2.326,0.395,3.08,1.184
		c0.754,0.79,1.131,1.875,1.131,3.259v1.13h-6.562c0.029,0.956,0.288,1.69,0.774,2.204c0.487,0.514,1.173,0.77,2.057,0.77
		c0.582,0,1.123-0.055,1.625-0.165c0.502-0.11,1.04-0.292,1.616-0.547v1.7c-0.511,0.244-1.027,0.416-1.55,0.517
		C343.56,288.69,342.963,288.741,342.292,288.741z M341.909,280.123c-0.665,0-1.197,0.21-1.598,0.632s-0.64,1.036-0.717,1.843h4.469
		c-0.012-0.813-0.208-1.429-0.587-1.848C343.096,280.332,342.574,280.123,341.909,280.123z"/>
	<path fill="#58595B" d="M355.112,285.758c0,0.962-0.35,1.699-1.05,2.212c-0.701,0.514-1.704,0.771-3.01,0.771
		c-1.312,0-2.365-0.199-3.16-0.597v-1.807c1.157,0.534,2.234,0.801,3.231,0.801c1.288,0,1.932-0.389,1.932-1.167
		c0-0.249-0.071-0.457-0.213-0.623c-0.143-0.166-0.377-0.338-0.704-0.517c-0.326-0.178-0.78-0.38-1.362-0.605
		c-1.133-0.439-1.9-0.878-2.301-1.317c-0.4-0.439-0.602-1.009-0.602-1.709c0-0.843,0.34-1.497,1.02-1.963
		c0.68-0.466,1.604-0.699,2.773-0.699c1.157,0,2.253,0.234,3.285,0.704l-0.677,1.576c-1.063-0.439-1.955-0.659-2.68-0.659
		c-1.104,0-1.655,0.314-1.655,0.943c0,0.309,0.144,0.57,0.432,0.784c0.287,0.214,0.915,0.507,1.883,0.881
		c0.813,0.314,1.403,0.603,1.771,0.864c0.368,0.261,0.641,0.563,0.819,0.903C355.023,284.876,355.112,285.284,355.112,285.758z"/>
	<path fill="#58595B" d="M363.988,285.758c0,0.962-0.35,1.699-1.05,2.212c-0.701,0.514-1.704,0.771-3.01,0.771
		c-1.312,0-2.365-0.199-3.16-0.597v-1.807c1.157,0.534,2.234,0.801,3.231,0.801c1.288,0,1.932-0.389,1.932-1.167
		c0-0.249-0.071-0.457-0.213-0.623c-0.143-0.166-0.377-0.338-0.704-0.517c-0.326-0.178-0.78-0.38-1.362-0.605
		c-1.133-0.439-1.9-0.878-2.301-1.317c-0.4-0.439-0.602-1.009-0.602-1.709c0-0.843,0.34-1.497,1.02-1.963
		c0.68-0.466,1.604-0.699,2.773-0.699c1.157,0,2.253,0.234,3.285,0.704l-0.677,1.576c-1.063-0.439-1.955-0.659-2.68-0.659
		c-1.104,0-1.655,0.314-1.655,0.943c0,0.309,0.144,0.57,0.432,0.784c0.287,0.214,0.915,0.507,1.883,0.881
		c0.813,0.314,1.403,0.603,1.771,0.864c0.368,0.261,0.641,0.563,0.819,0.903C363.899,284.876,363.988,285.284,363.988,285.758z"/>
	<path fill="#58595B" d="M308.637,303.382h4.79v6.535c-0.783,0.256-1.536,0.437-2.257,0.543c-0.721,0.107-1.5,0.16-2.337,0.16
		c-1.971,0-3.49-0.584-4.559-1.75s-1.603-2.812-1.603-4.937c0-2.096,0.603-3.735,1.808-4.92c1.205-1.184,2.863-1.776,4.977-1.776
		c1.359,0,2.647,0.261,3.864,0.783l-0.748,1.772c-1.057-0.486-2.113-0.73-3.17-0.73c-1.389,0-2.486,0.438-3.294,1.31
		c-0.807,0.873-1.211,2.065-1.211,3.58c0,1.59,0.364,2.799,1.091,3.627c0.728,0.828,1.773,1.242,3.139,1.242
		c0.688,0,1.424-0.086,2.208-0.259v-3.356h-2.698L308.637,303.382L308.637,303.382z"/>
	<path fill="#58595B" d="M325.063,305.501c0,1.607-0.412,2.863-1.237,3.766c-0.825,0.904-1.974,1.355-3.445,1.355
		c-0.92,0-1.733-0.207-2.439-0.623c-0.707-0.416-1.25-1.012-1.63-1.789s-0.569-1.68-0.569-2.707c0-1.598,0.409-2.844,1.229-3.739
		c0.819-0.896,1.974-1.345,3.463-1.345c1.425,0,2.553,0.459,3.384,1.375C324.648,302.71,325.063,303.947,325.063,305.501z
		 M317.896,305.501c0,2.273,0.84,3.41,2.52,3.41c1.662,0,2.493-1.137,2.493-3.41c0-2.25-0.837-3.375-2.511-3.375
		c-0.879,0-1.515,0.291-1.91,0.873C318.093,303.581,317.896,304.416,317.896,305.501z"/>
	<path fill="#58595B" d="M333.628,310.443l-0.418-1.371h-0.071c-0.475,0.6-0.953,1.008-1.434,1.225
		c-0.48,0.215-1.098,0.324-1.852,0.324c-0.968,0-1.723-0.262-2.266-0.783c-0.543-0.521-0.814-1.262-0.814-2.217
		c0-1.016,0.376-1.781,1.13-2.297c0.754-0.518,1.902-0.799,3.445-0.846l1.701-0.056v-0.524c0-0.629-0.147-1.101-0.44-1.41
		c-0.294-0.313-0.75-0.467-1.367-0.467c-0.505,0-0.988,0.073-1.451,0.223c-0.463,0.146-0.908,0.322-1.335,0.523l-0.677-1.494
		c0.534-0.279,1.118-0.492,1.754-0.638c0.635-0.146,1.234-0.219,1.798-0.219c1.253,0,2.198,0.272,2.836,0.817
		c0.638,0.548,0.957,1.404,0.957,2.574v6.634L333.628,310.443L333.628,310.443z M330.513,309.017c0.759,0,1.369-0.211,1.829-0.637
		c0.46-0.424,0.69-1.018,0.69-1.783v-0.854l-1.265,0.053c-0.985,0.037-1.702,0.201-2.15,0.494c-0.448,0.295-0.672,0.744-0.672,1.35
		c0,0.439,0.131,0.779,0.392,1.021C329.598,308.902,329.99,309.017,330.513,309.017z"/>
	<path fill="#58595B" d="M340.137,310.443h-2.092v-13.854h2.092V310.443z"/>
	<path fill="#58595B" d="M349.743,307.638c0,0.961-0.35,1.699-1.05,2.213c-0.701,0.517-1.704,0.771-3.01,0.771
		c-1.312,0-2.365-0.199-3.16-0.596v-1.812c1.157,0.535,2.234,0.801,3.231,0.801c1.288,0,1.932-0.389,1.932-1.166
		c0-0.248-0.071-0.457-0.213-0.623c-0.143-0.164-0.377-0.338-0.704-0.516c-0.326-0.178-0.78-0.381-1.362-0.604
		c-1.133-0.439-1.9-0.881-2.301-1.318c-0.401-0.439-0.602-1.008-0.602-1.709c0-0.842,0.34-1.498,1.02-1.963
		c0.68-0.469,1.604-0.699,2.773-0.699c1.157,0,2.253,0.232,3.285,0.703l-0.677,1.576c-1.063-0.439-1.955-0.658-2.68-0.658
		c-1.104,0-1.655,0.313-1.655,0.941c0,0.311,0.144,0.569,0.432,0.783c0.287,0.213,0.915,0.508,1.883,0.881
		c0.813,0.313,1.403,0.604,1.771,0.862c0.368,0.263,0.641,0.564,0.819,0.904C349.654,306.755,349.743,307.164,349.743,307.638z"/>
</g>
<path fill="#FFFFFF" d="M503.974,431.228c0,34.595-28.045,62.636-62.637,62.636c-34.595,0-62.635-28.041-62.635-62.636
	c0-34.594,28.04-62.637,62.635-62.637C475.929,368.591,503.974,396.634,503.974,431.228z"/>
<g>
	<path fill="#58595B" d="M401.661,418.041c0,2.148-0.597,3.791-1.789,4.928c-1.193,1.14-2.911,1.705-5.155,1.705h-3.641v-13.016
		h4.023c2.071,0,3.683,0.559,4.833,1.674C401.086,414.447,401.661,416.017,401.661,418.041z M399.418,418.113
		c0-3.117-1.457-4.674-4.371-4.674h-1.844v9.444h1.514C397.851,422.884,399.418,421.294,399.418,418.113z"/>
	<path fill="#58595B" d="M408.534,424.851c-1.531,0-2.729-0.442-3.593-1.34c-0.863-0.893-1.295-2.123-1.295-3.688
		c0-1.609,0.398-2.873,1.2-3.793c0.803-0.92,1.902-1.379,3.305-1.379c1.3,0,2.324,0.395,3.079,1.184s1.132,1.875,1.132,3.258v1.131
		H405.8c0.029,0.955,0.288,1.689,0.774,2.203c0.485,0.515,1.173,0.771,2.057,0.771c0.582,0,1.123-0.058,1.625-0.166
		c0.502-0.109,1.04-0.291,1.616-0.547v1.698c-0.511,0.242-1.027,0.414-1.55,0.519C409.802,424.802,409.205,424.851,408.534,424.851z
		 M408.151,416.234c-0.665,0-1.197,0.211-1.6,0.633c-0.399,0.42-0.64,1.035-0.717,1.842h4.469c-0.012-0.813-0.208-1.428-0.587-1.848
		C409.338,416.443,408.816,416.234,408.151,416.234z"/>
	<path fill="#58595B" d="M419.734,424.851c-1.246,0-2.215-0.444-2.902-1.344h-0.125c0.083,0.832,0.125,1.336,0.125,1.517v4.03
		h-2.092v-14.227h1.689c0.049,0.184,0.146,0.623,0.294,1.315h0.106c0.653-0.995,1.632-1.493,2.938-1.493
		c1.229,0,2.187,0.442,2.873,1.334c0.686,0.891,1.027,2.141,1.027,3.748c0,1.608-0.348,2.864-1.047,3.768
		C421.925,424.402,420.963,424.851,419.734,424.851z M419.227,416.359c-0.83,0-1.438,0.241-1.818,0.729
		c-0.383,0.486-0.574,1.265-0.574,2.332v0.312c0,1.198,0.188,2.067,0.57,2.604c0.379,0.537,1,0.805,1.858,0.805
		c0.726,0,1.282-0.297,1.675-0.891c0.393-0.592,0.587-1.438,0.587-2.537c0-1.104-0.195-1.938-0.583-2.506
		C420.552,416.64,419.98,416.359,419.227,416.359z"/>
	<path fill="#58595B" d="M432.261,424.673l-0.418-1.371h-0.072c-0.475,0.603-0.951,1.008-1.434,1.228
		c-0.48,0.217-1.098,0.321-1.852,0.321c-0.971,0-1.725-0.26-2.268-0.78c-0.543-0.521-0.813-1.263-0.813-2.22
		c0-1.014,0.377-1.776,1.131-2.297c0.754-0.516,1.898-0.797,3.445-0.846l1.697-0.053v-0.525c0-0.629-0.145-1.1-0.438-1.412
		c-0.293-0.311-0.75-0.467-1.367-0.467c-0.504,0-0.988,0.074-1.451,0.223c-0.463,0.15-0.908,0.324-1.334,0.525l-0.678-1.496
		c0.535-0.279,1.119-0.49,1.754-0.637c0.635-0.146,1.234-0.217,1.799-0.217c1.252,0,2.197,0.271,2.836,0.817
		c0.637,0.547,0.957,1.404,0.957,2.572v6.633L432.261,424.673L432.261,424.673z M429.146,423.25c0.76,0,1.369-0.213,1.828-0.637
		c0.461-0.424,0.691-1.021,0.691-1.785v-0.855l-1.266,0.058c-0.984,0.032-1.701,0.196-2.15,0.492
		c-0.447,0.295-0.672,0.741-0.672,1.35c0,0.438,0.131,0.779,0.393,1.02C428.23,423.13,428.623,423.25,429.146,423.25z"/>
	<path fill="#58595B" d="M441.671,414.65c0.422,0,0.77,0.028,1.043,0.088l-0.205,1.949c-0.297-0.07-0.605-0.105-0.926-0.105
		c-0.838,0-1.516,0.273-2.035,0.818c-0.52,0.547-0.779,1.256-0.779,2.129v5.145h-2.092v-9.846h1.639l0.275,1.736h0.107
		c0.326-0.589,0.752-1.056,1.273-1.398C440.5,414.824,441.066,414.65,441.671,414.65z"/>
	<path fill="#58595B" d="M448.207,423.16c0.51,0,1.021-0.08,1.531-0.24v1.576c-0.23,0.102-0.529,0.186-0.895,0.254
		c-0.367,0.068-0.744,0.102-1.137,0.102c-1.982,0-2.973-1.043-2.973-3.133v-5.307h-1.348v-0.926l1.441-0.767l0.713-2.084h1.291
		v2.191h2.805v1.584h-2.805v5.27c0,0.504,0.127,0.877,0.379,1.117S447.796,423.16,448.207,423.16z"/>
	<path fill="#58595B" d="M460.003,424.673h-2.102v-6.072c0-0.752-0.145-1.313-0.43-1.686c-0.285-0.371-0.729-0.557-1.336-0.557
		c-0.807,0-1.396,0.262-1.773,0.786c-0.377,0.525-0.564,1.4-0.564,2.623v4.904h-2.092v-9.846h1.637l0.295,1.291h0.105
		c0.271-0.469,0.67-0.832,1.188-1.086c0.521-0.256,1.092-0.383,1.715-0.383c1.514,0,2.518,0.516,3.01,1.549h0.143
		c0.291-0.486,0.701-0.867,1.23-1.144c0.527-0.272,1.133-0.405,1.814-0.405c1.176,0,2.031,0.297,2.568,0.889
		c0.537,0.594,0.807,1.5,0.807,2.717v6.418h-2.094V418.6c0-0.752-0.146-1.313-0.432-1.686c-0.287-0.373-0.734-0.557-1.342-0.557
		c-0.813,0-1.406,0.254-1.783,0.76c-0.377,0.508-0.564,1.287-0.564,2.338V424.673L460.003,424.673z"/>
	<path fill="#58595B" d="M473.437,424.851c-1.529,0-2.729-0.442-3.592-1.34c-0.863-0.893-1.295-2.123-1.295-3.688
		c0-1.609,0.4-2.873,1.201-3.793s1.902-1.379,3.303-1.379c1.301,0,2.326,0.395,3.08,1.184s1.131,1.875,1.131,3.258v1.131h-6.561
		c0.029,0.955,0.287,1.689,0.771,2.203c0.486,0.515,1.176,0.771,2.059,0.771c0.582,0,1.123-0.058,1.625-0.166
		c0.502-0.109,1.041-0.291,1.617-0.547v1.698c-0.514,0.242-1.027,0.414-1.553,0.519
		C474.707,424.802,474.109,424.851,473.437,424.851z M473.056,416.234c-0.666,0-1.197,0.211-1.598,0.633
		c-0.402,0.42-0.641,1.035-0.717,1.842h4.469c-0.012-0.813-0.209-1.428-0.588-1.848C474.242,416.443,473.72,416.234,473.056,416.234
		z"/>
	<path fill="#58595B" d="M488.306,424.673h-2.1v-6.053c0-0.76-0.154-1.328-0.459-1.701c-0.309-0.375-0.791-0.561-1.455-0.561
		c-0.885,0-1.533,0.262-1.941,0.782c-0.408,0.521-0.613,1.398-0.613,2.627v4.904h-2.094v-9.846h1.639l0.295,1.291h0.105
		c0.297-0.469,0.719-0.832,1.266-1.086c0.545-0.256,1.15-0.383,1.814-0.383c2.363,0,3.543,1.198,3.543,3.604V424.673z"/>
	<path fill="#58595B" d="M494.886,423.16c0.51,0,1.021-0.08,1.531-0.24v1.576c-0.23,0.102-0.529,0.186-0.896,0.254
		c-0.365,0.068-0.742,0.102-1.137,0.102c-1.979,0-2.973-1.043-2.973-3.133v-5.307h-1.344v-0.926l1.439-0.767l0.713-2.084h1.291
		v2.191h2.805v1.584h-2.805v5.27c0,0.504,0.127,0.877,0.379,1.117S494.476,423.16,494.886,423.16z"/>
	<path fill="#58595B" d="M425.708,439.494h4.789v6.535c-0.783,0.256-1.535,0.436-2.256,0.543c-0.725,0.106-1.5,0.16-2.338,0.16
		c-1.973,0-3.49-0.584-4.56-1.75c-1.067-1.166-1.603-2.812-1.603-4.937c0-2.096,0.603-3.736,1.807-4.92
		c1.205-1.184,2.863-1.775,4.979-1.775c1.357,0,2.645,0.261,3.861,0.783l-0.748,1.771c-1.057-0.486-2.109-0.73-3.17-0.73
		c-1.389,0-2.482,0.438-3.293,1.31c-0.807,0.873-1.211,2.065-1.211,3.579c0,1.591,0.363,2.8,1.09,3.628
		c0.73,0.827,1.773,1.241,3.143,1.241c0.688,0,1.424-0.086,2.207-0.258v-3.356h-2.697V439.494L425.708,439.494z"/>
	<path fill="#58595B" d="M442.134,441.613c0,1.606-0.412,2.862-1.236,3.766c-0.824,0.904-1.975,1.355-3.445,1.355
		c-0.92,0-1.732-0.207-2.439-0.623s-1.25-1.015-1.629-1.789c-0.381-0.777-0.566-1.683-0.566-2.707c0-1.601,0.406-2.847,1.229-3.74
		c0.818-0.895,1.973-1.344,3.463-1.344c1.424,0,2.553,0.459,3.383,1.375S442.134,440.058,442.134,441.613z M434.968,441.613
		c0,2.272,0.84,3.41,2.52,3.41c1.662,0,2.492-1.138,2.492-3.41c0-2.25-0.836-3.375-2.51-3.375c-0.879,0-1.516,0.291-1.91,0.873
		S434.968,440.527,434.968,441.613z"/>
	<path fill="#58595B" d="M450.699,446.554l-0.418-1.371h-0.07c-0.475,0.603-0.953,1.011-1.434,1.228
		c-0.48,0.215-1.1,0.324-1.854,0.324c-0.967,0-1.723-0.265-2.266-0.783c-0.543-0.523-0.814-1.262-0.814-2.217
		c0-1.019,0.377-1.781,1.131-2.3c0.754-0.518,1.902-0.799,3.445-0.846l1.701-0.055v-0.525c0-0.629-0.148-1.1-0.441-1.41
		c-0.293-0.313-0.75-0.467-1.367-0.467c-0.504,0-0.986,0.074-1.449,0.226c-0.463,0.145-0.908,0.319-1.336,0.521l-0.678-1.494
		c0.535-0.276,1.119-0.492,1.754-0.637c0.637-0.146,1.234-0.219,1.799-0.219c1.254,0,2.197,0.272,2.836,0.817
		c0.639,0.547,0.957,1.404,0.957,2.574v6.633L450.699,446.554L450.699,446.554z M447.583,445.128c0.76,0,1.369-0.211,1.83-0.637
		c0.459-0.424,0.688-1.019,0.688-1.783v-0.855l-1.266,0.056c-0.984,0.037-1.701,0.201-2.15,0.494
		c-0.445,0.295-0.672,0.741-0.672,1.35c0,0.439,0.133,0.779,0.395,1.02C446.669,445.011,447.062,445.128,447.583,445.128z"/>
	<path fill="#58595B" d="M457.208,446.554h-2.092V432.7h2.092V446.554z"/>
	<path fill="#58595B" d="M466.814,443.75c0,0.961-0.35,1.699-1.051,2.213s-1.703,0.771-3.01,0.771c-1.311,0-2.365-0.199-3.16-0.599
		v-1.809c1.158,0.535,2.234,0.801,3.232,0.801c1.287,0,1.932-0.389,1.932-1.166c0-0.248-0.072-0.457-0.213-0.623
		c-0.143-0.166-0.377-0.338-0.705-0.516c-0.326-0.178-0.779-0.381-1.361-0.605c-1.133-0.438-1.9-0.879-2.301-1.315
		c-0.4-0.439-0.602-1.011-0.602-1.709c0-0.845,0.34-1.498,1.02-1.965c0.68-0.468,1.604-0.697,2.773-0.697
		c1.156,0,2.252,0.231,3.285,0.703l-0.68,1.573c-1.063-0.438-1.955-0.655-2.68-0.655c-1.104,0-1.656,0.313-1.656,0.94
		c0,0.312,0.146,0.57,0.436,0.783c0.287,0.213,0.914,0.508,1.883,0.881c0.813,0.314,1.402,0.605,1.77,0.863
		c0.369,0.262,0.643,0.563,0.82,0.904C466.726,442.867,466.814,443.275,466.814,443.75z"/>
</g>
<circle fill="#FFFFFF" cx="563.246" cy="322.818" r="41.97"/>
<g>
	<path fill="#58595B" d="M552.289,303.016c0,1.647-0.457,2.909-1.373,3.782s-2.236,1.312-3.959,1.312h-2.795v-9.995h3.09
		c1.59,0,2.828,0.428,3.711,1.284C551.847,300.255,552.289,301.46,552.289,303.016z M550.566,303.07c0-2.394-1.119-3.59-3.355-3.59
		h-1.416v7.254h1.162C549.363,306.734,550.566,305.511,550.566,303.07z"/>
	<path fill="#58595B" d="M554.169,298.544c0-0.287,0.078-0.508,0.236-0.664c0.152-0.155,0.381-0.232,0.672-0.232
		c0.283,0,0.504,0.077,0.66,0.232c0.154,0.155,0.232,0.376,0.232,0.664c0,0.272-0.078,0.488-0.232,0.646
		c-0.156,0.158-0.377,0.235-0.66,0.235c-0.291,0-0.52-0.077-0.672-0.235C554.248,299.033,554.169,298.818,554.169,298.544z
		 M555.871,308.107h-1.605v-7.562h1.605V308.107z"/>
	<path fill="#58595B" d="M564.552,300.546v0.884l-1.291,0.237c0.117,0.16,0.217,0.354,0.293,0.588
		c0.078,0.234,0.117,0.479,0.117,0.738c0,0.778-0.27,1.394-0.807,1.84c-0.539,0.444-1.279,0.67-2.225,0.67
		c-0.238,0-0.461-0.021-0.654-0.055c-0.35,0.213-0.521,0.465-0.521,0.752c0,0.172,0.08,0.303,0.242,0.389
		c0.162,0.088,0.459,0.131,0.893,0.131h1.318c0.834,0,1.469,0.181,1.9,0.533c0.432,0.355,0.648,0.867,0.648,1.537
		c0,0.857-0.354,1.518-1.059,1.982c-0.707,0.465-1.73,0.696-3.064,0.696c-1.029,0-1.814-0.182-2.357-0.547
		c-0.541-0.363-0.813-0.883-0.813-1.559c0-0.465,0.146-0.855,0.439-1.172c0.295-0.316,0.707-0.537,1.232-0.66
		c-0.215-0.09-0.391-0.238-0.527-0.441c-0.143-0.201-0.209-0.414-0.209-0.639c0-0.281,0.08-0.521,0.236-0.719
		c0.16-0.195,0.396-0.392,0.713-0.582c-0.393-0.168-0.711-0.441-0.955-0.822c-0.24-0.379-0.363-0.824-0.363-1.336
		c0-0.82,0.26-1.455,0.773-1.906c0.52-0.451,1.256-0.678,2.213-0.678c0.215,0,0.439,0.016,0.674,0.045
		c0.232,0.027,0.41,0.061,0.527,0.092L564.552,300.546L564.552,300.546z M558.613,309.283c0,0.348,0.154,0.613,0.467,0.801
		c0.313,0.186,0.752,0.279,1.316,0.279c0.875,0,1.525-0.125,1.955-0.375c0.43-0.252,0.643-0.584,0.643-0.998
		c0-0.328-0.117-0.563-0.352-0.701s-0.672-0.209-1.311-0.209h-1.217c-0.459,0-0.826,0.109-1.1,0.324
		C558.748,308.621,558.613,308.914,558.613,309.283z M559.302,302.994c0,0.475,0.123,0.84,0.365,1.094
		c0.244,0.256,0.594,0.383,1.051,0.383c0.93,0,1.395-0.494,1.395-1.488c0-0.491-0.115-0.871-0.346-1.141
		c-0.229-0.266-0.58-0.396-1.049-0.396c-0.465,0-0.816,0.132-1.057,0.396C559.421,302.104,559.302,302.488,559.302,302.994z"/>
	<path fill="#58595B" d="M565.859,298.544c0-0.287,0.076-0.508,0.234-0.664c0.156-0.155,0.381-0.232,0.674-0.232
		c0.281,0,0.502,0.077,0.658,0.232c0.158,0.155,0.236,0.376,0.236,0.664c0,0.272-0.078,0.488-0.236,0.646
		c-0.156,0.158-0.377,0.235-0.658,0.235c-0.293,0-0.518-0.077-0.674-0.235C565.937,299.033,565.859,298.818,565.859,298.544z
		 M567.56,308.107h-1.605v-7.562h1.605V308.107z"/>
	<path fill="#58595B" d="M572.673,306.945c0.393,0,0.785-0.062,1.176-0.185v1.209c-0.178,0.078-0.404,0.144-0.688,0.195
		c-0.279,0.053-0.57,0.078-0.871,0.078c-1.521,0-2.283-0.801-2.283-2.406v-4.073h-1.031v-0.712l1.107-0.588l0.547-1.6h0.99v1.682
		h2.154v1.218h-2.154v4.047c0,0.389,0.098,0.674,0.291,0.856C572.105,306.854,572.359,306.945,572.673,306.945z"/>
	<path fill="#58595B" d="M580.091,308.107l-0.322-1.054h-0.055c-0.363,0.461-0.73,0.773-1.1,0.939
		c-0.369,0.168-0.846,0.25-1.422,0.25c-0.744,0-1.322-0.199-1.74-0.604c-0.416-0.397-0.625-0.969-0.625-1.699
		c0-0.778,0.289-1.366,0.867-1.766c0.58-0.396,1.461-0.611,2.645-0.648l1.309-0.041v-0.401c0-0.483-0.113-0.847-0.342-1.084
		c-0.225-0.24-0.572-0.358-1.049-0.358c-0.389,0-0.76,0.057-1.115,0.172c-0.354,0.112-0.693,0.248-1.021,0.401l-0.521-1.147
		c0.41-0.213,0.859-0.377,1.348-0.488s0.947-0.168,1.381-0.168c0.963,0,1.688,0.211,2.178,0.629c0.49,0.42,0.734,1.078,0.734,1.979
		v5.093h-1.148V308.107L580.091,308.107z M577.699,307.013c0.582,0,1.051-0.162,1.402-0.485c0.355-0.326,0.531-0.783,0.531-1.371
		V304.5l-0.971,0.041c-0.758,0.025-1.311,0.152-1.652,0.379c-0.344,0.227-0.516,0.572-0.516,1.037c0,0.336,0.102,0.598,0.301,0.781
		C576.996,306.921,577.296,307.013,577.699,307.013z"/>
	<path fill="#58595B" d="M585.087,308.107h-1.605v-10.636h1.605V308.107z"/>
	<path fill="#58595B" d="M535.564,324.908l-2.898-8.349h-0.055c0.078,1.24,0.115,2.402,0.115,3.486v4.861h-1.482v-9.994h2.305
		l2.775,7.949h0.041l2.855-7.949h2.313v9.994h-1.572v-4.943c0-0.496,0.012-1.143,0.037-1.94s0.047-1.279,0.064-1.449h-0.055
		l-3.002,8.334H535.564z"/>
	<path fill="#58595B" d="M548.724,324.908l-0.32-1.053h-0.057c-0.363,0.459-0.73,0.772-1.1,0.938
		c-0.371,0.166-0.844,0.25-1.422,0.25c-0.744,0-1.322-0.201-1.74-0.602c-0.416-0.402-0.625-0.972-0.625-1.703
		c0-0.779,0.289-1.367,0.867-1.767c0.58-0.396,1.461-0.61,2.645-0.646l1.309-0.041v-0.404c0-0.481-0.113-0.844-0.34-1.082
		c-0.227-0.239-0.574-0.358-1.051-0.358c-0.389,0-0.76,0.057-1.111,0.17c-0.355,0.114-0.697,0.248-1.025,0.403l-0.52-1.147
		c0.406-0.215,0.855-0.377,1.346-0.488c0.488-0.113,0.949-0.168,1.381-0.168c0.963,0,1.688,0.209,2.178,0.629
		c0.49,0.418,0.734,1.078,0.734,1.976v5.096h-1.148V324.908L548.724,324.908z M546.332,323.814c0.582,0,1.051-0.164,1.404-0.488
		c0.354-0.326,0.529-0.783,0.529-1.371v-0.656l-0.971,0.041c-0.758,0.027-1.307,0.154-1.652,0.379
		c-0.344,0.229-0.516,0.57-0.516,1.035c0,0.338,0.102,0.6,0.301,0.783C545.628,323.722,545.929,323.814,546.332,323.814z"/>
	<path fill="#58595B" d="M555.949,317.21c0.322,0,0.59,0.021,0.801,0.068l-0.158,1.496c-0.227-0.056-0.465-0.082-0.711-0.082
		c-0.643,0-1.162,0.211-1.561,0.629c-0.4,0.42-0.6,0.965-0.6,1.635v3.951h-1.605v-7.562h1.258l0.211,1.332h0.082
		c0.252-0.451,0.578-0.809,0.98-1.072C555.05,317.341,555.484,317.21,555.949,317.21z"/>
	<path fill="#58595B" d="M559.703,320.916l0.908-1.135l2.283-2.435h1.854l-3.043,3.246l3.234,4.314h-1.889l-2.426-3.316
		l-0.883,0.726v2.592h-1.592v-10.637h1.592v5.188l-0.082,1.457H559.703z"/>
	<path fill="#58595B" d="M569.457,325.044c-1.176,0-2.094-0.344-2.758-1.029c-0.662-0.686-0.994-1.631-0.994-2.834
		c0-1.231,0.307-2.205,0.922-2.911c0.615-0.703,1.461-1.06,2.537-1.06c0.998,0,1.785,0.303,2.365,0.908
		c0.578,0.606,0.867,1.44,0.867,2.502v0.869h-5.039c0.023,0.731,0.223,1.297,0.596,1.69c0.375,0.396,0.9,0.593,1.58,0.593
		c0.445,0,0.861-0.044,1.248-0.128c0.385-0.084,0.797-0.225,1.238-0.42v1.306c-0.391,0.188-0.787,0.319-1.188,0.396
		C570.429,325.005,569.972,325.044,569.457,325.044z M569.164,318.427c-0.512,0-0.92,0.162-1.229,0.484
		c-0.309,0.324-0.49,0.795-0.551,1.416h3.434c-0.01-0.625-0.16-1.099-0.451-1.418C570.074,318.587,569.673,318.427,569.164,318.427z
		"/>
	<path fill="#58595B" d="M577.039,323.746c0.391,0,0.783-0.063,1.176-0.187v1.212c-0.178,0.075-0.406,0.143-0.688,0.194
		c-0.279,0.051-0.57,0.078-0.871,0.078c-1.523,0-2.283-0.803-2.283-2.406v-4.073h-1.033v-0.711l1.107-0.589l0.547-1.6h0.992v1.682
		h2.152v1.218h-2.152v4.047c0,0.387,0.096,0.674,0.291,0.856C576.47,323.654,576.724,323.746,577.039,323.746z"/>
	<path fill="#58595B" d="M579.628,315.343c0-0.287,0.078-0.508,0.236-0.662c0.154-0.153,0.381-0.229,0.674-0.229
		c0.281,0,0.502,0.076,0.658,0.229c0.158,0.154,0.234,0.375,0.234,0.662c0,0.273-0.076,0.49-0.234,0.646
		c-0.156,0.157-0.377,0.235-0.658,0.235c-0.293,0-0.52-0.078-0.674-0.235C579.707,315.833,579.628,315.617,579.628,315.343z
		 M581.332,324.908h-1.607v-7.562h1.607V324.908z"/>
	<path fill="#58595B" d="M590.279,324.908h-1.613v-4.648c0-0.584-0.117-1.02-0.354-1.307c-0.232-0.287-0.605-0.43-1.115-0.43
		c-0.68,0-1.178,0.198-1.49,0.602c-0.314,0.4-0.473,1.072-0.473,2.016v3.771h-1.605v-7.563h1.258l0.229,0.99h0.082
		c0.227-0.359,0.551-0.637,0.971-0.834c0.418-0.195,0.883-0.293,1.395-0.293c1.813,0,2.721,0.922,2.721,2.768v4.931L590.279,324.908
		L590.279,324.908z"/>
	<path fill="#58595B" d="M598.9,317.347v0.882l-1.293,0.239c0.117,0.158,0.217,0.355,0.295,0.588
		c0.076,0.234,0.115,0.48,0.115,0.738c0,0.779-0.27,1.394-0.807,1.838c-0.539,0.447-1.279,0.67-2.223,0.67
		c-0.24,0-0.459-0.018-0.656-0.055c-0.346,0.215-0.521,0.465-0.521,0.752c0,0.174,0.08,0.303,0.242,0.391
		c0.162,0.087,0.459,0.13,0.895,0.13h1.316c0.834,0,1.469,0.18,1.9,0.532c0.432,0.355,0.65,0.869,0.65,1.539
		c0,0.855-0.355,1.521-1.061,1.982c-0.707,0.465-1.729,0.696-3.063,0.696c-1.031,0-1.816-0.184-2.359-0.547
		c-0.541-0.364-0.814-0.885-0.814-1.559c0-0.465,0.146-0.855,0.439-1.172c0.295-0.318,0.707-0.537,1.234-0.66
		c-0.213-0.092-0.391-0.238-0.529-0.441c-0.137-0.203-0.209-0.416-0.209-0.639c0-0.283,0.08-0.521,0.24-0.719
		c0.158-0.195,0.395-0.392,0.711-0.58c-0.393-0.17-0.711-0.443-0.955-0.824c-0.242-0.381-0.365-0.826-0.365-1.336
		c0-0.82,0.26-1.457,0.775-1.908c0.518-0.451,1.256-0.676,2.213-0.676c0.213,0,0.438,0.014,0.672,0.045
		c0.236,0.029,0.412,0.06,0.531,0.092L598.9,317.347L598.9,317.347z M592.958,326.083c0,0.346,0.156,0.613,0.469,0.799
		c0.313,0.189,0.75,0.281,1.316,0.281c0.875,0,1.523-0.125,1.955-0.377c0.428-0.25,0.643-0.582,0.643-0.998
		c0-0.328-0.117-0.562-0.352-0.699c-0.236-0.141-0.672-0.209-1.313-0.209h-1.217c-0.461,0-0.826,0.107-1.098,0.324
		C593.095,325.421,592.958,325.714,592.958,326.083z M593.65,319.794c0,0.473,0.121,0.838,0.363,1.094
		c0.244,0.254,0.596,0.384,1.051,0.384c0.93,0,1.395-0.496,1.395-1.488c0-0.492-0.115-0.871-0.344-1.142
		c-0.23-0.266-0.58-0.397-1.051-0.397c-0.465,0-0.816,0.133-1.057,0.395C593.769,318.904,593.65,319.289,593.65,319.794z"/>
	<path fill="#58595B" d="M551.167,336.287h3.678v5.018c-0.602,0.195-1.178,0.334-1.732,0.416c-0.553,0.082-1.15,0.123-1.793,0.123
		c-1.514,0-2.682-0.447-3.5-1.344c-0.82-0.895-1.23-2.158-1.23-3.789c0-1.609,0.463-2.869,1.387-3.777
		c0.928-0.91,2.199-1.36,3.822-1.36c1.043,0,2.031,0.196,2.967,0.602l-0.572,1.359c-0.814-0.373-1.621-0.563-2.436-0.563
		c-1.064,0-1.91,0.336-2.529,1.006c-0.617,0.67-0.93,1.586-0.93,2.748c0,1.224,0.279,2.148,0.836,2.785
		c0.563,0.635,1.363,0.953,2.41,0.953c0.529,0,1.094-0.066,1.695-0.197v-2.578h-2.07v-1.399L551.167,336.287L551.167,336.287z"/>
	<path fill="#58595B" d="M563.781,337.914c0,1.234-0.316,2.199-0.951,2.891c-0.633,0.693-1.516,1.039-2.646,1.039
		c-0.705,0-1.33-0.158-1.873-0.479c-0.541-0.318-0.959-0.777-1.25-1.373c-0.293-0.599-0.438-1.291-0.438-2.078
		c0-1.227,0.314-2.184,0.943-2.871c0.629-0.689,1.516-1.033,2.658-1.033c1.094,0,1.959,0.354,2.598,1.06
		C563.46,335.77,563.781,336.718,563.781,337.914z M558.277,337.914c0,1.744,0.645,2.617,1.936,2.617
		c1.275,0,1.914-0.873,1.914-2.617c0-1.729-0.643-2.592-1.928-2.592c-0.676,0-1.164,0.225-1.467,0.67
		C558.429,336.439,558.277,337.08,558.277,337.914z"/>
	<path fill="#58595B" d="M570.357,341.707l-0.322-1.053h-0.055c-0.363,0.461-0.73,0.772-1.102,0.938
		c-0.369,0.168-0.842,0.25-1.422,0.25c-0.742,0-1.322-0.199-1.74-0.602c-0.416-0.4-0.625-0.969-0.625-1.701
		c0-0.779,0.289-1.367,0.869-1.764c0.578-0.398,1.461-0.613,2.646-0.65l1.305-0.041v-0.402c0-0.483-0.111-0.846-0.338-1.084
		c-0.229-0.239-0.576-0.358-1.049-0.358c-0.391,0-0.762,0.057-1.115,0.172c-0.355,0.113-0.697,0.248-1.025,0.402l-0.52-1.148
		c0.408-0.213,0.857-0.377,1.348-0.488c0.488-0.108,0.947-0.168,1.381-0.168c0.961,0,1.688,0.211,2.178,0.629
		c0.488,0.42,0.734,1.078,0.734,1.979v5.092h-1.148V341.707L570.357,341.707z M567.964,340.613c0.582,0,1.051-0.162,1.404-0.488
		c0.352-0.326,0.527-0.783,0.527-1.371v-0.656l-0.971,0.041c-0.758,0.027-1.307,0.154-1.648,0.379
		c-0.348,0.229-0.52,0.572-0.52,1.037c0,0.336,0.104,0.601,0.301,0.781C567.261,340.521,567.562,340.613,567.964,340.613z"/>
	<path fill="#58595B" d="M575.353,341.707h-1.605V331.07h1.605V341.707z"/>
	<path fill="#58595B" d="M582.728,339.554c0,0.738-0.268,1.308-0.807,1.697c-0.537,0.395-1.307,0.592-2.311,0.592
		c-1.01,0-1.816-0.149-2.43-0.457v-1.389c0.893,0.41,1.719,0.615,2.482,0.615c0.988,0,1.482-0.3,1.482-0.896
		c0-0.19-0.055-0.352-0.164-0.479c-0.109-0.129-0.289-0.263-0.539-0.396c-0.252-0.137-0.602-0.293-1.047-0.465
		c-0.869-0.338-1.459-0.676-1.768-1.012c-0.307-0.338-0.461-0.775-0.461-1.314c0-0.646,0.26-1.147,0.783-1.508
		c0.52-0.357,1.229-0.537,2.129-0.537c0.889,0,1.729,0.18,2.52,0.541l-0.52,1.209c-0.816-0.336-1.502-0.506-2.059-0.506
		c-0.848,0-1.271,0.242-1.271,0.725c0,0.238,0.111,0.439,0.332,0.604s0.703,0.391,1.445,0.678c0.625,0.24,1.078,0.463,1.359,0.662
		c0.283,0.201,0.492,0.432,0.629,0.693C582.662,338.876,582.728,339.189,582.728,339.554z"/>
</g>
<circle fill="#FFFFFF" cx="653.529" cy="401.774" r="36.235"/>
<g>
	<path fill="#58595B" d="M642.238,393.042c0,1.643-0.455,2.898-1.369,3.768c-0.912,0.869-2.227,1.308-3.941,1.308h-2.783v-9.953
		h3.076c1.584,0,2.816,0.426,3.697,1.279C641.798,390.294,642.238,391.494,642.238,393.042z M640.521,393.097
		c0-2.383-1.113-3.571-3.342-3.571h-1.41v7.223h1.158C639.324,396.746,640.521,395.529,640.521,393.097z"/>
	<path fill="#58595B" d="M644.111,388.589c0-0.285,0.076-0.506,0.232-0.66c0.156-0.151,0.381-0.229,0.672-0.229
		c0.281,0,0.5,0.078,0.656,0.229c0.156,0.154,0.234,0.375,0.234,0.66c0,0.273-0.078,0.486-0.234,0.646
		c-0.156,0.153-0.375,0.231-0.656,0.231c-0.291,0-0.516-0.078-0.672-0.231C644.187,389.076,644.111,388.863,644.111,388.589z
		 M645.806,398.115h-1.602v-7.531h1.602V398.115z"/>
	<path fill="#58595B" d="M654.453,390.583v0.879l-1.287,0.238c0.117,0.158,0.215,0.354,0.293,0.586
		c0.076,0.229,0.115,0.477,0.115,0.733c0,0.777-0.27,1.388-0.803,1.832c-0.537,0.445-1.273,0.668-2.215,0.668
		c-0.238,0-0.459-0.02-0.652-0.055c-0.346,0.213-0.518,0.463-0.518,0.748c0,0.174,0.08,0.303,0.24,0.389
		c0.162,0.087,0.459,0.13,0.889,0.13h1.314c0.83,0,1.461,0.178,1.893,0.53c0.432,0.354,0.646,0.865,0.646,1.531
		c0,0.854-0.354,1.512-1.055,1.975c-0.703,0.464-1.723,0.695-3.053,0.695c-1.023,0-1.809-0.182-2.35-0.545
		c-0.539-0.363-0.811-0.881-0.811-1.553c0-0.463,0.146-0.854,0.439-1.168c0.293-0.314,0.701-0.533,1.229-0.656
		c-0.213-0.092-0.389-0.236-0.527-0.439c-0.139-0.2-0.207-0.413-0.207-0.637c0-0.281,0.08-0.52,0.238-0.715s0.395-0.389,0.709-0.578
		c-0.393-0.168-0.707-0.44-0.951-0.82c-0.242-0.379-0.363-0.821-0.363-1.332c0-0.815,0.258-1.448,0.771-1.897
		c0.516-0.449,1.25-0.674,2.203-0.674c0.213,0,0.438,0.014,0.67,0.043c0.234,0.031,0.41,0.061,0.527,0.092H654.453z
		 M648.535,399.285c0,0.346,0.156,0.611,0.467,0.797s0.748,0.279,1.311,0.279c0.871,0,1.521-0.125,1.947-0.375
		c0.428-0.248,0.643-0.58,0.643-0.994c0-0.326-0.117-0.56-0.354-0.697c-0.234-0.137-0.668-0.207-1.303-0.207h-1.213
		c-0.457,0-0.822,0.107-1.094,0.322C648.671,398.626,648.535,398.917,648.535,399.285z M649.224,393.021
		c0,0.473,0.121,0.836,0.363,1.09s0.592,0.381,1.045,0.381c0.926,0,1.389-0.494,1.389-1.484c0-0.49-0.113-0.867-0.344-1.133
		c-0.229-0.266-0.578-0.398-1.045-0.398c-0.463,0-0.813,0.136-1.051,0.396S649.224,392.517,649.224,393.021z"/>
	<path fill="#58595B" d="M655.753,388.589c0-0.285,0.078-0.506,0.234-0.66c0.152-0.151,0.379-0.229,0.67-0.229
		c0.279,0,0.5,0.078,0.658,0.229c0.152,0.154,0.23,0.375,0.23,0.66c0,0.273-0.078,0.486-0.23,0.646
		c-0.158,0.153-0.379,0.231-0.658,0.231c-0.291,0-0.518-0.078-0.67-0.231C655.832,389.076,655.753,388.863,655.753,388.589z
		 M657.449,398.115h-1.602v-7.531h1.602V398.115z"/>
	<path fill="#58595B" d="M662.541,396.957c0.391,0,0.781-0.061,1.172-0.184v1.204c-0.178,0.078-0.406,0.144-0.686,0.193
		c-0.279,0.053-0.568,0.078-0.867,0.078c-1.518,0-2.273-0.799-2.273-2.396v-4.057h-1.025v-0.709l1.102-0.584l0.545-1.594h0.988
		v1.674h2.145v1.213h-2.145v4.031c0,0.385,0.096,0.67,0.289,0.854C661.974,396.865,662.228,396.957,662.541,396.957z"/>
	<path fill="#58595B" d="M669.927,398.115l-0.318-1.049h-0.057c-0.361,0.459-0.729,0.77-1.096,0.936s-0.84,0.248-1.416,0.248
		c-0.74,0-1.316-0.199-1.732-0.598c-0.416-0.4-0.623-0.966-0.623-1.695c0-0.777,0.289-1.361,0.865-1.758
		c0.576-0.396,1.453-0.609,2.635-0.646l1.301-0.041v-0.397c0-0.482-0.113-0.845-0.338-1.08c-0.225-0.238-0.572-0.357-1.045-0.357
		c-0.387,0-0.756,0.058-1.109,0.17c-0.354,0.113-0.693,0.248-1.021,0.402l-0.518-1.146c0.41-0.214,0.855-0.375,1.342-0.484
		c0.486-0.111,0.943-0.166,1.375-0.166c0.959,0,1.682,0.209,2.168,0.625c0.488,0.418,0.732,1.074,0.732,1.969v5.072h-1.145V398.115z
		 M667.544,397.025c0.58,0,1.047-0.162,1.398-0.486c0.35-0.324,0.525-0.779,0.525-1.365v-0.654l-0.967,0.041
		c-0.754,0.027-1.301,0.154-1.645,0.382c-0.344,0.225-0.514,0.565-0.514,1.028c0,0.336,0.1,0.599,0.299,0.779
		C666.845,396.933,667.144,397.025,667.544,397.025z"/>
	<path fill="#58595B" d="M674.904,398.115h-1.602v-10.594h1.602V398.115z"/>
	<path fill="#58595B" d="M635.07,414.845l-2.889-8.313h-0.055c0.078,1.233,0.115,2.393,0.115,3.473v4.84h-1.479v-9.953h2.293
		l2.768,7.918h0.041l2.846-7.918h2.301v9.953h-1.564v-4.922c0-0.494,0.012-1.139,0.037-1.934c0.023-0.795,0.047-1.275,0.064-1.443
		h-0.055l-2.988,8.299H635.07L635.07,414.845z"/>
	<path fill="#58595B" d="M646.751,414.982c-1.172,0-2.086-0.343-2.748-1.025c-0.66-0.682-0.99-1.623-0.99-2.822
		c0-1.229,0.309-2.192,0.92-2.896c0.613-0.705,1.455-1.06,2.525-1.06c0.994,0,1.779,0.306,2.354,0.906
		c0.576,0.604,0.863,1.434,0.863,2.492v0.863h-5.018c0.021,0.731,0.221,1.293,0.594,1.686c0.371,0.394,0.896,0.59,1.572,0.59
		c0.445,0,0.857-0.043,1.242-0.127c0.383-0.084,0.795-0.223,1.234-0.418v1.301c-0.391,0.188-0.785,0.316-1.184,0.396
		C647.72,414.943,647.265,414.982,646.751,414.982z M646.458,408.392c-0.508,0-0.916,0.16-1.223,0.482
		c-0.309,0.322-0.488,0.793-0.551,1.41h3.42c-0.012-0.623-0.158-1.094-0.447-1.414C647.367,408.552,646.966,408.392,646.458,408.392
		z"/>
	<path fill="#58595B" d="M654.302,413.689c0.391,0,0.779-0.063,1.17-0.185v1.205c-0.178,0.076-0.404,0.141-0.684,0.193
		c-0.281,0.051-0.568,0.078-0.869,0.078c-1.516,0-2.271-0.802-2.271-2.396v-4.059h-1.029v-0.707l1.104-0.586l0.545-1.597h0.986
		v1.679h2.146v1.211h-2.146v4.028c0,0.39,0.098,0.67,0.289,0.855C653.736,413.597,653.988,413.689,654.302,413.689z"/>
	<path fill="#58595B" d="M660.796,407.179c0.322,0,0.588,0.023,0.797,0.068l-0.156,1.49c-0.229-0.054-0.463-0.08-0.709-0.08
		c-0.641,0-1.158,0.209-1.555,0.625c-0.396,0.418-0.596,0.961-0.596,1.627v3.936h-1.604v-7.526h1.252l0.213,1.325h0.08
		c0.25-0.446,0.576-0.807,0.98-1.067C659.902,407.313,660.333,407.179,660.796,407.179z"/>
	<path fill="#58595B" d="M662.894,405.322c0-0.287,0.078-0.506,0.234-0.662c0.156-0.152,0.379-0.23,0.67-0.23
		c0.281,0,0.5,0.078,0.658,0.23c0.156,0.156,0.234,0.375,0.234,0.662c0,0.271-0.078,0.485-0.234,0.643
		c-0.158,0.156-0.377,0.234-0.658,0.234c-0.291,0-0.514-0.078-0.67-0.234S662.894,405.593,662.894,405.322z M664.589,414.845h-1.602
		v-7.526h1.602V414.845z"/>
	<path fill="#58595B" d="M669.914,414.982c-1.141,0-2.006-0.332-2.598-0.998c-0.594-0.664-0.891-1.619-0.891-2.861
		c0-1.268,0.311-2.24,0.932-2.922c0.617-0.68,1.514-1.021,2.686-1.021c0.793,0,1.508,0.148,2.145,0.443l-0.48,1.287
		c-0.676-0.264-1.234-0.396-1.676-0.396c-1.305,0-1.953,0.865-1.953,2.599c0,0.844,0.162,1.479,0.484,1.899
		c0.324,0.424,0.803,0.64,1.428,0.64c0.713,0,1.387-0.181,2.02-0.531v1.395c-0.285,0.168-0.592,0.289-0.916,0.361
		S670.376,414.982,669.914,414.982z"/>
	<path fill="#58595B" d="M678.837,412.701c0,0.735-0.268,1.299-0.803,1.69c-0.535,0.393-1.303,0.591-2.301,0.591
		c-1.006,0-1.813-0.152-2.42-0.457v-1.382c0.887,0.408,1.709,0.613,2.475,0.613c0.98,0,1.477-0.299,1.477-0.893
		c0-0.191-0.055-0.353-0.164-0.479c-0.107-0.127-0.287-0.26-0.535-0.395c-0.25-0.138-0.6-0.291-1.043-0.463
		c-0.867-0.336-1.453-0.672-1.76-1.009c-0.307-0.336-0.461-0.771-0.461-1.309c0-0.643,0.26-1.145,0.779-1.5
		c0.52-0.357,1.227-0.535,2.121-0.535c0.885,0,1.723,0.181,2.514,0.539l-0.518,1.205c-0.814-0.336-1.496-0.504-2.053-0.504
		c-0.844,0-1.266,0.24-1.266,0.721c0,0.236,0.109,0.437,0.33,0.601c0.219,0.164,0.699,0.389,1.439,0.674
		c0.621,0.24,1.072,0.461,1.354,0.66c0.283,0.198,0.49,0.43,0.627,0.69C678.767,412.025,678.837,412.337,678.837,412.701z"/>
</g>
<circle fill="#FFFFFF" cx="732.482" cy="376.879" r="23.183"/>
<g>
	<path fill="#58595B" d="M723.677,370.634c0,1.267-0.35,2.23-1.053,2.898c-0.701,0.67-1.711,1.004-3.031,1.004h-2.143v-7.656h2.367
		c1.219,0,2.166,0.328,2.844,0.984C723.339,368.52,723.677,369.445,723.677,370.634z M722.357,370.677c0-1.834-0.855-2.75-2.57-2.75
		h-1.084v5.56h0.891C721.437,373.484,722.357,372.548,722.357,370.677z"/>
	<path fill="#58595B" d="M725.119,367.208c0-0.219,0.061-0.389,0.18-0.508c0.121-0.117,0.293-0.178,0.516-0.178
		c0.221,0,0.389,0.061,0.51,0.178c0.119,0.119,0.18,0.289,0.18,0.508c0,0.211-0.061,0.375-0.18,0.496
		c-0.121,0.121-0.289,0.18-0.51,0.18c-0.223,0-0.395-0.059-0.516-0.18C725.179,367.583,725.119,367.419,725.119,367.208z
		 M726.421,374.537h-1.229v-5.793h1.229V374.537z"/>
	<path fill="#58595B" d="M733.074,368.744v0.676l-0.99,0.184c0.09,0.121,0.166,0.271,0.225,0.449c0.063,0.183,0.09,0.367,0.09,0.566
		c0,0.598-0.203,1.065-0.615,1.408c-0.412,0.344-0.98,0.514-1.703,0.514c-0.188,0-0.355-0.014-0.502-0.041
		c-0.268,0.164-0.398,0.355-0.398,0.576c0,0.133,0.063,0.231,0.188,0.297c0.123,0.066,0.352,0.1,0.684,0.1h1.01
		c0.643,0,1.125,0.14,1.457,0.41c0.332,0.271,0.496,0.664,0.496,1.178c0,0.656-0.27,1.162-0.811,1.521
		c-0.541,0.354-1.324,0.535-2.348,0.535c-0.789,0-1.391-0.144-1.807-0.42c-0.416-0.279-0.623-0.679-0.623-1.193
		c0-0.354,0.113-0.656,0.338-0.897c0.227-0.242,0.539-0.41,0.945-0.505c-0.164-0.069-0.299-0.184-0.406-0.338
		c-0.105-0.155-0.16-0.319-0.16-0.489c0-0.218,0.063-0.4,0.186-0.552c0.121-0.149,0.303-0.299,0.543-0.444
		c-0.299-0.129-0.543-0.338-0.73-0.632c-0.186-0.29-0.277-0.633-0.277-1.022c0-0.629,0.195-1.115,0.596-1.461
		c0.395-0.346,0.961-0.519,1.693-0.519c0.162,0,0.336,0.011,0.516,0.033c0.18,0.023,0.313,0.047,0.406,0.07h2.004v-0.003H733.074z
		 M728.521,375.438c0,0.268,0.119,0.471,0.359,0.612c0.238,0.146,0.574,0.215,1.008,0.215c0.67,0,1.17-0.098,1.498-0.289
		c0.328-0.188,0.492-0.444,0.492-0.764c0-0.252-0.09-0.432-0.271-0.537c-0.18-0.104-0.514-0.16-1.002-0.16h-0.934
		c-0.355,0-0.633,0.082-0.84,0.248C728.626,374.929,728.521,375.154,728.521,375.438z M729.05,370.619
		c0,0.363,0.094,0.643,0.281,0.838c0.186,0.195,0.455,0.293,0.803,0.293c0.713,0,1.068-0.381,1.068-1.141
		c0-0.377-0.088-0.668-0.268-0.873c-0.176-0.203-0.441-0.308-0.803-0.308c-0.354,0-0.627,0.103-0.809,0.306
		S729.05,370.232,729.05,370.619z"/>
	<path fill="#58595B" d="M734.074,367.208c0-0.219,0.061-0.389,0.18-0.508c0.121-0.117,0.293-0.178,0.516-0.178
		c0.221,0,0.389,0.061,0.51,0.178c0.117,0.119,0.18,0.289,0.18,0.508c0,0.211-0.063,0.375-0.18,0.496
		c-0.121,0.121-0.289,0.18-0.51,0.18c-0.223,0-0.395-0.059-0.516-0.18C734.134,367.583,734.074,367.419,734.074,367.208z
		 M735.376,374.537h-1.23v-5.793h1.23V374.537z"/>
	<path fill="#58595B" d="M739.294,373.646c0.301,0,0.6-0.048,0.9-0.142v0.926c-0.139,0.062-0.314,0.109-0.525,0.15
		c-0.215,0.039-0.439,0.059-0.668,0.059c-1.166,0-1.75-0.612-1.75-1.842v-3.123h-0.791v-0.543l0.85-0.451l0.418-1.225h0.762v1.287
		h1.648v0.932h-1.648v3.103c0,0.297,0.072,0.516,0.221,0.655C738.857,373.576,739.054,373.646,739.294,373.646z"/>
	<path fill="#58595B" d="M744.976,374.537l-0.246-0.807h-0.041c-0.279,0.352-0.561,0.592-0.844,0.721
		c-0.283,0.127-0.645,0.188-1.09,0.188c-0.568,0-1.014-0.151-1.332-0.461c-0.32-0.307-0.479-0.739-0.479-1.303
		c0-0.598,0.221-1.049,0.664-1.352c0.441-0.308,1.117-0.472,2.023-0.498l1-0.031v-0.312c0-0.368-0.086-0.645-0.258-0.827
		c-0.174-0.187-0.441-0.275-0.805-0.275c-0.297,0-0.582,0.045-0.854,0.131c-0.271,0.088-0.535,0.191-0.787,0.31l-0.396-0.88
		c0.313-0.164,0.658-0.289,1.031-0.375s0.727-0.127,1.059-0.127c0.736,0,1.293,0.16,1.668,0.48c0.375,0.322,0.564,0.826,0.564,1.514
		v3.902L744.976,374.537L744.976,374.537z M743.144,373.699c0.447,0,0.807-0.125,1.076-0.375s0.406-0.601,0.406-1.051v-0.502
		l-0.744,0.03c-0.58,0.021-1.002,0.117-1.266,0.291c-0.266,0.172-0.396,0.438-0.396,0.793c0,0.258,0.078,0.459,0.23,0.601
		C742.605,373.628,742.835,373.699,743.144,373.699z"/>
	<path fill="#58595B" d="M748.804,374.537h-1.229v-8.148h1.229V374.537z"/>
	<path fill="#58595B" d="M719.048,387.408h-1.252v-6.584h-2.252v-1.072h5.756v1.072h-2.252V387.408L719.048,387.408z"/>
	<path fill="#58595B" d="M725.966,387.408l-0.246-0.808h-0.043c-0.277,0.353-0.561,0.593-0.842,0.722
		c-0.283,0.127-0.646,0.188-1.09,0.188c-0.57,0-1.018-0.151-1.334-0.461c-0.318-0.307-0.48-0.74-0.48-1.303
		c0-0.598,0.225-1.049,0.664-1.354c0.443-0.305,1.119-0.469,2.027-0.496l1-0.03v-0.312c0-0.371-0.086-0.645-0.26-0.83
		c-0.172-0.184-0.439-0.272-0.805-0.272c-0.297,0-0.582,0.045-0.854,0.131c-0.271,0.088-0.533,0.191-0.785,0.309l-0.398-0.879
		c0.314-0.164,0.658-0.289,1.031-0.375c0.375-0.086,0.729-0.127,1.059-0.127c0.736,0,1.293,0.16,1.668,0.48
		c0.377,0.321,0.563,0.826,0.563,1.514v3.902L725.966,387.408L725.966,387.408z M724.132,386.57c0.447,0,0.807-0.125,1.076-0.375
		c0.268-0.25,0.406-0.601,0.406-1.052v-0.502l-0.744,0.031c-0.578,0.021-1,0.117-1.268,0.291c-0.264,0.172-0.395,0.438-0.395,0.793
		c0,0.258,0.076,0.459,0.229,0.601C723.595,386.5,723.826,386.57,724.132,386.57z"/>
	<path fill="#58595B" d="M730.898,387.511c-0.877,0-1.543-0.256-1.996-0.766c-0.457-0.512-0.686-1.246-0.686-2.203
		c0-0.975,0.238-1.723,0.715-2.246c0.479-0.521,1.166-0.785,2.066-0.785c0.609,0,1.16,0.113,1.646,0.34l-0.369,0.99
		c-0.521-0.203-0.949-0.305-1.287-0.305c-1.004,0-1.504,0.666-1.504,1.996c0,0.647,0.125,1.137,0.373,1.463
		c0.25,0.326,0.613,0.49,1.1,0.49c0.547,0,1.063-0.138,1.555-0.408v1.072c-0.221,0.131-0.455,0.223-0.705,0.276
		C731.558,387.484,731.255,387.511,730.898,387.511z"/>
	<path fill="#58595B" d="M736.031,386.517c0.301,0,0.602-0.047,0.9-0.141v0.926c-0.137,0.063-0.311,0.109-0.525,0.15
		c-0.215,0.039-0.438,0.059-0.668,0.059c-1.166,0-1.748-0.61-1.748-1.842v-3.123h-0.791v-0.543l0.848-0.451l0.42-1.225h0.76v1.287
		h1.648v0.932h-1.648v3.104c0,0.297,0.072,0.516,0.225,0.653C735.595,386.447,735.791,386.517,736.031,386.517z"/>
	<path fill="#58595B" d="M738.017,380.08c0-0.219,0.061-0.389,0.182-0.508c0.119-0.117,0.291-0.179,0.516-0.179
		c0.217,0,0.385,0.062,0.506,0.179c0.119,0.119,0.184,0.289,0.184,0.508c0,0.211-0.064,0.375-0.184,0.496
		c-0.121,0.121-0.289,0.18-0.506,0.18c-0.225,0-0.395-0.059-0.516-0.18S738.017,380.291,738.017,380.08z M739.32,387.408h-1.23
		v-5.793h1.23V387.408z"/>
	<path fill="#58595B" d="M743.416,387.511c-0.877,0-1.543-0.256-1.998-0.766c-0.455-0.512-0.684-1.246-0.684-2.203
		c0-0.975,0.238-1.723,0.715-2.246c0.477-0.521,1.166-0.785,2.066-0.785c0.609,0,1.16,0.113,1.648,0.34l-0.371,0.99
		c-0.521-0.203-0.949-0.305-1.289-0.305c-1.002,0-1.502,0.666-1.502,1.996c0,0.647,0.125,1.137,0.373,1.463
		c0.25,0.326,0.615,0.49,1.098,0.49c0.549,0,1.066-0.138,1.557-0.408v1.072c-0.221,0.131-0.455,0.223-0.705,0.276
		C744.076,387.484,743.771,387.511,743.416,387.511z"/>
	<path fill="#58595B" d="M750.281,385.757c0,0.566-0.205,1-0.617,1.301c-0.412,0.306-1.002,0.453-1.771,0.453
		c-0.768,0-1.391-0.112-1.855-0.35v-1.064c0.68,0.314,1.313,0.476,1.898,0.476c0.76,0,1.139-0.23,1.139-0.689
		c0-0.145-0.041-0.268-0.125-0.365c-0.084-0.096-0.225-0.196-0.414-0.305c-0.191-0.104-0.459-0.223-0.803-0.354
		c-0.666-0.261-1.117-0.521-1.355-0.775c-0.236-0.258-0.354-0.594-0.354-1.006c0-0.496,0.199-0.881,0.6-1.154
		c0.398-0.272,0.943-0.41,1.631-0.41c0.682,0,1.326,0.138,1.934,0.412l-0.396,0.928c-0.625-0.258-1.15-0.387-1.576-0.387
		c-0.648,0-0.973,0.185-0.973,0.556c0,0.182,0.084,0.334,0.254,0.461c0.168,0.125,0.537,0.299,1.104,0.518
		c0.48,0.187,0.826,0.355,1.043,0.508c0.219,0.154,0.377,0.332,0.482,0.531C750.228,385.238,750.281,385.478,750.281,385.757z"/>
</g>
<g>
	<path fill="#31C617" d="M127.711,54.859l1.531-8.094h2.336l-2.523,11.375h-2.359l-1.852-7.609l-1.852,7.609h-2.359l-2.523-11.375
		h2.336l1.539,8.078l1.875-8.078h1.984L127.711,54.859z"/>
	<path fill="#31C617" d="M139.688,53.211h-4.5v3.047h5.281v1.883h-7.625V46.766h7.609v1.898h-5.266v2.711h4.5V53.211z"/>
	<path fill="#31C617" d="M151.727,55.156c0-0.198-0.029-0.376-0.086-0.535c-0.058-0.159-0.168-0.306-0.332-0.441
		c-0.164-0.135-0.391-0.268-0.68-0.398c-0.289-0.13-0.663-0.268-1.121-0.414c-0.521-0.167-1.012-0.354-1.473-0.563
		c-0.461-0.208-0.865-0.454-1.211-0.738c-0.347-0.284-0.62-0.61-0.82-0.98c-0.201-0.37-0.301-0.802-0.301-1.297
		c0-0.474,0.103-0.907,0.309-1.301c0.206-0.393,0.495-0.728,0.867-1.004c0.372-0.276,0.815-0.491,1.328-0.645
		c0.513-0.153,1.077-0.23,1.691-0.23c0.63,0,1.203,0.087,1.719,0.262c0.516,0.175,0.956,0.418,1.32,0.73
		c0.364,0.313,0.646,0.684,0.844,1.113c0.198,0.43,0.297,0.9,0.297,1.41h-2.344c0-0.239-0.038-0.461-0.113-0.664
		c-0.076-0.203-0.191-0.377-0.348-0.523c-0.156-0.146-0.352-0.259-0.586-0.34c-0.234-0.081-0.511-0.121-0.828-0.121
		c-0.308,0-0.574,0.034-0.801,0.102c-0.227,0.068-0.414,0.162-0.563,0.281c-0.148,0.12-0.261,0.261-0.336,0.422
		c-0.076,0.162-0.113,0.333-0.113,0.516c0,0.375,0.191,0.689,0.574,0.941c0.383,0.253,0.944,0.488,1.684,0.707
		c0.62,0.193,1.165,0.406,1.637,0.641c0.471,0.234,0.864,0.5,1.18,0.797c0.315,0.297,0.553,0.63,0.715,1
		c0.161,0.37,0.242,0.789,0.242,1.258c0,0.5-0.098,0.945-0.293,1.336s-0.473,0.72-0.832,0.988c-0.359,0.269-0.793,0.474-1.301,0.617
		s-1.074,0.215-1.699,0.215c-0.375,0-0.75-0.033-1.125-0.098s-0.733-0.165-1.074-0.301c-0.341-0.135-0.658-0.305-0.949-0.508
		c-0.292-0.203-0.546-0.442-0.762-0.719c-0.216-0.276-0.386-0.59-0.508-0.941c-0.123-0.352-0.184-0.741-0.184-1.168h2.352
		c0,0.344,0.055,0.636,0.164,0.875c0.109,0.24,0.262,0.434,0.457,0.582s0.431,0.257,0.707,0.324
		c0.276,0.068,0.583,0.102,0.922,0.102c0.302,0,0.565-0.032,0.789-0.098c0.224-0.065,0.409-0.155,0.555-0.27
		c0.146-0.114,0.254-0.251,0.324-0.41C151.692,55.509,151.727,55.339,151.727,55.156z"/>
	<path fill="#31C617" d="M164.227,48.664h-3.484v9.477h-2.344v-9.477h-3.438v-1.898h9.266V48.664z"/>
	<path fill="#31C617" d="M171.047,55.797h-4.109l-0.781,2.344h-2.492l4.234-11.375h2.172l4.258,11.375h-2.492L171.047,55.797z
		 M167.571,53.898h2.844l-1.43-4.258L167.571,53.898z"/>
	<path fill="#31C617" d="M179.602,53.977h-1.867v4.164h-2.344V46.766h4.227c0.656,0,1.245,0.074,1.766,0.223
		c0.521,0.148,0.961,0.367,1.32,0.656s0.635,0.647,0.828,1.074c0.192,0.427,0.289,0.922,0.289,1.484
		c0,0.417-0.047,0.791-0.141,1.121c-0.094,0.331-0.229,0.625-0.406,0.883c-0.177,0.258-0.391,0.483-0.641,0.676
		c-0.25,0.193-0.531,0.359-0.844,0.5l2.461,4.648v0.109h-2.516L179.602,53.977z M177.735,52.078h1.891
		c0.307,0,0.577-0.04,0.809-0.121c0.231-0.081,0.424-0.195,0.578-0.344c0.153-0.148,0.27-0.325,0.348-0.531
		c0.078-0.206,0.117-0.436,0.117-0.691c0-0.536-0.152-0.958-0.457-1.266c-0.305-0.307-0.772-0.461-1.402-0.461h-1.883V52.078z"/>
	<path fill="#31C617" d="M193.774,48.664h-3.484v9.477h-2.344v-9.477h-3.438v-1.898h9.266V48.664z"/>
	<path fill="#31C617" d="M146.247,77.341h-2.344v-4.875h-4.57v4.875h-2.344V65.966h2.344v4.609h4.57v-4.609h2.344V77.341z"/>
	<path fill="#31C617" d="M155.137,72.411h-4.5v3.047h5.281v1.883h-7.625V65.966h7.609v1.898h-5.266v2.711h4.5V72.411z"/>
	<path fill="#31C617" d="M161.504,73.177h-1.867v4.164h-2.344V65.966h4.227c0.656,0,1.245,0.074,1.766,0.223
		c0.521,0.148,0.961,0.367,1.32,0.656s0.635,0.647,0.828,1.074c0.192,0.427,0.289,0.922,0.289,1.484
		c0,0.417-0.047,0.791-0.141,1.121c-0.094,0.331-0.229,0.625-0.406,0.883c-0.177,0.258-0.391,0.483-0.641,0.676
		c-0.25,0.193-0.531,0.359-0.844,0.5l2.461,4.648v0.109h-2.516L161.504,73.177z M159.637,71.278h1.891
		c0.307,0,0.577-0.04,0.809-0.121c0.231-0.081,0.424-0.195,0.578-0.344c0.153-0.148,0.27-0.325,0.348-0.531
		c0.078-0.206,0.117-0.436,0.117-0.691c0-0.536-0.152-0.958-0.457-1.266c-0.305-0.307-0.772-0.461-1.402-0.461h-1.883V71.278z"/>
	<path fill="#31C617" d="M174.348,72.411h-4.5v3.047h5.281v1.883h-7.625V65.966h7.609v1.898h-5.266v2.711h4.5V72.411z"/>
</g>
<g>
	<path fill="#E01B2F" d="M733.039,446.554h-2.344l-4.563-7.484v7.484h-2.344v-11.375h2.344l4.57,7.5v-7.5h2.336V446.554z"/>
	<path fill="#E01B2F" d="M744.429,441.124c0,0.87-0.117,1.649-0.352,2.34s-0.564,1.274-0.988,1.754
		c-0.425,0.479-0.934,0.848-1.527,1.105s-1.248,0.387-1.961,0.387c-0.714,0-1.367-0.129-1.961-0.387s-1.105-0.626-1.535-1.105
		s-0.765-1.063-1.004-1.754c-0.24-0.69-0.359-1.47-0.359-2.34v-0.5c0-0.864,0.118-1.644,0.355-2.336
		c0.236-0.692,0.568-1.281,0.996-1.766c0.427-0.484,0.938-0.855,1.531-1.113s1.247-0.387,1.961-0.387
		c0.713,0,1.367,0.129,1.961,0.387s1.104,0.629,1.531,1.113c0.427,0.484,0.759,1.073,0.996,1.766
		c0.236,0.692,0.355,1.472,0.355,2.336V441.124z M742.054,440.608c0-1.192-0.214-2.099-0.641-2.719
		c-0.428-0.62-1.037-0.93-1.828-0.93c-0.792,0-1.401,0.31-1.828,0.93c-0.428,0.62-0.641,1.526-0.641,2.719v0.516
		c0,0.594,0.056,1.118,0.168,1.574c0.111,0.456,0.273,0.839,0.484,1.148s0.47,0.544,0.777,0.703
		c0.307,0.159,0.658,0.238,1.055,0.238c0.791,0,1.398-0.313,1.82-0.938s0.633-1.534,0.633-2.727V440.608z"/>
	<path fill="#E01B2F" d="M754.031,437.077h-3.484v9.477h-2.344v-9.477h-3.438v-1.898h9.266V437.077z"/>
	<path fill="#E01B2F" d="M728.843,465.754H726.5v-4.875h-4.57v4.875h-2.344v-11.375h2.344v4.609h4.57v-4.609h2.344V465.754z"/>
	<path fill="#E01B2F" d="M737.734,460.824h-4.5v3.047h5.281v1.883h-7.625v-11.375h7.609v1.898h-5.266v2.711h4.5V460.824z"/>
	<path fill="#E01B2F" d="M744.101,461.59h-1.867v4.164h-2.344v-11.375h4.227c0.656,0,1.244,0.074,1.766,0.223
		c0.521,0.148,0.961,0.367,1.32,0.656s0.635,0.647,0.828,1.074c0.192,0.428,0.289,0.922,0.289,1.484
		c0,0.417-0.047,0.791-0.141,1.121c-0.094,0.331-0.229,0.625-0.406,0.883c-0.178,0.258-0.391,0.483-0.641,0.676
		c-0.25,0.193-0.531,0.359-0.844,0.5l2.461,4.648v0.109h-2.516L744.101,461.59z M742.234,459.691h1.891
		c0.307,0,0.576-0.04,0.809-0.121c0.231-0.08,0.424-0.195,0.578-0.344c0.153-0.148,0.27-0.325,0.348-0.531
		c0.078-0.205,0.117-0.436,0.117-0.691c0-0.536-0.152-0.958-0.457-1.266c-0.305-0.307-0.772-0.461-1.402-0.461h-1.883V459.691z"/>
	<path fill="#E01B2F" d="M756.945,460.824h-4.5v3.047h5.281v1.883h-7.625v-11.375h7.609v1.898h-5.266v2.711h4.5V460.824z"/>
</g>
<path fill="#31C617" d="M138.939,100.097c-0.264-0.264-0.396-0.661-0.396-0.925s0.132-0.661,0.396-0.926l1.851-1.851
	c0.529-0.528,1.322-0.528,1.851,0l0.132,0.132l7.272,7.801c0.264,0.264,0.661,0.264,0.925,0l17.717-18.378h0.132l0,0
	c0.529-0.529,1.322-0.529,1.851,0l1.851,1.851c0.529,0.529,0.529,1.322,0,1.851l0,0l-21.154,21.947
	c-0.264,0.265-0.529,0.397-0.925,0.397s-0.661-0.132-0.926-0.397l-10.313-11.106L138.939,100.097z"/>
<g>
	<g>
		<path fill="#E01B2F" d="M739.21,479.053l5.304-5.305c0.33-0.329,0.33-0.863,0-1.193c-0.329-0.329-0.862-0.329-1.192,0
			l-5.305,5.305l-5.305-5.305c-0.33-0.329-0.863-0.329-1.193,0c-0.329,0.33-0.329,0.864,0,1.193l5.306,5.305l-5.306,5.305
			c-0.329,0.329-0.329,0.863,0,1.192c0.165,0.164,0.381,0.247,0.597,0.247s0.433-0.083,0.597-0.247l5.305-5.305l5.305,5.305
			c0.165,0.164,0.381,0.247,0.597,0.247s0.431-0.083,0.596-0.247c0.33-0.329,0.33-0.864,0-1.192L739.21,479.053z"/>
	</g>
</g>
</svg>
