<?xml version="1.0" encoding="utf-8"?>
<!-- Generator: Adobe Illustrator 16.0.0, SVG Export Plug-In . SVG Version: 6.00 Build 0)  -->
<!DOCTYPE svg PUBLIC "-//W3C//DTD SVG 1.1//EN" "http://www.w3.org/Graphics/SVG/1.1/DTD/svg11.dtd">
<svg version="1.1" xmlns="http://www.w3.org/2000/svg" xmlns:xlink="http://www.w3.org/1999/xlink" x="0px" y="0px" width="800px"
	 height="600px" viewBox="0 0 800 600" enable-background="new 0 0 800 600" xml:space="preserve">
<g id="Layer_2">
</g>
<g id="Layer_1">
	<g>
		<path fill="#F5F5F5" d="M131.571,142.557c-0.876,0-1.729,0.09-2.565,0.232c0.011-0.29,0.043-0.574,0.043-0.866
			c0-11.726-9.506-21.232-21.232-21.232c-10.138,0-18.603,7.11-20.713,16.612c-0.174-0.005-0.344-0.026-0.519-0.026
			c-9.895,0-17.916,8.021-17.916,17.916s8.021,17.916,17.916,17.916h44.986c8.437,0,15.276-6.839,15.276-15.276
			S140.007,142.557,131.571,142.557z"/>
	</g>
	<g>
		<path fill="#F5F5F5" d="M375.939,147.707c-0.781,0-1.541,0.081-2.286,0.207c0.011-0.258,0.039-0.511,0.039-0.772
			c0-10.448-8.47-18.917-18.917-18.917c-9.032,0-16.574,6.335-18.455,14.801c-0.155-0.004-0.306-0.023-0.462-0.023
			c-8.816,0-15.963,7.147-15.963,15.963s7.147,15.963,15.963,15.963h40.082c7.517,0,13.61-6.094,13.61-13.61
			C389.55,153.8,383.456,147.707,375.939,147.707z"/>
	</g>
	<g>
		<path fill="#F5F5F5" d="M729.146,142.016c-0.527,0-1.04,0.054-1.545,0.134c0.08-0.646,0.126-1.303,0.126-1.971
			c0-8.774-7.112-15.888-15.887-15.888c-8.373,0-15.229,6.479-15.839,14.695c-0.874-0.214-1.782-0.34-2.723-0.34
			c-6.313,0-11.432,5.118-11.432,11.432c0,6.313,5.118,11.432,11.432,11.432h35.867c5.383,0,9.747-4.364,9.747-9.747
			S734.528,142.016,729.146,142.016z"/>
	</g>
	<g>
		<path fill="#F5F5F5" d="M260.111,254.512c-0.527,0-1.04,0.053-1.544,0.134c0.08-0.646,0.126-1.303,0.126-1.971
			c0-8.774-7.113-15.888-15.887-15.888c-8.373,0-15.229,6.479-15.839,14.695c-0.874-0.214-1.782-0.34-2.723-0.34
			c-6.313,0-11.432,5.118-11.432,11.432c0,6.314,5.118,11.432,11.432,11.432h35.867c5.383,0,9.747-4.364,9.747-9.748
			C269.858,258.876,265.494,254.512,260.111,254.512z"/>
	</g>
	<g>
		<path fill="#F5F5F5" d="M671.161,280.271c-0.438,0-0.863,0.044-1.282,0.111c0.066-0.537,0.105-1.082,0.105-1.636
			c0-7.285-5.906-13.19-13.19-13.19c-6.951,0-12.643,5.378-13.149,12.2c-0.726-0.177-1.48-0.282-2.261-0.282
			c-5.241,0-9.491,4.25-9.491,9.491s4.25,9.491,9.491,9.491h29.777c4.47,0,8.093-3.623,8.093-8.092S675.631,280.271,671.161,280.271
			z"/>
	</g>
	<path fill="#F5F5F5" d="M142.601,471.027c5.555-13.573,0.303-24.457-6.614-32.139c13.639,0.478,21.054-3.263,22.987-5.854
		c5.736,7.983,9.399,22.61,5.146,32.087C160.708,468.448,149.396,473.52,142.601,471.027z"/>
	<path fill="#F5F5F5" d="M158.719,459.412c0.566-7.249-3.373-15.563-8.561-21.815c-3.619,0.924-8.321,1.496-14.172,1.292
		c6.917,7.682,12.169,18.565,6.614,32.139c0.58,0.213,1.196,0.367,1.834,0.476C150.658,469.354,157.001,462.931,158.719,459.412z"/>
	<path fill="#F5F5F5" d="M140.63,472.423c-0.882-14.64-10.335-22.168-19.9-26.09c12.496-5.485,17.555-12.071,18.174-15.244
		c8.631,4.705,18.277,16.296,18.555,26.68C155.827,462.245,147.833,471.721,140.63,472.423z"/>
	<path fill="#F5F5F5" d="M109.966,429.588c-13.513-5.702-16.547-16.199-17.064-26.524c-9.33,9.96-19.648,12.54-22.847,12.068
		c1.566,9.704,11.253,23.147,20.953,26.864C95.773,441.946,106.908,436.147,109.966,429.588z"/>
	<path fill="#533E29" d="M176.01,484.832l6.603-1.439l-4.947-18.542l-5.59,2l-3.944-18.032l-35.828,8.714l11.309,51.89l36.435-6.13
		L176.01,484.832z M175.795,468.73l2.97,12.936l-3.308,0.643l-2.852-13.037L175.795,468.73z"/>
	<path fill="#FDDCBE" d="M175.356,471.622c0.16,0.785,1.058,0.911,1.67,0.801c-0.587,0.048-1.593,0.27-1.491,1.255
		c0.118,1.135,1.573,1.207,2.087,1.196l0.001,0.012c-0.479,0.067-1.746,0.335-1.632,1.292c0.112,0.949,1.428,0.916,1.937,0.866
		c-0.548,0.082-1.968,0.397-1.786,1.544c0.137,0.857,2.065,0.422,2.065,0.422c35.129-10.897,53.114-11.482,53.114-11.482
		l-2.919-8.199c-37.055,5.847-47.74,10.411-51.239,11.129C177.163,470.457,175.241,470.848,175.356,471.622z"/>
	<path fill="#FDDCBE" d="M323.779,413.952c-0.754,0.271-0.587,1.121-0.516,1.692c-0.132-0.574-0.498-1.538-1.457-1.294
		c-1.106,0.28-0.967,1.73-0.882,2.237l-0.012,0.004c-0.135-0.464-0.584-1.679-1.514-1.429c-0.923,0.249-0.699,1.546-0.578,2.041
		c-0.16-0.53-0.708-1.976-1.785-1.543c-0.851,0.342-0.119,2.104-0.119,2.104c15.865,33.183-11.545,26.268-11.545,26.268l1.211,8.618
		c37.474,1.726,19.862-33.799,18.645-37.156C325.228,415.495,324.622,413.649,323.779,413.952z"/>
	<path fill="#F5F5F5" d="M305.372,444.033l1.211,8.618c1.528,0.071,2.956,0.073,4.306,0.024l-0.339-8.046
		C307.67,444.611,305.372,444.033,305.372,444.033z"/>
	<path fill="#533E29" d="M334.999,497.329c-2.366-7.773-10.546,4.68-10.546,4.68s2.288-10.421-0.411-13.92
		c-2.585-3.352-8.97,1.215-10.659,2.365l-69.425,15.266l2.709,11.134l-7.992-0.938c0,0-5.83,12.32,0.369,13.12
		c6.198,0.799,2.076-8.26,2.076-8.26s5.913,3.277,10.184,2.029c3.33-0.974,0.683-10.594,0.226-13.566
		c45.617-2.788,66.884-15.145,67.515-15.621c0,0,1.14,11.221,2.348,16.816C321.393,510.434,337.365,505.104,334.999,497.329z"/>
	<path fill="#E6E6E6" d="M305.372,444.033l1.211,8.618c0.847,0.039,1.661,0.056,2.451,0.056l-3.425-8.619
		C305.456,444.055,305.372,444.033,305.372,444.033z"/>
	<path fill="#FDDCBE" d="M305.371,443.465c0,0-13.37-96.682-76.97-46.342c0,0-12.087,14.504,0,62.205
		C293.801,460.391,305.371,443.465,305.371,443.465z"/>
	<path fill="#F5F5F5" d="M305.371,443.465l8.012,46.989c0,0-27.754,11.797-69.425,15.266l-15.556-46.392
		C228.401,459.328,281.149,457.063,305.371,443.465z"/>
	<path fill="#E6E6E6" d="M289.824,453.015l2.177,2.693l-1.572,3.955c0,0,0.913,23.326-27.047,27.312l-7.76-6.779l6.958-6.797
		c23.134,2.051,23.5-12.525,23.5-12.525l-3.341-3.223l0.914-2.717L289.824,453.015z"/>
	<path fill="#533E29" d="M289.824,453.015l2.177,2.693l-1.572,3.955c0,0,0.913,21.217-27.047,25.202l-7.76-6.779l6.958-6.797
		c23.134,2.051,23.5-10.416,23.5-10.416l-3.341-3.223l0.914-2.717L289.824,453.015z"/>
	<path fill="#FDDCBE" d="M176.778,472.452c0.086-0.005,0.169-0.015,0.248-0.029C176.95,472.43,176.866,472.439,176.778,472.452z"/>
	<path fill="#F5F5F5" d="M228.401,459.328c-1.933,0.305-3.778,0.605-5.571,0.903l2.09,7.905c4.253-0.539,6.4-0.609,6.4-0.609
		L228.401,459.328z"/>
	<path fill="#EB7D86" d="M268.985,442.247c0,0,2.951-11.184,12.973-12.587c7.815-1.094,7.834,6.549,7.834,6.549
		S282.427,435.271,268.985,442.247z"/>
	<path fill="#F5F5F5" d="M111.043,493.573c-13.852-10.266-27.773-7.439-38.531-1.787c4.5-15.398,2.391-24.93,0-27.885
		c10.758-4.219,28.484-4.149,38.046,3.444C113.357,472.197,115.853,486.556,111.043,493.573z"/>
	<path fill="#F5F5F5" d="M220.422,518.803c0-2.53-2.051-4.581-4.581-4.581c-0.213,0-0.421,0.02-0.627,0.048
		c-0.85-0.821-2.005-1.329-3.28-1.329c-2.609,0-4.724,2.115-4.724,4.724c0,0.94,0.278,1.814,0.751,2.551
		c-0.464,0.604-0.751,1.352-0.751,2.173c0,1.979,1.605,3.585,3.585,3.585c0.552,0,1.068-0.135,1.536-0.357
		c0.63,0.469,1.403,0.756,2.249,0.756c2.076,0,3.758-1.673,3.78-3.744C219.602,521.808,220.422,520.401,220.422,518.803z"/>
	<path fill="#F5F5F5" d="M196.088,516.475c0-2.72-2.204-4.924-4.923-4.924c-0.107,0-0.211,0.01-0.317,0.017
		c-0.425-2.008-2.206-3.515-4.34-3.515c-2.408,0-4.364,1.919-4.432,4.311c-3.011,0.165-5.404,2.652-5.404,5.704
		c0,2.895,2.152,5.28,4.942,5.661c1.001,1.657,2.815,2.77,4.894,2.77c2.987,0,5.437-2.292,5.694-5.212
		C194.422,520.81,196.088,518.837,196.088,516.475z"/>
	<path fill="#F5F5F5" d="M175.319,393.286c0,0-3.47-5.105-6.227-5.926c-2.756-0.821-4.465,0.599-5.052,2.567
		c-0.586,1.969,0.36,4.24,2.469,4.869C169.745,395.76,175.319,393.286,175.319,393.286z"/>
	<path fill="#F5F5F5" d="M194.919,391.509c0,0-3.471-5.105-6.227-5.927c-2.756-0.82-4.465,0.6-5.051,2.568s0.36,4.24,2.469,4.868
		C189.345,393.982,194.919,391.509,194.919,391.509z"/>
	<path fill="#F5F5F5" d="M194.543,365.419c0,0-3.47-5.105-6.227-5.927c-2.756-0.82-4.465,0.6-5.052,2.568
		c-0.586,1.969,0.36,4.24,2.47,4.868C188.969,367.893,194.543,365.419,194.543,365.419z"/>
	<path fill="#F5F5F5" d="M181.81,377.415c0,0-3.471-5.105-6.227-5.927c-2.756-0.82-4.465,0.6-5.052,2.568s0.36,4.24,2.469,4.869
		C176.235,379.889,181.81,377.415,181.81,377.415z"/>
	<path fill="#F5F5F5" d="M204.135,379.352c0,0-3.47-5.105-6.227-5.927c-2.756-0.82-4.465,0.6-5.052,2.568s0.36,4.24,2.469,4.868
		C198.561,381.825,204.135,379.352,204.135,379.352z"/>
	<g>
		<path fill="#533E29" d="M269.99,420.69l-14.907-0.856c-0.242-0.013-0.458,0.164-0.487,0.408c-0.031,0.255,0.151,0.486,0.405,0.517
			l12.851,1.543l-9.352,8.967c-0.175,0.169-0.192,0.447-0.033,0.636c0.166,0.195,0.458,0.22,0.654,0.054l11.408-9.653
			c0.184-0.157,0.308-0.387,0.323-0.647C270.881,421.152,270.496,420.72,269.99,420.69z"/>
		<path fill="#533E29" d="M294.947,420.392l-10.142-2.574l6.554-8.43c0.146-0.189,0.126-0.465-0.054-0.629
			c-0.19-0.172-0.483-0.158-0.656,0.032l-8.157,8.979c-0.112,0.123-0.192,0.279-0.223,0.456c-0.085,0.494,0.246,0.964,0.74,1.049
			l11.743,2.024c0.236,0.04,0.469-0.107,0.529-0.344C295.346,420.708,295.195,420.455,294.947,420.392z"/>
	</g>
	<path fill="#533E29" d="M240.004,429.982l-1.829-17.822c32.798-4.984,58.211-18.653,58.211-18.653
		c-9.899-28.258-36.572-27.298-50.924-22.908c-18.236,5.192-24.501,17.835-25.787,22.345c-1.615-1.623-2.059-3.854-2.059-3.854
		c-2.216,3.514-0.499,6.053-0.499,6.053c-3.617,0.521-4.427,4.112-4.427,4.112c1.15-0.501,2.269-0.601,3.248-0.521
		c-17.916,10.948,12.462,60.594,12.462,60.594c7.327-5.802,11.178-24.344,11.178-24.344s-7.487,4.06-7.219-2.771
		C232.627,425.382,240.004,429.982,240.004,429.982z"/>
	<g>
		<g>
			<path fill="#FDDCBE" d="M581.982,150.103c10.826,28.667,28.651,43.413,29.656,44.062c1.289,0.83,3.758,2.707,2.823,3.825
				c-0.476,0.568-1.041,0.583-1.896,0.124c0.459,0.468,0.906,1.022,0.585,1.621c-0.284,0.534-1.463,0.521-2.078,0.212
				c-0.051-0.034-0.103-0.069-0.156-0.091c0.054,0.022,0.105,0.058,0.156,0.091c0.491,0.333,0.819,1.186,0.557,1.676
				c-0.338,0.646-1.312,0.45-1.938,0.091c0.462,0.466,0.713,0.971,0.398,1.567c-0.665,1.254-2.833-0.476-4.117-1.518
				c-1.026-0.834-19.821-16.278-31.409-48.42L581.982,150.103z"/>
		</g>
	</g>
	<path fill="#F5F5F5" d="M472.663,267.948l11.97,25.94c1.034,2.24,3.022,3.912,5.421,4.491c25.352,6.121,54.754,3.522,82.57-9.314
		c34.657-15.993,58.836-44.166,67.657-74.331c1.631-5.577-1.094-11.481-6.396-13.859c-28.677-12.861-65.803-12.743-100.459,3.25
		c-27.816,12.836-48.872,33.522-60.664,56.785C471.647,263.11,471.629,265.708,472.663,267.948z"/>
	<path fill="#383635" d="M495.617,300.22c5.931,12.853,1.404,27.852-10.046,35.432c-1.597,1.058-2.224,3.093-1.421,4.832
		l0.238,0.518c0.76,1.645,2.57,2.546,4.334,2.13c4.868-1.147,9.695-2.79,14.413-4.967c17.71-8.173,30.771-22.305,37.921-38.912
		c-15.757,3.009-31.345,3.009-45.793,0.25C495.382,299.741,495.504,299.976,495.617,300.22z"/>
	<path fill="#383635" d="M474.962,255.498c-5.931-12.853-20.28-19.141-33.478-15.347c-1.841,0.529-3.797-0.314-4.6-2.054
		l-0.238-0.517c-0.76-1.646-0.27-3.608,1.191-4.68c4.032-2.959,8.413-5.567,13.131-7.744c17.71-8.172,36.938-8.941,54.214-3.605
		c-12.514,10.037-22.628,21.897-29.903,34.682C475.174,255.987,475.074,255.741,474.962,255.498z"/>
	<path fill="#383635" d="M633.952,200.906c-12.548-5.636-26.717-8.781-41.589-9.204l27.955,60.578
		c9.328-11.591,16.129-24.413,19.982-37.617C641.912,209.141,639.199,203.263,633.952,200.906z"/>
	<path fill="#F5F5F5" d="M597.441,197.527c-0.173-0.375-0.19-0.822-0.048-1.21c0.146-0.396,0.443-0.722,0.824-0.898
		s0.828-0.193,1.219-0.044c0.784,0.289,1.229,1.252,0.939,2.037c-0.146,0.396-0.446,0.717-0.827,0.893
		c-0.381,0.175-0.819,0.196-1.215,0.05C597.946,198.21,597.617,197.907,597.441,197.527z"/>
	<path fill="#F5F5F5" d="M601.882,203.357c0.796-0.368,1.74-0.02,2.107,0.776l0,0c0.367,0.796,0.02,1.741-0.776,2.108l0,0
		c-0.797,0.368-1.741,0.02-2.108-0.777l0,0C600.737,204.669,601.085,203.725,601.882,203.357z"/>
	<path fill="#F5F5F5" d="M616.535,235.112c0.796-0.368,1.74-0.02,2.107,0.776l0,0c0.368,0.796,0.02,1.741-0.776,2.108l0,0
		c-0.796,0.368-1.74,0.02-2.107-0.776l0,0C615.391,236.423,615.739,235.479,616.535,235.112z M612.871,227.173
		c0.797-0.368,1.741-0.02,2.108,0.776l0,0c0.367,0.796,0.02,1.741-0.776,2.108l0,0c-0.797,0.367-1.741,0.019-2.108-0.777l0,0
		C611.728,228.484,612.075,227.54,612.871,227.173z M609.208,219.234c0.796-0.368,1.741-0.02,2.108,0.777l0,0
		c0.367,0.796,0.02,1.74-0.777,2.108l0,0c-0.796,0.367-1.74,0.019-2.107-0.777l0,0C608.064,220.546,608.412,219.602,609.208,219.234
		z M605.545,211.296c0.796-0.367,1.74-0.02,2.107,0.777l0,0c0.368,0.796,0.02,1.74-0.776,2.108l0,0
		c-0.796,0.367-1.74,0.019-2.107-0.777l0,0C604.4,212.607,604.748,211.664,605.545,211.296z"/>
	<path fill="#E6E7E8" d="M619.422,245.158c-0.176-0.381-0.19-0.822-0.051-1.216c0.149-0.391,0.446-0.717,0.827-0.892
		c0.381-0.176,0.822-0.191,1.216-0.051c0.784,0.29,1.231,1.259,0.942,2.042c-0.148,0.391-0.446,0.717-0.827,0.893
		c-0.381,0.176-0.821,0.19-1.215,0.05C619.924,245.836,619.598,245.539,619.422,245.158z"/>
	<path fill="#E6E7E8" d="M591.105,191.664l28.426,61.598c0.268-0.325,0.523-0.655,0.787-0.982l-27.955-60.577
		C591.943,191.691,591.526,191.672,591.105,191.664z"/>
	<path fill="#E6E7E8" d="M501.387,220.488c-11.467,9.257-21.021,19.963-28.363,31.492c0.718,1.111,1.369,2.283,1.938,3.518
		c0.112,0.243,0.212,0.489,0.317,0.734c7.275-12.785,17.39-24.645,29.903-34.683C503.928,221.163,502.661,220.811,501.387,220.488z"
		/>
	<path fill="#E6E7E8" d="M541.057,299.252c-15.757,3.009-31.344,3.009-45.793,0.25c0.118,0.239,0.24,0.474,0.354,0.718
		c0.573,1.242,1.044,2.505,1.426,3.778c13.529,1.895,27.868,1.572,42.346-1.143C539.975,301.668,540.534,300.467,541.057,299.252z"
		/>
	<path fill="#383635" d="M466.279,312.232c-22.947,10.59-61.115,2.598-61.115,2.598s18.685-34.228,41.632-44.818
		c11.659-5.38,22.011,1.306,27.392,12.965C479.567,294.636,477.938,306.852,466.279,312.232z"/>
	<path fill="#EFA734" d="M466.09,307.275c-9.362,4.321-26.147,2.861-30.468-6.502c-4.321-9.362,5.46-23.082,14.822-27.402
		c9.363-4.32,16.995,1.364,21.315,10.726C476.08,293.46,475.453,302.955,466.09,307.275z"/>
	<path fill="#F5F5F5" d="M467.654,298.16c-5.54,2.557-15.621,1.762-18.178-3.779c-2.557-5.541,3.379-13.728,8.919-16.284
		c5.541-2.557,8.646,1.458,11.202,6.999S473.194,295.603,467.654,298.16z"/>
	<g>
		<g>
			<path fill="#B05033" d="M472.763,260.91c-1.115,2.201-1.134,4.798-0.1,7.039l11.97,25.94c1.034,2.24,3.022,3.912,5.421,4.491
				c1.718,0.415,3.455,0.786,5.208,1.12l-19.981-43.263C474.4,257.782,473.559,259.339,472.763,260.91z"/>
		</g>
		<g>
			<path fill="#843C26" d="M476.921,259.788l-4.569,2.11c-0.12,0.346-0.211,0.699-0.281,1.056l5.203-2.403L476.921,259.788z"/>
			<path fill="#843C26" d="M478.737,263.721l-6.512,3.007c0.076,0.271,0.167,0.538,0.271,0.801l6.593-3.045L478.737,263.721z"/>
			
				<rect x="473.777" y="269.143" transform="matrix(0.9078 -0.4193 0.4193 0.9078 -69.0345 225.0494)" fill="#843C26" width="7.288" height="0.841"/>
			
				<rect x="475.592" y="273.076" transform="matrix(0.9078 -0.4193 0.4193 0.9078 -70.5141 226.1451)" fill="#843C26" width="7.29" height="0.841"/>
			
				<rect x="477.408" y="277.009" transform="matrix(0.9078 -0.4193 0.4193 0.9078 -71.9962 227.2715)" fill="#843C26" width="7.291" height="0.841"/>
			
				<rect x="479.223" y="280.943" transform="matrix(0.9078 -0.4193 0.4193 0.9078 -73.4784 228.398)" fill="#843C26" width="7.292" height="0.841"/>
			
				<rect x="481.038" y="284.876" transform="matrix(0.9078 -0.4193 0.4193 0.9078 -74.9606 229.5245)" fill="#843C26" width="7.293" height="0.841"/>
			
				<rect x="482.853" y="288.809" transform="matrix(0.9078 -0.4194 0.4194 0.9078 -76.4463 230.685)" fill="#843C26" width="7.295" height="0.841"/>
			<path fill="#843C26" d="M491.453,291.251l-6.601,3.049c0.133,0.25,0.277,0.492,0.435,0.726l6.519-3.011L491.453,291.251z"/>
			<path fill="#843C26" d="M493.269,295.184l-5.205,2.404c0.318,0.177,0.646,0.337,0.988,0.47l4.569-2.111L493.269,295.184z"/>
		</g>
	</g>
	<g>
		<path fill="#F5F5F5" d="M639.684,206.607c0.439,0.956,0.014,2.311-1.363,3.878c-14.907,16.977-43.055,36.55-77.711,52.543
			c-27.816,12.837-54.66,20.98-75.855,23.865c-2.005,0.273-3.39-0.09-3.789-0.957h-0.001l3.669,7.951
			c1.034,2.24,3.022,3.912,5.421,4.491c25.352,6.121,54.754,3.522,82.57-9.314c34.657-15.993,58.836-44.166,67.657-74.331
			C641.096,211.947,640.823,209.077,639.684,206.607z"/>
	</g>
	<path fill="#E6E7E8" d="M523.9,243.991c4.323-11.932-6.763-13.706-6.763-13.706l15.943-11.175l-2.229-13.765
		c-2.569,1.249-5.078,2.566-7.525,3.946l2.732,6.938l-14.55,13.799C511.51,230.028,519.811,255.277,523.9,243.991z"/>
	<g>
		<path fill="#F5F5F5" d="M581.982,150.103l-7.419,3.239c1.951,5.411,4.107,10.336,6.348,14.811l6.86-5.075
			C585.724,159.125,583.758,154.805,581.982,150.103z"/>
	</g>
	<path fill="#F5F5F5" d="M580.911,168.152L580.911,168.152c0.928,1.855,1.871,3.623,2.82,5.318
		c-1.801-10.101-1.749-23.368-1.749-23.368l-3.617,12.635C579.198,164.605,580.045,166.422,580.911,168.152z"/>
	<g>
		<g>
			<g>
				<g>
					<path fill="#F5F5F5" d="M509.84,136.283l72.143,13.82c-2.236,11.4,0.625,29.54,0.71,33.957
						c-11.423,8.268-50.415,20.412-63.249,17.842C514.643,188.657,507.384,177.175,509.84,136.283z"/>
				</g>
			</g>
		</g>
		<g>
			<path fill="#533E29" d="M582.692,184.06l-63.249,17.842l3.713,14.292l-16.108,11.943c0,0,5.195,26.067,10.616,15.356
				c5.731-11.323-5.061-14.422-5.061-14.422l17.176-9.17l-0.582-14.677c0,0,23.488-8.731,47.155-14.103l0.504,1.115
				c2.687-0.26,5.36-0.432,8.018-0.519L582.692,184.06z"/>
		</g>
		<g>
			<g>
				<g>
					<path fill="#FDDCBE" d="M509.84,136.283c0,0,5.225-78.533,61.646-42.862c0,0,16.787,17.223,10.497,56.682
						C532.614,153.188,509.84,136.283,509.84,136.283z"/>
				</g>
			</g>
			<g>
				<g>
					<path fill="#533E29" d="M513.259,60.037c0,0-7.87,49.734,53.949,45.724l1.221,17.986c0,0,7.458-4.87,8.229,2.455
						c0.771,7.329-7.419,2.891-7.419,2.891s4.787,14.893,12.744,21.009c-0.399,0.529,30.824-71.656-1.106-66.502
						c0,0-2.289-14.613-21.911-18.574C538.627,60.919,526.339,84.802,513.259,60.037z"/>
				</g>
			</g>
		</g>
		<g>
			<path fill="#EB7D86" d="M543.638,132.512c0,0-8.322-2.841-19.565-4.546c0,0-2.063,10.618,7.36,12.808
				C541.815,143.186,543.638,132.512,543.638,132.512z"/>
		</g>
		<g>
			<g>
				<path fill="#F5F5F5" d="M509.533,146.199l5.291-5.929c-3.631-2.854-7.148-5.754-10.526-8.646l-5.568,5.875
					C502.148,140.338,505.75,143.247,509.533,146.199z"/>
			</g>
		</g>
		<g>
			<g>
				<path fill="#FDDCBE" d="M504.298,131.625c-23.279-19.926-18.137-42.961-17.762-44.097c0.482-1.455,1.226-4.465-0.203-4.75
					c-0.727-0.144-1.176,0.2-1.553,1.094c0.063-0.652,0.063-1.364-0.563-1.629c-0.557-0.238-1.466,0.512-1.751,1.139
					c-0.019,0.059-0.037,0.118-0.064,0.169c0.027-0.051,0.046-0.11,0.064-0.169c0.174-0.567-0.107-1.437-0.618-1.654
					c-0.669-0.292-1.304,0.473-1.566,1.146c0.067-0.653-0.055-1.204-0.674-1.47c-1.305-0.559-1.907,2.149-2.252,3.766
					c-0.276,1.293-4.916,30.507,21.373,52.33L504.298,131.625z"/>
			</g>
		</g>
		<g>
			
				<ellipse transform="matrix(-0.9643 -0.2649 0.2649 -0.9643 1050.1614 385.1357)" fill="#533E29" cx="551.047" cy="121.764" rx="2.518" ry="5.468"/>
			
				<ellipse transform="matrix(-0.9643 -0.2649 0.2649 -0.9643 996.3601 362.254)" fill="#533E29" cx="522.604" cy="113.95" rx="2.518" ry="5.468"/>
		</g>
	</g>
	<g>
		<g>
			<path fill="#E6E6E6" d="M568.665,154.435l1.187,3.427l-2.954,3.336c0,0-7.394,23.298-36.349,17.283l-5.231-9.436l9.269-4.221
				c22.055,10.245,27.598-3.981,27.598-3.981l-2.145-4.362l1.865-2.351L568.665,154.435z"/>
		</g>
		<g>
			<path fill="#533E29" d="M568.665,154.435l1.187,3.427l-2.954,3.336c0,0-6.644,21.221-35.599,15.205l-5.231-9.436l9.269-4.221
				c22.055,10.245,26.848-1.903,26.848-1.903l-2.145-4.362l1.865-2.351L568.665,154.435z"/>
		</g>
	</g>
	<g>
	</g>
	<g>
	</g>
	<g>
	</g>
	<g>
	</g>
	<g>
	</g>
	<g>
	</g>
</g>
</svg>
