<?xml version="1.0" encoding="utf-8"?>
<!-- Generator: Adobe Illustrator 16.0.0, SVG Export Plug-In . SVG Version: 6.00 Build 0)  -->
<!DOCTYPE svg PUBLIC "-//W3C//DTD SVG 1.1//EN" "http://www.w3.org/Graphics/SVG/1.1/DTD/svg11.dtd">
<svg version="1.1" id="Layer_1" xmlns="http://www.w3.org/2000/svg" xmlns:xlink="http://www.w3.org/1999/xlink" x="0px" y="0px"
	 width="500px" height="441.695px" viewBox="0 0 500 441.695" enable-background="new 0 0 500 441.695" xml:space="preserve">
<g>
	<path fill="#F2F2F2" d="M100.897,366.794h263.136c0.84,0,1.662-0.231,2.379-0.668l109.068-66.553
		c1.339-0.816,0.755-2.877-0.813-2.871l-258.861,1.087c-0.269,0.001-0.534,0.073-4.056,0.208L99.764,362.562
		C97.753,363.721,98.575,366.794,100.897,366.794z"/>
	<g>
		<path fill="#666666" d="M473.895,286.891H209.422V119.008c0-4.304,3.489-7.792,7.793-7.792h248.888
			c4.304,0,7.792,3.488,7.792,7.792V286.891z"/>
		<g>
			<polygon fill="#E6E6E6" points="473.895,286.891 209.422,286.891 98.793,354.183 363.266,354.183 			"/>
			<g>
				<path fill="#666666" d="M214.764,297.578c-1.313,0.799-3.645,1.452-5.182,1.452h-7.611c-1.537,0-1.72-0.653-0.407-1.452
					l6.72-4.087c1.313-0.799,3.645-1.452,5.182-1.452h7.612c1.537,0,1.72,0.653,0.407,1.452L214.764,297.578z"/>
			</g>
			<g>
				<path fill="#666666" d="M232.693,297.578c-1.313,0.799-3.645,1.452-5.182,1.452h-7.609c-1.537,0-1.72-0.653-0.407-1.452
					l6.72-4.087c1.313-0.799,3.645-1.452,5.182-1.452h7.611c1.537,0,1.72,0.653,0.407,1.452L232.693,297.578z"/>
			</g>
			<g>
				<path fill="#666666" d="M250.624,297.578c-1.313,0.799-3.646,1.452-5.182,1.452h-7.608c-1.537,0-1.72-0.653-0.407-1.452
					l6.72-4.087c1.313-0.799,3.645-1.452,5.181-1.452h7.609c1.536,0,1.72,0.653,0.406,1.452L250.624,297.578z"/>
			</g>
			<g>
				<path fill="#666666" d="M268.555,297.578c-1.313,0.799-3.646,1.452-5.182,1.452h-7.61c-1.536,0-1.72-0.653-0.406-1.452
					l6.719-4.087c1.313-0.799,3.646-1.452,5.182-1.452h7.611c1.536,0,1.72,0.653,0.406,1.452L268.555,297.578z"/>
			</g>
			<g>
				<path fill="#666666" d="M286.485,297.578c-1.313,0.799-3.646,1.452-5.182,1.452h-7.613c-1.536,0-1.72-0.653-0.406-1.452
					l6.72-4.087c1.313-0.799,3.646-1.452,5.182-1.452h7.613c1.536,0,1.72,0.653,0.406,1.452L286.485,297.578z"/>
			</g>
			<g>
				<path fill="#666666" d="M304.415,297.578c-1.313,0.799-3.646,1.452-5.182,1.452h-7.611c-1.536,0-1.72-0.653-0.406-1.452
					l6.719-4.087c1.313-0.799,3.646-1.452,5.182-1.452h7.614c1.536,0,1.72,0.653,0.406,1.452L304.415,297.578z"/>
			</g>
			<g>
				<path fill="#666666" d="M322.348,297.578c-1.313,0.799-3.646,1.452-5.182,1.452h-7.612c-1.536,0-1.72-0.653-0.406-1.452
					l6.719-4.087c1.313-0.799,3.646-1.452,5.182-1.452h7.613c1.536,0,1.72,0.653,0.406,1.452L322.348,297.578z"/>
			</g>
			<g>
				<path fill="#666666" d="M340.275,297.578c-1.313,0.799-3.646,1.452-5.182,1.452h-7.611c-1.536,0-1.72-0.653-0.406-1.452
					l6.72-4.087c1.313-0.799,3.646-1.452,5.182-1.452h7.611c1.536,0,1.72,0.653,0.406,1.452L340.275,297.578z"/>
			</g>
			<g>
				<path fill="#666666" d="M358.206,297.578c-1.313,0.799-3.646,1.452-5.182,1.452h-7.61c-1.536,0-1.72-0.653-0.406-1.452
					l6.719-4.087c1.313-0.799,3.646-1.452,5.182-1.452h7.612c1.536,0,1.72,0.653,0.406,1.452L358.206,297.578z"/>
			</g>
			<g>
				<path fill="#666666" d="M376.137,297.578c-1.313,0.799-3.646,1.452-5.182,1.452h-7.612c-1.536,0-1.72-0.653-0.406-1.452
					l6.72-4.087c1.313-0.799,3.646-1.452,5.182-1.452h7.611c1.536,0,1.72,0.653,0.406,1.452L376.137,297.578z"/>
			</g>
			<g>
				<path fill="#666666" d="M394.066,297.578c-1.313,0.799-3.646,1.452-5.182,1.452h-7.612c-1.536,0-1.72-0.653-0.406-1.452
					l6.719-4.087c1.313-0.799,3.646-1.452,5.182-1.452h7.613c1.536,0,1.72,0.653,0.406,1.452L394.066,297.578z"/>
			</g>
			<g>
				<path fill="#666666" d="M411.997,297.578c-1.313,0.799-3.646,1.452-5.182,1.452h-7.613c-1.536,0-1.72-0.653-0.406-1.452
					l6.721-4.087c1.313-0.799,3.646-1.452,5.182-1.452h7.611c1.536,0,1.72,0.653,0.406,1.452L411.997,297.578z"/>
			</g>
			<g>
				<path fill="#666666" d="M429.926,297.578c-1.313,0.799-3.646,1.452-5.182,1.452h-7.609c-1.536,0-1.72-0.653-0.406-1.452
					l6.719-4.087c1.313-0.799,3.646-1.452,5.182-1.452h7.61c1.536,0,1.72,0.653,0.406,1.452L429.926,297.578z"/>
			</g>
			<g>
				<path fill="#666666" d="M447.36,297.578c-1.313,0.799-3.646,1.452-5.182,1.452h-7.612c-1.536,0-1.72-0.653-0.406-1.452
					l6.72-4.087c1.313-0.799,3.646-1.452,5.182-1.452h7.612c1.536,0,1.72,0.653,0.406,1.452L447.36,297.578z"/>
			</g>
			<g>
				<path fill="#666666" d="M199.144,307.079c-1.313,0.799-3.645,1.452-5.182,1.452h-7.612c-1.537,0-1.72-0.653-0.407-1.452
					l6.722-4.089c1.313-0.799,3.645-1.452,5.182-1.452h7.611c1.537,0,1.72,0.653,0.407,1.452L199.144,307.079z"/>
			</g>
			<g>
				<path fill="#666666" d="M217.074,307.079c-1.313,0.799-3.645,1.452-5.182,1.452h-7.61c-1.537,0-1.72-0.653-0.407-1.452
					l6.722-4.089c1.313-0.799,3.645-1.452,5.182-1.452h7.61c1.537,0,1.72,0.653,0.407,1.452L217.074,307.079z"/>
			</g>
			<g>
				<path fill="#666666" d="M235.003,307.079c-1.313,0.799-3.645,1.452-5.182,1.452h-7.609c-1.537,0-1.72-0.653-0.407-1.452
					l6.723-4.089c1.313-0.799,3.645-1.452,5.182-1.452h7.609c1.537,0,1.72,0.653,0.407,1.452L235.003,307.079z"/>
			</g>
			<g>
				<path fill="#666666" d="M252.935,307.079c-1.313,0.799-3.646,1.452-5.182,1.452h-7.609c-1.537,0-1.72-0.653-0.407-1.452
					l6.722-4.089c1.313-0.799,3.646-1.452,5.182-1.452h7.61c1.536,0,1.72,0.653,0.406,1.452L252.935,307.079z"/>
			</g>
			<g>
				<path fill="#666666" d="M270.865,307.079c-1.313,0.799-3.646,1.452-5.182,1.452h-7.613c-1.536,0-1.72-0.653-0.406-1.452
					l6.722-4.089c1.313-0.799,3.646-1.452,5.182-1.452h7.612c1.536,0,1.72,0.653,0.406,1.452L270.865,307.079z"/>
			</g>
			<g>
				<path fill="#666666" d="M288.797,307.079c-1.313,0.799-3.646,1.452-5.182,1.452h-7.613c-1.536,0-1.72-0.653-0.406-1.452
					l6.722-4.089c1.313-0.799,3.646-1.452,5.182-1.452h7.612c1.536,0,1.72,0.653,0.406,1.452L288.797,307.079z"/>
			</g>
			<g>
				<path fill="#666666" d="M306.729,307.079c-1.313,0.799-3.646,1.452-5.182,1.452h-7.614c-1.536,0-1.72-0.653-0.406-1.452
					l6.721-4.089c1.313-0.799,3.646-1.452,5.182-1.452h7.614c1.536,0,1.72,0.653,0.406,1.452L306.729,307.079z"/>
			</g>
			<g>
				<path fill="#666666" d="M324.656,307.079c-1.313,0.799-3.646,1.452-5.182,1.452h-7.612c-1.536,0-1.72-0.653-0.406-1.452
					l6.721-4.089c1.313-0.799,3.646-1.452,5.182-1.452h7.612c1.536,0,1.72,0.653,0.406,1.452L324.656,307.079z"/>
			</g>
			<g>
				<path fill="#666666" d="M342.587,307.079c-1.313,0.799-3.646,1.452-5.182,1.452h-7.611c-1.536,0-1.72-0.653-0.406-1.452
					l6.722-4.089c1.313-0.799,3.646-1.452,5.182-1.452h7.611c1.536,0,1.72,0.653,0.406,1.452L342.587,307.079z"/>
			</g>
			<g>
				<path fill="#666666" d="M360.516,307.079c-1.313,0.799-3.646,1.452-5.182,1.452h-7.611c-1.536,0-1.72-0.653-0.406-1.452
					l6.724-4.089c1.313-0.799,3.646-1.452,5.182-1.452h7.61c1.536,0,1.72,0.653,0.406,1.452L360.516,307.079z"/>
			</g>
			<g>
				<path fill="#666666" d="M378.446,307.079c-1.313,0.799-3.646,1.452-5.182,1.452h-7.612c-1.536,0-1.72-0.653-0.406-1.452
					l6.722-4.089c1.313-0.799,3.646-1.452,5.182-1.452h7.613c1.536,0,1.72,0.653,0.406,1.452L378.446,307.079z"/>
			</g>
			<g>
				<path fill="#666666" d="M396.377,307.079c-1.313,0.799-3.646,1.452-5.182,1.452h-7.613c-1.536,0-1.72-0.653-0.406-1.452
					l6.722-4.089c1.313-0.799,3.646-1.452,5.182-1.452h7.614c1.536,0,1.72,0.653,0.406,1.452L396.377,307.079z"/>
			</g>
			<g>
				<path fill="#666666" d="M414.306,307.079c-1.313,0.799-3.646,1.452-5.182,1.452h-7.609c-1.536,0-1.72-0.653-0.406-1.452
					l6.722-4.089c1.313-0.799,3.646-1.452,5.182-1.452h7.61c1.536,0,1.72,0.653,0.406,1.452L414.306,307.079z"/>
			</g>
			<g>
				<path fill="#666666" d="M431.739,307.079c-1.313,0.799-3.646,1.452-5.182,1.452h-7.611c-1.536,0-1.72-0.653-0.406-1.452
					l6.722-4.089c1.313-0.799,3.646-1.452,5.182-1.452h7.611c1.536,0,1.72,0.653,0.406,1.452L431.739,307.079z"/>
			</g>
			<g>
				<path fill="#666666" d="M183.525,316.579c-1.313,0.799-3.645,1.452-5.182,1.452h-7.611c-1.537,0-1.72-0.653-0.407-1.452
					l6.723-4.089c1.313-0.799,3.645-1.452,5.182-1.452h7.612c1.537,0,1.72,0.653,0.407,1.452L183.525,316.579z"/>
			</g>
			<g>
				<path fill="#666666" d="M201.456,316.579c-1.313,0.799-3.645,1.452-5.182,1.452h-7.609c-1.537,0-1.72-0.653-0.407-1.452
					l6.723-4.089c1.313-0.799,3.645-1.452,5.182-1.452h7.609c1.537,0,1.72,0.653,0.407,1.452L201.456,316.579z"/>
			</g>
			<g>
				<path fill="#666666" d="M219.385,316.579c-1.313,0.799-3.645,1.452-5.182,1.452h-7.608c-1.537,0-1.72-0.653-0.407-1.452
					l6.723-4.089c1.313-0.799,3.645-1.452,5.182-1.452h7.609c1.537,0,1.72,0.653,0.407,1.452L219.385,316.579z"/>
			</g>
			<g>
				<path fill="#666666" d="M237.316,316.579c-1.313,0.799-3.645,1.452-5.182,1.452h-7.61c-1.537,0-1.72-0.653-0.407-1.452
					l6.723-4.089c1.313-0.799,3.645-1.452,5.182-1.452h7.611c1.537,0,1.72,0.653,0.407,1.452L237.316,316.579z"/>
			</g>
			<g>
				<path fill="#666666" d="M255.246,316.579c-1.313,0.799-3.646,1.452-5.182,1.452h-7.612c-1.537,0-1.72-0.653-0.407-1.452
					l6.724-4.089c1.313-0.799,3.646-1.452,5.182-1.452h7.611c1.536,0,1.72,0.653,0.406,1.452L255.246,316.579z"/>
			</g>
			<g>
				<path fill="#666666" d="M273.178,316.579c-1.313,0.799-3.646,1.452-5.182,1.452h-7.613c-1.536,0-1.72-0.653-0.406-1.452
					l6.723-4.089c1.313-0.799,3.646-1.452,5.182-1.452h7.613c1.536,0,1.72,0.653,0.406,1.452L273.178,316.579z"/>
			</g>
			<g>
				<path fill="#666666" d="M291.108,316.579c-1.313,0.799-3.646,1.452-5.182,1.452h-7.611c-1.536,0-1.72-0.653-0.406-1.452
					l6.722-4.089c1.313-0.799,3.646-1.452,5.182-1.452h7.613c1.536,0,1.72,0.653,0.406,1.452L291.108,316.579z"/>
			</g>
			<g>
				<path fill="#666666" d="M309.037,316.579c-1.313,0.799-3.646,1.452-5.182,1.452h-7.613c-1.536,0-1.72-0.653-0.406-1.452
					l6.725-4.089c1.313-0.799,3.646-1.452,5.182-1.452h7.61c1.536,0,1.72,0.653,0.406,1.452L309.037,316.579z"/>
			</g>
			<g>
				<path fill="#666666" d="M326.968,316.579c-1.313,0.799-3.646,1.452-5.182,1.452h-7.61c-1.536,0-1.72-0.653-0.406-1.452
					l6.723-4.089c1.313-0.799,3.646-1.452,5.182-1.452h7.61c1.536,0,1.72,0.653,0.406,1.452L326.968,316.579z"/>
			</g>
			<g>
				<path fill="#666666" d="M344.897,316.579c-1.313,0.799-3.646,1.452-5.182,1.452h-7.611c-1.536,0-1.72-0.653-0.406-1.452
					l6.723-4.089c1.313-0.799,3.646-1.452,5.182-1.452h7.612c1.536,0,1.72,0.653,0.406,1.452L344.897,316.579z"/>
			</g>
			<g>
				<path fill="#666666" d="M362.828,316.579c-1.313,0.799-3.646,1.452-5.182,1.452h-7.614c-1.536,0-1.72-0.653-0.406-1.452
					l6.725-4.089c1.313-0.799,3.646-1.452,5.182-1.452h7.613c1.536,0,1.72,0.653,0.406,1.452L362.828,316.579z"/>
			</g>
			<g>
				<path fill="#666666" d="M380.759,316.579c-1.313,0.799-3.646,1.452-5.182,1.452h-7.612c-1.536,0-1.72-0.653-0.406-1.452
					l6.723-4.089c1.313-0.799,3.646-1.452,5.182-1.452h7.613c1.536,0,1.72,0.653,0.406,1.452L380.759,316.579z"/>
			</g>
			<g>
				<path fill="#666666" d="M398.688,316.579c-1.313,0.799-3.646,1.452-5.182,1.452h-7.61c-1.536,0-1.72-0.653-0.406-1.452
					l6.724-4.089c1.313-0.799,3.646-1.452,5.182-1.452h7.61c1.536,0,1.72,0.653,0.406,1.452L398.688,316.579z"/>
			</g>
			<g>
				<path fill="#666666" d="M416.121,316.579c-1.313,0.799-3.646,1.452-5.182,1.452h-7.611c-1.536,0-1.72-0.653-0.406-1.452
					l6.724-4.089c1.313-0.799,3.646-1.452,5.182-1.452h7.611c1.536,0,1.72,0.653,0.406,1.452L416.121,316.579z"/>
			</g>
			<g>
				<path fill="#666666" d="M169.211,325.287c-1.313,0.799-3.645,1.452-5.182,1.452h-7.611c-1.537,0-1.72-0.653-0.407-1.452
					l6.722-4.088c1.313-0.799,3.645-1.452,5.182-1.452h7.611c1.537,0,1.72,0.653,0.407,1.452L169.211,325.287z"/>
			</g>
			<g>
				<path fill="#666666" d="M187.141,325.287c-1.313,0.799-3.645,1.452-5.182,1.452h-7.61c-1.537,0-1.72-0.653-0.407-1.452
					l6.722-4.088c1.313-0.799,3.645-1.452,5.182-1.452h7.61c1.537,0,1.72,0.653,0.407,1.452L187.141,325.287z"/>
			</g>
			<g>
				<path fill="#666666" d="M366.442,325.287c-1.313,0.799-3.646,1.452-5.182,1.452H192.28c-1.537,0-1.72-0.653-0.407-1.452
					l6.722-4.088c1.313-0.799,3.645-1.452,5.182-1.452h168.981c1.536,0,1.72,0.653,0.406,1.452L366.442,325.287z"/>
			</g>
			<g>
				<path fill="#666666" d="M384.373,325.287c-1.313,0.799-3.646,1.452-5.182,1.452h-7.608c-1.536,0-1.72-0.653-0.406-1.452
					l6.72-4.088c1.313-0.799,3.646-1.452,5.182-1.452h7.611c1.536,0,1.72,0.653,0.406,1.452L384.373,325.287z"/>
			</g>
			<g>
				<path fill="#666666" d="M401.808,325.287c-1.313,0.799-3.646,1.452-5.182,1.452h-7.612c-1.536,0-1.72-0.653-0.406-1.452
					l6.721-4.088c1.313-0.799,3.646-1.452,5.182-1.452h7.611c1.536,0,1.72,0.653,0.406,1.452L401.808,325.287z"/>
			</g>
			<g>
				<path fill="#666666" d="M272.521,349.697c-1.313,0.799-3.646,1.452-5.182,1.452h-61.403c-1.537,0-1.72-0.653-0.407-1.452
					l32.103-19.527c1.313-0.799,3.645-1.452,5.182-1.452h61.403c1.536,0,1.72,0.653,0.406,1.452L272.521,349.697z"/>
			</g>
		</g>
		<path fill="#CCCCCC" d="M363.266,354.183H98.793l0,0c0,4.298,3.484,7.782,7.782,7.782h254.51c1.426,0,2.825-0.393,4.044-1.134
			l105.028-63.883c2.321-1.412,3.737-3.932,3.737-6.649v-3.408L363.266,354.183z"/>
	</g>
	<rect x="220.827" y="124.074" fill="#F2F2F2" width="241.663" height="150.964"/>
	<g>
		<g>
			<g>
				<path fill="#C2C76C" d="M345.768,240.425c-21.353,0-38.664-17.311-38.664-38.664h-14.071c0,29.125,23.61,52.736,52.735,52.736
					s52.736-23.611,52.736-52.736h-14.072C384.432,223.114,367.121,240.425,345.768,240.425z"/>
			</g>
			<g>
				<g>
					<g>
						<path fill="#D87F27" d="M345.768,149.024c-3.124,0-6.184,0.273-9.158,0.794l2.444,13.86c2.18-0.382,4.425-0.583,6.714-0.583
							c11.891,0,22.524,5.369,29.618,13.813l10.779-9.045C376.49,156.346,361.984,149.024,345.768,149.024z"/>
					</g>
					<g>
						<path fill="#FFCA5F" d="M293.032,201.761h14.071c0-19.063,13.797-34.903,31.95-38.082l-2.444-13.86
							C311.85,154.154,293.032,175.759,293.032,201.761z"/>
					</g>
				</g>
				<g>
					<path fill="#BB5327" d="M398.504,201.761c0-12.908-4.641-24.731-12.339-33.897l-10.779,9.045
						c5.645,6.721,9.046,15.388,9.046,24.852H398.504z"/>
				</g>
			</g>
		</g>
		<g>
			<g>
				<rect x="231.869" y="134.489" fill="#C2C76C" width="11.124" height="11.124"/>
			</g>
			<g>
				<rect x="231.869" y="145.613" fill="#FFCA5F" width="11.124" height="11.124"/>
			</g>
			<g>
				<rect x="231.869" y="156.651" fill="#D87F27" width="11.124" height="11.124"/>
			</g>
			<g>
				<rect x="231.869" y="167.775" fill="#BB5327" width="11.124" height="11.124"/>
			</g>
		</g>
		<g>
			<rect x="247.129" y="136.824" fill="#E0E0E0" width="20.68" height="6.453"/>
		</g>
		<g>
			<rect x="234.408" y="228.329" fill="#E0E0E0" width="20.678" height="6.452"/>
		</g>
		<g>
			<rect x="408.888" y="259.134" fill="#E0E0E0" width="20.678" height="6.452"/>
		</g>
		<g>
			<rect x="425.431" y="183.548" fill="#E0E0E0" width="20.679" height="6.451"/>
		</g>
		<g>
			<rect x="410.599" y="136.824" fill="#E0E0E0" width="20.68" height="6.453"/>
		</g>
		<g>
			<rect x="247.129" y="147.948" fill="#E0E0E0" width="20.68" height="6.452"/>
		</g>
		<g>
			<rect x="247.129" y="158.987" fill="#E0E0E0" width="20.68" height="6.452"/>
		</g>
		<g>
			<rect x="247.129" y="170.111" fill="#E0E0E0" width="20.68" height="6.452"/>
		</g>
		<g>
			<path fill="#5B5B5E" d="M289.024,232.063h-29.659c-0.281,0-0.508-0.228-0.508-0.508c0-0.281,0.227-0.508,0.508-0.508h29.295
				l11.577-34.452c0.09-0.266,0.377-0.409,0.643-0.319c0.267,0.089,0.41,0.377,0.321,0.643l-11.695,34.799
				C289.437,231.924,289.243,232.063,289.024,232.063L289.024,232.063z"/>
		</g>
		<g>
			<path fill="#5B5B5E" d="M360.901,159.496c-0.07,0-0.141-0.015-0.209-0.046c-0.255-0.116-0.368-0.417-0.253-0.672l8.557-18.937
				c0.082-0.182,0.263-0.299,0.463-0.299h36.456c0.281,0,0.509,0.228,0.509,0.508c0,0.28-0.228,0.508-0.509,0.508h-36.128
				l-8.423,18.637C361.279,159.384,361.096,159.496,360.901,159.496L360.901,159.496z"/>
		</g>
		<g>
			<path fill="#5B5B5E" d="M420.938,187.282h-31.513c-0.281,0-0.508-0.228-0.508-0.508c0-0.281,0.227-0.508,0.508-0.508h31.513
				c0.281,0,0.51,0.227,0.51,0.508C421.447,187.055,421.219,187.282,420.938,187.282L420.938,187.282z"/>
		</g>
		<g>
			<path fill="#5B5B5E" d="M405.06,262.867H364.61c-0.133,0-0.262-0.052-0.356-0.145l-14.832-14.546
				c-0.2-0.196-0.203-0.519-0.006-0.718c0.195-0.201,0.517-0.203,0.718-0.007l14.684,14.401h40.242c0.281,0,0.509,0.228,0.509,0.508
				C405.568,262.641,405.341,262.867,405.06,262.867L405.06,262.867z"/>
		</g>
		<g>
			<path fill="#5B5B5E" d="M300.719,199.547c-1.538,0-2.789-1.251-2.789-2.79c0-1.538,1.251-2.79,2.789-2.79
				c1.539,0,2.79,1.252,2.79,2.79C303.509,198.296,302.258,199.547,300.719,199.547L300.719,199.547z M300.719,194.983
				c-0.978,0-1.773,0.796-1.773,1.774s0.796,1.774,1.773,1.774c0.979,0,1.773-0.796,1.773-1.774S301.697,194.983,300.719,194.983
				L300.719,194.983z"/>
		</g>
		<g>
			<path fill="#5B5B5E" d="M360.902,161.776c-1.538,0-2.79-1.251-2.79-2.79s1.252-2.79,2.79-2.79c1.537,0,2.79,1.251,2.79,2.79
				S362.439,161.776,360.902,161.776L360.902,161.776z M360.902,157.213c-0.979,0-1.774,0.795-1.774,1.773
				c0,0.979,0.795,1.774,1.774,1.774c0.978,0,1.773-0.796,1.773-1.774C362.676,158.009,361.88,157.213,360.902,157.213
				L360.902,157.213z"/>
		</g>
		<g>
			<path fill="#5B5B5E" d="M389.425,189.563c-1.539,0-2.79-1.251-2.79-2.789c0-1.539,1.251-2.79,2.79-2.79
				c1.538,0,2.79,1.251,2.79,2.79C392.215,188.312,390.963,189.563,389.425,189.563L389.425,189.563z M389.425,185
				c-0.978,0-1.774,0.796-1.774,1.774c0,0.978,0.797,1.773,1.774,1.773c0.979,0,1.773-0.796,1.773-1.773
				C391.198,185.796,390.403,185,389.425,185L389.425,185z"/>
		</g>
		<g>
			<path fill="#5B5B5E" d="M349.777,250.603c-1.538,0-2.79-1.251-2.79-2.789c0-1.539,1.252-2.791,2.79-2.791
				c1.539,0,2.79,1.252,2.79,2.791C352.567,249.352,351.316,250.603,349.777,250.603L349.777,250.603z M349.777,246.04
				c-0.979,0-1.773,0.795-1.773,1.774c0,0.977,0.795,1.773,1.773,1.773c0.978,0,1.774-0.796,1.774-1.773
				C351.552,246.835,350.755,246.04,349.777,246.04L349.777,246.04z"/>
		</g>
		<g>
			<circle fill="#E0E0E0" cx="345.768" cy="201.702" r="32.754"/>
		</g>
	</g>
</g>
<g>
	<path fill="#F2F2F2" d="M252.864,158.519c9.645-14.49,11.803-31.77,7.417-47.303h-5.778c4.544,14.411,2.772,30.674-6.252,44.232
		c-9.111,13.689-23.621,21.619-38.829,22.875v5.557C226.424,182.611,242.686,173.81,252.864,158.519z"/>
	<g>
		<g>
			<defs>
				<circle id="SVGID_1_" cx="202.721" cy="124.314" r="51.713"/>
			</defs>
			<clipPath id="SVGID_2_">
				<use xlink:href="#SVGID_1_"  overflow="visible"/>
			</clipPath>
			<g clip-path="url(#SVGID_2_)">
				<path fill="#666666" d="M486.266,295.109H197.052V111.52c0-4.706,3.815-8.521,8.521-8.521h272.171
					c4.706,0,8.521,3.815,8.521,8.521V295.109z"/>
				<rect x="209.523" y="117.06" fill="#F2F2F2" width="264.271" height="165.087"/>
				<g>
					<g>
						<g>
							<path fill="#C2C76C" d="M346.152,244.295c-23.351,0-42.28-18.93-42.28-42.281h-15.39c0,31.85,25.819,57.669,57.67,57.669
								c31.849,0,57.669-25.819,57.669-57.669h-15.388C388.434,225.365,369.503,244.295,346.152,244.295z"/>
						</g>
						<g>
							<g>
								<g>
									<path fill="#D87F27" d="M346.152,144.344c-3.416,0-6.763,0.299-10.016,0.869l2.673,15.157
										c2.385-0.417,4.839-0.637,7.343-0.637c13.003,0,24.631,5.871,32.388,15.105l11.788-9.892
										C379.749,152.352,363.886,144.344,346.152,144.344z"/>
								</g>
								<g>
									<path fill="#FFCA5F" d="M288.482,202.014h15.39c0-20.846,15.087-38.167,34.938-41.644l-2.673-15.157
										C309.061,149.955,288.482,173.58,288.482,202.014z"/>
								</g>
							</g>
							<g>
								<path fill="#BB5327" d="M403.821,202.014c0-14.115-5.074-27.044-13.493-37.068l-11.788,9.892
									c6.173,7.349,9.894,16.828,9.894,27.176H403.821z"/>
							</g>
						</g>
					</g>
					<g>
						<g>
							<rect x="221.599" y="128.449" fill="#C2C76C" width="12.164" height="12.165"/>
						</g>
						<g>
							<rect x="221.599" y="140.613" fill="#FFCA5F" width="12.164" height="12.165"/>
						</g>
						<g>
							<rect x="221.599" y="152.684" fill="#D87F27" width="12.164" height="12.165"/>
						</g>
						<g>
							<rect x="221.599" y="164.849" fill="#BB5327" width="12.164" height="12.165"/>
						</g>
					</g>
					<g>
						<rect x="238.287" y="131.003" fill="#E0E0E0" width="22.613" height="7.056"/>
					</g>
					<g>
						<rect x="224.374" y="231.068" fill="#E0E0E0" width="22.613" height="7.056"/>
					</g>
					<g>
						<rect x="415.178" y="264.754" fill="#E0E0E0" width="22.611" height="7.056"/>
					</g>
					<g>
						<rect x="433.267" y="182.098" fill="#E0E0E0" width="22.613" height="7.055"/>
					</g>
					<g>
						<rect x="417.048" y="131.003" fill="#E0E0E0" width="22.613" height="7.056"/>
					</g>
					<g>
						<rect x="238.287" y="143.167" fill="#E0E0E0" width="22.613" height="7.056"/>
					</g>
					<g>
						<rect x="238.287" y="155.238" fill="#E0E0E0" width="22.613" height="7.056"/>
					</g>
					<g>
						<rect x="238.287" y="167.403" fill="#E0E0E0" width="22.613" height="7.056"/>
					</g>
					<g>
						<path fill="#5B5B5E" d="M284.101,235.151h-32.434c-0.307,0-0.555-0.249-0.555-0.556c0-0.307,0.248-0.555,0.555-0.555h32.034
							l12.661-37.675c0.099-0.291,0.412-0.448,0.703-0.35c0.291,0.098,0.448,0.413,0.351,0.703l-12.789,38.054
							C284.551,234.999,284.34,235.151,284.101,235.151L284.101,235.151z"/>
					</g>
					<g>
						<path fill="#5B5B5E" d="M362.701,155.794c-0.076,0-0.154-0.016-0.229-0.049c-0.278-0.126-0.403-0.456-0.276-0.735
							l9.357-20.708c0.09-0.199,0.287-0.327,0.506-0.327h39.867c0.307,0,0.556,0.249,0.556,0.556c0,0.307-0.249,0.555-0.556,0.555
							h-39.509l-9.21,20.381C363.115,155.673,362.913,155.794,362.701,155.794L362.701,155.794z"/>
					</g>
					<g>
						<path fill="#5B5B5E" d="M428.354,186.181h-34.462c-0.307,0-0.555-0.249-0.555-0.555s0.248-0.556,0.555-0.556h34.462
							c0.308,0,0.556,0.249,0.556,0.556S428.662,186.181,428.354,186.181L428.354,186.181z"/>
					</g>
					<g>
						<path fill="#5B5B5E" d="M410.991,268.837h-44.234c-0.146,0-0.285-0.057-0.389-0.159l-16.221-15.907
							c-0.219-0.215-0.222-0.567-0.007-0.786c0.216-0.219,0.566-0.223,0.785-0.008l16.059,15.749h44.007
							c0.308,0,0.555,0.249,0.555,0.556S411.299,268.837,410.991,268.837L410.991,268.837z"/>
					</g>
					<g>
						<path fill="#5B5B5E" d="M296.889,199.593c-1.682,0-3.05-1.368-3.05-3.051c0-1.682,1.368-3.051,3.05-3.051
							c1.684,0,3.051,1.369,3.051,3.051C299.939,198.225,298.572,199.593,296.889,199.593L296.889,199.593z M296.889,194.603
							c-1.068,0-1.938,0.87-1.938,1.94c0,1.069,0.87,1.94,1.938,1.94c1.07,0,1.94-0.871,1.94-1.94
							C298.829,195.473,297.959,194.603,296.889,194.603L296.889,194.603z"/>
					</g>
					<g>
						<path fill="#5B5B5E" d="M362.703,158.289c-1.683,0-3.052-1.368-3.052-3.051c0-1.682,1.369-3.05,3.052-3.05
							c1.681,0,3.05,1.368,3.05,3.05C365.753,156.921,364.384,158.289,362.703,158.289L362.703,158.289z M362.703,153.299
							c-1.071,0-1.941,0.87-1.941,1.939c0,1.07,0.87,1.941,1.941,1.941c1.069,0,1.938-0.871,1.938-1.941
							C364.642,154.169,363.772,153.299,362.703,153.299L362.703,153.299z"/>
					</g>
					<g>
						<path fill="#5B5B5E" d="M393.893,188.676c-1.683,0-3.05-1.369-3.05-3.051c0-1.682,1.367-3.051,3.05-3.051
							c1.684,0,3.052,1.369,3.052,3.051C396.944,187.307,395.576,188.676,393.893,188.676L393.893,188.676z M393.893,183.686
							c-1.069,0-1.939,0.871-1.939,1.94c0,1.07,0.87,1.939,1.939,1.939c1.07,0,1.939-0.87,1.939-1.939
							C395.832,184.556,394.963,183.686,393.893,183.686L393.893,183.686z"/>
					</g>
					<g>
						<path fill="#5B5B5E" d="M350.536,255.425c-1.681,0-3.05-1.368-3.05-3.05c0-1.682,1.369-3.05,3.05-3.05
							c1.684,0,3.052,1.368,3.052,3.05C353.588,254.058,352.22,255.425,350.536,255.425L350.536,255.425z M350.536,250.436
							c-1.068,0-1.938,0.87-1.938,1.939s0.87,1.939,1.938,1.939c1.07,0,1.941-0.87,1.941-1.939S351.606,250.436,350.536,250.436
							L350.536,250.436z"/>
					</g>
					<g>
						<circle fill="#E0E0E0" cx="346.152" cy="201.949" r="35.819"/>
					</g>
				</g>
			</g>
		</g>
		<g>
			<path fill="#F2F2F2" d="M139.688,321.382c0,4.032-21.352,7.344-47.691,7.399c-26.339,0.054-47.69-3.17-47.69-7.201
				c0-4.032,21.352-7.344,47.69-7.399C118.336,314.127,139.688,317.351,139.688,321.382z"/>
			<g>
				<g>
					<g>
						<g>
							<g>
								<g>
									<g>
										<g>
											<g>
												<path fill="#FDDCBE" d="M167.242,214.223c0,0,6.693-5.874,1.398-9.852c-5.294-3.978-7.651,4.672-7.651,4.672
													L167.242,214.223z"/>
											</g>
										</g>
									</g>
								</g>
							</g>
						</g>
						<g>
							<g>
								<g>
									<g>
										<g>
											<g>
												<g>
													<polygon fill="#F5F5F5" points="159.867,210.079 160.944,208.254 167.914,214.042 166.692,215.89 													"/>
												</g>
											</g>
										</g>
									</g>
								</g>
							</g>
						</g>
						<g>
							<g>
								<g>
									<g>
										<g>
											<g>
												<g>
													<path fill="#333333" d="M117.167,220.919c0,0,24.11,31.099,50.458-5.255l-7.691-6.872c0,0-17.75,33.188-43.948-3.597
														L117.167,220.919z"/>
												</g>
											</g>
										</g>
									</g>
								</g>
							</g>
						</g>
						<path fill="#F2F2F2" d="M161.179,208.423l-0.235-0.195l-0.557,0.943l-0.453-0.405c0,0-12.752,23.832-32.59,8.705l-5.449,8.186
							c5.37,4.55,14.867,10.182,26.144,6.339l18.985-28.524C163.622,202.382,161.748,206.784,161.179,208.423z"/>
						<g>
							<g>
								<g>
									<g>
										<g>
											<g>
												<g>
													<circle fill="#666666" cx="162.506" cy="218.286" r="0.944"/>
												</g>
											</g>
										</g>
									</g>
								</g>
							</g>
						</g>
						<g>
							<g>
								<g>
									<g>
										<g>
											<g>
												<g>
													<circle fill="#666666" cx="164.662" cy="215.904" r="0.944"/>
												</g>
											</g>
										</g>
									</g>
								</g>
							</g>
						</g>
					</g>
				</g>
				<g>
					<g>
						<g>
							<g>
								<g>
									<g>
										<g>
											<g>
												<g>
													<g>
														<g>
															<g>
																<g>
																	<g>
																		<g>
																			<g>
																				<g>
																					<path fill="#FDDCBE" d="M40.513,218.866c0,0-17.378-63.538,22.652-74.894
																						c51.029-14.477,52.916,63.24,52.916,63.24L40.513,218.866z"/>
																				</g>
																			</g>
																		</g>
																	</g>
																</g>
															</g>
														</g>
														
															<ellipse transform="matrix(0.9634 -0.2679 0.2679 0.9634 -45.905 25.0073)" fill="#574939" cx="68.691" cy="180.73" rx="2.518" ry="5.262"/>
														
															<ellipse transform="matrix(0.9635 -0.2678 0.2678 0.9635 -42.2326 33.4761)" fill="#574939" cx="101.617" cy="171.576" rx="2.518" ry="5.262"/>
														<g>
															<g>
																<g>
																	<path fill="#EB7D86" d="M77.196,193.006c0,0,13.22-4.735,22.224-4.75c0,0,4.29,11.37-8.598,14.515
																		C78.065,205.885,77.196,193.006,77.196,193.006z"/>
																</g>
															</g>
														</g>
														<g>
															<g>
																<g>
																	<g>
																		<g>
																			<g>
																				<g>
																					<g>
																						<g>
																							<g>
																								<path fill="#333333" d="M122.433,254.607l0.458,34.6l-5.423,26.133c0,0,9.971-5.573,13.228,1.148
																									c4.588,9.469-17.944,3.035-17.944,3.035l3.188-29.669l-2.309-26.002c0,0-19.651,7.295-49.315,8.23
																									l0.191,21.73l-6.431,24.864c0,0,5.371-6.537,11.456,0.32c8.165,9.2-15.379,3.479-15.379,3.479l3.403-28.295
																									l-3.492-25.512C54.063,268.667,79.691,256.832,122.433,254.607z"/>
																							</g>
																						</g>
																					</g>
																				</g>
																			</g>
																		</g>
																	</g>
																	<g>
																		<g>
																			<g>
																				<g>
																					<g>
																						<g>
																							<g>
																								<path fill="#333333" d="M63.358,213.398l28.86,26.786l17.824-34.592l6.771-1.063l5.619,50.078
																									c0,0-6.57,3.87-19.896,7.205c-5.557,1.493-14.176,3.045-14.176,3.045
																									c-8.815,1.418-21.647,2.951-34.298,3.81L38.37,217.971L63.358,213.398z"/>
																							</g>
																						</g>
																					</g>
																				</g>
																			</g>
																		</g>
																	</g>
																	<g>
																		<g>
																			<g>
																				<g>
																					<g>
																						<g>
																							<g>
																								<g>
																									<g>
																										<polygon fill="#F5F5F5" points="110.042,205.592 92.218,240.184 63.358,213.398 
																																																					"/>
																									</g>
																								</g>
																							</g>
																						</g>
																					</g>
																				</g>
																			</g>
																			<g>
																				<g>
																					<g>
																						<g>
																							<g>
																								<g>
																									<g>
																										<polygon fill="#666666" points="110.042,205.592 112.518,218.734 105.318,221.474 108.009,231.344 
																											92.218,240.184 																										"/>
																									</g>
																								</g>
																							</g>
																						</g>
																					</g>
																				</g>
																			</g>
																			<g>
																				<g>
																					<g>
																						<g>
																							<g>
																								<g>
																									<g>
																										<polygon fill="#666666" points="92.218,240.184 74.671,234.947 74.05,227.552 65.746,225.997 
																											63.358,213.398 																										"/>
																									</g>
																								</g>
																							</g>
																						</g>
																					</g>
																				</g>
																			</g>
																			<g>
																				<g>
																					<g>
																						<g>
																							<g>
																								<g>
																									<g>
																										<polygon fill="#333333" points="94.87,214.731 91.808,211.457 85.429,212.275 83.823,217.088 
																											86.865,219.661 85.703,234.163 92.218,240.184 96.957,230.996 92.512,218.879 																										
																											"/>
																									</g>
																								</g>
																							</g>
																						</g>
																					</g>
																				</g>
																			</g>
																		</g>
																	</g>
																	<g>
																		<g>
																			<g>
																				<g>
																					<g>
																						<g>
																							<g>
																								<circle fill="#666666" cx="93.153" cy="245.015" r="2.167"/>
																							</g>
																						</g>
																					</g>
																				</g>
																			</g>
																		</g>
																	</g>
																	<g>
																		<g>
																			<g>
																				<g>
																					<g>
																						<g>
																							<g>
																								<path fill="#666666" d="M92.391,255.636c0.437,1.115,1.694,1.666,2.807,1.23
																									c1.115-0.436,1.666-1.692,1.229-2.806c-0.433-1.116-1.691-1.666-2.806-1.23
																									C92.506,253.264,91.955,254.521,92.391,255.636z"/>
																							</g>
																						</g>
																					</g>
																				</g>
																			</g>
																		</g>
																	</g>
																</g>
															</g>
														</g>
														<g>
															<g>
																<g>
																	<g>
																		<g>
																			<g>
																				<g>
																					<g>
																						<g>
																							<path fill="#574939" d="M104.889,112.646c0,0,26.16,50.375-54.691,52.963l0.919,15.866
																								c0,0-7.68-6.534-8.262,1.178c-0.67,8.879,7.248,5.196,7.248,5.196s-4.722,18.808-11.294,27.366
																								c-0.367,0.477-37.354-68.658-2.898-70.037c0,0-0.679-17.751,20.729-23.83
																								C86.553,112.856,88.843,137.261,104.889,112.646z"/>
																						</g>
																					</g>
																				</g>
																			</g>
																		</g>
																	</g>
																</g>
															</g>
														</g>
													</g>
												</g>
											</g>
										</g>
									</g>
								</g>
							</g>
						</g>
					</g>
				</g>
				<g>
					
						<rect x="156.668" y="167.205" transform="matrix(0.8325 0.5541 -0.5541 0.8325 127.4767 -61.6421)" fill="#E6E6E6" width="18.008" height="25.546"/>
					<polygon fill="#F2F2F2" points="165.253,164.356 163.894,166.399 170.306,189.267 180.244,174.334 					"/>
					<circle opacity="0.33" fill="#F2F2F2" cx="202.721" cy="124.314" r="51.713"/>
					<path fill="#E6E6E6" d="M234.445,76.652c-26.323-17.521-61.866-10.384-79.386,15.939
						c-17.521,26.323-10.384,61.865,15.939,79.386s61.865,10.384,79.386-15.939C267.904,129.715,260.769,94.172,234.445,76.652z
						 M174.068,167.363c-23.775-15.825-30.221-47.927-14.396-71.703c15.825-23.775,47.927-30.221,71.703-14.396
						c23.775,15.825,30.221,47.927,14.396,71.703C229.946,176.743,197.844,183.188,174.068,167.363z"/>
					<path fill="#F2F2F2" d="M158.203,100.08c15.449-23.212,46.791-29.505,70.003-14.055c23.212,15.45,29.504,46.792,14.055,70.004
						c-2.238,3.361-4.816,6.355-7.647,8.993c4.229-3.314,8.017-7.337,11.156-12.054c15.825-23.775,9.379-55.878-14.396-71.703
						c-23.776-15.825-55.878-9.379-71.703,14.396c-3.14,4.717-5.389,9.764-6.813,14.944
						C154.199,106.976,155.966,103.441,158.203,100.08z"/>
					<path fill="#666666" d="M110.672,278.964l-15.086-10.042c-1.645-1.095-2.09-3.314-0.996-4.959l51.502-77.378
						c1.094-1.644,3.314-2.09,4.959-0.996l15.086,10.042c1.645,1.095,2.09,3.315,0.996,4.959l-51.502,77.378
						C114.537,279.613,112.317,280.059,110.672,278.964z"/>
				</g>
				<g>
					<g>
						<path fill="#E6E6E6" d="M99.431,264.589l-1.256,6.057l3.987,2.654c2.185-0.048,4.47-0.911,4.98-4.138
							C108.178,262.622,99.431,264.589,99.431,264.589z"/>
						<g>
							<g>
								<g>
									<g>
										<g>
											<g>
												<path fill="#FDDCBE" d="M97.11,272.034c0,0,8.325,3.163,9.36-3.377s-7.711-4.573-7.711-4.573L97.11,272.034z"/>
											</g>
										</g>
									</g>
								</g>
							</g>
						</g>
						<g>
							<g>
								<g>
									<g>
										<g>
											<g>
												<g>
													<polygon fill="#F5F5F5" points="97.319,263.576 99.435,263.674 97.585,272.543 95.379,272.329 													"/>
												</g>
											</g>
										</g>
									</g>
								</g>
							</g>
						</g>
						<path fill="#E6E6E6" d="M96.82,265.239c0,0-35.561-4.665-43.499-41.403L44.558,224c0,0,0.456,33.006,35.195,46.989
							c6.083-0.671,11.492-1.559,16.114-2.479L96.82,265.239z"/>
						<g>
							<g>
								<g>
									<g>
										<g>
											<g>
												<g>
													<path fill="#333333" d="M44.558,224c0,0,2.291,41.425,51.458,49.046l2.47-10.012c0,0-35.723-3.185-45.18-39.562
														L44.558,224z"/>
												</g>
											</g>
										</g>
									</g>
								</g>
							</g>
						</g>
						<g>
							<g>
								<g>
									<g>
										<g>
											<g>
												<g>
													<circle fill="#666666" cx="91.303" cy="269.752" r="0.944"/>
												</g>
											</g>
										</g>
									</g>
								</g>
							</g>
						</g>
						<g>
							<g>
								<g>
									<g>
										<g>
											<g>
												<g>
													<circle fill="#666666" cx="94.417" cy="270.542" r="0.943"/>
												</g>
											</g>
										</g>
									</g>
								</g>
							</g>
						</g>
					</g>
				</g>
			</g>
		</g>
	</g>
</g>
</svg>
