<?xml version="1.0" encoding="utf-8"?>
<!-- Generator: Adobe Illustrator 16.0.0, SVG Export Plug-In . SVG Version: 6.00 Build 0)  -->
<!DOCTYPE svg PUBLIC "-//W3C//DTD SVG 1.1//EN" "http://www.w3.org/Graphics/SVG/1.1/DTD/svg11.dtd">
<svg version="1.1" id="Layer_1" xmlns="http://www.w3.org/2000/svg" xmlns:xlink="http://www.w3.org/1999/xlink" x="0px" y="0px"
	 width="647.574px" height="446.154px" viewBox="0 0 647.574 446.154" enable-background="new 0 0 647.574 446.154"
	 xml:space="preserve">
<g>
	<g>
		<g>
			<g>
				<g>
					<g>
						
							<rect x="75.334" y="180.144" transform="matrix(-0.961 0.2767 -0.2767 -0.961 328.6905 468.5782)" fill="#F7FBFF" width="111.911" height="154.665"/>
						<g>
							
								<rect x="122.843" y="217.822" transform="matrix(-0.961 0.2767 -0.2767 -0.961 348.7726 389.79)" fill="#8A8387" width="48.09" height="3.357"/>
							
								<rect x="121.403" y="212.817" transform="matrix(-0.961 0.2767 -0.2767 -0.961 344.5613 380.3799)" fill="#8A8387" width="48.09" height="3.358"/>
							
								<rect x="119.961" y="207.814" transform="matrix(-0.961 0.2767 -0.2767 -0.961 340.3536 370.9638)" fill="#8A8387" width="48.091" height="3.358"/>
							
								<rect x="118.52" y="202.81" transform="matrix(-0.961 0.2767 -0.2767 -0.961 336.1436 361.5505)" fill="#8A8387" width="48.091" height="3.358"/>
							
								<rect x="117.079" y="197.806" transform="matrix(-0.961 0.2767 -0.2767 -0.961 331.9336 352.1371)" fill="#8A8387" width="48.092" height="3.358"/>
							
								<rect x="115.639" y="192.802" transform="matrix(-0.961 0.2767 -0.2767 -0.961 327.7254 342.7221)" fill="#8A8387" width="48.091" height="3.358"/>
							
								<rect x="114.199" y="187.799" transform="matrix(-0.961 0.2767 -0.2767 -0.961 323.5125 333.312)" fill="#8A8387" width="48.09" height="3.357"/>
							
								<rect x="112.758" y="182.795" transform="matrix(-0.961 0.2767 -0.2767 -0.961 319.3025 323.8975)" fill="#8A8387" width="48.091" height="3.356"/>
						</g>
						<g>
							
								<rect x="71.603" y="232.575" transform="matrix(-0.961 0.2767 -0.2767 -0.961 252.3751 432.8982)" fill="#8A8387" width="48.092" height="3.357"/>
							
								<rect x="70.162" y="227.57" transform="matrix(-0.961 0.2767 -0.2767 -0.961 248.1654 423.4833)" fill="#8A8387" width="48.092" height="3.358"/>
							
								<rect x="68.721" y="222.567" transform="matrix(-0.961 0.2767 -0.2767 -0.961 243.956 414.0701)" fill="#8A8387" width="48.091" height="3.357"/>
							
								<rect x="67.281" y="217.562" transform="matrix(-0.961 0.2767 -0.2767 -0.961 239.7515 404.6531)" fill="#8A8387" width="48.091" height="3.358"/>
							
								<rect x="65.841" y="212.559" transform="matrix(-0.961 0.2767 -0.2767 -0.961 235.538 395.2431)" fill="#8A8387" width="48.091" height="3.358"/>
							
								<rect x="64.4" y="207.556" transform="matrix(-0.961 0.2767 -0.2767 -0.961 231.3314 385.8268)" fill="#8A8387" width="48.092" height="3.357"/>
							
								<rect x="62.96" y="202.551" transform="matrix(-0.961 0.2767 -0.2767 -0.961 227.1192 376.414)" fill="#8A8387" width="48.091" height="3.357"/>
							
								<rect x="61.519" y="197.547" transform="matrix(-0.961 0.2767 -0.2767 -0.961 222.9091 367.0005)" fill="#8A8387" width="48.091" height="3.356"/>
						</g>
						
							<rect x="166.756" y="229.132" transform="matrix(-0.961 0.2767 -0.2767 -0.961 400.1436 409.4749)" fill="#EBA8A0" width="8.851" height="7.674"/>
						
							<rect x="163.668" y="218.403" transform="matrix(-0.961 0.2767 -0.2767 -0.961 391.1178 389.2915)" fill="#83CFEE" width="8.851" height="7.674"/>
						
							<rect x="116.981" y="243.464" transform="matrix(-0.961 0.2767 -0.2767 -0.961 306.5018 451.3514)" fill="#C8DB57" width="8.851" height="7.674"/>
						
							<rect x="113.892" y="232.736" transform="matrix(-0.9609 0.2768 -0.2768 -0.9609 297.4957 431.1491)" fill="#F3BC5A" width="8.852" height="7.672"/>
						
							<rect x="152.093" y="235.282" transform="matrix(-0.961 0.2766 -0.2766 -0.961 373.9726 420.9265)" fill="#C0C0C0" width="10.407" height="3.118"/>
						
							<rect x="148.942" y="224.456" transform="matrix(-0.961 0.2767 -0.2767 -0.961 364.7806 400.3147)" fill="#C0C0C0" width="10.407" height="2.878"/>
						
							<rect x="103.338" y="249.319" transform="matrix(-0.9609 0.2768 -0.2768 -0.9609 282.278 461.9172)" fill="#C0C0C0" width="10.41" height="3.118"/>
						
							<rect x="100.187" y="238.493" transform="matrix(-0.961 0.2767 -0.2767 -0.961 273.0504 441.3405)" fill="#C0C0C0" width="10.409" height="2.878"/>
					</g>
				</g>
			</g>
			
				<rect x="99.26" y="315.69" transform="matrix(-0.961 0.2767 -0.2767 -0.961 381.7289 589.593)" fill="#83CFEE" width="100.018" height="12.075"/>
		</g>
		
			<rect x="85.48" y="279.161" transform="matrix(-0.961 0.2767 -0.2767 -0.961 345.3563 512.9513)" fill="#8A8387" width="102.019" height="3.358"/>
		
			<rect x="83.991" y="273.987" transform="matrix(-0.961 0.2767 -0.2767 -0.961 340.9955 503.2214)" fill="#8A8387" width="102.018" height="3.356"/>
		
			<rect x="82.501" y="268.812" transform="matrix(-0.961 0.2767 -0.2767 -0.961 336.6476 493.4833)" fill="#8A8387" width="102.018" height="3.358"/>
		
			<rect x="81.011" y="263.637" transform="matrix(-0.961 0.2767 -0.2767 -0.961 332.2985 483.7449)" fill="#8A8387" width="102.018" height="3.359"/>
		
			<rect x="79.522" y="258.463" transform="matrix(-0.961 0.2767 -0.2767 -0.961 327.9384 474.0134)" fill="#8A8387" width="102.017" height="3.356"/>
		
			<rect x="78.031" y="253.289" transform="matrix(-0.961 0.2767 -0.2767 -0.961 323.586 464.2787)" fill="#8A8387" width="102.019" height="3.356"/>
		
			<rect x="88.46" y="289.511" transform="matrix(-0.961 0.2767 -0.2767 -0.961 354.0604 532.4241)" fill="#8A8387" width="102.019" height="3.358"/>
		
			<rect x="86.97" y="284.336" transform="matrix(-0.961 0.2767 -0.2767 -0.961 349.7026 522.6906)" fill="#8A8387" width="102.018" height="3.355"/>
		
			<rect x="182.028" y="282.171" transform="matrix(-0.961 0.2767 -0.2767 -0.961 444.7664 509.2575)" fill="#83CFEE" width="8.851" height="7.674"/>
		
			<rect x="132.251" y="296.503" transform="matrix(-0.961 0.2767 -0.2767 -0.961 351.1149 551.1398)" fill="#F3BC5A" width="8.852" height="7.672"/>
		
			<rect x="167.302" y="288.226" transform="matrix(-0.961 0.2766 -0.2766 -0.961 418.4084 520.3035)" fill="#C0C0C0" width="10.407" height="2.876"/>
		
			<rect x="118.547" y="302.263" transform="matrix(-0.961 0.2766 -0.2766 -0.961 326.6767 561.3246)" fill="#C0C0C0" width="10.409" height="2.876"/>
		
			<rect x="94.481" y="310.42" transform="matrix(-0.961 0.2767 -0.2767 -0.961 371.657 571.7556)" fill="#8A8387" width="102.018" height="3.358"/>
		
			<rect x="92.991" y="305.246" transform="matrix(-0.961 0.2767 -0.2767 -0.961 367.2982 562.0248)" fill="#8A8387" width="102.018" height="3.358"/>
	</g>
	<g>
		<g>
			<g>
				<g>
					<g>
						
							<rect x="92.336" y="220.963" transform="matrix(0.9694 0.2456 -0.2456 0.9694 77.789 -27.2809)" fill="#F7FBFF" width="111.91" height="154.663"/>
						<g>
							
								<rect x="91.629" y="321.549" transform="matrix(0.9694 0.2455 -0.2455 0.9694 82.9097 -18.5078)" fill="#8A8387" width="48.09" height="3.357"/>
							
								<rect x="90.35" y="326.595" transform="matrix(0.9694 0.2455 -0.2455 0.9694 84.097 -18.0381)" fill="#8A8387" width="48.09" height="3.359"/>
							
								<rect x="89.071" y="331.642" transform="matrix(0.9694 0.2455 -0.2455 0.9694 85.3084 -17.5707)" fill="#8A8387" width="48.091" height="3.359"/>
							
								<rect x="87.793" y="336.691" transform="matrix(0.9694 0.2455 -0.2455 0.9694 86.5105 -17.1022)" fill="#8A8387" width="48.09" height="3.357"/>
							
								<rect x="86.514" y="341.739" transform="matrix(0.9694 0.2456 -0.2456 0.9694 87.7259 -16.6346)" fill="#8A8387" width="48.091" height="3.357"/>
							
								<rect x="85.235" y="346.787" transform="matrix(0.9694 0.2455 -0.2455 0.9694 88.9094 -16.1652)" fill="#8A8387" width="48.091" height="3.357"/>
							
								<rect x="83.957" y="351.834" transform="matrix(0.9694 0.2455 -0.2455 0.9694 90.1113 -15.6967)" fill="#8A8387" width="48.09" height="3.357"/>
							
								<rect x="82.678" y="356.883" transform="matrix(0.9694 0.2456 -0.2456 0.9694 91.3128 -15.2281)" fill="#8A8387" width="48.09" height="3.357"/>
						</g>
						<g>
							
								<rect x="143.316" y="334.641" transform="matrix(0.9694 0.2456 -0.2456 0.9694 87.7197 -30.8016)" fill="#8A8387" width="48.092" height="3.357"/>
							
								<rect x="142.038" y="339.689" transform="matrix(0.9694 0.2455 -0.2455 0.9694 88.9074 -30.3303)" fill="#8A8387" width="48.09" height="3.357"/>
							
								<rect x="140.759" y="344.736" transform="matrix(0.9694 0.2455 -0.2455 0.9694 90.1075 -29.8618)" fill="#8A8387" width="48.09" height="3.356"/>
							
								<rect x="139.48" y="349.785" transform="matrix(0.9694 0.2455 -0.2455 0.9694 91.3062 -29.3929)" fill="#8A8387" width="48.091" height="3.357"/>
							
								<rect x="138.202" y="354.833" transform="matrix(0.9694 0.2456 -0.2456 0.9694 92.5217 -28.9272)" fill="#8A8387" width="48.092" height="3.357"/>
							
								<rect x="136.923" y="359.881" transform="matrix(0.9694 0.2455 -0.2455 0.9694 93.7088 -28.4563)" fill="#8A8387" width="48.09" height="3.357"/>
							
								<rect x="135.644" y="364.928" transform="matrix(0.9694 0.2455 -0.2455 0.9694 94.907 -27.9875)" fill="#8A8387" width="48.091" height="3.357"/>
							
								<rect x="134.366" y="369.976" transform="matrix(0.9694 0.2455 -0.2455 0.9694 96.1093 -27.5192)" fill="#8A8387" width="48.09" height="3.355"/>
						</g>
						
							<rect x="97.058" y="295.511" transform="matrix(0.9694 0.2456 -0.2456 0.9694 76.623 -15.7553)" fill="#EBA8A0" width="8.852" height="7.673"/>
						
							<rect x="94.316" y="306.333" transform="matrix(0.9694 0.2456 -0.2456 0.9694 79.1968 -14.7507)" fill="#83CFEE" width="8.852" height="7.672"/>
						
							<rect x="147.27" y="308.229" transform="matrix(0.9694 0.2453 -0.2453 0.9694 81.1978 -27.6793)" fill="#C8DB57" width="8.853" height="7.674"/>
						
							<rect x="144.529" y="319.052" transform="matrix(0.9694 0.2456 -0.2456 0.9694 83.8628 -26.6933)" fill="#F3BC5A" width="8.851" height="7.672"/>
						
							<rect x="110.223" y="301.444" transform="matrix(0.9694 0.2456 -0.2456 0.9694 77.9688 -19.0702)" fill="#C0C0C0" width="10.408" height="3.119"/>
						
							<rect x="107.427" y="312.607" transform="matrix(0.9694 0.2455 -0.2455 0.9694 80.5313 -18.0386)" fill="#C0C0C0" width="10.408" height="2.877"/>
						
							<rect x="159.404" y="313.903" transform="matrix(0.9694 0.2456 -0.2456 0.9694 82.528 -30.7676)" fill="#C0C0C0" width="10.409" height="3.117"/>
						
							<rect x="156.607" y="325.065" transform="matrix(0.9694 0.2456 -0.2456 0.9694 85.1545 -29.7424)" fill="#C0C0C0" width="10.409" height="2.877"/>
					</g>
				</g>
			</g>
			
				<rect x="115.148" y="227.705" transform="matrix(0.9694 0.2455 -0.2455 0.9694 62.4517 -33.3979)" fill="#83CFEE" width="100.019" height="12.076"/>
		</g>
		
			<rect x="104.571" y="273.818" transform="matrix(0.9694 0.2456 -0.2456 0.9694 72.4143 -29.7689)" fill="#8A8387" width="102.019" height="3.356"/>
		
			<rect x="103.248" y="279.037" transform="matrix(0.9694 0.2456 -0.2456 0.9694 73.6535 -29.2837)" fill="#8A8387" width="102.018" height="3.359"/>
		
			<rect x="101.926" y="284.258" transform="matrix(0.9694 0.2456 -0.2456 0.9694 74.8947 -28.7992)" fill="#8A8387" width="102.018" height="3.357"/>
		
			<rect x="100.604" y="289.476" transform="matrix(0.9694 0.2456 -0.2456 0.9694 76.1359 -28.3147)" fill="#8A8387" width="102.018" height="3.359"/>
		
			<rect x="99.281" y="294.698" transform="matrix(0.9694 0.2456 -0.2456 0.9694 77.383 -27.8314)" fill="#8A8387" width="102.019" height="3.357"/>
		
			<rect x="97.959" y="299.918" transform="matrix(0.9694 0.2456 -0.2456 0.9694 78.6187 -27.3456)" fill="#8A8387" width="102.018" height="3.357"/>
		
			<rect x="107.215" y="263.378" transform="matrix(0.9694 0.2456 -0.2456 0.9694 69.933 -30.7384)" fill="#8A8387" width="102.019" height="3.357"/>
		
			<rect x="105.893" y="268.597" transform="matrix(0.9694 0.2456 -0.2456 0.9694 71.1721 -30.2531)" fill="#8A8387" width="102.018" height="3.357"/>
		
			<rect x="110.611" y="242.007" transform="matrix(0.9694 0.2456 -0.2456 0.9694 63.8946 -20.7217)" fill="#83CFEE" width="8.852" height="7.672"/>
		
			<rect x="160.824" y="254.725" transform="matrix(0.9694 0.2455 -0.2455 0.9694 68.5478 -32.6603)" fill="#F3BC5A" width="8.851" height="7.672"/>
		
			<rect x="123.721" y="248.28" transform="matrix(0.9694 0.2455 -0.2455 0.9694 65.2618 -24.0114)" fill="#C0C0C0" width="10.408" height="2.877"/>
		
			<rect x="172.902" y="260.738" transform="matrix(0.9694 0.2456 -0.2456 0.9694 69.8534 -35.7155)" fill="#C0C0C0" width="10.409" height="2.877"/>
		
			<rect x="112.558" y="242.285" transform="matrix(0.9694 0.2456 -0.2456 0.9694 64.9134 -32.695)" fill="#8A8387" width="102.018" height="3.358"/>
		
			<rect x="111.236" y="247.505" transform="matrix(0.9694 0.2455 -0.2455 0.9694 66.1537 -32.21)" fill="#8A8387" width="102.018" height="3.357"/>
	</g>
	<g>
		<g>
			<g>
				
					<rect x="171.914" y="153.094" transform="matrix(0.9837 -0.1798 0.1798 0.9837 -23.9156 55.6679)" fill="#CE5758" width="246.312" height="13.286"/>
				
					<rect x="290.817" y="49.648" transform="matrix(-0.1798 -0.9837 0.9837 -0.1798 180.959 496.4891)" fill="#AA4448" width="13.284" height="246.314"/>
			</g>
			<g>
				<polygon fill="#E5E4E2" points="192.73,70.156 229.007,268.6 391.137,238.96 362.203,80.688 311.076,48.935 				"/>
				<polygon fill="#A2A0A0" points="362.203,80.688 311.076,48.935 318.385,88.916 				"/>
				<polygon fill="#DAD7D3" points="324.154,87.832 369.498,120.592 362.203,80.688 				"/>
				
					<rect x="218.526" y="117.503" transform="matrix(0.9837 -0.1798 0.1798 0.9837 -17.0228 51.182)" fill="#DAD7D3" width="110.496" height="3.948"/>
				
					<rect x="220.348" y="127.469" transform="matrix(0.9837 -0.1798 0.1798 0.9837 -18.7846 51.6705)" fill="#DAD7D3" width="110.497" height="3.946"/>
				
					<rect x="222.17" y="137.434" transform="matrix(0.9837 -0.1798 0.1798 0.9837 -20.5477 52.1631)" fill="#DAD7D3" width="110.497" height="3.945"/>
				
					<rect x="223.991" y="147.399" transform="matrix(0.9837 -0.1798 0.1798 0.9837 -22.3094 52.6515)" fill="#DAD7D3" width="110.498" height="3.946"/>
				
					<rect x="225.813" y="157.361" transform="matrix(0.9837 -0.1798 0.1798 0.9837 -24.0728 53.145)" fill="#DAD7D3" width="110.496" height="3.949"/>
				
					<rect x="227.634" y="167.325" transform="matrix(0.9837 -0.1798 0.1798 0.9837 -25.8338 53.6319)" fill="#DAD7D3" width="110.497" height="3.947"/>
				
					<rect x="226.246" y="173.632" transform="matrix(0.9837 -0.1798 0.1798 0.9837 -27.0085 53.8776)" fill="#DAD7D3" width="114.775" height="4.521"/>
				
					<rect x="228.332" y="185.048" transform="matrix(0.9837 -0.1798 0.1798 0.9837 -29.0263 54.4363)" fill="#DAD7D3" width="114.775" height="4.518"/>
				
					<rect x="230.418" y="196.46" transform="matrix(0.9837 -0.1798 0.1798 0.9837 -31.0435 54.9948)" fill="#DAD7D3" width="114.775" height="4.52"/>
				
					<rect x="232.505" y="207.875" transform="matrix(0.9837 -0.1798 0.1798 0.9837 -33.0617 55.5558)" fill="#DAD7D3" width="114.776" height="4.517"/>
				
					<rect x="234.592" y="219.288" transform="matrix(0.9837 -0.1798 0.1798 0.9837 -35.0805 56.1175)" fill="#DAD7D3" width="114.775" height="4.519"/>
				
					<rect x="236.679" y="230.7" transform="matrix(0.9837 -0.1798 0.1798 0.9837 -37.1015 56.6839)" fill="#DAD7D3" width="114.776" height="4.521"/>
				
					<rect x="238.765" y="242.115" transform="matrix(0.9837 -0.1798 0.1798 0.9837 -39.1172 57.2396)" fill="#DAD7D3" width="114.776" height="4.52"/>
				
					<rect x="211.762" y="74.711" transform="matrix(0.9837 -0.1798 0.1798 0.9837 -11.1985 45.4226)" fill="#BFBFBF" width="66.33" height="19.531"/>
			</g>
			<g>
				<path fill="#A8A8A8" d="M423.094,136.414l2.359,12.91c3.689-0.675,6.152-4.11,5.5-7.675
					C430.301,138.083,426.783,135.74,423.094,136.414z"/>
			</g>
			<polygon fill="#C3C2C1" points="212.378,189.543 214.805,185.422 228.567,194.66 364.693,169.773 376.504,155.861 
				386.416,166.879 382.738,186.032 210.935,216.006 			"/>
			<polygon fill="#3A3A3A" points="387.758,175.58 363.941,158.157 295.175,170.729 294.62,170.831 225.855,183.401 
				209.743,208.125 245.821,286.348 313.15,270.627 381.689,261.509 			"/>
			<polygon fill="#545352" points="431.842,271.415 202.4,313.262 196.452,280.725 425.877,238.783 			"/>
			<path fill="#CE5758" d="M396.68,152.172l-20.932,3.827c0.455,1.795,0.873,3.607,1.211,5.454
				c8.184,44.767-21.473,87.69-66.238,95.874c-44.766,8.184-87.69-21.472-95.874-66.238c-0.338-1.847-0.587-3.689-0.8-5.528
				l-20.932,3.826c-7.021,1.284-11.674,8.019-10.391,15.041l17.476,95.59c1.283,7.021,8.019,11.676,15.04,10.391l203.564-37.213
				c7.023-1.283,11.674-8.019,10.391-15.041l-17.475-95.592C410.436,155.542,403.703,150.889,396.68,152.172z"/>
			<path fill="#545352" d="M229.147,323.012c0,0,9.796,56.531,69.816,45.559l7.309-1.336l47.496-8.684l7.305-1.336
				c60.025-10.973,49.184-67.311,49.184-67.311L229.147,323.012z"/>
			<g>
				<circle fill="#FFFFFF" cx="248.728" cy="328.523" r="4.585"/>
				<path fill="#FFFFFF" d="M372.006,305.987c0.455,2.488-1.195,4.877-3.682,5.332c-2.492,0.455-4.883-1.193-5.338-3.684
					s1.197-4.879,3.688-5.336C369.162,301.846,371.551,303.495,372.006,305.987z"/>
				<circle fill="#FFFFFF" cx="261.926" cy="326.11" r="4.584"/>
				<circle fill="#FFFFFF" cx="275.123" cy="323.698" r="4.584"/>
				<circle fill="#FFFFFF" cx="288.319" cy="321.286" r="4.583"/>
				<circle fill="#FFFFFF" cx="301.515" cy="318.874" r="4.583"/>
				<circle fill="#FFFFFF" cx="314.712" cy="316.461" r="4.583"/>
				<path fill="#FFFFFF" d="M332.416,313.223c0.455,2.49-1.195,4.879-3.682,5.332c-2.492,0.457-4.879-1.193-5.332-3.684
					c-0.457-2.49,1.191-4.879,3.682-5.334S331.961,310.733,332.416,313.223z"/>
				<circle fill="#FFFFFF" cx="341.104" cy="311.635" r="4.584"/>
				<circle fill="#FFFFFF" cx="354.301" cy="309.223" r="4.584"/>
				<circle fill="#FFFFFF" cx="393.89" cy="301.986" r="4.585"/>
				<circle fill="#FFFFFF" cx="380.693" cy="304.398" r="4.582"/>
			</g>
			<g>
				<circle fill="#FFFFFF" cx="244.234" cy="341.315" r="4.584"/>
				<circle fill="#FFFFFF" cx="363.023" cy="319.598" r="4.583"/>
				<circle fill="#FFFFFF" cx="257.433" cy="338.902" r="4.582"/>
				<circle fill="#FFFFFF" cx="270.63" cy="336.489" r="4.584"/>
				<circle fill="#FFFFFF" cx="283.831" cy="334.077" r="4.584"/>
				<circle fill="#FFFFFF" cx="297.028" cy="331.664" r="4.582"/>
				<path fill="#FFFFFF" d="M314.736,328.426c0.455,2.49-1.197,4.877-3.684,5.332c-2.491,0.455-4.879-1.193-5.334-3.684
					s1.196-4.879,3.686-5.334C311.891,324.286,314.281,325.936,314.736,328.426z"/>
				<path fill="#FFFFFF" d="M327.936,326.012c0.455,2.492-1.195,4.877-3.684,5.332c-2.49,0.455-4.879-1.193-5.334-3.682
					c-0.455-2.492,1.197-4.879,3.686-5.334S327.48,323.524,327.936,326.012z"/>
				<circle fill="#FFFFFF" cx="336.625" cy="324.424" r="4.584"/>
				<circle fill="#FFFFFF" cx="349.826" cy="322.012" r="4.584"/>
				<circle fill="#FFFFFF" cx="389.422" cy="314.773" r="4.582"/>
				<path fill="#FFFFFF" d="M380.732,316.362c0.455,2.49-1.197,4.877-3.688,5.332s-4.877-1.193-5.332-3.684
					c-0.457-2.49,1.193-4.877,3.686-5.334C377.887,312.221,380.277,313.87,380.732,316.362z"/>
				<circle fill="#FFFFFF" cx="402.62" cy="312.36" r="4.584"/>
			</g>
			<g>
				<circle fill="#FFFFFF" cx="252.963" cy="351.69" r="4.584"/>
				<path fill="#FFFFFF" d="M376.242,329.153c0.455,2.49-1.197,4.877-3.684,5.332c-2.49,0.457-4.881-1.193-5.336-3.684
					s1.197-4.879,3.688-5.334C373.396,325.012,375.785,326.663,376.242,329.153z"/>
				<circle fill="#FFFFFF" cx="266.162" cy="349.277" r="4.583"/>
				<circle fill="#FFFFFF" cx="279.357" cy="346.864" r="4.584"/>
				<circle fill="#FFFFFF" cx="292.554" cy="344.452" r="4.584"/>
				<circle fill="#FFFFFF" cx="305.75" cy="342.04" r="4.583"/>
				<circle fill="#FFFFFF" cx="318.947" cy="339.626" r="4.583"/>
				<circle fill="#FFFFFF" cx="332.144" cy="337.214" r="4.581"/>
				<path fill="#FFFFFF" d="M349.85,333.977c0.453,2.492-1.197,4.879-3.684,5.332c-2.494,0.457-4.879-1.193-5.334-3.682
					c-0.455-2.492,1.191-4.881,3.686-5.336C347.004,329.838,349.393,331.487,349.85,333.977z"/>
				<circle fill="#FFFFFF" cx="358.536" cy="332.389" r="4.584"/>
				<circle fill="#FFFFFF" cx="398.125" cy="325.152" r="4.585"/>
				<circle fill="#FFFFFF" cx="384.929" cy="327.565" r="4.584"/>
			</g>
			<g>
				<g>
					<circle fill="#FFFFFF" cx="268.279" cy="360.86" r="4.584"/>
					<circle fill="#FFFFFF" cx="281.475" cy="358.447" r="4.584"/>
				</g>
				<g>
					<path fill="#FFFFFF" d="M378.359,340.735c0.455,2.492-1.197,4.879-3.684,5.334c-2.49,0.455-4.881-1.193-5.336-3.686
						s1.197-4.879,3.688-5.334C375.514,336.594,377.902,338.245,378.359,340.735z"/>
					<circle fill="#FFFFFF" cx="387.046" cy="339.147" r="4.584"/>
				</g>
				<path fill="#FFFFFF" d="M290.078,356.874c0.472,2.58,2.947,4.289,5.528,3.816l65.822-12.033c2.58-0.471,4.289-2.945,3.818-5.523
					l0,0c-0.473-2.582-2.945-4.291-5.527-3.818l-65.822,12.033C291.317,351.819,289.606,354.293,290.078,356.874L290.078,356.874z"
					/>
			</g>
			<path fill="#3A3A3A" d="M415.949,284.319l-9.35,1.709l-175.404,32.066l-9.35,1.709l17.514,29.156c0,0-7.489-20.141-5.267-25.686
				l171.631-31.377c4.039,4.4,4.16,25.889,4.16,25.889L415.949,284.319z"/>
			<path fill="#AA4448" d="M431.82,271.346l-229.409,41.939c0,0,15.535,88.711,91.565,74.813l9.254-1.693l60.164-10.998l9.254-1.691
				C448.678,359.817,431.82,271.346,431.82,271.346z M361.072,357.215l-7.305,1.336l-47.497,8.684l-7.308,1.336
				c-60.021,10.973-69.816-45.559-69.816-45.559l181.109-33.107C410.256,289.905,421.098,346.243,361.072,357.215z"/>
			<g>
				<path fill="#A8A8A8" d="M252.344,293.403l125.74-22.986c5.266-0.963,8.756-6.013,7.793-11.28L241.065,285.61
					C242.028,290.877,247.077,294.366,252.344,293.403z"/>
				<path fill="#C3C2C1" d="M374.596,251.344l-125.739,22.987c-5.267,0.963-8.755,6.014-7.792,11.279l144.812-26.473
					C384.916,253.869,379.863,250.382,374.596,251.344z"/>
			</g>
			<g>
				<path fill="#FFFFFF" d="M274.363,176.063c-0.256-0.153-0.588-0.071-0.739,0.185L246.14,221.87
					c-0.258-0.079-0.527-0.119-0.796-0.069l-0.785,0.175l-5.956,10.059c-0.475,0.796-0.216,1.84,0.568,2.324l0.592,0.34l0.612-0.111
					l0.785-0.176l5.961-10.068c0.35-0.595,0.291-1.328-0.092-1.861l27.516-45.679C274.7,176.548,274.617,176.216,274.363,176.063z"
					/>
				<path fill="#FFFFFF" d="M297.833,186.948c-0.294,0.055-0.488,0.334-0.435,0.628l9.521,52.402
					c-0.247,0.113-0.475,0.26-0.644,0.475l-0.477,0.65l2.179,11.485c0.169,0.911,1.053,1.523,1.961,1.369l0.669-0.137l0.386-0.489
					l0.475-0.649l-2.181-11.495c-0.131-0.678-0.657-1.188-1.297-1.337l-9.533-52.467
					C298.404,187.09,298.124,186.896,297.833,186.948z"/>
				<path fill="#FFFFFF" d="M276.445,178.172c-0.265-0.14-0.59-0.043-0.729,0.221l-25.143,46.953
					c-0.263-0.065-0.532-0.092-0.8-0.028L249,225.53l-5.44,10.347c-0.432,0.82-0.122,1.85,0.686,2.293l0.609,0.31l0.605-0.143
					l0.775-0.214l5.443-10.356c0.318-0.612,0.226-1.343-0.184-1.855l25.171-47.01C276.806,178.639,276.708,178.311,276.445,178.172z
					"/>
				<path fill="#FFFFFF" d="M276.945,180.178c-0.273-0.121-0.592-0.004-0.714,0.271l-21.871,48.564
					c-0.266-0.05-0.538-0.056-0.801,0.023l-0.757,0.267l-4.719,10.694c-0.377,0.85,0.005,1.854,0.837,2.24l0.63,0.268l0.596-0.184
					l0.758-0.267l4.724-10.704c0.275-0.633,0.131-1.354-0.312-1.838l21.897-48.624C277.335,180.618,277.214,180.299,276.945,180.178
					z"/>
				<path fill="#FFFFFF" d="M295.792,187.424c-0.296,0.034-0.509,0.3-0.476,0.598l6.14,52.904c-0.254,0.097-0.49,0.229-0.673,0.433
					l-0.519,0.618l1.438,11.603c0.109,0.92,0.951,1.588,1.869,1.492l0.675-0.094l0.417-0.463l0.516-0.62l-1.438-11.609
					c-0.089-0.684-0.579-1.229-1.208-1.418l-6.146-52.971C296.353,187.601,296.088,187.389,295.792,187.424z"/>
				<path fill="#FFFFFF" d="M293.342,188.217c-0.297,0.023-0.521,0.279-0.502,0.578l3.86,53.121c-0.258,0.086-0.5,0.207-0.691,0.402
					l-0.543,0.595l0.938,11.651c0.069,0.926,0.883,1.63,1.803,1.572l0.679-0.063l0.438-0.444l0.54-0.596l-0.938-11.662
					c-0.061-0.688-0.526-1.252-1.146-1.47l-3.864-53.185C293.894,188.419,293.639,188.196,293.342,188.217z"/>
				<path fill="#FFFFFF" d="M291.375,188.223c-0.298,0.007-0.536,0.249-0.533,0.549l0.853,53.253
					c-0.263,0.069-0.513,0.179-0.715,0.364l-0.574,0.564l0.278,11.683c0.016,0.93,0.79,1.679,1.711,1.672l0.682-0.023l0.461-0.419
					l0.574-0.566l-0.278-11.695c-0.021-0.689-0.454-1.28-1.061-1.532l-0.853-53.318
					C291.916,188.455,291.673,188.219,291.375,188.223z"/>
				<path fill="#FFFFFF" d="M289.025,188.356c-0.3-0.009-0.548,0.222-0.558,0.521l-1.793,53.23c-0.264,0.057-0.518,0.152-0.73,0.327
					l-0.603,0.533l-0.303,11.687c-0.027,0.927,0.706,1.712,1.627,1.753l0.683,0.01l0.482-0.397l0.599-0.534l0.304-11.696
					c0.016-0.689-0.39-1.301-0.984-1.581l1.795-53.295C289.553,188.615,289.321,188.366,289.025,188.356z"/>
				<path fill="#FFFFFF" d="M286.978,187.647c-0.297-0.029-0.562,0.187-0.59,0.482l-5.205,53.007
					c-0.27,0.039-0.529,0.12-0.751,0.279l-0.635,0.495l-1.052,11.641c-0.089,0.924,0.595,1.755,1.51,1.856l0.679,0.052l0.508-0.364
					l0.632-0.495l1.055-11.652c0.06-0.688-0.307-1.323-0.88-1.643l5.211-53.071C287.486,187.941,287.274,187.676,286.978,187.647z"
					/>
				<path fill="#FFFFFF" d="M284.635,186.65c-0.294-0.04-0.568,0.162-0.611,0.458l-7.478,52.734
					c-0.271,0.027-0.532,0.096-0.762,0.246l-0.656,0.467l-1.551,11.587c-0.128,0.918,0.519,1.778,1.43,1.917l0.676,0.082
					l0.521-0.343l0.655-0.469l1.553-11.594c0.087-0.686-0.249-1.338-0.81-1.679l7.488-52.798
					C285.131,186.965,284.929,186.691,284.635,186.65z"/>
				<path fill="#FFFFFF" d="M282.533,186.233c-0.293-0.056-0.577,0.13-0.638,0.423l-10.445,52.228
					c-0.271,0.012-0.536,0.065-0.773,0.203l-0.682,0.429l-2.203,11.48c-0.181,0.91,0.418,1.804,1.319,1.995l0.671,0.119l0.539-0.311
					l0.682-0.432l2.203-11.49c0.126-0.679-0.173-1.347-0.711-1.72l10.459-52.292C283.011,186.575,282.825,186.292,282.533,186.233z"
					/>
				<path fill="#FFFFFF" d="M278.689,181.592c-0.28-0.105-0.591,0.029-0.695,0.309l-19.095,49.722
					c-0.269-0.034-0.54-0.025-0.799,0.07l-0.739,0.309l-4.108,10.943c-0.326,0.868,0.109,1.851,0.964,2.189l0.644,0.231l0.584-0.217
					l0.742-0.309l4.11-10.955c0.238-0.646,0.056-1.36-0.413-1.816L279,182.285C279.104,182.009,278.967,181.696,278.689,181.592z"/>
				<path fill="#FFFFFF" d="M281.238,185.063c-0.288-0.075-0.586,0.094-0.662,0.382l-13.626,51.49
					c-0.272-0.004-0.54,0.031-0.785,0.154l-0.708,0.387l-2.901,11.324c-0.235,0.896,0.306,1.826,1.195,2.071l0.66,0.161l0.558-0.278
					l0.707-0.388l2.903-11.333c0.17-0.669-0.089-1.356-0.603-1.763l13.642-51.55C281.692,185.433,281.526,185.138,281.238,185.063z"
					/>
				<path fill="#FFFFFF" d="M279.72,183.834c-0.286-0.09-0.587,0.066-0.679,0.352l-16.026,50.795c-0.27-0.018-0.54,0.006-0.79,0.117
					l-0.725,0.354l-3.431,11.176c-0.277,0.883,0.222,1.838,1.097,2.126l0.656,0.19l0.568-0.251l0.724-0.356l3.434-11.184
					c0.196-0.66-0.028-1.358-0.522-1.787l16.045-50.855C280.161,184.227,280.003,183.923,279.72,183.834z"/>
				<path fill="#FFFFFF" d="M315.961,168.372c0.184-0.233,0.521-0.274,0.754-0.09l41.848,32.949
					c0.213-0.165,0.451-0.299,0.721-0.348l0.797-0.113l9.129,7.299c0.725,0.579,0.854,1.646,0.291,2.377l-0.434,0.526l-0.613,0.112
					l-0.795,0.114l-9.139-7.309c-0.535-0.433-0.742-1.139-0.572-1.772l-41.898-32.99
					C315.816,168.944,315.775,168.605,315.961,168.372z"/>
				<path fill="#FFFFFF" d="M314.721,171.128c0.197-0.224,0.535-0.25,0.76-0.053l40.188,34.952c0.223-0.155,0.465-0.276,0.738-0.313
					l0.799-0.076l8.762,7.737c0.697,0.614,0.773,1.687,0.176,2.389l-0.461,0.504l-0.615,0.082l-0.801,0.076l-8.77-7.745
					c-0.514-0.459-0.688-1.176-0.484-1.799l-40.24-34.995C314.549,171.691,314.523,171.352,314.721,171.128z"/>
				<path fill="#FFFFFF" d="M315,173.132c0.213-0.206,0.553-0.211,0.762,0.002l37.641,37.686c0.23-0.14,0.482-0.243,0.756-0.261
					l0.803-0.019l8.197,8.331c0.652,0.662,0.652,1.738,0.008,2.395l-0.492,0.473l-0.621,0.039l-0.803,0.019l-8.207-8.342
					c-0.482-0.491-0.602-1.22-0.359-1.829L315,173.896C314.791,173.686,314.789,173.344,315,173.132z"/>
				<path fill="#FFFFFF" d="M299.935,186.58c0.29-0.073,0.583,0.102,0.654,0.391l12.977,51.656c0.271,0,0.539,0.04,0.783,0.166
					l0.703,0.395l2.76,11.357c0.223,0.9-0.33,1.824-1.221,2.059l-0.664,0.151l-0.555-0.284l-0.701-0.398l-2.762-11.367
					c-0.16-0.671,0.107-1.354,0.627-1.754l-12.993-51.719C299.474,186.945,299.646,186.651,299.935,186.58z"/>
				<path fill="#FFFFFF" d="M302.104,185.247c0.286-0.083,0.586,0.078,0.673,0.364l15.184,51.051
					c0.271-0.013,0.541,0.017,0.789,0.132l0.717,0.363l3.246,11.23c0.264,0.89-0.25,1.837-1.129,2.109l-0.656,0.18l-0.568-0.262
					l-0.717-0.366l-3.248-11.24c-0.188-0.663,0.049-1.357,0.551-1.778l-15.202-51.113
					C301.659,185.633,301.819,185.333,302.104,185.247z"/>
				<path fill="#FFFFFF" d="M304.122,184.525c0.281-0.101,0.59,0.042,0.692,0.324l18.045,50.111c0.27-0.028,0.541-0.014,0.795,0.087
					l0.738,0.323l3.873,11.029c0.314,0.872-0.145,1.846-1.008,2.167l-0.646,0.22l-0.578-0.229l-0.738-0.327l-3.877-11.037
					c-0.227-0.652-0.029-1.358,0.449-1.808l-18.068-50.171C303.7,184.933,303.842,184.625,304.122,184.525z"/>
				<path fill="#FFFFFF" d="M306.288,184.382c0.277-0.114,0.592,0.015,0.706,0.29l20.51,49.153c0.268-0.041,0.537-0.041,0.799,0.048
					l0.752,0.286l4.418,10.823c0.354,0.855-0.055,1.852-0.9,2.216l-0.637,0.25l-0.59-0.2l-0.75-0.289l-4.422-10.831
					c-0.258-0.642-0.096-1.355,0.361-1.828L306,185.087C305.886,184.811,306.015,184.495,306.288,184.382z"/>
				<path fill="#FFFFFF" d="M308.961,183.344c0.271-0.126,0.593-0.009,0.717,0.26l22.533,48.261
					c0.268-0.053,0.539-0.063,0.803,0.015l0.762,0.255l4.863,10.631c0.389,0.841,0.021,1.852-0.807,2.251l-0.625,0.273l-0.6-0.173
					l-0.76-0.259l-4.869-10.638c-0.285-0.628-0.15-1.351,0.283-1.841l-22.559-48.32C308.58,183.789,308.691,183.469,308.961,183.344
					z"/>
				<path fill="#FFFFFF" d="M310.097,181.91c0.261-0.144,0.589-0.051,0.733,0.211l25.65,46.679c0.266-0.07,0.533-0.101,0.801-0.04
					l0.779,0.205l5.549,10.288c0.445,0.814,0.145,1.847-0.656,2.3l-0.604,0.315l-0.611-0.136l-0.777-0.207l-5.555-10.296
					c-0.322-0.609-0.24-1.337,0.164-1.854l-25.685-46.735C309.744,182.377,309.834,182.052,310.097,181.91z"/>
				<path fill="#FFFFFF" d="M311.916,180.775c0.254-0.157,0.586-0.084,0.744,0.169l28.25,45.154
					c0.258-0.085,0.523-0.126,0.795-0.084l0.789,0.16l6.121,9.958c0.492,0.787,0.25,1.836-0.525,2.334l-0.588,0.349l-0.613-0.1
					l-0.789-0.163l-6.125-9.968c-0.361-0.589-0.316-1.321,0.055-1.86l-28.283-45.208
					C311.59,181.264,311.662,180.934,311.916,180.775z"/>
				<path fill="#FFFFFF" d="M313.867,175.073c0.227-0.198,0.564-0.179,0.762,0.043l35.451,39.75
					c0.238-0.126,0.496-0.215,0.771-0.216l0.801,0.026l7.715,8.78c0.613,0.698,0.553,1.771-0.129,2.391l-0.52,0.443l-0.621,0.004
					l-0.805-0.026l-7.719-8.791c-0.453-0.52-0.533-1.252-0.258-1.846l-35.492-39.799C313.629,175.61,313.645,175.27,313.867,175.073
					z"/>
				<path fill="#FFFFFF" d="M312.713,179.222c0.242-0.172,0.58-0.119,0.754,0.124l30.961,43.337c0.254-0.1,0.518-0.161,0.789-0.133
					l0.799,0.113l6.723,9.563c0.535,0.756,0.359,1.818-0.385,2.36l-0.561,0.385l-0.621-0.063l-0.801-0.113l-6.725-9.572
					c-0.393-0.566-0.396-1.3-0.057-1.861l-31-43.39C312.42,179.729,312.471,179.395,312.713,179.222z"/>
				<path fill="#FFFFFF" d="M313.582,177.631c0.234-0.186,0.572-0.149,0.76,0.085l33.141,41.693c0.246-0.11,0.508-0.185,0.781-0.171
					l0.805,0.069l7.199,9.208c0.578,0.727,0.453,1.796-0.262,2.377l-0.543,0.413l-0.621-0.03l-0.805-0.073l-7.207-9.214
					c-0.42-0.547-0.461-1.279-0.152-1.855l-33.182-41.747C313.313,178.154,313.35,177.814,313.582,177.631z"/>
			</g>
			<g>
				<path fill="#A8A8A8" d="M297.405,159.272l0.854,4.671c0.45,2.463-1.184,4.825-3.646,5.275c-2.463,0.45-4.825-1.182-5.275-3.645
					l-0.854-4.673c-3.778,2.486-5.908,7.071-5.044,11.799l2.649,14.495l22.855-4.178l-2.65-14.496
					C305.431,163.795,301.816,160.261,297.405,159.272z"/>
			</g>
			<g>
				<g>
					<circle fill="#A8A8A8" cx="241.87" cy="180.209" r="17.953"/>
					<path fill="#FFFFFF" d="M252.202,178.321c1.043,5.703-2.737,11.177-8.444,12.22c-5.703,1.043-11.177-2.737-12.22-8.442
						c-1.043-5.706,2.739-11.178,8.443-12.221C245.687,168.835,251.159,172.615,252.202,178.321z"/>
					<circle fill="#3A3A3A" cx="241.871" cy="180.21" r="5.386"/>
				</g>
				<g>
					<circle fill="#A8A8A8" cx="347.831" cy="160.838" r="17.954"/>
					<path fill="#FFFFFF" d="M358.164,158.949c1.043,5.705-2.74,11.179-8.445,12.221c-5.703,1.043-11.178-2.738-12.221-8.443
						s2.74-11.177,8.443-12.219C351.646,149.465,357.121,153.244,358.164,158.949z"/>
					<circle fill="#3A3A3A" cx="347.832" cy="160.838" r="5.385"/>
				</g>
				
					<rect x="263.883" y="169.569" transform="matrix(0.9837 -0.1798 0.1798 0.9837 -25.8531 55.8147)" fill="#FFFFFF" width="62.107" height="1.879"/>
				<g>
					<path fill="#A8A8A8" d="M326.443,161.39c-1.756,0.321-2.92,2.006-2.598,3.765c0.32,1.758,2.004,2.921,3.762,2.601l4.404-0.805
						l-1.164-6.366L326.443,161.39z"/>
					<path fill="#A8A8A8" d="M261.994,173.313l-4.4,0.805l1.163,6.365l4.401-0.805c1.76-0.322,2.923-2.007,2.602-3.766
						C265.438,174.154,263.753,172.99,261.994,173.313z"/>
				</g>
			</g>
			<g>
				<path fill="#FFFFFF" d="M312.35,165.448c-0.328,8.505-6.502,15.972-15.216,17.564c-8.712,1.593-17.13-3.206-20.443-11.045
					l-6.482,1.185c4.046,11.353,15.858,18.453,28.089,16.218c12.23-2.236,20.766-13.057,20.534-25.105L312.35,165.448z"/>
			</g>
			<path fill="#7C7C7B" d="M179.56,200.745c0.464,2.537-1.217,4.969-3.753,5.433l0,0c-2.536,0.463-4.969-1.217-5.433-3.753
				l-4.649-25.432c-0.463-2.534,1.218-4.968,3.754-5.431l0,0c2.536-0.464,4.969,1.218,5.432,3.752L179.56,200.745z"/>
			<path fill="#7C7C7B" d="M426.764,155.553c0.463,2.537-1.215,4.969-3.754,5.433l0,0c-2.533,0.464-4.967-1.217-5.43-3.753
				l-4.65-25.432c-0.463-2.535,1.219-4.967,3.754-5.431l0,0c2.535-0.464,4.967,1.217,5.432,3.752L426.764,155.553z"/>
			<path fill="#A8A8A8" d="M422.857,111.992c-1.428,0.26-2.375,1.63-2.113,3.058l0.807,4.412c0.188,1.024,0.949,1.791,1.891,2.052
				l3.93,21.49l2.238-0.409l-3.928-21.49c0.789-0.577,1.229-1.564,1.043-2.589l-0.807-4.412
				C425.656,112.676,424.287,111.731,422.857,111.992z"/>
		</g>
	</g>
	<g>
		
			<rect x="458.49" y="163.707" transform="matrix(-0.9435 0.3315 -0.3315 -0.9435 1091.8887 309.572)" fill="#F7FBFF" width="122.112" height="168.378"/>
		<g>
			<g>
				<g>
					
						<rect x="531.169" y="269.899" transform="matrix(-0.9435 0.3315 -0.3315 -0.9435 1173.3689 343.3288)" fill="#C0C0C0" width="52.474" height="3.654"/>
				</g>
				<g>
					
						<rect x="533.048" y="275.247" transform="matrix(-0.9435 0.3315 -0.3315 -0.9435 1178.7947 353.0897)" fill="#C0C0C0" width="52.475" height="3.656"/>
				</g>
				<g>
					
						<rect x="534.926" y="280.595" transform="matrix(-0.9435 0.3315 -0.3315 -0.9435 1184.2141 362.882)" fill="#C0C0C0" width="52.474" height="3.654"/>
				</g>
				<g>
					
						<rect x="536.806" y="285.943" transform="matrix(-0.9435 0.3315 -0.3315 -0.9435 1189.6405 372.6538)" fill="#C0C0C0" width="52.474" height="3.656"/>
				</g>
				<g>
					
						<rect x="538.685" y="291.293" transform="matrix(-0.9435 0.3315 -0.3315 -0.9435 1195.0649 382.4259)" fill="#C0C0C0" width="52.474" height="3.654"/>
				</g>
				<g>
					
						<rect x="540.564" y="296.64" transform="matrix(-0.9435 0.3315 -0.3315 -0.9435 1200.4893 392.1981)" fill="#C0C0C0" width="52.474" height="3.656"/>
				</g>
				<g>
					
						<rect x="542.443" y="301.99" transform="matrix(-0.9435 0.3315 -0.3315 -0.9435 1205.9137 401.9702)" fill="#C0C0C0" width="52.474" height="3.654"/>
				</g>
				<g>
					
						<rect x="544.322" y="307.338" transform="matrix(-0.9435 0.3315 -0.3315 -0.9435 1211.3381 411.7424)" fill="#C0C0C0" width="52.474" height="3.656"/>
				</g>
			</g>
		</g>
		<g>
			<g>
				<g>
					
						<rect x="476.275" y="289.183" transform="matrix(-0.9435 0.3314 -0.3314 -0.9435 1073.0739 399.0191)" fill="#C0C0C0" width="52.476" height="3.654"/>
				</g>
				<g>
					
						<rect x="478.154" y="294.53" transform="matrix(-0.9435 0.3314 -0.3314 -0.9435 1078.4939 408.8095)" fill="#C0C0C0" width="52.475" height="3.656"/>
				</g>
				<g>
					
						<rect x="480.034" y="299.881" transform="matrix(-0.9435 0.3315 -0.3315 -0.9435 1083.926 418.556)" fill="#C0C0C0" width="52.474" height="3.654"/>
				</g>
				<g>
					
						<rect x="481.913" y="305.229" transform="matrix(-0.9435 0.3315 -0.3315 -0.9435 1089.3546 428.3078)" fill="#C0C0C0" width="52.475" height="3.654"/>
				</g>
				<g>
					
						<rect x="483.79" y="310.577" transform="matrix(-0.9435 0.3315 -0.3315 -0.9435 1094.7754 438.0855)" fill="#C0C0C0" width="52.477" height="3.654"/>
				</g>
				<g>
					
						<rect x="485.669" y="315.924" transform="matrix(-0.9435 0.3314 -0.3314 -0.9435 1100.1951 447.8763)" fill="#C0C0C0" width="52.476" height="3.656"/>
				</g>
				<g>
					
						<rect x="487.549" y="321.275" transform="matrix(-0.9435 0.3314 -0.3314 -0.9435 1105.6216 457.6501)" fill="#C0C0C0" width="52.476" height="3.653"/>
				</g>
				<g>
					
						<rect x="489.429" y="326.621" transform="matrix(-0.9435 0.3315 -0.3315 -0.9435 1111.0474 467.413)" fill="#C0C0C0" width="52.474" height="3.656"/>
				</g>
			</g>
		</g>
		
			<rect x="565.679" y="240.255" transform="matrix(-0.9435 0.3315 -0.3315 -0.9435 1189.7847 285.9351)" fill="#C0C0C0" width="9.657" height="8.354"/>
		
			<rect x="569.707" y="251.723" transform="matrix(-0.9435 0.3315 -0.3315 -0.9435 1201.4146 306.8861)" fill="#C0C0C0" width="9.657" height="8.353"/>
		
			<rect x="512.352" y="258.989" transform="matrix(-0.9435 0.3315 -0.3315 -0.9435 1092.3591 340.0033)" fill="#C0C0C0" width="9.659" height="8.354"/>
		
			<rect x="516.381" y="270.457" transform="matrix(-0.9435 0.3314 -0.3314 -0.9435 1103.9832 361.0098)" fill="#C0C0C0" width="9.659" height="8.353"/>
		
			<rect x="550.032" y="248.073" transform="matrix(-0.9435 0.3315 -0.3315 -0.9435 1162.797 301.2081)" fill="#C0C0C0" width="11.357" height="3.394"/>
		
			<rect x="554.142" y="259.902" transform="matrix(-0.9435 0.3312 -0.3312 -0.9435 1174.6475 322.7418)" fill="#C0C0C0" width="11.358" height="3.133"/>
		
			<rect x="497.804" y="266.42" transform="matrix(-0.9435 0.3314 -0.3314 -0.9435 1067.3679 354.2246)" fill="#C0C0C0" width="11.357" height="3.394"/>
		
			<rect x="453.656" y="221.775" transform="matrix(-0.9435 0.3315 -0.3315 -0.9435 1063.9536 265.7511)" fill="#C0C0C0" width="111.318" height="3.655"/>
		
			<rect x="455.62" y="227.362" transform="matrix(-0.9435 0.3314 -0.3314 -0.9435 1069.6201 275.964)" fill="#C0C0C0" width="111.318" height="3.655"/>
		
			<rect x="457.582" y="232.951" transform="matrix(-0.9435 0.3315 -0.3315 -0.9435 1075.2876 286.1707)" fill="#C0C0C0" width="111.318" height="3.654"/>
		
			<rect x="459.547" y="238.538" transform="matrix(-0.9435 0.3315 -0.3315 -0.9435 1080.957 296.3773)" fill="#C0C0C0" width="111.316" height="3.657"/>
		
			<rect x="461.508" y="244.127" transform="matrix(-0.9435 0.3315 -0.3315 -0.9435 1086.6217 306.5864)" fill="#C0C0C0" width="111.318" height="3.655"/>
		
			<rect x="463.471" y="249.716" transform="matrix(-0.9435 0.3315 -0.3315 -0.9435 1092.2892 316.7985)" fill="#C0C0C0" width="111.318" height="3.654"/>
		<polygon fill="#C0C0C0" points="456.127,218.236 544.227,186.299 543.016,182.851 454.914,214.789 		"/>
		<polygon fill="#C0C0C0" points="458.006,223.586 546.107,191.647 544.896,188.2 456.793,220.137 		"/>
		<polygon fill="#C0C0C0" points="459.885,228.934 547.984,196.996 546.773,193.549 458.674,225.486 		"/>
		<polygon fill="#C0C0C0" points="461.764,234.282 549.865,202.345 548.652,198.897 460.553,230.834 		"/>
		<g>
			<g>
				<g>
					<polygon fill="#C0C0C0" points="538.982,181.168 456.646,210.821 452.557,198.982 534.895,169.329 					"/>
				</g>
			</g>
		</g>
	</g>
	<g>
		<path fill="#EBD097" d="M581.115,265.041c-0.18,1.616-1.639,2.784-3.258,2.603l-2.137-0.24c-1.615-0.182-2.781-1.642-2.6-3.259
			l0.24-2.139c0.18-1.619,1.641-2.782,3.256-2.6l2.137,0.239c1.619,0.182,2.783,1.638,2.604,3.257L581.115,265.041z"/>
		<g>
			<polygon fill="#31312F" points="566.859,356.424 568.285,353.942 565.988,353.684 			"/>
			<polygon fill="#EBD097" points="563.711,346.487 565.988,353.684 568.285,353.942 572.029,347.42 			"/>
		</g>
		<g>
			<path fill="#37485C" d="M576.865,267.114l-8.928,79.592c0.402-0.93,1.234-1.77,2.152-1.668c1.088,0.121,1.842,1.168,1.836,2.396
				l0.088,0.01l8.959-79.869L576.865,267.114z"/>
			<path fill="#465D73" d="M572.68,266.645l-8.957,79.869l0.023,0.004c0.232-1.25,1.23-2.152,2.344-2.027
				c0.98,0.109,1.676,1.232,1.807,2.299c0.012-0.029,0.027-0.059,0.041-0.084l8.928-79.592L572.68,266.645z"/>
		</g>
		<path fill="#EBD097" d="M570.172,345.02c-0.959-0.109-1.828,0.545-2.213,1.518c-0.135-1.078-0.844-1.959-1.836-2.07
			c-1.123-0.125-2.135,0.785-2.369,2.051l4.072,0.457l0.158,0.018l4.043,0.453C572.031,346.204,571.27,345.143,570.172,345.02z"/>
		
			<rect x="572.814" y="264.957" transform="matrix(0.9938 0.1113 -0.1113 0.9938 33.1989 -62.5685)" fill="#248396" width="8.264" height="2.159"/>
		<path fill="#25737E" d="M581.266,266.524c-0.02,0.168-0.176,0.295-0.346,0.275l-7.996-0.896c-0.174-0.02-0.295-0.178-0.277-0.346
			l0,0c0.02-0.174,0.174-0.295,0.348-0.277l7.994,0.898C581.16,266.199,581.285,266.351,581.266,266.524L581.266,266.524z"/>
		<path fill="#25737E" d="M581.186,267.577c-0.018,0.172-0.174,0.295-0.344,0.275l-7.998-0.896c-0.17-0.02-0.293-0.174-0.273-0.346
			l0,0c0.018-0.169,0.174-0.294,0.344-0.276l7.998,0.897C581.082,267.25,581.205,267.407,581.186,267.577L581.186,267.577z"/>
	</g>
	<g>
		<g>
			<g>
				
					<ellipse transform="matrix(0.9651 0.2621 -0.2621 0.9651 117.7548 -118.0829)" fill="#F7FBFF" cx="501.59" cy="382.441" rx="4.319" ry="4.881"/>
				
					<rect x="509.829" y="289.832" transform="matrix(0.9651 0.262 -0.262 0.9651 95.0057 -127.6552)" fill="#F7FBFF" width="32.901" height="5.327"/>
				<path fill="#A6ACAE" d="M500.154,387.731c-3.088-0.838-4.918-4.033-4.08-7.119s4.031-4.916,7.119-4.078s4.918,4.031,4.08,7.119
					C506.434,386.739,503.242,388.569,500.154,387.731z M502.588,378.766c-1.855-0.504-3.775,0.596-4.279,2.451
					c-0.504,1.857,0.596,3.777,2.451,4.281c1.857,0.504,3.777-0.596,4.279-2.453C505.543,381.19,504.443,379.27,502.588,378.766z"/>
				<g>
					<g>
						<g>
							<g>
								<path fill="#37485C" d="M551.234,292.635l-47.07-12.777c-3.922-1.063-8.01,1.303-9.084,5.26l-23.955,88.254
									c-1.076,3.961,1.256,8.064,5.18,9.127l47.07,12.775c3.928,1.066,8.012-1.299,9.086-5.256l23.955-88.252
									C557.49,297.807,555.156,293.7,551.234,292.635z M514.014,286.84l25.195,6.84c0.924,0.252,1.469,1.211,1.217,2.145
									c-0.254,0.934-1.209,1.486-2.135,1.234l-25.193-6.838c-0.926-0.252-1.471-1.211-1.217-2.145S513.09,286.59,514.014,286.84z
									 M500.527,386.358c-2.303-0.625-3.658-3.012-3.027-5.334s3.008-3.697,5.309-3.072c2.303,0.623,3.656,3.014,3.027,5.334
									C505.205,385.608,502.828,386.983,500.527,386.358z M529.158,382.557l-51.412-13.955l21.152-77.926l51.412,13.955
									L529.158,382.557z"/>
							</g>
						</g>
					</g>
				</g>
			</g>
			<g>
				<polygon fill="#A6CBCB" points="498.939,290.528 477.967,367.786 550.322,304.477 				"/>
				<polygon fill="#7EBFC7" points="477.967,367.786 477.67,368.883 529.082,382.838 550.352,304.485 550.322,304.477 				"/>
			</g>
			<g>
				<path fill="#908D8D" d="M528.916,383.456L477.502,369.5c-0.34-0.094-0.543-0.445-0.449-0.785l21.268-78.354
					c0.092-0.342,0.445-0.543,0.785-0.451l51.414,13.957c0.34,0.092,0.541,0.443,0.449,0.783l-21.27,78.355
					C529.607,383.346,529.256,383.547,528.916,383.456z M478.455,368.432l50.178,13.621l20.934-77.119l-50.178-13.621
					L478.455,368.432z"/>
			</g>
		</g>
	</g>
</g>
<g>
</g>
<g>
</g>
<g>
</g>
<g>
</g>
<g>
</g>
<g>
</g>
</svg>
