<?xml version="1.0" encoding="utf-8"?>
<!-- Generator: Adobe Illustrator 16.0.0, SVG Export Plug-In . SVG Version: 6.00 Build 0)  -->
<!DOCTYPE svg PUBLIC "-//W3C//DTD SVG 1.1//EN" "http://www.w3.org/Graphics/SVG/1.1/DTD/svg11.dtd">
<svg version="1.1" id="Layer_1" xmlns="http://www.w3.org/2000/svg" xmlns:xlink="http://www.w3.org/1999/xlink" x="0px" y="0px"
	 width="647.574px" height="446.154px" viewBox="0 0 647.574 446.154" enable-background="new 0 0 647.574 446.154"
	 xml:space="preserve">
<g>
	<g>
		<path fill="#D4D8E9" d="M546.789,341.074H102.268c-12.009,0-21.745-9.734-21.745-21.744V54.452
			c0-12.01,9.736-21.745,21.745-21.745h444.521c12.01,0,21.744,9.735,21.744,21.745V319.33
			C568.533,331.339,558.799,341.074,546.789,341.074z"/>
		<path fill="#181818" d="M84.688,320.164V53.617c0-9.247,7.497-16.744,16.744-16.744h446.192c9.246,0,16.744,7.497,16.744,16.744
			v266.547c0,9.248-7.498,16.744-16.746,16.744h-446.19C92.186,336.908,84.688,329.412,84.688,320.164z"/>
		<rect x="101.353" y="53.536" fill="#95B1D2" width="446.353" height="266.71"/>
		<rect x="143.04" y="78.446" fill="#E5EBF2" width="362.978" height="216.89"/>
		<rect x="143.04" y="90.665" fill="#23599A" width="362.978" height="21.107"/>
		<rect x="172.708" y="111.772" fill="#23599A" width="303.642" height="75.119"/>
		<path fill="#FFFFFF" d="M329.941,139.682c2.146,0,5.776,0.031,5.776,0.031v-7.291c0,0-2.525-0.063-5.84,0
			c-3.313,0.063-11.457,0.315-11.457,9.911v6.186h-6.313v7.575h6.313v23.673h9.027v-23.673h7.386l0.884-7.575h-8.27v-6.186
			C327.448,142.333,327.795,139.682,329.941,139.682z"/>
		<rect x="172.708" y="111.772" fill="#E5EBF2" width="303.642" height="12.291"/>
		<rect x="172.708" y="186.891" fill="#B5B5B5" width="303.642" height="29.018"/>
		<rect x="290.693" y="223.133" fill="#B5B5B5" width="185.656" height="65.259"/>
		<rect x="172.708" y="223.133" fill="#B5B5B5" width="108.682" height="29.018"/>
		<rect x="172.708" y="259.375" fill="#B5B5B5" width="108.682" height="29.017"/>
		<rect x="183.915" y="157.874" fill="#6284B6" width="58.035" height="58.035"/>
	</g>
	<path fill="#D4D8E9" d="M323.903,341.074v83.408H39.358c0,0-9.166-8.053-5.832-20.828l63.313-62.67L323.903,341.074z"/>
	<path fill="#ADB0B3" d="M35.565,401.634l-2.039,2.02c-3.334,12.775,5.832,20.828,5.832,20.828h284.545V406.57H39.358
		C39.358,406.57,37.357,404.81,35.565,401.634z"/>
	<path fill="#D4D8E9" d="M323.746,341.074v83.408h284.547c0,0,9.164-8.053,5.832-20.828l-63.314-62.67L323.746,341.074z"/>
	<path fill="#ADB0B3" d="M612.084,401.634l2.041,2.02c3.332,12.775-5.832,20.828-5.832,20.828H323.746V406.57h284.547
		C608.293,406.57,610.293,404.81,612.084,401.634z"/>
	<polygon fill="#181818" points="555.916,382.734 90.735,382.734 121.841,348.388 525.088,348.388 	"/>
	<path fill="#D4D8E9" d="M368.196,413.058h-89.881c-2.434,0-4.424-1.99-4.424-4.424v-2.574c0-2.434,1.99-4.426,4.424-4.426h89.881
		c2.434,0,4.425,1.992,4.425,4.426v2.574C372.621,411.068,370.63,413.058,368.196,413.058z"/>
</g>
<g>
</g>
<g>
</g>
<g>
</g>
<g>
</g>
<g>
</g>
<g>
</g>
</svg>
