<?xml version="1.0" encoding="utf-8"?>
<!-- Generator: Adobe Illustrator 16.0.0, SVG Export Plug-In . SVG Version: 6.00 Build 0)  -->
<!DOCTYPE svg PUBLIC "-//W3C//DTD SVG 1.1//EN" "http://www.w3.org/Graphics/SVG/1.1/DTD/svg11.dtd">
<svg version="1.1" xmlns="http://www.w3.org/2000/svg" xmlns:xlink="http://www.w3.org/1999/xlink" x="0px" y="0px" width="800px"
	 height="800px" viewBox="0 0 800 800" enable-background="new 0 0 800 800" xml:space="preserve">
<g id="Background">
</g>
<g id="Objects">
	<g>
		<circle opacity="0.1" fill-rule="evenodd" clip-rule="evenodd" fill="#32495B" cx="441.49" cy="497.27" r="240.878"/>
		<g>
			<g>
				<g>
					<path fill="#5F7283" d="M474.021,568.112h-22.023h-21.015h-22.024c0,0,5.253,92.321-27.077,92.321h49.101h21.015H501.1
						C468.769,660.434,474.021,568.112,474.021,568.112z"/>
					<g>
						<path fill="#32495B" d="M648.215,331.815H234.767c-6.567,0-11.891,5.324-11.891,11.891v243.617v2.439v18.903
							c0,5.727,4.641,10.367,10.367,10.367h416.497c5.726,0,10.367-4.641,10.367-10.367v-18.903v-2.439V343.706
							C660.106,337.139,654.781,331.815,648.215,331.815z"/>
						<rect x="237.054" y="345.535" fill="#FFFFFF" width="408.874" height="219.529"/>
					</g>
					<rect x="236.901" y="563.236" fill="#5F7283" width="409.179" height="12.805"/>
					<circle fill="#5F7283" cx="441.49" cy="597.004" r="10.748"/>
				</g>
				<rect x="380.653" y="658.585" fill="#32495B" width="121.674" height="4.14"/>
			</g>
			<g>
				<g>
					<g>
						<path fill="#32495B" d="M490.121,517.471H392.86v-96.842c0-7.026,5.696-12.723,12.724-12.723h71.813
							c7.027,0,12.724,5.696,12.724,12.723V517.471z"/>
						<rect x="395.669" y="425.619" fill="#FFFFFF" width="91.644" height="88.647"/>
						<g>
							<path fill="#FFD360" d="M406.6,413.91c1.503,1.975-0.729,4.206-2.703,2.702C402.393,414.638,404.624,412.406,406.6,413.91z"
								/>
							<g>
								<circle fill="#FC513F" cx="399.667" cy="415.261" r="1.844"/>
								<path fill="#4BD4C0" d="M412.179,413.91c1.505,1.975-0.728,4.206-2.702,2.702
									C407.973,414.638,410.205,412.406,412.179,413.91z"/>
							</g>
						</g>
						<path fill="#415B6D" d="M481.372,417.834h-61.426c-1.415,0-2.573-1.158-2.573-2.573l0,0c0-1.415,1.158-2.573,2.573-2.573
							h61.426c1.415,0,2.573,1.158,2.573,2.573l0,0C483.945,416.676,482.787,417.834,481.372,417.834z"/>
					</g>
					<g>
						<path fill="#32495B" d="M427.222,453.453l-1.842,1.134c-0.507-0.49-1.075-0.897-1.685-1.218l0.5-2.105
							c0.046-0.191-0.073-0.387-0.267-0.433l-2.879-0.685c-0.193-0.045-0.388,0.074-0.433,0.267l-0.501,2.106
							c-0.688,0.011-1.38,0.118-2.054,0.328l-1.133-1.842c-0.104-0.168-0.326-0.222-0.495-0.116l-2.52,1.552
							c-0.17,0.104-0.222,0.324-0.118,0.494l1.134,1.842c-0.489,0.506-0.896,1.077-1.215,1.685l-2.106-0.5
							c-0.193-0.047-0.388,0.073-0.433,0.267l-0.686,2.879c-0.045,0.192,0.074,0.387,0.267,0.434l2.105,0.499
							c0.013,0.688,0.12,1.381,0.329,2.054l-1.841,1.135c-0.17,0.104-0.222,0.325-0.118,0.494l1.553,2.52
							c0.104,0.17,0.325,0.222,0.494,0.117l1.841-1.134c0.508,0.49,1.077,0.896,1.687,1.216l-0.501,2.107
							c-0.046,0.191,0.074,0.387,0.267,0.432l2.879,0.686c0.193,0.045,0.387-0.074,0.434-0.268l0.5-2.105
							c0.688-0.012,1.379-0.119,2.053-0.328l1.135,1.842c0.104,0.169,0.324,0.221,0.493,0.116l2.52-1.552
							c0.17-0.104,0.223-0.325,0.118-0.494l-1.134-1.841c0.49-0.507,0.896-1.077,1.217-1.686l2.106,0.499
							c0.191,0.047,0.386-0.072,0.432-0.267l0.685-2.878c0.046-0.193-0.073-0.387-0.267-0.434l-2.105-0.5
							c-0.012-0.688-0.119-1.379-0.328-2.053l1.842-1.134c0.169-0.104,0.221-0.326,0.116-0.495l-1.551-2.52
							C427.612,453.4,427.391,453.35,427.222,453.453z M422.604,463.727c-2.11,1.301-4.875,0.645-6.175-1.467
							c-1.3-2.109-0.644-4.875,1.467-6.175c2.111-1.3,4.875-0.642,6.175,1.467C425.371,459.662,424.715,462.428,422.604,463.727z"/>
						<path fill="#32495B" d="M426.779,438.953l-1.053,0.648c-0.29-0.279-0.616-0.514-0.964-0.695l0.286-1.203
							c0.026-0.111-0.042-0.221-0.152-0.248l-1.646-0.392c-0.11-0.026-0.221,0.043-0.246,0.153l-0.287,1.203
							c-0.394,0.007-0.788,0.068-1.174,0.188l-0.647-1.053c-0.061-0.096-0.187-0.127-0.283-0.067l-1.44,0.888
							c-0.097,0.061-0.127,0.187-0.067,0.283l0.649,1.052c-0.281,0.292-0.514,0.616-0.696,0.965l-1.204-0.286
							c-0.11-0.027-0.221,0.041-0.247,0.152l-0.391,1.645c-0.027,0.111,0.041,0.221,0.151,0.248l1.204,0.285
							c0.008,0.394,0.067,0.789,0.188,1.174l-1.054,0.648c-0.097,0.06-0.126,0.186-0.066,0.284l0.887,1.439
							c0.061,0.097,0.187,0.126,0.283,0.067l1.052-0.648c0.291,0.279,0.616,0.512,0.965,0.695l-0.287,1.203
							c-0.025,0.111,0.042,0.221,0.152,0.248l1.646,0.391c0.109,0.025,0.22-0.041,0.247-0.152l0.285-1.203
							c0.395-0.008,0.789-0.068,1.174-0.188l0.648,1.053c0.06,0.096,0.187,0.127,0.283,0.066l1.439-0.888
							c0.098-0.06,0.128-0.185,0.068-0.282l-0.649-1.051c0.281-0.291,0.514-0.617,0.696-0.965l1.203,0.285
							c0.111,0.027,0.222-0.041,0.248-0.151l0.391-1.646c0.027-0.11-0.042-0.221-0.152-0.248l-1.203-0.286
							c-0.007-0.394-0.067-0.788-0.188-1.173l1.053-0.648c0.097-0.06,0.127-0.188,0.066-0.283l-0.887-1.439
							C427.002,438.924,426.875,438.895,426.779,438.953z M424.14,444.826c-1.207,0.743-2.787,0.369-3.529-0.838
							c-0.743-1.207-0.369-2.787,0.838-3.529s2.786-0.369,3.529,0.838C425.721,442.503,425.346,444.083,424.14,444.826z"/>
						<path fill="#4BD4C0" d="M413.503,440.16l-1.454,0.896c-0.4-0.387-0.852-0.707-1.332-0.96l0.395-1.664
							c0.037-0.152-0.058-0.306-0.209-0.342l-2.275-0.54c-0.152-0.036-0.306,0.058-0.341,0.21l-0.396,1.663
							c-0.543,0.01-1.09,0.093-1.622,0.259l-0.896-1.453c-0.081-0.134-0.257-0.176-0.39-0.093l-1.991,1.226
							c-0.134,0.082-0.175,0.257-0.092,0.391l0.896,1.454c-0.388,0.401-0.708,0.851-0.962,1.331l-1.664-0.395
							c-0.151-0.036-0.305,0.058-0.341,0.211l-0.54,2.274c-0.037,0.151,0.058,0.307,0.21,0.341l1.663,0.396
							c0.01,0.545,0.094,1.09,0.26,1.622l-1.455,0.896c-0.133,0.081-0.175,0.256-0.092,0.39l1.226,1.991
							c0.082,0.134,0.257,0.175,0.391,0.092l1.454-0.896c0.401,0.387,0.851,0.709,1.332,0.962l-0.395,1.663
							c-0.036,0.152,0.058,0.306,0.21,0.342l2.275,0.541c0.152,0.036,0.306-0.059,0.341-0.211l0.396-1.662
							c0.544-0.012,1.09-0.096,1.622-0.26l0.896,1.454c0.082,0.134,0.257,0.175,0.391,0.093l1.989-1.227
							c0.135-0.082,0.176-0.256,0.094-0.391l-0.896-1.453c0.387-0.402,0.708-0.853,0.96-1.332l1.664,0.395
							c0.153,0.035,0.306-0.059,0.342-0.211l0.541-2.275c0.036-0.152-0.059-0.305-0.211-0.341l-1.663-0.395
							c-0.009-0.545-0.095-1.091-0.26-1.623l1.455-0.896c0.134-0.083,0.175-0.258,0.093-0.393l-1.227-1.988
							C413.812,440.119,413.637,440.078,413.503,440.16z M409.855,448.277c-1.667,1.027-3.852,0.509-4.878-1.159
							c-1.026-1.667-0.509-3.852,1.159-4.878c1.667-1.027,3.852-0.508,4.879,1.158C412.042,445.066,411.522,447.251,409.855,448.277
							z"/>
					</g>
					<g>
						<g>
							<path fill="#CECECE" d="M451.062,452.242l-7.66-6.493c-0.806,0.91-4.527,5.112-4.802,5.317l-0.203-0.255
								c0.213-0.164,3.024-3.317,4.862-5.397l0.109-0.123l7.664,6.496l4.355-4.831l2.568,2.179l6.856-6.574l9.066,6.653l7.663-8.5
								l0.25,0.212l-7.883,8.742l-9.067-6.266l-6.855,6.187l-2.57-2.177L451.062,452.242z"/>
						</g>
						
							<ellipse transform="matrix(0.9978 -0.0668 0.0668 0.9978 -29.1467 30.3057)" fill="#404040" cx="438.52" cy="450.919" rx="0.665" ry="0.645"/>
						
							<ellipse transform="matrix(0.9977 -0.0675 0.0675 0.9977 -29.064 30.9371)" fill="#404040" cx="443.321" cy="445.602" rx="0.666" ry="0.644"/>
						
							<ellipse transform="matrix(0.9978 -0.0669 0.0669 0.9978 -29.2043 31.1555)" fill="#404040" cx="450.854" cy="451.884" rx="0.665" ry="0.645"/>
						
							<ellipse transform="matrix(0.9978 -0.0668 0.0668 0.9978 -28.8308 31.3884)" fill="#404040" cx="455.21" cy="447.054" rx="0.666" ry="0.645"/>
						<path fill="#404040" d="M458.608,448.928c0.024,0.354-0.253,0.662-0.62,0.686c-0.366,0.027-0.684-0.241-0.707-0.598
							c-0.024-0.355,0.254-0.663,0.621-0.688C458.268,448.304,458.585,448.57,458.608,448.928z"/>
						
							<ellipse transform="matrix(0.9977 -0.0675 0.0675 0.9977 -28.8276 32.3777)" fill="#404040" cx="464.761" cy="442.822" rx="0.666" ry="0.646"/>
						
							<ellipse transform="matrix(0.9978 -0.0661 0.0661 0.9978 -28.0737 32.782)" fill="#404040" cx="481.514" cy="440.769" rx="0.665" ry="0.645"/>
						
							<ellipse transform="matrix(0.9978 -0.0668 0.0668 0.9978 -28.9329 32.6325)" fill="#404040" cx="473.773" cy="449.204" rx="0.666" ry="0.645"/>
					</g>
					<polygon fill="#FC513F" points="438.214,465.412 444.583,463.645 448.379,461.896 454.827,465.316 458.496,459.786 
						464.378,460.409 468.198,455.211 474.406,456.605 482.137,452.711 482.137,471.08 438.337,471.08 					"/>
					<g>
						<g>
							<path fill="#CECECE" d="M444.663,491.257H400.92c-0.353,0-0.641-0.289-0.641-0.642l0,0c0-0.354,0.288-0.642,0.641-0.642
								h43.743c0.354,0,0.642,0.288,0.642,0.642l0,0C445.305,490.968,445.017,491.257,444.663,491.257z"/>
							<path fill="#CECECE" d="M444.663,493.82H400.92c-0.353,0-0.641-0.288-0.641-0.641l0,0c0-0.354,0.288-0.642,0.641-0.642
								h43.743c0.354,0,0.642,0.288,0.642,0.642l0,0C445.305,493.532,445.017,493.82,444.663,493.82z"/>
						</g>
						<g>
							<path fill="#CECECE" d="M444.663,500.559H400.92c-0.353,0-0.641-0.288-0.641-0.641l0,0c0-0.353,0.288-0.642,0.641-0.642
								h43.743c0.354,0,0.642,0.289,0.642,0.642l0,0C445.305,500.271,445.017,500.559,444.663,500.559z"/>
							<path fill="#CECECE" d="M444.663,503.124H400.92c-0.353,0-0.641-0.289-0.641-0.643l0,0c0-0.352,0.288-0.641,0.641-0.641
								h43.743c0.354,0,0.642,0.289,0.642,0.641l0,0C445.305,502.835,445.017,503.124,444.663,503.124z"/>
						</g>
					</g>
					<path fill="#CECECE" d="M475.916,507.98H461.59c-3.422,0-6.222-2.799-6.222-6.223v-6.988c0-3.423,2.8-6.223,6.222-6.223h14.326
						c3.42,0,6.221,2.8,6.221,6.223v6.988C482.137,505.182,479.336,507.98,475.916,507.98z"/>
				</g>
				<g>
					<g>
						<g>
							<path fill="#32495B" d="M374.741,528.2H253.967V404.871c0-7.027,5.697-12.723,12.723-12.723h95.328
								c7.027,0,12.723,5.696,12.723,12.723V528.2z"/>
							<rect x="257.455" y="414.143" fill="#FFFFFF" width="113.799" height="110.079"/>
							<g>
								<path fill="#FFD360" d="M271.027,399.604c1.867,2.452-0.904,5.223-3.355,3.355
									C265.805,400.508,268.576,397.736,271.027,399.604z"/>
								<g>
									<circle fill="#FC513F" cx="262.42" cy="401.281" r="2.29"/>
									<path fill="#4BD4C0" d="M277.957,399.604c1.868,2.452-0.904,5.223-3.355,3.355
										C272.734,400.508,275.505,397.736,277.957,399.604z"/>
								</g>
							</g>
							<path fill="#415B6D" d="M363.877,404.477h-76.276c-1.758,0-3.195-1.438-3.195-3.195l0,0c0-1.758,1.438-3.195,3.195-3.195
								h76.276c1.757,0,3.196,1.438,3.196,3.195l0,0C367.073,403.039,365.635,404.477,363.877,404.477z"/>
						</g>
						<g>
							<g>
								<defs>
									<circle id="SVGID_1_" cx="286.911" cy="446.152" r="21.45"/>
								</defs>
								<clipPath id="SVGID_2_">
									<use xlink:href="#SVGID_1_"  overflow="visible"/>
								</clipPath>
								<circle clip-path="url(#SVGID_2_)" fill="#4BD4C0" cx="286.911" cy="446.152" r="21.45"/>
								<g clip-path="url(#SVGID_2_)">
									<g>
										<polygon fill="#F76666" points="286.911,446.152 305.932,418.328 268.902,423.143 										"/>
										<polygon fill="#FFFFFF" points="317.98,456.53 286.799,445.848 315.391,432.485 										"/>
									</g>
									<g>
										<polygon fill="#FC513F" points="286.911,446.152 305.932,418.328 268.902,423.143 										"/>
										<polygon fill="#32495B" points="317.98,456.53 286.911,446.152 305.932,418.328 										"/>
									</g>
								</g>
							</g>
							<g>
								<path fill="#FC513F" d="M353.471,467.608h-1.688c-0.934,0-1.698-0.766-1.698-1.698v-19.491c0-0.935,0.764-1.698,1.698-1.698
									h1.688c0.935,0,1.699,0.764,1.699,1.698v19.491C355.17,466.843,354.406,467.608,353.471,467.608z"/>
								<g>
									<path fill="#32495B" d="M345.388,467.608h-1.689c-0.934,0-1.699-0.766-1.699-1.698v-15.857
										c0-0.934,0.765-1.699,1.699-1.699h1.689c0.934,0,1.699,0.766,1.699,1.699v15.857
										C347.087,466.843,346.322,467.608,345.388,467.608z"/>
									<path fill="#4BD4C0" d="M361.555,467.608h-1.689c-0.934,0-1.699-0.766-1.699-1.698v-23.82c0-0.934,0.765-1.699,1.699-1.699
										h1.689c0.934,0,1.698,0.766,1.698,1.699v23.82C363.253,466.843,362.489,467.608,361.555,467.608z"/>
								</g>
							</g>
							<path fill="#CECECE" d="M356.498,423.037h-23.909c-0.901,0-1.637,0.738-1.637,1.639v8.768c0,0.9,0.736,1.639,1.637,1.639
								h16.91c1.393,2.754,3.324,6.25,3.324,6.25v-6.25h3.675c0.901,0,1.637-0.738,1.637-1.639v-8.768
								C358.135,423.775,357.399,423.037,356.498,423.037z"/>
							<g>
								<g>
									<path fill="#CECECE" d="M336.125,463.672h-19.638c-0.541,0-0.984-0.443-0.984-0.982l0,0c0-0.543,0.443-0.984,0.984-0.984
										h19.638c0.542,0,0.984,0.441,0.984,0.984l0,0C337.108,463.229,336.666,463.672,336.125,463.672z"/>
									<path fill="#CECECE" d="M336.125,467.608h-19.638c-0.541,0-0.984-0.443-0.984-0.983l0,0c0-0.542,0.443-0.984,0.984-0.984
										h19.638c0.542,0,0.984,0.442,0.984,0.984l0,0C337.108,467.165,336.666,467.608,336.125,467.608z"/>
								</g>
								<g>
									<path fill="#CECECE" d="M336.125,456.361h-19.638c-0.541,0-0.984-0.443-0.984-0.984l0,0c0-0.541,0.443-0.984,0.984-0.984
										h19.638c0.542,0,0.984,0.443,0.984,0.984l0,0C337.108,455.918,336.666,456.361,336.125,456.361z"/>
									<path fill="#CECECE" d="M336.125,460.296h-19.638c-0.541,0-0.984-0.441-0.984-0.983l0,0c0-0.54,0.443-0.984,0.984-0.984
										h19.638c0.542,0,0.984,0.444,0.984,0.984l0,0C337.108,459.854,336.666,460.296,336.125,460.296z"/>
								</g>
							</g>
						</g>
						<g>
							<g>
								<circle fill="#4BD4C0" cx="275.631" cy="482.742" r="2.42"/>
								<circle fill="#4BD4C0" cx="285.312" cy="482.742" r="2.42"/>
								<circle fill="#4BD4C0" cx="294.993" cy="482.742" r="2.421"/>
								<circle fill="#4BD4C0" cx="304.674" cy="482.742" r="2.42"/>
								<circle fill="#4BD4C0" cx="314.354" cy="482.742" r="2.42"/>
								<circle fill="#4BD4C0" cx="324.035" cy="482.742" r="2.42"/>
								<circle fill="#4BD4C0" cx="333.716" cy="482.742" r="2.42"/>
								<circle fill="#4BD4C0" cx="343.396" cy="482.742" r="2.42"/>
								<circle fill="#CECECE" cx="353.078" cy="482.742" r="2.42"/>
							</g>
							<g>
								<circle fill="#FC513F" cx="275.631" cy="492.528" r="2.42"/>
								<circle fill="#FC513F" cx="285.312" cy="492.528" r="2.42"/>
								<circle fill="#FC513F" cx="294.993" cy="492.528" r="2.421"/>
								<circle fill="#FC513F" cx="304.674" cy="492.528" r="2.42"/>
								<circle fill="#FC513F" cx="314.354" cy="492.528" r="2.42"/>
								<circle fill="#CECECE" cx="324.035" cy="492.528" r="2.42"/>
								<circle fill="#CECECE" cx="333.716" cy="492.528" r="2.42"/>
								<circle fill="#CECECE" cx="343.396" cy="492.528" r="2.42"/>
								<circle fill="#CECECE" cx="353.078" cy="492.528" r="2.42"/>
							</g>
							<g>
								<circle fill="#32495B" cx="275.631" cy="502.314" r="2.42"/>
								<circle fill="#32495B" cx="285.312" cy="502.314" r="2.42"/>
								<circle fill="#32495B" cx="294.993" cy="502.314" r="2.421"/>
								<circle fill="#32495B" cx="304.674" cy="502.314" r="2.42"/>
								<circle fill="#32495B" cx="314.354" cy="502.314" r="2.42"/>
								<circle fill="#32495B" cx="324.035" cy="502.314" r="2.42"/>
								<circle fill="#CECECE" cx="333.716" cy="502.314" r="2.42"/>
								<circle fill="#CECECE" cx="343.396" cy="502.314" r="2.42"/>
								<circle fill="#CECECE" cx="353.078" cy="502.314" r="2.42"/>
							</g>
							<g>
								<circle fill="#FFD360" cx="275.631" cy="512.102" r="2.42"/>
								<circle fill="#FFD360" cx="285.312" cy="512.102" r="2.42"/>
								<circle fill="#CECECE" cx="294.993" cy="512.102" r="2.421"/>
								<circle fill="#CECECE" cx="304.674" cy="512.102" r="2.42"/>
								<circle fill="#CECECE" cx="314.354" cy="512.102" r="2.42"/>
								<circle fill="#CECECE" cx="324.035" cy="512.102" r="2.42"/>
								<circle fill="#CECECE" cx="333.716" cy="512.102" r="2.42"/>
								<circle fill="#CECECE" cx="343.396" cy="512.102" r="2.42"/>
								<circle fill="#CECECE" cx="353.078" cy="512.102" r="2.42"/>
							</g>
						</g>
					</g>
					<g>
						<g>
							<path fill="#32495B" d="M629.014,528.2H508.239V404.871c0-7.027,5.697-12.723,12.724-12.723h95.329
								c7.025,0,12.722,5.696,12.722,12.723V528.2z"/>
							<rect x="511.728" y="414.143" fill="#FFFFFF" width="113.8" height="110.079"/>
							<g>
								<path fill="#FFD360" d="M525.3,399.604c1.868,2.452-0.903,5.223-3.355,3.355C520.077,400.508,522.848,397.736,525.3,399.604
									z"/>
								<g>
									<circle fill="#FC513F" cx="516.693" cy="401.281" r="2.292"/>
									<path fill="#4BD4C0" d="M532.229,399.604c1.867,2.452-0.904,5.223-3.355,3.355
										C527.006,400.508,529.778,397.736,532.229,399.604z"/>
								</g>
							</g>
							<path fill="#415B6D" d="M618.15,404.477h-76.276c-1.758,0-3.196-1.438-3.196-3.195l0,0c0-1.758,1.438-3.195,3.196-3.195
								h76.276c1.757,0,3.195,1.438,3.195,3.195l0,0C621.346,403.039,619.907,404.477,618.15,404.477z"/>
						</g>
						<g>
							<path fill="#FC513F" d="M540.829,494.312v17.3c0,1.474-1.206,2.684-2.683,2.684H536.7c-1.477,0-2.684-1.21-2.684-2.684v-17.3
								c0-1.475,1.207-2.684,2.684-2.684h1.446C539.623,491.628,540.829,492.837,540.829,494.312z"/>
							<path fill="#32495B" d="M551.23,480.734v30.877c0,1.474-1.207,2.684-2.684,2.684h-1.444c-1.477,0-2.685-1.21-2.685-2.684
								v-30.876c0-1.476,1.208-2.684,2.685-2.684h1.444C550.023,478.052,551.23,479.26,551.23,480.734z"/>
							<path fill="#FC513F" d="M561.632,489.025v22.586c0,1.474-1.208,2.684-2.683,2.684h-1.445c-1.478,0-2.686-1.21-2.686-2.684
								v-22.586c0-1.476,1.208-2.684,2.686-2.684h1.445C560.424,486.342,561.632,487.55,561.632,489.025z"/>
							<path fill="#32495B" d="M572.033,476.631v34.98c0,1.474-1.207,2.684-2.684,2.684h-1.446c-1.475,0-2.683-1.21-2.683-2.684
								v-34.98c0-1.477,1.208-2.684,2.683-2.684h1.446C570.826,473.947,572.033,475.154,572.033,476.631z"/>
							<path fill="#FC513F" d="M582.436,480.576v31.035c0,1.474-1.208,2.684-2.685,2.684h-1.445c-1.477,0-2.685-1.21-2.685-2.684
								v-31.035c0-1.475,1.208-2.682,2.685-2.682h1.445C581.228,477.895,582.436,479.102,582.436,480.576z"/>
							<path fill="#32495B" d="M592.835,468.895v42.717c0,1.474-1.207,2.684-2.683,2.684h-1.445c-1.477,0-2.684-1.21-2.684-2.684
								v-42.717c0-1.477,1.207-2.684,2.684-2.684h1.445C591.628,466.211,592.835,467.418,592.835,468.895z"/>
							<path fill="#FC513F" d="M603.237,464.79v46.821c0,1.474-1.208,2.684-2.684,2.684h-1.446c-1.476,0-2.684-1.21-2.684-2.684
								V464.79c0-1.476,1.208-2.685,2.684-2.685h1.446C602.029,462.105,603.237,463.314,603.237,464.79z"/>
						</g>
						<g>
							<g>
								<circle fill="#CECECE" cx="525.958" cy="433.102" r="8.904"/>
								<path fill="#FC513F" d="M525.984,433.898v-12.018c-6.08,0-11.009,4.927-11.009,11.006c0,6.08,4.929,11.008,11.009,11.008
									c5.737,0,10.445-4.391,10.956-9.996H525.984z"/>
							</g>
							<g>
								<circle fill="#CECECE" cx="555.098" cy="433.102" r="8.903"/>
								<path fill="#32495B" d="M555.123,421.881c-6.08,0-11.008,4.927-11.008,11.006c0,6.08,4.928,11.008,11.008,11.008V421.881z"
									/>
							</g>
							<g>
								<circle fill="#CECECE" cx="584.235" cy="433.102" r="8.903"/>
								<path fill="#4BD4C0" d="M576.479,440.67l7.783-7.783v-11.006c-6.08,0-11.009,4.927-11.009,11.006
									C573.253,435.927,574.485,438.68,576.479,440.67z"/>
							</g>
							<g>
								<circle fill="#CECECE" cx="613.375" cy="433.102" r="8.904"/>
								<path fill="#FFD360" d="M613.399,421.881c-3.04,0-5.791,1.231-7.784,3.223l7.784,7.783V421.881z"/>
							</g>
						</g>
						<g>
							<path fill="#CECECE" d="M571.139,456.986H516.82c-0.437,0-0.796-0.359-0.796-0.796l0,0c0-0.438,0.359-0.797,0.796-0.797
								h54.318c0.438,0,0.797,0.358,0.797,0.797l0,0C571.936,456.627,571.577,456.986,571.139,456.986z"/>
							<path fill="#CECECE" d="M571.139,460.17H516.82c-0.437,0-0.796-0.357-0.796-0.795l0,0c0-0.438,0.359-0.797,0.796-0.797
								h54.318c0.438,0,0.797,0.358,0.797,0.797l0,0C571.936,459.813,571.577,460.17,571.139,460.17z"/>
						</g>
					</g>
				</g>
			</g>
		</g>
		<g>
			<g>
				<circle fill="#EDEDED" cx="370.303" cy="548.039" r="75.475"/>
				<circle fill="#F4F4F4" cx="377.183" cy="547.635" r="57.753"/>
				<circle fill="#FFFFFF" cx="392.908" cy="546.71" r="26.074"/>
			</g>
			<path fill="#2AB29E" d="M283.914,654.494l-15.329-14.039c-1.945-1.781-2.052-4.806-0.24-6.721l40.604-42.878
				c1.754-1.854,4.729-1.959,6.609-0.235l15.33,14.041c1.944,1.78,2.052,4.803,0.239,6.719l-40.604,42.879
				C288.769,656.111,285.795,656.219,283.914,654.494z"/>
			<g>
				<defs>
					<path id="SVGID_3_" d="M280.996,657.576l-15.329-14.04c-1.945-1.78-2.052-4.805-0.239-6.72l40.604-42.879
						c1.754-1.853,4.729-1.958,6.61-0.234l15.329,14.039c1.945,1.781,2.052,4.806,0.239,6.721l-40.604,42.879
						C285.851,659.194,282.876,659.299,280.996,657.576z"/>
				</defs>
				<clipPath id="SVGID_4_">
					<use xlink:href="#SVGID_3_"  overflow="visible"/>
				</clipPath>
				<path clip-path="url(#SVGID_4_)" fill="#1D917E" d="M423.69,491.918c-33.24-30.444-85.337-28.566-116.362,4.195
					c-31.024,32.763-29.229,84.004,4.011,114.449c33.24,30.443,85.336,28.566,116.361-4.197
					C458.726,573.603,456.93,522.362,423.69,491.918z M327.391,593.611c-23.744-21.745-25.026-58.346-2.866-81.747
					c22.161-23.401,59.373-24.743,83.115-2.997c23.743,21.745,25.025,58.347,2.865,81.747
					C388.344,614.018,351.133,615.358,327.391,593.611z"/>
			</g>
			<polygon fill="#2AB29E" points="251.065,706.528 218.027,676.271 253.35,638.969 286.387,669.229 			"/>
			<path fill="#4BD6C1" d="M200.323,694.966c-2.044,2.157-1.953,5.537,0.201,7.512l25.204,23.085
				c2.154,1.973,5.589,1.821,7.633-0.336l17.704-18.698l-33.038-30.258L200.323,694.966z"/>
			<path fill="#4BD6C1" d="M303.546,643.386L278.343,620.3c-2.155-1.973-5.563-1.851-7.573,0.272l-17.42,18.396l33.038,30.26
				l17.42-18.395C305.818,648.71,305.701,645.357,303.546,643.386z"/>
			<polygon fill="#1D917E" points="285.739,669.914 252.701,639.653 253.35,638.969 286.387,669.229 			"/>
			<polygon fill="#1D917E" points="250.883,706.723 217.845,676.462 218.494,675.776 251.532,706.036 			"/>
			<path fill="#4BD6C1" d="M426.478,488.718c-33.239-30.446-85.335-28.566-116.36,4.195c-31.024,32.763-29.229,84.002,4.01,114.447
				c33.24,30.444,85.336,28.567,116.361-4.197C461.513,570.402,459.718,519.161,426.478,488.718z M356.885,613.429
				c-36.114-7.411-59.383-42.694-51.972-78.809c7.411-36.113,42.694-59.382,78.808-51.972s59.381,42.694,51.971,78.809
				S392.998,620.839,356.885,613.429z"/>
			<path fill="#1D917E" d="M323.707,597.245c-27.528-25.213-29.021-67.798-3.327-94.932c25.693-27.132,68.991-28.694,96.52-3.48
				c27.527,25.212,29.021,67.799,3.327,94.931C394.533,620.896,351.235,622.457,323.707,597.245z M414.7,501.156
				c-26.229-24.025-67.483-22.536-91.964,3.315c-24.48,25.851-23.059,66.428,3.169,90.451c26.229,24.022,67.484,22.535,91.963-3.316
				C442.35,565.754,440.928,525.178,414.7,501.156z"/>
			<g>
				<g>
					<path fill="#32495B" d="M335.553,555.439c1.543,0.949,3.8,1.741,6.175,1.741c3.522,0,5.581-1.86,5.581-4.552
						c0-2.494-1.425-3.919-5.027-5.304c-4.354-1.544-7.045-3.8-7.045-7.561c0-4.155,3.443-7.243,8.628-7.243
						c2.731,0,4.71,0.634,5.897,1.307l-0.95,2.81c-0.871-0.475-2.652-1.267-5.066-1.267c-3.642,0-5.027,2.178-5.027,3.998
						c0,2.493,1.623,3.721,5.304,5.146c4.512,1.741,6.808,3.919,6.808,7.837c0,4.117-3.048,7.679-9.341,7.679
						c-2.573,0-5.383-0.752-6.808-1.702L335.553,555.439z"/>
					<path fill="#32495B" d="M369.356,547.127h-10.371v9.618h11.558v2.89h-15.001v-26.678h14.407v2.89h-10.964v8.431h10.371V547.127
						z"/>
					<path fill="#32495B" d="M397.815,546.019c0,9.183-5.581,14.052-12.389,14.052c-7.045,0-11.993-5.462-11.993-13.537
						c0-8.471,5.265-14.012,12.389-14.012C393.105,532.521,397.815,538.103,397.815,546.019z M377.114,546.454
						c0,5.7,3.087,10.806,8.51,10.806c5.462,0,8.55-5.026,8.55-11.083c0-5.304-2.771-10.845-8.51-10.845
						C379.964,535.332,377.114,540.596,377.114,546.454z"/>
				</g>
			</g>
		</g>
		<g id="_x31_2">
			<g>
				<g>
					<g>
						<g>
							
								<rect x="370.407" y="171.456" transform="matrix(1 0.0019 -0.0019 1 0.3716 -0.7187)" fill-rule="evenodd" clip-rule="evenodd" fill="#32495B" width="32.836" height="56.205"/>
							<polygon fill-rule="evenodd" clip-rule="evenodd" fill="#5F7283" points="398.492,163.302 375.151,163.194 370.459,171.425 
								403.297,171.486 							"/>
						</g>
						<g>
							
								<rect x="406.446" y="147.121" transform="matrix(1 0.0019 -0.0019 1 0.3494 -0.7855)" fill-rule="evenodd" clip-rule="evenodd" fill="#FB5547" width="32.843" height="81.034"/>
							<polygon fill-rule="evenodd" clip-rule="evenodd" fill="#FF7E78" points="434.614,139.113 411.221,138.863 406.521,147.091 
								439.365,147.151 							"/>
						</g>
						<g>
							
								<rect x="442.92" y="102.717" transform="matrix(1 0.0019 -0.0019 1 0.3111 -0.8604)" fill-rule="evenodd" clip-rule="evenodd" fill="#35B4A3" width="32.836" height="125.832"/>
							<polygon fill-rule="evenodd" clip-rule="evenodd" fill="#4AD5C0" points="471.117,94.514 447.733,94.464 443.038,102.686 
								475.872,102.748 							"/>
						</g>
						<g>
							
								<rect x="479.737" y="124.952" transform="matrix(1 0.0019 -0.0019 1 0.3347 -0.9366)" fill-rule="evenodd" clip-rule="evenodd" fill="#FFCE64" width="32.838" height="103.607"/>
							<polygon fill-rule="evenodd" clip-rule="evenodd" fill="#FCCF6B" points="507.888,116.984 484.528,116.7 479.834,124.921 
								512.674,124.982 							"/>
						</g>
					</g>
				</g>
			</g>
		</g>
		<g>
			<defs>
				<circle id="SVGID_5_" cx="644.98" cy="227.688" r="56.698"/>
			</defs>
			<clipPath id="SVGID_6_">
				<use xlink:href="#SVGID_5_"  overflow="visible"/>
			</clipPath>
			<circle clip-path="url(#SVGID_6_)" fill="#32495B" cx="644.98" cy="227.688" r="56.698"/>
			<g clip-path="url(#SVGID_6_)">
				<g>
					<polygon fill="#686868" points="645.297,226.891 627.382,312.29 687.801,302.943 					"/>
					<polygon fill="#404040" points="644.98,227.688 602.646,162.877 650.152,150.626 					"/>
					<polygon fill="#F76666" points="644.98,227.688 731.516,206.506 650.152,150.626 					"/>
					<polygon fill="#FFFFFF" points="687.801,302.943 645.297,226.891 725.141,251.056 					"/>
					<polygon fill="#DBDBDB" points="723.918,251.577 731.516,206.506 644.98,227.688 					"/>
				</g>
				<g>
					<polygon fill="#35B4A3" points="644.98,227.688 627.382,312.29 687.801,302.943 					"/>
					<polygon fill="#5F7283" points="644.98,227.688 602.646,162.877 650.152,150.626 					"/>
					<polygon fill="#FB5547" points="644.98,227.688 731.516,206.506 650.152,150.626 					"/>
					<polygon fill="#4AD5C0" points="687.801,302.943 644.98,227.688 725.141,251.056 					"/>
					<polygon fill="#FFCE64" points="723.918,251.577 731.516,206.506 644.98,227.688 					"/>
				</g>
			</g>
		</g>
		<g id="_x33_">
			<g>
				<path fill="#F5F7FA" d="M284.554,180.983c-24.38-21.863-61.848-19.825-83.711,4.551c-21.858,24.371-19.826,61.844,4.553,83.708
					c24.374,21.859,61.848,19.82,83.708-4.548C310.964,240.316,308.927,202.844,284.554,180.983z"/>
				<path fill="#32495B" d="M283.005,182.71c-23.421-21.006-59.428-19.049-80.435,4.373c-21.004,23.42-19.047,59.428,4.375,80.435
					c23.418,21.003,59.429,19.048,80.433-4.372C308.384,239.724,306.424,203.714,283.005,182.71z M282.803,256.108l-15.206-13.637
					c5.905-6.964,9.718-13.925,12.111-20.46c5.003,2.003,9.792,3.172,14.161,3.768C293.725,236.52,290.08,247.237,282.803,256.108z
					 M278.003,191.557c0.985,4.796,1.979,13.761-0.954,24.481c-4.291-2.128-8.72-4.971-13.172-8.731L278.003,191.557z
					 M282.879,194.192c6.463,7.902,10.093,17.411,10.847,27.141c-3.922-0.59-8.188-1.67-12.657-3.481
					C283.799,208.281,283.631,199.901,282.879,194.192z M261.875,189.122c4.966-0.803,9.183-0.778,12.141-0.551
					c0.262,0.021,0.501,0.045,0.74,0.067l-14.13,15.754c-4.22-4.017-7.521-8.106-10.102-12.137
					C254.558,190.665,258.4,189.688,261.875,189.122z M248.282,188.445c-2.288-4.249-3.826-8.37-4.837-12.208
					c9.756-0.304,19.602,2.274,28.157,7.841C265.842,183.947,257.496,184.693,248.282,188.445z M257.711,207.645l-12.903,14.386
					l-16.288-14.608c5.97-6.275,12.105-10.528,17.96-13.385C249.313,198.575,252.992,203.175,257.711,207.645z M241.889,225.285
					l-12.898,14.38c-4.957-4.208-9.93-7.362-14.751-9.691c2.211-6.138,5.781-12.707,11.354-19.303L241.889,225.285z
					 M226.074,242.918l-14.125,15.75c-0.986-4.795-1.979-13.761,0.954-24.481C217.192,236.317,221.62,239.156,226.074,242.918z
					 M207.068,256.033c-6.459-7.9-10.094-17.411-10.845-27.138c3.92,0.588,8.189,1.665,12.658,3.48
					C206.148,241.944,206.316,250.324,207.068,256.033z M228.072,261.103c-4.963,0.806-9.178,0.778-12.14,0.548
					c-0.26-0.016-0.5-0.039-0.74-0.062l14.132-15.756c4.219,4.017,7.521,8.108,10.099,12.137
					C235.39,259.558,231.549,260.538,228.072,261.103z M241.67,261.779c2.288,4.248,3.819,8.373,4.833,12.207
					c-9.754,0.305-19.602-2.272-28.156-7.836C224.107,266.276,232.45,265.533,241.67,261.779z M232.241,242.581l12.898-14.38
					l16.288,14.608c-5.969,6.27-12.105,10.522-17.956,13.378C240.634,251.647,236.96,247.05,232.241,242.581z M248.058,224.945
					l12.903-14.386c4.957,4.209,9.928,7.366,14.752,9.692c-2.214,6.14-5.785,12.706-11.363,19.306L248.058,224.945z
					 M239.013,176.579c1.062,4.275,2.748,8.913,5.281,13.669c-6.24,3.085-12.743,7.633-19.03,14.254l-15.201-13.634
					C218.089,182.669,228.352,177.887,239.013,176.579z M207.144,194.124l15.205,13.636c-5.902,6.962-9.718,13.92-12.106,20.455
					c-5.005-2-9.797-3.173-14.161-3.768C196.222,213.711,199.869,202.985,207.144,194.124z M250.938,273.647
					c-1.068-4.275-2.75-8.911-5.281-13.669c6.235-3.086,12.741-7.63,19.021-14.252l15.205,13.637
					C271.858,267.554,261.596,272.343,250.938,273.647z"/>
				<g>
					<path fill="#F5F7FA" d="M187.494,228.234c-0.795-14.716,4.012-29.715,14.628-41.552l0,0
						c10.618-11.839,25.013-18.249,39.73-19.05l0,0c14.712-0.798,29.716,4.011,41.555,14.624l0,0
						c11.837,10.623,18.243,25.013,19.045,39.728l0,0c0.798,14.716-4.014,29.72-14.633,41.559l0,0
						c-10.616,11.836-25.005,18.243-39.722,19.046l0,0l-0.034-0.604l0.034,0.604c-14.717,0.798-29.717-4.008-41.558-14.627l0,0
						C194.705,257.345,188.297,242.951,187.494,228.234L187.494,228.234z M241.914,168.835
						c-14.412,0.792-28.493,7.057-38.893,18.652l0,0c-10.397,11.591-15.101,26.272-14.322,40.681l0,0
						c0.791,14.411,7.056,28.497,18.648,38.893l0,0c11.594,10.398,26.272,15.099,40.687,14.323l0,0l0,0
						c14.411-0.785,28.495-7.054,38.891-18.646l0,0c10.4-11.596,15.103-26.273,14.324-40.688l0,0
						c-0.791-14.414-7.057-28.496-18.649-38.896l0,0C271.006,172.761,256.327,168.058,241.914,168.835L241.914,168.835z"/>
				</g>
			</g>
		</g>
		<g>
			<g id="_x3C_Gruppo_x3E_">
				<g>
					<g>
						
							<linearGradient id="SVGID_7_" gradientUnits="userSpaceOnUse" x1="601.8457" y1="425.7969" x2="601.8457" y2="479.7904" gradientTransform="matrix(0.8784 0.478 -0.478 0.8784 406.0669 -325.1973)">
							<stop  offset="0" style="stop-color:#F2F2F2"/>
							<stop  offset="0.2576" style="stop-color:#F0F0F0"/>
							<stop  offset="0.3969" style="stop-color:#E8E8E8"/>
							<stop  offset="0.508" style="stop-color:#DADADA"/>
							<stop  offset="0.6042" style="stop-color:#C7C7C7"/>
							<stop  offset="0.6908" style="stop-color:#AEAEAE"/>
							<stop  offset="0.7705" style="stop-color:#8F8F8F"/>
							<stop  offset="0.8449" style="stop-color:#6A6A6A"/>
							<stop  offset="0.9151" style="stop-color:#3F3F3F"/>
							<stop  offset="0.9797" style="stop-color:#101010"/>
							<stop  offset="1" style="stop-color:#000000"/>
						</linearGradient>
						<path fill="url(#SVGID_7_)" d="M788.27,298.489l-56.144-30.553c-4.808-2.617-10.881-0.825-13.498,3.981l-36.544,67.15
							c-2.616,4.807-0.824,10.882,3.984,13.499l56.143,30.554c4.81,2.616,10.886,0.823,13.502-3.984l36.544-67.151
							C794.872,307.18,793.079,301.106,788.27,298.489z"/>
						
							<linearGradient id="SVGID_8_" gradientUnits="userSpaceOnUse" x1="624.3184" y1="413.3027" x2="662.3679" y2="413.3027" gradientTransform="matrix(0.8784 0.478 -0.478 0.8784 406.0669 -325.1973)">
							<stop  offset="0" style="stop-color:#FFFFFF"/>
							<stop  offset="0.2537" style="stop-color:#FDFDFD"/>
							<stop  offset="0.391" style="stop-color:#F5F5F5"/>
							<stop  offset="0.5005" style="stop-color:#E7E7E7"/>
							<stop  offset="0.5953" style="stop-color:#D4D4D4"/>
							<stop  offset="0.6806" style="stop-color:#BBBBBB"/>
							<stop  offset="0.7591" style="stop-color:#9C9C9C"/>
							<stop  offset="0.8324" style="stop-color:#777777"/>
							<stop  offset="0.9016" style="stop-color:#4C4C4C"/>
							<stop  offset="0.9651" style="stop-color:#1D1D1D"/>
							<stop  offset="1" style="stop-color:#000000"/>
						</linearGradient>
						<path fill="url(#SVGID_8_)" d="M788.27,298.489l-56.144-30.553c-4.808-2.617-10.881-0.825-13.498,3.981l-36.544,67.15
							c-2.616,4.807-0.824,10.882,3.984,13.499l56.143,30.554c4.81,2.616,10.886,0.823,13.502-3.984l36.544-67.151
							C794.872,307.18,793.079,301.106,788.27,298.489z"/>
						<path fill="#32495B" d="M792.471,300.775l-64.542-35.124c-2.5-1.36-5.658-0.429-7.019,2.071l-41.111,75.542
							c-1.359,2.499-0.428,5.657,2.071,7.018l64.54,35.123c2.5,1.36,5.658,0.428,7.018-2.071l41.113-75.545
							C795.899,305.291,794.969,302.135,792.471,300.775z"/>
						<g>
							<g>
								<path fill="#415B6D" d="M794.745,307.414c1.247-2.292,0.393-5.187-1.898-6.434l-65.293-35.532
									c-2.292-1.249-5.19-0.393-6.439,1.9l-13.01,23.909l73.628,40.069L794.745,307.414z"/>
							</g>
						</g>
						<path fill="#CCD1D9" d="M779.725,302.513l-46.339-25.217c-3.512-1.912-7.947-0.601-9.858,2.91l-2.826,5.195
							c-1.911,3.509-0.602,7.946,2.91,9.857l46.338,25.218c3.513,1.912,7.952,0.603,9.861-2.908l2.826-5.194
							C784.547,308.862,783.238,304.425,779.725,302.513z"/>
						<path fill="#FFFFFF" d="M779.158,302.872l-45.547-24.787c-3.313-1.802-7.492-0.566-9.294,2.745l-2.664,4.895
							c-1.8,3.31-0.569,7.49,2.742,9.292l45.547,24.786c3.312,1.802,7.493,0.569,9.295-2.741l2.664-4.895
							C783.703,308.855,782.468,304.673,779.158,302.872z"/>
					</g>
				</g>
				<g>
					<g>
						<path fill="none" d="M756.021,364.071c0,0,0.004,0.003,0.006,0.01C756.024,364.075,756.021,364.071,756.021,364.071z"/>
					</g>
				</g>
				<g>
					<path fill="#5F7283" d="M723.917,308.416l-9.132-4.97c-2.575-1.401-5.801-0.449-7.202,2.127l-1.286,2.362
						c-1.401,2.575-0.448,5.8,2.125,7.202l9.134,4.969c2.575,1.402,5.8,0.45,7.202-2.125l1.284-2.362
						C727.444,313.042,726.492,309.817,723.917,308.416z"/>
					<path fill="#5F7283" d="M746.037,320.453l-9.131-4.969c-2.576-1.401-5.802-0.45-7.204,2.126l-1.285,2.362
						c-1.401,2.576-0.448,5.801,2.128,7.203l9.129,4.969c2.576,1.402,5.803,0.451,7.204-2.125l1.285-2.361
						C749.564,325.081,748.612,321.854,746.037,320.453z"/>
					<path fill="#5F7283" d="M715.643,323.619l-9.132-4.97c-2.574-1.401-5.799-0.45-7.199,2.124l-1.287,2.364
						c-1.401,2.576-0.45,5.801,2.125,7.202l9.133,4.97c2.574,1.402,5.8,0.45,7.202-2.126l1.285-2.363
						C719.171,328.245,718.219,325.021,715.643,323.619z"/>
					<path fill="#5F7283" d="M737.764,335.656l-9.131-4.968c-2.576-1.402-5.802-0.452-7.203,2.121l-1.286,2.364
						c-1.402,2.577-0.448,5.803,2.127,7.204l9.131,4.968c2.575,1.402,5.802,0.451,7.202-2.125l1.288-2.364
						C741.292,340.284,740.338,337.058,737.764,335.656z"/>
					<path fill="#5F7283" d="M760.076,347.799l-9.13-4.968c-2.574-1.401-5.802-0.45-7.201,2.123l-1.285,2.364
						c-1.403,2.576-0.449,5.802,2.124,7.203l9.13,4.969c2.578,1.402,5.804,0.451,7.206-2.125l1.286-2.364
						C763.606,352.427,762.653,349.202,760.076,347.799z"/>
					<path fill="#5F7283" d="M707.471,338.636l-9.132-4.97c-2.575-1.401-5.798-0.453-7.2,2.124l-1.285,2.364
						c-1.405,2.578-0.45,5.801,2.123,7.202l9.134,4.97c2.575,1.401,5.799,0.452,7.201-2.126l1.287-2.364
						C711,343.259,710.047,340.037,707.471,338.636z"/>
					<path fill="#5F7283" d="M729.59,350.673l-9.13-4.968c-2.575-1.402-5.799-0.454-7.201,2.123l-1.288,2.364
						c-1.402,2.579-0.447,5.802,2.128,7.202l9.13,4.969c2.576,1.402,5.801,0.453,7.204-2.125l1.285-2.365
						C733.121,355.297,732.167,352.075,729.59,350.673z"/>
					<path fill="#5F7283" d="M751.904,362.816l-9.131-4.968c-2.574-1.401-5.799-0.453-7.199,2.123l-1.288,2.364
						c-1.403,2.579-0.449,5.801,2.126,7.202l9.13,4.968c2.576,1.403,5.802,0.455,7.205-2.125l1.286-2.364
						C755.437,367.441,754.481,364.219,751.904,362.816z"/>
				</g>
				<g>
					<path fill="#FC513F" d="M769.192,342.163c-1.401,2.575-4.628,3.527-7.205,2.124l-9.13-4.969
						c-2.574-1.401-3.527-4.626-2.126-7.202l1.285-2.362c1.402-2.576,4.63-3.527,7.203-2.126l9.13,4.969
						c2.578,1.403,3.529,4.629,2.128,7.205L769.192,342.163z"/>
				</g>
				<g>
					<path fill="#FFFFFF" d="M754.449,353.062c-0.056,0.102-0.187,0.141-0.288,0.085l-4.336-2.36
						c-0.104-0.056-0.139-0.187-0.084-0.289l0.598-1.099c0.056-0.102,0.184-0.143,0.289-0.085l4.335,2.359
						c0.103,0.056,0.139,0.187,0.084,0.288L754.449,353.062z"/>
					<path fill="#FFFFFF" d="M750.564,353.285c-0.104-0.055-0.145-0.184-0.089-0.286l2.359-4.335
						c0.057-0.103,0.188-0.143,0.292-0.086l1.1,0.599c0.1,0.054,0.139,0.187,0.083,0.29l-2.358,4.335
						c-0.057,0.103-0.187,0.138-0.287,0.083L750.564,353.285z"/>
				</g>
				<g>
					<path fill="#FFFFFF" d="M722.003,356.781c-0.11,0.031-0.229-0.033-0.265-0.143l-1.395-4.733
						c-0.035-0.111,0.031-0.233,0.144-0.266l1.2-0.354c0.111-0.032,0.229,0.033,0.263,0.144l1.397,4.734
						c0.032,0.111-0.031,0.229-0.145,0.265L722.003,356.781z"/>
					<path fill="#FFFFFF" d="M719.097,354.194c-0.031-0.115,0.032-0.233,0.145-0.265l4.733-1.398
						c0.111-0.033,0.23,0.033,0.263,0.144l0.355,1.2c0.032,0.111-0.033,0.232-0.144,0.265l-4.734,1.398
						c-0.11,0.029-0.229-0.035-0.264-0.144L719.097,354.194z"/>
					<path fill="#FFFFFF" d="M696.852,342.087c-0.035-0.116,0.03-0.233,0.144-0.265l4.733-1.398c0.113-0.032,0.23,0.033,0.265,0.144
						l0.354,1.199c0.033,0.112-0.032,0.233-0.144,0.265l-4.734,1.398c-0.111,0.029-0.229-0.035-0.264-0.145L696.852,342.087z"/>
				</g>
				<g>
					<path fill="#FFFFFF" d="M746.291,368.05c-0.056,0.103-0.184,0.139-0.286,0.084l-4.336-2.36
						c-0.104-0.056-0.141-0.183-0.085-0.285l0.598-1.1c0.057-0.104,0.184-0.142,0.288-0.086l4.335,2.36
						c0.103,0.056,0.143,0.184,0.085,0.289L746.291,368.05z"/>
				</g>
				<g>
					<g>
						<path fill="#FFFFFF" d="M757.557,334.313c0.506-0.927,1.386-1.528,2.346-1.71l0,0c0.358-0.069,0.706,0.167,0.773,0.525l0,0
							c0.071,0.359-0.165,0.706-0.523,0.774l0,0c-0.59,0.114-1.122,0.476-1.431,1.043l0,0c-0.545,1.004-0.175,2.256,0.827,2.804l0,0
							c1.006,0.545,2.257,0.175,2.803-0.827l0,0c0.31-0.568,0.326-1.212,0.102-1.768l0,0l0,0c-0.138-0.339,0.023-0.726,0.364-0.861
							l0,0c0.338-0.138,0.726,0.024,0.861,0.365l0,0c0.37,0.905,0.342,1.97-0.162,2.898l0,0c-0.896,1.644-2.954,2.251-4.601,1.356
							l0,0C757.271,338.017,756.662,335.958,757.557,334.313L757.557,334.313z"/>
					</g>
					<g>
						<path fill="#FFFFFF" d="M759.91,335.785l1.54-2.832c0.175-0.32,0.578-0.438,0.899-0.264l0,0
							c0.32,0.174,0.438,0.576,0.263,0.896l0,0l-1.54,2.831c-0.173,0.32-0.573,0.438-0.895,0.265l0,0
							C759.857,336.507,759.735,336.105,759.91,335.785L759.91,335.785z"/>
					</g>
				</g>
				<g>
					<path fill="#FFFFFF" d="M714.226,314.06l1.851-3.401l-1.272,0.054l0.438-0.806c0.778,0.038,1.467-0.066,2.066-0.311
						l0.333,0.182l-2.578,4.738L714.226,314.06z"/>
					<path fill="#FFFFFF" d="M704.956,328.498l0.132-0.242l2.692-1.388c0.538-0.279,0.888-0.566,1.052-0.866
						c0.194-0.358,0.078-0.652-0.35-0.884c-0.327-0.178-0.683-0.149-1.072,0.089l-0.318-0.753c0.234-0.165,0.51-0.255,0.831-0.272
						c0.322-0.021,0.627,0.049,0.916,0.206c0.482,0.262,0.802,0.579,0.953,0.947c0.153,0.369,0.123,0.749-0.09,1.141
						c-0.195,0.357-0.611,0.708-1.252,1.054l-1.769,0.943l1.77,0.964l-0.404,0.744L704.956,328.498z"/>
					<path fill="#FFFFFF" d="M735.813,324.851l0.77-0.42c0.106,0.4,0.307,0.678,0.598,0.837c0.531,0.289,0.935,0.186,1.208-0.316
						c0.123-0.226,0.146-0.455,0.07-0.681c-0.079-0.227-0.248-0.412-0.51-0.555l-0.147-0.08l0.375-0.688l0.123,0.068
						c0.483,0.262,0.834,0.192,1.052-0.21c0.23-0.421,0.118-0.754-0.33-0.999c-0.232-0.126-0.518-0.138-0.854-0.039l-0.082-0.791
						c0.169-0.068,0.387-0.092,0.65-0.067c0.265,0.025,0.505,0.096,0.72,0.213c0.471,0.257,0.778,0.564,0.924,0.919
						c0.147,0.359,0.117,0.73-0.094,1.118c-0.251,0.46-0.639,0.702-1.167,0.725c0.372,0.513,0.408,1.043,0.11,1.588
						c-0.243,0.45-0.582,0.716-1.014,0.802c-0.431,0.082-0.91-0.017-1.432-0.301C736.306,325.715,735.98,325.339,735.813,324.851z"
						/>
					<path fill="#FFFFFF" d="M730.207,340.554l-0.671,1.231l-0.806-0.438l0.67-1.232l-2.146-1.168l0.261-0.479l4.231-1.618
						l0.368,0.2l-1.545,2.841l0.477,0.259l-0.362,0.663L730.207,340.554z M730.533,338.032l-1.98,0.762l1.209,0.658L730.533,338.032
						z"/>
				</g>
			</g>
			<g>
				
					<rect x="98.16" y="310.339" transform="matrix(0.9035 -0.4285 0.4285 0.9035 -130.3887 97.2997)" fill="#5F7283" width="105.478" height="55.782"/>
				<polygon fill="#32495B" points="91.295,335.631 150.898,338.23 115.201,386.032 				"/>
				<polygon fill="#32495B" points="186.596,290.429 150.898,338.23 210.502,340.83 				"/>
				<polygon fill="#32495B" points="91.295,335.631 123.882,281.273 186.596,290.429 				"/>
				<polygon fill="#EFEFEF" points="91.295,335.631 87.663,327.972 182.963,282.77 186.596,290.429 150.898,338.23 				"/>
				<path fill="#CECECE" d="M166.725,302.558l-53.465,25.36c-0.939,0.445-2.072,0.041-2.519-0.898l0,0
					c-0.445-0.94-0.041-2.074,0.898-2.519l53.467-25.36c0.939-0.446,2.072-0.042,2.518,0.898l0,0
					C168.069,300.979,167.665,302.112,166.725,302.558z"/>
				<path fill="#CECECE" d="M170.073,309.616l-53.465,25.36c-0.939,0.445-2.073,0.042-2.519-0.898l0,0
					c-0.446-0.94-0.042-2.073,0.897-2.519l53.466-25.359c0.939-0.446,2.073-0.042,2.519,0.897l0,0
					C171.417,308.038,171.013,309.171,170.073,309.616z"/>
			</g>
		</g>
	</g>
	<g>
	</g>
	<g>
	</g>
	<g>
	</g>
	<g>
	</g>
	<g>
	</g>
	<g>
	</g>
</g>
</svg>
