<?xml version="1.0" encoding="utf-8"?>
<!-- Generator: Adobe Illustrator 16.0.0, SVG Export Plug-In . SVG Version: 6.00 Build 0)  -->
<!DOCTYPE svg PUBLIC "-//W3C//DTD SVG 1.1//EN" "http://www.w3.org/Graphics/SVG/1.1/DTD/svg11.dtd">
<svg version="1.1" xmlns="http://www.w3.org/2000/svg" xmlns:xlink="http://www.w3.org/1999/xlink" x="0px" y="0px" width="800px"
	 height="800px" viewBox="0 0 800 800" enable-background="new 0 0 800 800" xml:space="preserve">
<g id="background">
</g>
<g id="Objects">
	<g>
		<g id="line">
			<g>
				<path fill="none" stroke="#FFFFFF" stroke-width="4" stroke-miterlimit="10" d="M583.894,603.104
					c54.712-46.483,89.427-115.792,89.427-193.21c0-139.96-113.459-253.42-253.419-253.42s-253.42,113.46-253.42,253.42
					c0,74.286,31.963,141.107,82.888,187.46"/>
				<g>
					<g>
						<path fill="none" stroke="#FFFFFF" stroke-miterlimit="10" d="M518.16,140.083c-0.626-0.228-1.253-0.454-1.881-0.678"/>
						<path fill="none" stroke="#FFFFFF" stroke-miterlimit="10" stroke-dasharray="3.9862,3.9862" d="M512.518,138.094
							c-29.057-9.898-60.209-15.268-92.616-15.268c-158.543,0-287.067,128.524-287.067,287.067
							c0,116.618,69.539,216.993,169.412,261.926"/>
						<path fill="none" stroke="#FFFFFF" stroke-miterlimit="10" d="M304.07,672.632c0.61,0.27,1.221,0.537,1.833,0.802"/>
					</g>
				</g>
				<g>
					<g>
						<path fill="none" stroke="#FFFFFF" stroke-miterlimit="10" d="M630.311,295.833c-0.318-0.586-0.639-1.17-0.962-1.753"/>
						<path fill="none" stroke="#FFFFFF" stroke-miterlimit="10" stroke-dasharray="4.0018,4.0018" d="M627.38,290.597
							c-41.325-71.716-118.764-119.994-207.479-119.994c-132.157,0-239.291,107.134-239.291,239.291
							c0,37.214,8.495,72.442,23.651,103.854"/>
						<path fill="none" stroke="#FFFFFF" stroke-miterlimit="10" d="M205.139,515.547c0.294,0.598,0.592,1.194,0.891,1.789"/>
					</g>
				</g>
				<g>
					<g>
						<path fill="none" stroke="#FFFFFF" stroke-miterlimit="10" d="M520.325,662.152c0.619-0.247,1.237-0.496,1.854-0.747"/>
						<path fill="none" stroke="#FFFFFF" stroke-miterlimit="10" stroke-dasharray="3.9916,3.9916" d="M525.861,659.875
							c97.264-41.277,165.481-137.663,165.481-249.981c0-149.914-121.528-271.443-271.441-271.443
							c-97.458,0-182.919,51.36-230.794,128.491"/>
						<path fill="none" stroke="#FFFFFF" stroke-miterlimit="10" d="M188.057,268.647c-0.347,0.569-0.692,1.139-1.036,1.71"/>
					</g>
				</g>
			</g>
			<polygon fill="#FFFFFF" points="514.966,144.756 521.156,134.033 527.347,144.756 			"/>
			<polygon fill="#FFFFFF" points="624.187,298.704 635.284,293.216 634.487,305.572 			"/>
			<polygon fill="#FFFFFF" points="192.876,272.757 182.822,279.982 181.593,267.663 			"/>
			<circle fill="#FFFFFF" cx="305.705" cy="673.434" r="3.627"/>
			<circle fill="#FFFFFF" cx="206.033" cy="517.336" r="3.627"/>
			<circle fill="#FFFFFF" cx="519.667" cy="662.152" r="3.627"/>
			<g>
				<polygon fill="#FFFFFF" points="553.93,99.681 563.382,91.683 565.581,103.867 				"/>
				
					<line fill="none" stroke="#FFFFFF" stroke-miterlimit="10" stroke-dasharray="4" x1="499" y1="236.381" x2="560.458" y2="100.49"/>
				<circle fill="#FFFFFF" cx="499" cy="236.381" r="4.066"/>
			</g>
			<g>
				<polygon fill="#FFFFFF" points="718.324,268.637 730.692,269.216 724.006,279.637 				"/>
				
					<line fill="none" stroke="#FFFFFF" stroke-miterlimit="10" stroke-dasharray="4" x1="585.015" y1="331.352" x2="722.554" y2="273.675"/>
				<circle fill="#FFFFFF" cx="585.015" cy="331.352" r="4.067"/>
			</g>
			<g>
				<polygon fill="#FFFFFF" points="124.518,269.123 112.149,269.701 118.836,280.122 				"/>
				
					<line fill="none" stroke="#FFFFFF" stroke-miterlimit="10" stroke-dasharray="4" x1="257.827" y1="331.837" x2="120.288" y2="274.161"/>
				<circle fill="#FFFFFF" cx="257.827" cy="331.837" r="4.067"/>
			</g>
			<g>
				<polygon fill="#FFFFFF" points="731.469,549.623 743.837,549.045 737.15,538.624 				"/>
				
					<line fill="none" stroke="#FFFFFF" stroke-miterlimit="10" stroke-dasharray="4" x1="598.159" y1="486.909" x2="735.698" y2="544.586"/>
				<circle fill="#FFFFFF" cx="598.159" cy="486.909" r="4.067"/>
			</g>
			<g>
				<polygon fill="#FFFFFF" points="107.743,553.01 95.375,552.431 102.062,542.01 				"/>
				
					<line fill="none" stroke="#FFFFFF" stroke-miterlimit="10" stroke-dasharray="4" x1="241.053" y1="490.295" x2="103.514" y2="547.971"/>
				<circle fill="#FFFFFF" cx="241.053" cy="490.295" r="4.067"/>
			</g>
			<g>
				<polygon fill="#FFFFFF" points="288.71,102.385 289.738,90.046 299.909,97.107 				"/>
				
					<line fill="none" stroke="#FFFFFF" stroke-miterlimit="10" stroke-dasharray="4" x1="346.531" y1="237.889" x2="293.898" y2="98.342"/>
				<circle fill="#FFFFFF" cx="346.531" cy="237.889" r="4.067"/>
			</g>
		</g>
		<g id="notebook">
			<path fill="#C62825" d="M570.009,496.95c0,2.775-2.256,5.031-5.025,5.031H274.528c-2.76,0-5.013-2.256-5.013-5.031V301.943
				c0-2.77,2.253-5.02,5.013-5.02h290.456c2.77,0,5.025,2.25,5.025,5.02V496.95z"/>
			<rect x="281.389" y="479.423" fill="#D1ECFB" width="276.739" height="12.37"/>
			<path fill="#FFFFFF" d="M419.708,491.793v-181.97c0.091-0.166,0.157-0.342,0.157-0.539c0-0.504-0.047-1-0.075-1.495
				c0.758-8.979,8.297-16.054,17.471-16.054h120.867v189.433H437.261C429.65,481.168,423.033,485.479,419.708,491.793z"/>
			<path fill="#FFFFFF" d="M419.806,491.793v-181.97c-0.085-0.166-0.15-0.342-0.15-0.539c0-0.504,0.041-1,0.078-1.495
				c-0.768-8.979-8.306-16.054-17.479-16.054H281.389v189.433h120.865C409.864,481.168,416.479,485.479,419.806,491.793z"/>
			<path fill="#FFFFFF" d="M419.733,307.789c-0.532-6.279-4.39-11.618-9.788-14.262v189.214c4.23,1.795,7.724,5,9.86,9.052v-181.97
				c-0.085-0.166-0.15-0.342-0.15-0.539C419.655,308.779,419.696,308.284,419.733,307.789z"/>
			<g>
				<rect x="437.16" y="324.887" fill="#A7A9AC" width="102.376" height="6.577"/>
				<rect x="437.16" y="348.664" fill="#A7A9AC" width="102.376" height="6.57"/>
				<rect x="437.16" y="372.438" fill="#A7A9AC" width="102.376" height="6.57"/>
				<rect x="437.16" y="396.203" fill="#A7A9AC" width="102.376" height="6.583"/>
				<rect x="437.16" y="419.984" fill="#A7A9AC" width="102.376" height="6.566"/>
				<rect x="437.16" y="443.752" fill="#A7A9AC" width="102.376" height="6.58"/>
			</g>
			<g>
				<rect x="298.829" y="324.887" fill="#A7A9AC" width="102.373" height="6.577"/>
				<rect x="298.829" y="348.664" fill="#A7A9AC" width="102.373" height="6.57"/>
				<rect x="298.829" y="372.438" fill="#A7A9AC" width="102.373" height="6.57"/>
				<rect x="298.829" y="396.203" fill="#A7A9AC" width="102.373" height="6.583"/>
				<rect x="298.829" y="419.984" fill="#A7A9AC" width="102.373" height="6.566"/>
				<rect x="298.829" y="443.752" fill="#A7A9AC" width="102.373" height="6.58"/>
			</g>
		</g>
		<g id="magnifying_glass">
			<g>
				<g>
					<path fill="#1B5E8F" d="M322.428,564.659c-1.628-0.409-3.165-1.256-4.428-2.535c-3.686-3.729-3.648-9.74,0.083-13.424
						l106.559-105.219c3.732-3.686,9.744-3.645,13.425,0.084c3.682,3.73,3.646,9.742-0.085,13.424L331.42,562.208
						C328.973,564.629,325.539,565.442,322.428,564.659L322.428,564.659z"/>
				</g>
				<g>
					<path fill="#2C5871" d="M320.103,573.863c-3.254-0.817-6.333-2.509-8.861-5.071c-7.365-7.46-7.29-19.481,0.172-26.846
						l78.324-77.34c7.462-7.368,19.483-7.293,26.849,0.172c7.368,7.459,7.289,19.479-0.172,26.847l-78.325,77.337
						C333.192,573.802,326.325,575.431,320.103,573.863L320.103,573.863z"/>
				</g>
				<path fill="#FEC00F" d="M551.81,404.997c0.216-34.283-22.858-64.069-56.104-72.435c-5.744-1.444-11.68-2.199-17.647-2.234
					c-19.786-0.128-38.461,7.481-52.579,21.42c-14.12,13.937-21.963,32.513-22.09,52.305c-0.212,34.301,22.86,64.101,56.106,72.466
					c5.738,1.444,11.671,2.193,17.632,2.234c19.794,0.122,38.47-7.488,52.593-21.433
					C543.841,443.376,551.684,424.794,551.81,404.997z M516.379,443.813c-10.513,10.383-24.408,16.048-39.134,15.957
					c-4.439-0.03-8.852-0.589-13.117-1.661c-24.741-6.227-41.913-28.405-41.753-53.936c0.093-14.719,5.934-28.54,16.441-38.915
					c10.51-10.378,24.405-16.041,39.121-15.945c4.446,0.027,8.867,0.586,13.137,1.66c24.742,6.227,41.912,28.393,41.754,53.905
					C532.732,419.603,526.89,433.433,516.379,443.813z"/>
				<path fill="#FFFFFF" d="M430.804,410.321c0.086-13.804,5.563-26.767,15.421-36.5c9.856-9.729,22.886-15.041,36.691-14.954
					c4.168,0.029,8.314,0.552,12.318,1.56c9.34,2.349,17.498,7.15,23.938,13.571c-6.946-9.7-17.194-16.992-29.465-20.08
					c-4.004-1.007-8.151-1.532-12.321-1.558c-13.803-0.09-26.834,5.222-36.689,14.954c-9.856,9.73-15.333,22.692-15.42,36.496
					c-0.09,14.312,5.657,27.473,15.226,37.013C434.311,432.173,430.733,421.609,430.804,410.321z"/>
			</g>
		</g>
		<g id="chemistry">
			<path fill="#2C5871" d="M653.365,219.422c0-27.18-22.035-49.215-49.219-49.215c-27.179,0-49.216,22.035-49.216,49.215
				c0,27.181,22.037,49.215,49.216,49.215C631.33,268.637,653.365,246.603,653.365,219.422z"/>
			<path fill="#0E303F" d="M613.616,182.224l-8.882,32.445l4.208,4.208l-2.444,8.929l-10.777-10.778l-8.882,32.445l19.119,19.119
				c25.516-0.924,46.078-21.257,47.345-46.681L613.616,182.224z"/>
			<g>
				<path fill="#FFFFFF" d="M613.133,209.618v-22.859h0.242c0.203,0,0.367-0.165,0.367-0.365v-3.884
					c0-0.201-0.164-0.364-0.367-0.364h-0.605h-17.24h-0.611c-0.197,0-0.363,0.163-0.363,0.364v3.884
					c0,0.201,0.166,0.365,0.363,0.365h0.244v22.857c-9.023,3.581-15.418,12.373-15.418,22.677c0,13.48,10.926,24.404,24.402,24.404
					c13.482,0,24.406-10.924,24.406-24.404C628.553,221.99,622.16,213.198,613.133,209.618z"/>
				<path fill="#FD6120" d="M604.146,210.802c-11.867,0-21.492,9.622-21.492,21.492c0,11.871,9.625,21.49,21.492,21.49
					c11.869,0,21.492-9.619,21.492-21.49C625.639,220.423,616.016,210.802,604.146,210.802z M598.545,243.867
					c-1.711,0-3.096-1.384-3.096-3.095c0-1.711,1.385-3.097,3.096-3.097c1.709,0,3.094,1.386,3.094,3.097
					C601.639,242.482,600.254,243.867,598.545,243.867z M600.506,230.562c0-1.007,0.816-1.821,1.82-1.821
					c1.01,0,1.82,0.814,1.82,1.821c0,1.005-0.811,1.82-1.82,1.82C601.322,232.382,600.506,231.567,600.506,230.562z
					 M606.012,251.302c-1.711,0-3.096-1.384-3.096-3.095c0-1.711,1.385-3.097,3.096-3.097s3.096,1.386,3.096,3.097
					C609.107,249.917,607.723,251.302,606.012,251.302z M610.928,231.432c-1.004,0-1.82-0.815-1.82-1.82
					c0-1.007,0.816-1.821,1.82-1.821c1.01,0,1.82,0.814,1.82,1.821C612.748,230.617,611.938,231.432,610.928,231.432z"/>
				<path fill="#FFFFFF" d="M610.221,211.526v-27.013c0-0.189-0.113-0.344-0.248-0.344h-11.648c-0.133,0-0.246,0.155-0.246,0.344
					v27.013c-6.775,1.995-12.162,7.23-14.35,13.926h40.84C622.379,218.759,616.996,213.524,610.221,211.526z"/>
				<path fill="#DE3F18" d="M610.098,217.964c0,2.417-1.957,4.372-4.369,4.372c-2.418,0-4.371-1.956-4.371-4.372
					c0-2.411,1.953-4.37,4.371-4.37C608.141,213.594,610.098,215.553,610.098,217.964z"/>
				<circle fill="#DE3F18" cx="602.915" cy="199.327" r="3.097"/>
				<circle fill="#FD6120" cx="604.736" cy="185.991" r="1.82"/>
			</g>
		</g>
		<g id="Art_palette">
			<circle fill="#FEC00F" cx="588.955" cy="603.495" r="52.903"/>
			<path fill="#F99B1C" d="M613.472,575.76l5.088,5.088l-3.093,3.094l-0.412-0.412l-2.889,2.889l-10.822-10.821l-31.259,31.259
				l12.986,12.986l-11.424,11.424l24.617,24.617c25.757-3.563,45.594-25.654,45.594-52.388c0-3.459-0.343-6.837-0.977-10.11
				l-22.518-22.518L613.472,575.76z"/>
			<g>
				<path fill="#FFFFFF" d="M597.019,602.193c5.725-5.038,9.384-7.786,9.16-14.656c-0.3-9.156-6.176-18.196-23.815-17.635
					c-21.526,0.687-43.358,32.087-9.161,62.752c13.283,11.908,31.099-2.459,24.276-14.657
					C595.55,614.546,592.392,606.266,597.019,602.193z M591.979,627.108c-1.596,3.649-5.323,5.544-8.321,4.231
					s-4.135-5.333-2.536-8.985c1.596-3.65,5.323-5.545,8.319-4.232C592.44,619.435,593.578,623.457,591.979,627.108z"/>
				<circle fill="#8FC4D7" cx="595.67" cy="582.473" r="4.465"/>
				<circle fill="#FD6120" cx="581.675" cy="579.063" r="4.466"/>
				<circle fill="#DE3F18" cx="568.764" cy="585.447" r="4.466"/>
				<path fill="#1B5E8F" d="M560.744,594.77c2.136-1.233,4.866-0.501,6.103,1.634c1.231,2.136,0.499,4.867-1.639,6.101
					c-2.135,1.233-4.865,0.501-6.1-1.634C557.875,598.734,558.608,596.003,560.744,594.77z"/>
				<circle fill="#103754" cx="567.021" cy="612.461" r="4.466"/>
				<path fill="#D1ECFB" d="M619.387,621.579c-0.644,2.781-5.455,2.78-6.098,0c-0.952-4.916-1.696-7.995-2.864-12.888
					c3.935-0.434,7.897-0.434,11.823,0C621.083,613.584,620.339,616.663,619.387,621.579z"/>
				<path fill="#103754" d="M620.068,575.558c-0.408-7.477-7.056-7.475-7.46,0.003c-0.691,12.566-1.251,20.473-2.077,33.039
					c3.872,0,7.741,0,11.614,0C621.318,596.033,620.764,588.127,620.068,575.558z"/>
				<rect x="610.163" y="608.588" fill="#103754" width="12.35" height="1.813"/>
				<path fill="#DE3F18" d="M611.351,628.533c1.166,1.735,4.956,5.341,2.925,8.048c0,0,6.124-3.819,7.599-8.564
					c0.344-1.102,0.535-2.041,0.439-3.28c-0.251-3.301-3.132-5.775-6.436-5.524c-3.304,0.253-5.776,3.138-5.525,6.438
					C610.436,626.721,610.793,627.702,611.351,628.533z"/>
				<path fill="#FD6120" d="M615.128,627.956c-3.024-5.553,0.864-8.747,0.864-8.747c-0.037,0.002-0.075,0-0.114,0.003
					c-1.06,0.081-2.033,0.438-2.861,0.987c-1.746,1.164-2.833,3.21-2.664,5.45c0.083,1.071,0.44,2.053,0.998,2.884
					c1.166,1.735,4.956,5.341,2.925,8.048C614.275,636.581,618.151,633.51,615.128,627.956z"/>
			</g>
		</g>
		<g id="globe">
			<circle fill="#FFFFFF" cx="683.074" cy="391.737" r="52.903"/>
			<path fill="#D1ECFB" d="M703.058,365.149l-14.964,14.964l-25.736-25.736l-3.705,3.707l3.818,3.818
				c-3.525,4.079-15.23,19.346-6.167,33.022l-1.007,1.008l3.205,3.206l-0.669,0.669l5.207,5.207l-2.621,2.622l17.379,17.379
				l-3.366,3.368l-2.313-2.313l-3.705,3.707l14.857,14.857c2.35-0.009,4.659-0.181,6.927-0.486l-0.004-0.004
				c3.706-0.499,7.29-1.379,10.712-2.604l0.007,0.007c1.787-0.64,3.531-1.369,5.223-2.19l-0.017-0.017
				c11.942-5.79,21.378-15.935,26.238-28.374c0.018-0.047,0.036-0.093,0.055-0.139c1.185-3.059,2.091-6.255,2.692-9.559
				c0.017-0.094,0.033-0.188,0.051-0.283c0.189-1.078,0.352-2.166,0.476-3.266L703.058,365.149z"/>
			<g>
				<g>
					<rect x="681.678" y="417.613" fill="#0E303F" width="6.912" height="7.443"/>
					<g>
						<path fill="#2C5871" d="M708.678,402.504c-0.708,0.893-1.472,1.76-2.3,2.586c-11.732,11.734-30.756,11.734-42.489-0.002
							c-11.735-11.73-11.735-30.756,0-42.486c0.826-0.83,1.694-1.59,2.588-2.302l-3.028-3.029c-0.884,0.724-1.744,1.496-2.568,2.324
							c-13.395,13.393-13.395,35.11,0.001,48.504c13.395,13.395,35.109,13.395,48.506,0c0.825-0.824,1.598-1.682,2.322-2.566
							L708.678,402.504z"/>
					</g>
					
						<rect x="663.333" y="354.796" transform="matrix(-0.7071 0.7071 -0.7071 -0.7071 1389.7478 145.2388)" fill="#0E303F" width="2.922" height="11.3"/>
					<circle fill="#0E303F" cx="660.572" cy="356.358" r="2.659"/>
					<path fill="#2C5871" d="M702.16,429.777c-0.104-2.623-2.257-4.721-4.906-4.721h-23.907c-2.651,0-4.804,2.098-4.906,4.721
						H702.16z"/>
					
						<rect x="706.969" y="398.568" transform="matrix(0.7076 -0.7066 0.7066 0.7076 -78.4832 618.7723)" fill="#0E303F" width="2.924" height="11.301"/>
					<circle fill="#0E303F" cx="712.655" cy="408.307" r="2.659"/>
				</g>
				<path fill="#1C75BC" d="M667.077,365.595c-10.047,10.049-10.047,26.402-0.002,36.45c10.051,10.049,26.397,10.043,36.446-0.004
					s10.052-26.394,0-36.444C693.475,355.55,677.126,355.55,667.077,365.595z"/>
				<g>
					<g>
						<path fill="#15B0BF" d="M708.294,372.444c0.023,0.053,0.026,0.129,0.002,0.169c-0.024,0.041,0.085,0.182,0.113,0.212
							c0.028,0.032,0.425,0.881,0.823,1.877c0.395,0.994,1.098,3.773,1.068,3.875c-0.031,0.102-0.114,0.542-0.237,0.753
							c-0.122,0.204-0.424,0.763-0.519,0.771c-0.095,0.008-0.495-0.042-0.695-0.345c0,0,0,0-0.358-0.293
							c-0.182-0.146-0.182-0.146-0.182-0.146c-0.198-0.014-0.524-0.197-0.731-0.403c-0.203-0.205-0.699-0.731-0.631-0.857
							c0.067-0.128-0.018-0.779-0.225-1.155c0,0,0,0-0.031-0.33c-0.018-0.267-0.018-0.267-0.018-0.267
							c0.181,0.052,0.248,0.011,0.144-0.096c-0.104-0.104-0.077-0.473-0.028-0.612c0.048-0.143,0.342-0.364,0.27-0.524
							c-0.072-0.16-0.222-0.715-0.162-0.866c0.058-0.15,0.221-0.62,0.139-0.711c-0.078-0.087,0.101-0.504,0.325-0.74
							C707.583,372.521,708.268,372.392,708.294,372.444z"/>
					</g>
					<g>
						<path fill="#15B0BF" d="M660.522,390.496c-0.518-2.345-0.896-4.279-0.841-4.299c0.058-0.02,0.188-0.204,0.158-0.361
							c-0.029-0.159,0.384-0.483,0.476-0.41c0.089,0.072,0.205-0.1,0.074-0.347c-0.132-0.246-0.57-0.399-0.598-0.47
							c-0.025-0.075-0.146-0.294-0.025-0.318c0.118-0.021,0.581-0.261,0.791-0.204c0.21,0.055,0.756,0.156,0.766,0.285
							c0.011,0.131,0.333,0.137,0.319-0.009c-0.014-0.145-0.22-0.497-0.29-0.448c-0.068,0.051-0.509-0.104-0.823-0.411
							c-0.311-0.306-0.376-1.122-0.26-1.153c0.116-0.029,0.497,0.022,0.561-0.237c0.059-0.264,0.564-0.108,0.629-0.235
							c0.063-0.125,0.494-0.465,0.59-0.488c0.093-0.022,0.449,0.13,0.551,0.029s0.475-0.329,0.612-0.282
							c0.134,0.044,0.487,0.239,0.479,0.328c-0.008,0.083,0.229,0.275,0.37,0.231c0.142-0.047,0.566-0.197,0.643-0.13
							c0.075,0.066,0.284-0.022,0.312,0.063c0.03,0.087,0.289,0.399,0.261,0.481c-0.03,0.08,0.037,0.315-0.105,0.313
							c-0.146-0.003-0.422,0.225-0.313,0.248c0.109,0.022,0.46,0.339,0.52,0.505c0.063,0.168,0.349,0.572,0.03,0.611
							c-0.324,0.039-1.271,0.371-1.405,0.518c-0.133,0.146-0.329-0.279-0.11-0.86c0,0,0,0-0.459-0.583
							c-0.273-0.34-0.273-0.34-0.273-0.34c-0.257,0.049-0.6,0.123-0.765,0.165c-0.159,0.044-0.293,0.436-0.425,0.474
							c-0.13,0.041-0.376,0.306-0.282,0.274c0.095-0.035,0.427,0.087,0.528,0.226c0.1,0.139,0.399,0.675,0.312,0.865
							c-0.085,0.191-0.421,0.871-0.356,0.894c0.061,0.023,0.206,0.344,0.18,0.547c-0.028,0.202,0.092,0.9,0.116,1.08
							c0.026,0.182,0.022,0.707,0.093,0.773c0.072,0.064,0.061,0.185,0.178,0.148c0.118-0.039,0.641,0.334,0.852,0.277
							c0.217-0.056,0.796-0.139,0.812-0.227c0.014-0.09,0.269-0.083,0.239-0.177c-0.026-0.092,0.386-0.031,0.591,0.114
							c0.205,0.147,0.584,0.168,0.419-0.049c-0.165-0.219-0.272-0.707-0.306-0.638c-0.034,0.066-0.262-0.077-0.184-0.144
							c0.076-0.064,0.053-0.485-0.163-0.784c-0.213-0.296-1.174-1.215-1.158-1.287c0.015-0.07,0.299-0.216,0.409-0.184
							c0.112,0.038,0.303-0.257,0.474-0.213c0.164,0.045,0.562-0.305,0.688-0.173c0.135,0.131,0.55,0.411,0.642,0.337
							c0.09-0.076,0.281-0.285,0.218-0.363c-0.062-0.076,0.004-0.205,0.226-0.121c0.222,0.083,0.844,0.121,0.898,0.187
							c0.06,0.063,0.256,0.229,0.422,0.226c0.17-0.004,0.65,0.269,0.668,0.18c0.015-0.091,0.389-0.04,0.528,0.087
							c0.137,0.127,0.795,0.753,0.943,0.826c0.148,0.069,0.589,0.012,0.673,0.11c0.085,0.1,0.223,0.358,0.074,0.413
							c-0.148,0.053-0.209,0.303-0.269,0.272c-0.064-0.032-0.261-0.08-0.301,0.025c-0.035,0.105-0.392,0.135-0.452-0.145
							c-0.058-0.279-0.368-0.809-0.397-0.534c-0.029,0.276-0.523,0.588-0.446,0.617c0.073,0.023,0.229,0.337,0.16,0.454
							c-0.066,0.116,0.158,0.431,0.3,0.423c0.146-0.01,0.495,0.108,0.464,0.313c-0.031,0.2-0.168,0.668-0.146,0.6
							c0.022-0.068-0.296-0.089-0.411,0.143c-0.11,0.23-0.136,0.867-0.04,0.882c0.096,0.014,0.324,0.411,0.265,0.576
							c-0.062,0.163-0.187,0.747-0.154,0.928s0.585,0.63,0.563,0.697c-0.02,0.074-0.136,0.289-0.063,0.33
							c0.077,0.043,0.221,0.588,0.137,0.881c-0.083,0.293,0.301,1.14,0.396,1.178c0.102,0.036,0.424,0.197,0.499,0.311
							c0.077,0.117,0.42,0.554,0.232,0.616c-0.187,0.062-0.868-0.272-1.042-0.208c-0.175,0.07-0.617,0.437-0.602,0.486
							c0.011,0.05-0.016,0.22-0.193,0.26c-0.18,0.041-0.644,0.566-0.672,0.717c-0.03,0.152,0.128,1.039,0.538,1.631
							c0.41,0.593,1.45,0.092,1.373-0.058c-0.079-0.15-0.103-0.595-0.005-0.672c0.096-0.075,0.54-0.308,0.675-0.106
							c0.136,0.202,0.645,0.605,0.821,0.448c0.181-0.161,0.835,0.056,1.013,0.314c0.181,0.255,0.825,0.558,0.841,0.428
							c0.017-0.131,0.198-0.499,0.304-0.537c0.107-0.037,0.417,0.015,0.432-0.187c0.015-0.205-0.142-0.835-0.099-0.929
							c0.046-0.091,0.1-0.329,0.209-0.311c0.111,0.022,0.342-0.127,0.277-0.217c-0.063-0.087,0.294-0.301,0.471-0.313
							c0.18-0.008,0.664,0.11,0.661,0.049c-0.002-0.058,0.239-0.261,0.473-0.32c0.237-0.059,1.006-0.242,1.192-0.148
							c0.188,0.089,1.001,0.035,1.412-0.05c0.41-0.084,0.983,0.338,1.078,0.322c0.097-0.018,0.47-0.26,0.631-0.34
							c0.161-0.081,0.67-0.106,0.747-0.186c0.078-0.078,0.427-0.344,0.601-0.418c0.176-0.071,0.653-0.078,0.65-0.186
							c-0.001-0.11,0.465-0.063,0.739,0.077c0,0,0,0,0.265,0.266c0.168,0.167,0.168,0.167,0.168,0.167
							c0.107,0.181,0.246,0.379,0.307,0.454c0.06,0.07,0.146,0.585,0.154,0.718c0.013,0.13,0.234,0.536,0.234,0.585
							c0.003,0.048-0.053,0.242,0.018,0.33c0.073,0.09,0.286,0.537,0.503,0.808c0.221,0.272,0.796,1.062,0.759,1.164
							c-0.042,0.1-0.237,0.686-0.205,0.82c0.027,0.133,0.141,0.562,0.23,0.653c0.091,0.09,0.315,0.486,0.294,0.673
							c-0.019,0.191,0.376,0.823,0.368,0.931c-0.005,0.104,0.104,0.425,0.069,0.461c-0.035,0.036-0.066,0.203-0.155,0.293
							c-0.087,0.087-0.204,0.375-0.055,0.434c0.154,0.06,0.555,0.629,0.545,0.809c-0.011,0.179-0.244,0.782-0.098,0.976
							c0.148,0.188-0.046,0.771,0.215,0.939c0.262,0.168,0.613,0.678,0.721,0.668c0.104-0.011,0.458,0.351,0.508,0.449
							c0.053,0.102-0.026,0.466,0.008,0.612c0.033,0.148,0.471,0.527,0.564,0.496c0.097-0.031,0.465,0.241,0.585,0.251
							c0.121,0.012,0.353,0.022,0.261,0.17c-0.097,0.152-0.438,0.549-0.539,0.56c-0.103,0.012-0.368,0.124-0.368,0.124
							c-0.012,0.002-0.079-0.016-0.141-0.041c-0.062-0.023-0.393-0.254-0.593-0.353c-0.197-0.1-0.872-0.302-1.069-0.462
							c-0.197-0.164-1.003-0.8-1.128-0.896c-0.124-0.092-0.337-0.424-0.409-0.381c-0.068,0.039-0.229-0.352-0.174-0.493
							c0.054-0.137-0.316-0.469-0.342-0.377c-0.025,0.094-0.618-0.214-0.976-0.556c-0.354-0.34-0.765-1.327-1.04-1.505
							c-0.265-0.18-0.704-0.854-0.782-0.908c-0.076-0.057-0.309-0.138-0.364-0.225c-0.057-0.088-0.33-0.428-0.569-0.559
							c-0.237-0.137-1.06-0.449-1.302-0.446c-0.239,0.004-0.898-0.034-0.924-0.108c-0.028-0.074-0.454-0.231-0.713-0.165
							c-0.262,0.065-0.951-0.56-0.893-0.638c0.058-0.082-0.052-0.265-0.18-0.218c-0.13,0.047-0.614-0.032-0.783-0.136
							c-0.171-0.104-0.706-0.942-0.726-1.112c-0.024-0.169-0.433-0.705-0.44-0.778c-0.007-0.075-0.274-0.322-0.424-0.383
							c-0.15-0.062-0.537-0.279-0.519-0.192c0.02,0.086-0.117,0.292-0.347,0.272c-0.234-0.022-0.845,0.232-0.883,0.195
							c-0.038-0.039-0.238-0.126-0.357-0.108c-0.119,0.017-0.531-0.055-0.638-0.018c-0.101,0.037-0.477,0.319-0.607,0.279
							c-0.135-0.038-0.747-0.026-1.05,0.163c-0.306,0.191-1.393,0.635-1.627,0.561c-0.233-0.078-1.041-0.715-1.236-0.744
							c-0.196-0.029-0.759-0.083-0.822-0.155c-0.067-0.07-0.109,0.087,0.018,0.142c0.124,0.057,0.46,0.424,0.377,0.439
							c-0.085,0.017-0.459,0.173-0.674,0.055c-0.211-0.117-0.796-0.113-0.853-0.167c-0.06-0.054-0.253-0.297-0.502-0.443
							c-0.252-0.143-0.949-0.367-1.003-0.367C664.169,398.467,661.042,392.846,660.522,390.496z"/>
					</g>
					<g>
						<path fill="#15B0BF" d="M659.736,381.586c-0.097,0.058-0.063-0.731,0.078-1.757c0.139-1.024,0.855-3.705,0.911-3.748
							c0.055-0.043,0.154,0.192,0.083,0.383c-0.067,0.189-0.186,0.76-0.115,0.788c0.07,0.029,0.171,0.41,0.106,0.536
							c-0.062,0.126-0.052,0.634-0.091,0.823c-0.039,0.188-0.354,0.825-0.326,1.018c0.027,0.197,0.367,0.801,0.288,0.879
							c-0.077,0.078-0.227,0.208-0.163,0.114c0.064-0.093,0.297,0.139,0.34,0.227c0.039,0.085-0.241,0.496-0.412,0.741
							c-0.172,0.247-0.732,0.962-0.778,0.939c-0.043-0.025-0.153-0.082-0.146-0.161c0.006-0.078,0.129-0.34,0.261-0.402
							C659.904,381.901,659.833,381.524,659.736,381.586z"/>
					</g>
					<g>
						<path fill="#15B0BF" d="M690.259,358.66c1.445,0.329,2.62,0.685,2.621,0.789c-0.001,0.105,0.215,0.359,0.333,0.317
							c0.118-0.04,0.437-0.259,0.609-0.195c0.173,0.061,0.818,0.375,1.053,0.554c0.233,0.176,0.817,0.982,0.883,1.24
							c0.071,0.258,0.269,1.056,0.215,1.196c-0.059,0.139,0.242,0.775,0.654,1.089c0.418,0.316,0.575,1.288,0.421,1.336
							c-0.151,0.044-0.722-0.35-0.876-0.344c-0.159,0.009-0.489-0.079-0.385-0.001c0.104,0.077,0.131,0.459,0.159,0.521
							c0.031,0.063-0.071,0.271-0.044,0.343c0.03,0.077,0.335,0.311,0.445,0.345c0.112,0.034,0.492,0.119,0.607,0.205
							c0.116,0.086,0.543,0.269,0.714,0.484c0.172,0.217,0.503,0.824,0.503,0.873c0.004,0.047-0.029,0.406,0.07,0.703
							c0.104,0.296,0.189,1.21,0.013,1.375c-0.179,0.167-0.014,0.614,0.04,0.568c0.058-0.047,0.282,0.017,0.371,0.146
							c0.084,0.125,0.338,0.788,0.724,1.211c0.383,0.427,0.145,1.411,0.08,1.353c-0.066-0.057-0.375-0.107-0.555-0.093
							c-0.18,0.017-0.586,0.075-0.5,0.214c0.087,0.139,0.502,0.531,0.671,0.562c0.17,0.028,0.804,0.066,1.035,0.123
							c0.234,0.057,0.619,0.602,0.292,0.622c-0.325,0.018-1.282-0.03-1.408-0.098c-0.124-0.069-0.487-0.396-0.525-0.482
							c-0.03-0.086-0.286-0.364-0.419-0.421c-0.135-0.057-0.548-0.079-0.629-0.148c-0.082-0.07-0.338-0.236-0.479-0.082
							c-0.146,0.154-0.587,0.055-0.612-0.018c-0.023-0.075-0.394-0.33-0.575-0.39c-0.188-0.06-0.728-0.042-0.795,0.108
							s-0.157,0.682-0.181,0.838c-0.019,0.153,0.344,0.662,0.389,0.75c0.047,0.089-0.203,0.328-0.149,0.382
							c0.052,0.05,0.154,0.226,0.111,0.271c-0.048,0.047,0.001,0.403,0.2,0.693c0.204,0.292,0.668,1.148,0.58,1.252
							c-0.091,0.102-0.401,0.101-0.477,0.025c-0.081-0.078-0.406-0.326-0.558-0.375c-0.148-0.051-0.726-0.215-0.967-0.357
							c-0.239-0.139-0.932-0.35-1.032-0.401c-0.098-0.049-0.462-0.293-0.563-0.232c-0.104,0.063-0.424-0.002-0.465-0.053
							c-0.04-0.05-0.305-0.197-0.743-0.233c0,0,0,0-0.35,0.497c-0.097,0.145-0.097,0.145-0.097,0.145
							c-0.128-0.055-0.243,0.025-0.261,0.178c-0.019,0.156-0.432,0.514-0.52,0.481c-0.086-0.034-0.588-0.217-0.913-0.262
							c-0.329-0.045-1.193,0.073-1.205,0.144c-0.014,0.068,0.017,0.297,0.13,0.352c0.112,0.054,0.522-0.062,0.699,0.007
							c0.173,0.068,0.652,0.248,0.673,0.127c0.022-0.117,0.466-0.365,0.664-0.313c0.196,0.049,0.728,0.356,0.738,0.487
							c0.004,0.134,0.357,0.657,0.345,0.837c-0.01,0.179-0.185,0.699-0.128,0.775c0.056,0.077-0.027,0.536-0.132,0.864
							c-0.106,0.331-0.677,1.096-0.947,0.982c-0.27-0.115-1.18-0.424-1.485-0.504c-0.307-0.077-1.246-0.281-1.415-0.397
							c-0.166-0.115-0.482-0.119-0.367-0.037c0.113,0.081,0.481,0.421,0.623,0.424c0.147,0,0.698,0.093,0.904,0.136
							c0.21,0.048,1.009,0.586,1.271,0.567c0.264-0.025,1.077,0.33,1.177,0.229c0.101-0.101,0.356-0.473,0.35-0.601
							c-0.008-0.136,0.423-0.367,0.596-0.257c0.172,0.113,0.632,0.869,0.754,1.298c0.119,0.431,0.415,1.679,0.403,1.823
							c-0.014,0.142,0.055,0.706,0.187,0.93c0.131,0.228,0.716,1.12,1.132,1.479c0.415,0.368,1.261,1.678,1.284,2.1
							c0.022,0.421,0.821,1.668,0.771,1.761c-0.047,0.093-0.074,0.444,0.004,0.57c0.074,0.126,0.442,0.679,0.446,0.932
							c0.008,0.252,0.234,1.239,0.156,1.604c-0.081,0.368-0.983,1.129-1.348,0.916c-0.367-0.214-1.4-0.584-1.517-0.702
							s-0.684-0.556-0.995-0.709c-0.313-0.154-1.296-0.527-1.512-0.796c-0.219-0.268-0.761-1.115-0.991-1.3
							c-0.229-0.184-1.034-0.545-1.299-0.706c-0.265-0.161-1.147-0.688-1.296-0.939c-0.149-0.252-0.924-0.87-0.974-0.776
							c-0.049,0.093-0.247,0.374-0.389,0.405c-0.141,0.038-0.622,0.279-0.775,0.137c0,0,0,0-0.126,0.101
							c-0.27,0.218-0.27,0.218-0.27,0.218c0.142,0.276,0.126,0.638-0.04,0.807c-0.167,0.169-0.693,0.664-0.952,0.717
							c-0.26,0.051-1.168,0.084-1.441-0.036c-0.275-0.125-1.265-0.568-1.604-0.909c-0.34-0.337-1.281-1.413-1.339-1.632
							c-0.06-0.225-0.477-1.203-0.433-1.666c0,0,0,0-0.098-0.281c-0.155-0.434-0.155-0.434-0.155-0.434
							c-0.369-0.48-0.623-0.996-0.571-1.149c0.052-0.153-0.017-0.626,0.086-0.695s0.466-0.249,0.562-0.518
							c0.094-0.269,0.772-1.125,0.861-1.332c0.088-0.207,0.613-0.705,0.708-0.652c0.097,0.052,0.133,0.257,0.229,0.26
							c0.093,0,0.64,0.199,0.968,0.076c0.327-0.123,1.152-0.273,1.085-0.411c-0.064-0.139,0.278-0.717,0.619-1.001
							c0.339-0.289,1.161-0.918,1.056-1.097c-0.108-0.174-0.206-0.689-0.284-0.767c-0.078-0.077-0.205-0.179-0.11-0.051
							c0.101,0.127-0.167,0.36-0.221,0.272c-0.054-0.085-0.554,0.258-0.768,0.672c0,0,0,0-0.403,0.039
							c-0.182,0.017-0.182,0.017-0.182,0.017c-0.156-0.066-0.352-0.183-0.433-0.259s-0.392-0.458-0.423-0.427
							c-0.03,0.034,0.026,0.252,0.202,0.408c0.184,0.155,0.551,0.553,0.654,0.464c0.1-0.091,0.326,0.216,0.226,0.307
							c-0.098,0.091-0.383-0.029-0.367-0.052c0.017-0.023-0.115-0.008-0.202,0.094c-0.088,0.104-0.4,0.104-0.479,0.028
							c-0.08-0.08-0.406-0.34-0.553-0.408c0,0,0,0-0.138-0.043c-0.097-0.024-0.313-0.139-0.408-0.158
							c-0.507-0.104-0.507-0.104-0.507-0.104c-0.553,0.028-0.735,0.063-0.412,0.076c0.328,0.013,1.04,0.234,0.924,0.227
							c-0.109-0.009-0.045,0.296,0.014,0.269c0.058-0.026,0.192,0.257,0.15,0.397c-0.044,0.142,0.179,0.59,0.063,0.647
							c-0.114,0.055-0.382-0.218-0.299-0.297c0.084-0.076-0.141-0.341-0.323-0.389c-0.187-0.043-0.712,0.16-0.805,0.102
							c-0.085-0.059-0.091,0.122,0.17,0.272c0.261,0.147-0.093,0.554-0.357,0.384c-0.262-0.171-0.604-0.62-0.634-0.455
							c-0.027,0.167-0.44,0.547-0.386,0.757c0.058,0.208,0.043,0.931,0.191,1.17c0.148,0.242,0.332,0.893,0.226,0.924
							c-0.108,0.036-0.397,0.439-0.528,0.454c-0.132,0.015-0.564,0.299-0.704,0.205c-0.142-0.097-0.616-0.482-0.751-0.648
							c-0.135-0.167-0.316-0.78-0.19-0.999c0.126-0.216,0.669-0.585,0.652-0.667c-0.019-0.089-0.187-0.306-0.331-0.298
							c-0.141,0.004-0.623-0.252-0.712-0.152c-0.088,0.104-0.354,0.076-0.379-0.036c-0.021-0.108,0.039-0.503,0.014-0.65
							c-0.027-0.146,0.255-0.535,0.258-0.572c0.002-0.035-0.234,0.019-0.414,0.208c-0.178,0.193-0.563,0.62-0.55,0.527
							c0.015-0.095-0.045-0.383-0.185-0.425c-0.138-0.043-0.444-0.52-0.362-0.62c0.081-0.104-0.173-0.383-0.231-0.348
							c-0.052,0.03-0.439-0.04-0.559-0.218c-0.118-0.179-0.626-0.762-0.598-0.879c0.025-0.118,0.322-0.343,0.356-0.255
							c0.034,0.085,0.107,0.305,0.19,0.299c0.082-0.004,0.459,0.017,0.649,0.066c0.188,0.048,0.758,0.577,0.847,0.573
							c0.081-0.004,0.348,0.115,0.406,0.28c0.06,0.162,0.273,0.532,0.165,0.379c-0.11-0.153,0.212-0.587,0.147-0.69
							c-0.063-0.099-0.142-0.469-0.085-0.597c0.053-0.128,0.251-0.514,0.185-0.585c-0.064-0.07-0.254-0.053-0.303-0.163
							c-0.046-0.109-0.269-0.449-0.391-0.338c-0.121,0.111-0.614-0.067-0.782-0.237c-0.17-0.17-0.73-0.559-0.896-0.813
							c-0.163-0.251,0.021-0.913-0.03-0.962c-0.052-0.052-0.154-0.232-0.108-0.283c0.044-0.049,0.135-0.189,0.093-0.396
							c-0.046-0.207-0.322-0.984-0.302-1.247c0.016-0.263-0.007-1.022,0.009-1.092c0.014-0.073,0.159-0.188,0.171-0.356
							c0.006-0.168,0.128-0.693,0.227-0.792c0.1-0.101,0.474-0.356,0.608-0.345c0.132,0.01,0.601,0.042,0.739-0.038
							c0.141-0.076,0.782-0.201,1.097-0.376c0.317-0.171,0.879,0.143,0.896-0.051c0.019-0.189-0.314-0.757-0.233-0.793
							c0.08-0.035,0.353-0.163,0.43-0.086c0.079,0.078,0.306,0.1,0.328-0.127c0.025-0.223,0.321-0.979,0.482-1.176
							c0.161-0.201,0.525-0.492,0.413-0.42c-0.116,0.073-0.338-0.364-0.18-0.423c0.159-0.061,0.637-0.745,0.625-0.999
							c-0.013-0.253-0.058-0.956,0.063-0.988c0.118-0.032,0.403-0.113,0.362-0.224c-0.042-0.113,0.298-0.298,0.393-0.199
							c0.09,0.098,0.292,0.108,0.26,0.007c-0.031-0.099-0.11-0.408,0.053-0.456c0.163-0.049,0.486-0.202,0.358-0.164
							c-0.125,0.038-0.462-0.269-0.426-0.362c0.037-0.091,0.117-0.418,0.069-0.516c-0.048-0.102-0.058-0.446-0.022-0.55
							c0.039-0.105,0.194-0.537,0.326-0.717c0.132-0.183,0.276-0.671,0.359-0.654c0.085,0.018,0.254-0.164,0.198-0.289
							c-0.057-0.123,0.228-0.516,0.124-0.646c-0.105-0.13-0.028-0.445,0.092-0.44c0.121,0.003,0.561-0.203,0.716-0.345
							c0.159-0.145,0.502-0.541,0.658-0.537c0.155,0.002,0.596,0.217,0.621,0.326c0.022,0.107,0.461,0.256,0.77,0.063
							c0,0,0,0,0.18-0.114c0.096-0.064,0.147-0.197,0.244-0.244c0.193-0.093,0.193-0.093,0.193-0.093
							C684.78,358.18,688.817,358.333,690.259,358.66z"/>
					</g>
					<g>
						<path fill="#15B0BF" d="M697.161,361.026c0.166,0.087,0.311,0.175,0.322,0.198c0.005,0.024-0.041,0.052-0.117,0.013
							c-0.075-0.037-0.229,0.157-0.19,0.307c0.039,0.146-0.371,0.115-0.463-0.037c-0.094-0.151-0.488-0.607-0.417-0.652
							C696.366,360.809,696.994,360.938,697.161,361.026z"/>
					</g>
					<g>
						<path fill="#15B0BF" d="M701.773,369.658c-0.038,0.058-0.109-0.011-0.155-0.147c-0.049-0.136,0.139-0.413,0.02-0.521
							c-0.115-0.104-0.133-0.397-0.027-0.434c0.104-0.04,0.511,0.121,0.64,0.049c0.122-0.071,0.41,0.374,0.306,0.521
							c-0.105,0.145-0.133,0.536-0.206,0.506C702.277,369.603,701.81,369.6,701.773,369.658z"/>
					</g>
					<g>
						<path fill="#15B0BF" d="M704.491,372.415c0.172,0.043,0.24,0.112,0.152,0.153c-0.085,0.041-0.399,0.154-0.377,0.255
							c0.024,0.096-0.033,0.189-0.392-0.033c-0.36-0.222-0.506-1.086-0.347-1.192c0.159-0.097,0.593,0.192,0.556,0.281
							C704.046,371.966,704.318,372.37,704.491,372.415z"/>
					</g>
					<g>
						<path fill="#15B0BF" d="M703.016,372.24c0.116,0.142,0.308,0.406,0.429,0.584c0.12,0.178,0.149,0.618,0.185,0.613
							c0.036-0.007,0.093,0.016,0.052,0.084c-0.043,0.071-0.042,0.274-0.223,0.277c-0.178,0.006-0.767,0.467-0.948,0.418
							c-0.184-0.048-0.595-0.646-0.491-1.046c0.104-0.399-0.374-1.578-0.224-1.645c0.153-0.068,0.607-0.057,0.665,0.043
							C702.523,371.668,702.901,372.096,703.016,372.24z"/>
					</g>
					<g>
						<path fill="#15B0BF" d="M704.375,374.593c0.107-0.012-0.082,0.127-0.416,0.307c-0.334,0.183-1.247,0.825-1.31,0.726
							c-0.063-0.103,0.042-0.461,0.317-0.576C703.246,374.934,704.267,374.606,704.375,374.593z"/>
					</g>
					<g>
						<path fill="#15B0BF" d="M699.036,367.957c0.032,0.16-0.035,0.238-0.149,0.172c-0.114-0.067-0.427-0.274-0.449-0.447
							C698.41,367.506,699.006,367.799,699.036,367.957z"/>
					</g>
					<g>
						<path fill="#15B0BF" d="M699.955,368.384c0.206-0.132,0.433-0.105,0.502,0.055c0.068,0.162,0.154,0.595,0.011,0.597
							C700.324,369.042,699.747,368.514,699.955,368.384z"/>
					</g>
					<g>
						<path fill="#15B0BF" d="M705.202,370.102c0.28,0.308-0.096,0.829-0.456,0.879C704.4,370.665,704.859,370.157,705.202,370.102z
							"/>
					</g>
					<g>
						<path fill="#15B0BF" d="M698.851,363.64c-0.083,0.246-0.185,0.453-0.234,0.458c-0.048,0.005-0.188,0.226-0.21,0.38
							c-0.022,0.152,0.082,0.599-0.037,0.62c-0.121,0.018-0.402-0.278-0.334-0.345c0.066-0.065,0.183-0.155,0.104-0.047
							c-0.075,0.11-0.286-0.188-0.26-0.379c0.027-0.191,0.136-0.831,0.141-1.007c0.003-0.177,0.087-0.687,0.056-0.725
							c-0.032-0.04-0.139-0.251-0.279-0.399c-0.138-0.146-0.621-0.563-0.577-0.607c0.046-0.044,0.393,0.021,0.673,0.245
							C698.176,362.053,698.933,363.391,698.851,363.64z"/>
					</g>
					<g>
						<path fill="#15B0BF" d="M695.238,360.119c0.331,0.137,0.658,0.283,0.985,0.436
							C695.912,360.633,695.583,360.422,695.238,360.119z"/>
					</g>
					<g>
						<path fill="#15B0BF" d="M699.574,374.68c-0.416,0.054-0.632,0.081-0.479,0.063c0.15-0.019,0.018-0.316,0.093-0.283
							c0.074,0.033,0.466-0.078,0.73,0.019c0,0,0,0,0.256,0.077c0.236,0.065,0.236,0.065,0.236,0.065
							c0.415-0.03,0.959,0.033,1.209,0.14c0.253,0.106,0.433,0.618,0.246,0.634C701.678,375.412,699.989,374.629,699.574,374.68z"/>
					</g>
					<g>
						<path fill="#15B0BF" d="M696.034,376.362c-0.076-0.205-0.02-0.366,0.125-0.362c0.146,0.005,0.57,0.266,0.605,0.365
							C696.802,376.464,696.11,376.563,696.034,376.362z"/>
					</g>
					<g>
						<path fill="#15B0BF" d="M696.911,385.887c0.138,0.197,0.235,0.397,0.225,0.446c-0.012,0.049,0.099,0.232,0.162,0.296
							c0.066,0.066,0.315,0.366,0.413,0.525c0.097,0.159,0.319,0.822,0.263,0.927c-0.054,0.104-0.445,0.26-0.605,0.128
							c-0.162-0.133-0.78-0.522-0.819-0.632c-0.043-0.112-0.252-0.443-0.351-0.484c-0.099-0.038-0.408-0.521-0.448-0.718
							c-0.041-0.195,0.037-0.831-0.064-1.009c-0.103-0.174-0.169-0.523-0.026-0.392C695.8,385.107,696.775,385.688,696.911,385.887z
							"/>
					</g>
					<g>
						<path fill="#15B0BF" d="M689.919,406.431c-0.245-0.223,0.001-0.563,0.244-0.243
							C690.08,406.271,690.002,406.349,689.919,406.431z"/>
					</g>
					<g>
						<path fill="#15B0BF" d="M668.929,380.519c0.068,0.234,0.129,0.515,0.137,0.622c0.01,0.11,0.004,0.368-0.103,0.327
							c-0.113-0.039-0.451,0.156-0.531,0.235c-0.079,0.078-0.573-0.009-0.922-0.366c-0.358-0.359-1.412-0.683-1.406-0.835
							c0.007-0.155-0.238-0.315-0.225-0.458c0.014-0.144-0.106-0.451-0.29-0.366c-0.189,0.088-0.608-0.189-0.487-0.287
							c0.124-0.101-0.064-0.315-0.057-0.206c0.008,0.108-0.433,0.216-0.514,0.118c-0.08-0.103-0.399-0.404-0.536-0.449
							c-0.133-0.043-0.66-0.338-0.827-0.205c-0.17,0.131-0.62,0.351-0.595,0.438c0.021,0.083-0.331,0.347-0.495,0.423
							c-0.162,0.075-0.508-0.206-0.373-0.363c0.135-0.158,0.383-0.535,0.274-0.492c-0.105,0.044-0.41,0.298-0.543,0.33
							c-0.138,0.032-0.126,0.226-0.211,0.199c-0.088-0.024-0.3,0.076-0.305-0.082c-0.008-0.159,0.293-0.503,0.379-0.688
							c0.082-0.185,0.087-0.625-0.002-0.549c-0.091,0.075-0.278-0.502-0.18-0.905c0.102-0.4,0.839-1.583,1.015-1.766
							c0.178-0.182,0.751-0.752,0.641-0.828c-0.113-0.077-0.287-0.432-0.198-0.591c0.088-0.162,0.633-0.76,0.879-0.981
							c0.245-0.221,0.566-0.886,0.646-0.944c0.079-0.058,0.364-0.15,0.438-0.271c0.075-0.121,0.551-0.463,0.717-0.627
							c0.167-0.167,0.538-0.06,0.421,0.137c-0.118,0.192,0.156,0.619,0.216,0.457c0.063-0.167,0.494-0.51,0.591-0.504
							c0.098,0.01,0.414-0.193,0.502-0.306c0.084-0.114,0.3,0.204,0.232,0.317c-0.068,0.116-0.194,0.512-0.167,0.623
							c0.031,0.109-0.132,0.399-0.046,0.429c0.089,0.029,0.327,0.397,0.33,0.494c-0.002,0.095-0.091,0.247,0.068,0.151
							c0.162-0.1,0.533,0.21,0.431,0.32c-0.107,0.111,0.022,0.604,0.398,0.839c0.373,0.232,0.291,0.958,0.386,0.959
							c0.1,0.005,0.315,0.313,0.243,0.324c-0.074,0.014-0.121,0.059,0.04,0.04c0.159-0.017,0.111,0.399-0.064,0.467
							c-0.176,0.071-0.633,0.322-0.627,0.394c0.009,0.073,0.058,0.227,0.257,0.195c0.199-0.035,0.316-0.203,0.311-0.022
							c-0.009,0.18,0.196,0.784,0.172,0.996c-0.027,0.215-0.266,0.856-0.271,0.964c-0.002,0.11-0.031,0.48-0.063,0.589
							c-0.029,0.11-0.389,0.37-0.335,0.471C668.333,379.39,668.861,380.286,668.929,380.519z"/>
					</g>
					<g>
						<path fill="#15B0BF" d="M670.151,368.853c0.081-0.058,0.252-0.104,0.379-0.102c0.128,0.003,0.275-0.225,0.511-0.292
							c0.236-0.064,0.757,0.558,0.574,0.654c-0.185,0.091-0.604,0.284-0.497,0.464c0.107,0.179,0.336,0.715,0.246,0.81
							c-0.087,0.096-0.438-0.013-0.539,0.062c-0.104,0.074-0.391,0.007-0.4-0.161c-0.009-0.171-0.324-0.511-0.333-0.352
							c-0.01,0.152-0.292,0.508-0.344,0.462c-0.053-0.048-0.358-0.242-0.473-0.21c-0.122,0.036-0.387-0.325-0.317-0.584
							c0.07-0.259,0.503-0.303,0.385-0.356c-0.116-0.05-0.013-0.452,0.156-0.53C669.667,368.638,670.068,368.911,670.151,368.853z"
							/>
					</g>
					<g>
						<path fill="#15B0BF" d="M669.714,368.273c-0.063-0.058,0.121-0.327,0.413-0.599c0.29-0.271,1.196-0.848,1.196-0.725
							c0.006,0.121-0.05,0.618-0.337,0.825C670.701,367.982,669.778,368.329,669.714,368.273z"/>
					</g>
					<g>
						<path fill="#15B0BF" d="M674.379,379.286c0.093,0.081,0.099,0.243,0.02,0.357c-0.078,0.112-0.296,0.347-0.409,0.263
							c-0.117-0.087-0.346-0.384-0.251-0.422c0.095-0.037-0.091-0.428-0.036-0.482C673.756,378.947,674.286,379.203,674.379,379.286
							z"/>
					</g>
					<g>
						<path fill="#15B0BF" d="M671.552,376.944c-0.097,0.139-0.285,0.192-0.426,0.12c-0.139-0.069-0.482,0.177-0.511,0.069
							c-0.028-0.107-0.192-0.349-0.194-0.278c0.001,0.07-0.194,0.14-0.148,0.012c0.045-0.131-0.237-0.5-0.116-0.486
							c0.122,0.011,0.514-0.173,0.613-0.26c0.102-0.088,0.477-0.484,0.62-0.438c0.15,0.044,0.505,0.58,0.435,0.672
							C671.75,376.446,671.646,376.807,671.552,376.944z"/>
					</g>
					<g>
						<path fill="#15B0BF" d="M676.231,365.976c-0.009-0.169,0.061-0.548,0.151-0.841c0.089-0.292,0.555-1.078,0.544-1.115
							c-0.011-0.037-0.018-0.181,0.039-0.233c0.054-0.056,0.274-0.034,0.362,0.176c0.089,0.209-0.262,0.954-0.248,1.227
							c0.014,0.279-0.181,1.065,0.044,1.167c0.226,0.106,0.792,0.475,0.766,0.533c-0.029,0.06-0.143,0.253-0.331,0.288
							c-0.191,0.039-0.718,0.018-0.746-0.103C676.781,366.95,676.24,366.146,676.231,365.976z"/>
					</g>
					<g>
						<path fill="#15B0BF" d="M674.656,364.104c-0.387-0.344,0.019-1.06,0.475-0.614
							C674.872,363.687,675.079,364.12,674.656,364.104z"/>
					</g>
					<g>
						<path fill="#15B0BF" d="M678.733,360.189c-0.076-0.087,0.047-0.377,0.275-0.639s0.717-0.182,0.582,0.021
							C679.454,359.773,678.812,360.278,678.733,360.189z"/>
					</g>
					<g>
						<path fill="#15B0BF" d="M663.404,384.986c0.073,0.026-0.06,0.087-0.296,0.132c-0.234,0.044,0.053,0.704-0.071,0.809
							c-0.125,0.105-0.483-0.149-0.481-0.271c-0.001-0.122,0.016-0.455,0.1-0.472C662.739,385.171,663.331,384.96,663.404,384.986z"
							/>
					</g>
					<g>
						<path fill="#15B0BF" d="M674.472,394.146c0.067-0.069,0.156-0.02,0.201,0.103c0.043,0.125-0.201,0.383-0.255,0.333
							C674.366,394.527,674.404,394.211,674.472,394.146z"/>
					</g>
					<g>
						<path fill="#15B0BF" d="M672.856,395.247c-0.097,0.146-0.325,0.248-0.508,0.226c-0.181-0.019-0.672,0.266-0.706,0.398
							c-0.036,0.13-0.369,0.378-0.402,0.293c-0.035-0.089-0.036-0.457,0.132-0.623c0.167-0.169,0.705-0.61,0.824-0.62
							c0.118-0.005,0.489-0.083,0.56-0.106c0.07-0.02,0.426,0.03,0.605-0.177c0.182-0.206,0.782,0.092,0.649,0.191
							c-0.129,0.097-0.13,0.394-0.239,0.402c-0.108,0.006-0.458,0.232-0.559,0.185C673.104,395.372,672.95,395.104,672.856,395.247z
							"/>
					</g>
					<g>
						<path fill="#15B0BF" d="M673.011,395.831c0.119-0.004,0.167,0.038,0.101,0.098c-0.06,0.058-0.281,0.341-0.332,0.291
							C672.728,396.167,672.89,395.841,673.011,395.831z"/>
					</g>
					<g>
						<path fill="#15B0BF" d="M671.733,394.896c-0.044,0.044-0.122,0.036-0.178-0.016c-0.052-0.054-0.11-0.219-0.016-0.256
							C671.636,394.587,671.779,394.852,671.733,394.896z"/>
					</g>
					<g>
						<path fill="#15B0BF" d="M672.007,394.456c-0.116-0.105-0.184-0.217-0.151-0.251c0.032-0.032,0.185-0.097,0.259-0.066
							C672.188,394.167,672.122,394.563,672.007,394.456z"/>
					</g>
					<g>
						<path fill="#15B0BF" d="M672.793,394.497c-0.029,0.061-0.11,0.052-0.178-0.012c-0.063-0.064-0.159-0.267-0.063-0.304
							c0.093-0.038,0.406,0.051,0.459-0.018c0.054-0.07,0.174,0.074,0.126,0.233C673.087,394.55,672.827,394.441,672.793,394.497z"
							/>
					</g>
					<g>
						<path fill="#15B0BF" d="M707.323,370.655c0.171,0.296,0.249,0.477,0.175,0.402c-0.077-0.077-0.509-0.249-0.794-0.216
							c-0.285,0.036-1.075,0.182-1.111,0.307c-0.038,0.125-0.211,0.01-0.185-0.072c0.026-0.081-0.087-0.3,0-0.279
							c0.089,0.023,0.311-0.265,0.332-0.349c0.024-0.083,0.055-0.371,0.133-0.447c0.078-0.081,0.358-0.31,0.452-0.336
							C706.418,369.638,707.152,370.361,707.323,370.655z"/>
					</g>
				</g>
				<path fill="#D1ECFB" d="M660.413,381.235c-0.035,0-0.054,0.13,0.01,0.13C660.462,381.375,660.479,381.245,660.413,381.235z"/>
				<path fill="#D1ECFB" d="M668.448,385.233c-0.038-0.009-0.057,0.127,0.008,0.133
					C668.497,385.368,668.516,385.235,668.448,385.233z"/>
			</g>
		</g>
		<g id="basketball">
			<circle fill="#FFFFFF" cx="233.543" cy="599.154" r="52.903"/>
			<path fill="#D1ECFB" d="M211.449,621.661l29.827,29.827c23.354-3.422,41.736-22.101,44.728-45.589l-29.396-29.396
				L211.449,621.661z"/>
			<g>
				<circle fill="#FD6120" cx="233.542" cy="598.637" r="31.923"/>
				<path fill="#DE3F18" d="M262.635,585.5c0.266,4.19-0.216,8.498-1.563,12.742c-5.821,18.332-25.399,28.475-43.73,22.654
					c-4.243-1.347-8.041-3.438-11.309-6.073c3.852,6.552,10.039,11.76,17.852,14.24c16.803,5.334,34.75-3.963,40.084-20.767
					C266.45,600.483,265.762,592.425,262.635,585.5z"/>
				<path fill="#174F78" d="M233.206,614.759c-4.953-4.774-10.074-9.7-17.482-12.882c0.414-2.354,0.961-4.682,1.636-6.973
					l46.172,14.658c0.152-0.418,0.302-0.838,0.437-1.266c0.136-0.429,0.257-0.857,0.374-1.287l-46.172-14.658
					c0.756-2.223,1.634-4.404,2.633-6.531c7.893,1.682,14.921,0.611,21.726-0.434c6.743-1.034,13.208-2.021,19.99-0.144
					c-0.498-1.075-1.06-2.118-1.673-3.133c-6.491-1.246-12.676-0.3-18.72,0.629c-6.363,0.977-12.926,1.979-20.086,0.602
					c3.211-6.128,7.444-11.759,12.6-16.606c-1.315-0.046-2.623-0.017-3.918,0.1c-4.594,4.728-8.407,10.077-11.355,15.84
					c-3.559-1.303-5.706-4.557-7.266-7.681c-0.693,0.626-1.358,1.281-1.995,1.97c1.702,3.211,4.132,6.576,8.086,8.122
					c-0.973,2.106-1.828,4.262-2.573,6.455l-12.064-3.829c-0.152,0.418-0.302,0.838-0.438,1.266
					c-0.135,0.429-0.254,0.857-0.372,1.287l12.063,3.829c-0.667,2.262-1.222,4.555-1.646,6.876
					c-4.105-1.018-8.018,0.313-11.254,1.945c0.125,0.927,0.294,1.845,0.5,2.752c3.07-1.64,6.688-3.04,10.333-2.048
					c-0.9,6.372-0.867,12.898,0.154,19.37c0.99,0.842,2.041,1.619,3.143,2.341c-1.407-6.892-1.623-13.889-0.73-20.709
					c6.633,3.005,11.411,7.604,16.04,12.067c4.377,4.221,8.86,8.529,14.827,11.259c1.086-0.47,2.147-0.993,3.175-1.579
					C242.777,623.979,238.09,619.468,233.206,614.759z"/>
			</g>
		</g>
		<g id="magnifying">
			<circle fill="#2C5871" cx="155.858" cy="414.414" r="61.845"/>
			<path fill="#0E303F" d="M217.596,417.906l-44.753-44.753l-0.004,0.004c-0.05-0.062-0.109-0.116-0.181-0.151l-7.271-3.4
				c-0.272-0.125-0.608,0.016-0.75,0.317l-3.326,7.117l-0.317-0.147c-0.333-0.155-0.742,0.02-0.913,0.39l-0.327,0.703
				c-0.177,0.369-0.046,0.797,0.286,0.952l0.316,0.147l-0.998,2.135c-0.113,0.236-0.067,0.497,0.087,0.661
				c-0.061,0.083-0.118,0.171-0.165,0.274l-1.256,2.688l-1.119-0.523c-0.37-0.174-0.813-0.014-0.983,0.357l-8.571,18.332
				c-0.175,0.369-0.014,0.809,0.358,0.983l1.117,0.522l-0.897,1.922c-0.232,0.49-0.21,0.984,0.042,1.102l0.685,0.322l-2.819,6.029
				c-0.162,0.347-0.148,0.692,0.027,0.772l0.067,0.031l17.183,17.188c-0.545,0.54-1.104,1.019-1.668,1.454l-5.581-5.582
				c-0.06-0.1-0.138-0.184-0.243-0.233l-23.187-10.839c-0.369-0.175-0.865,0.098-1.103,0.61l-0.287,0.614
				c-0.19,0.408-0.151,0.836,0.062,1.081l-0.001,0.003l7.769,7.768l-3.354-1.566c-0.37-0.174-0.954,0.295-1.307,1.049l-0.424,0.908
				c-0.354,0.753-0.337,1.503,0.031,1.678l0.016,0.008l16.779,16.774h-21.261c-0.949,0-1.717,0.528-1.717,1.179v3.276h-0.722v2.309
				h0.023l23.648,23.648c1.737,0.147,3.493,0.238,5.271,0.238C188.84,476.259,215.784,450.437,217.596,417.906z"/>
			<g>
				<g>
					<path fill="#D1ECFB" d="M168.566,451.056v-4.269c0-0.65-0.768-1.179-1.715-1.179h-37.498c-0.949,0-1.717,0.528-1.717,1.179
						v4.269H168.566z"/>
					<rect x="126.915" y="450.063" fill="#8FC4D7" width="42.375" height="2.309"/>
					<g>
						<path fill="#F99B1C" d="M167.622,398.438c-1.313-0.614-2.667-1.06-4.04-1.348l-5.221,11.168
							c3.087-2.764,6.409-3.915,8.975-2.716c4.445,2.077,4.938,10.412,1.105,18.611c-3.835,8.203-10.547,13.167-14.991,11.087
							c-2.566-1.196-3.813-4.481-3.672-8.622l-5.222,11.161c1.101,0.87,2.312,1.625,3.624,2.239
							c10.266,4.798,22.939-0.618,28.309-12.103C181.857,416.438,177.889,403.236,167.622,398.438z"/>
						<path fill="#F99B1C" d="M155.592,410.022c-0.231,0.49-0.62,0.792-0.873,0.673l-6.749-3.155
							c-0.252-0.118-0.274-0.612-0.042-1.103l11.352-24.282c0.227-0.493,0.622-0.794,0.874-0.675l6.749,3.156
							c0.25,0.117,0.271,0.611,0.041,1.101L155.592,410.022z"/>
						<path fill="#F99B1C" d="M151.213,416.406c-0.16,0.344-0.436,0.556-0.61,0.474l-4.74-2.217
							c-0.176-0.08-0.189-0.426-0.027-0.772l7.966-17.04c0.16-0.341,0.436-0.556,0.613-0.474l4.737,2.217
							c0.176,0.081,0.189,0.428,0.027,0.773L151.213,416.406z"/>
						<path fill="#FFFFFF" d="M158.591,408.266c-0.175,0.369-0.614,0.528-0.983,0.357l-9.899-4.63
							c-0.372-0.171-0.533-0.614-0.358-0.983l8.571-18.332c0.171-0.371,0.613-0.531,0.983-0.357l9.901,4.628
							c0.368,0.175,0.53,0.614,0.355,0.983L158.591,408.266z"/>
						<path fill="#FFFFFF" d="M167.611,385.078c-0.141,0.301-0.476,0.445-0.747,0.317l-7.271-3.398
							c-0.271-0.128-0.381-0.476-0.236-0.777l5.279-11.297c0.142-0.302,0.478-0.442,0.75-0.317l7.271,3.4
							c0.271,0.128,0.377,0.474,0.235,0.777L167.611,385.078z"/>
						<path fill="#F99B1C" d="M169.842,382.703c-0.174,0.37-0.582,0.544-0.916,0.388l-8.887-4.153
							c-0.332-0.155-0.463-0.583-0.286-0.952l0.327-0.703c0.171-0.37,0.58-0.545,0.913-0.39l8.89,4.156
							c0.332,0.156,0.46,0.579,0.288,0.951L169.842,382.703z"/>
						<path fill="#F99B1C" d="M151.173,434.996c-0.175,0.368-0.613,0.528-0.984,0.357l-9.037-4.226
							c-0.371-0.175-0.531-0.615-0.357-0.983l0.21-0.447c0.171-0.374,0.613-0.532,0.983-0.357l9.038,4.226
							c0.37,0.175,0.529,0.613,0.354,0.983L151.173,434.996z"/>
						<path fill="#D1ECFB" d="M144.165,432.003c-0.352,0.75-0.938,1.22-1.308,1.049l-9.038-4.226
							c-0.368-0.175-0.385-0.925-0.031-1.678l0.424-0.908c0.353-0.754,0.937-1.223,1.307-1.049l9.038,4.226
							c0.372,0.174,0.386,0.921,0.033,1.675L144.165,432.003z"/>
						<path fill="#F99B1C" d="M153.778,430.424c-0.354,0.75-0.938,1.222-1.311,1.051l-9.038-4.227
							c-0.37-0.173-0.385-0.926-0.031-1.677l0.424-0.908c0.352-0.754,0.937-1.223,1.306-1.051l9.041,4.227
							c0.367,0.172,0.388,0.926,0.032,1.677L153.778,430.424z"/>
						<circle fill="#8FC4D7" cx="163.942" cy="398.818" r="5.151"/>
						<circle fill="#D1ECFB" cx="163.942" cy="398.819" r="4.232"/>
						<path fill="#D1ECFB" d="M155.57,429.372c-0.235,0.51-0.731,0.78-1.101,0.609l-23.185-10.841
							c-0.369-0.174-0.479-0.726-0.241-1.234l0.287-0.614c0.237-0.513,0.733-0.785,1.103-0.61l23.187,10.839
							c0.37,0.175,0.479,0.729,0.239,1.235L155.57,429.372z"/>
					</g>
					<path fill="#D1ECFB" d="M166.164,448.147l-3.226-8.176c-0.858-2.182-2.215-3.949-4.507-3.949c-1.631,0-3.103,1.768-3.285,3.949
						l-0.692,8.176H166.164z"/>
					<circle fill="#F99B1C" cx="158.715" cy="439.335" r="2.503"/>
				</g>
			</g>
		</g>
		<g id="computer">
			<circle fill="#A6DAE9" cx="419.9" cy="147.036" r="61.928"/>
			<path fill="#8FC4D7" d="M481.828,147.036c0-4.237-0.428-8.373-1.238-12.371l-20.713-20.712l-23.25,23.25l-11.232-11.232
				l-45.507,45.507l37.42,37.42c0.861,0.035,1.724,0.065,2.593,0.065C454.104,208.963,481.828,181.238,481.828,147.036z"/>
			<g>
				<g>
					<g>
						<path fill="#929292" d="M410.479,168.442c-0.857,3.502-1.715,7.004-2.57,10.508c7.996,0,15.988,0,23.986,0
							c-0.857-3.504-1.715-7.006-2.57-10.508C423.041,168.442,416.762,168.442,410.479,168.442z"/>
						<path fill="#969A9D" d="M419.762,178.951c4.043,0,8.088,0,12.133,0c-0.857-3.504-1.715-7.006-2.57-10.508
							c-3.189,0-6.375,0-9.563,0V178.951z"/>
						<path fill="#FFFFFF" d="M433.375,178.765h-26.949c-0.684,0-1.238,0.65-1.238,1.455v0.546h29.426v-0.546
							C434.613,179.415,434.059,178.765,433.375,178.765z"/>
						<path fill="#FFFFFF" d="M379.377,164.354v5.791c0,1.115,0.9,2.017,2.018,2.017h77.011c1.113,0,2.018-0.902,2.018-2.017v-5.791
							H379.377z"/>
						<path fill="#0E303F" d="M460.424,164.354v-49.027c0-1.115-0.904-2.018-2.018-2.018h-77.011c-1.117,0-2.018,0.903-2.018,2.018
							v49.027H460.424z"/>
						<rect x="382.696" y="116.462" fill="#FFFFFF" width="74.41" height="44.545"/>
					</g>
				</g>
				<g>
					<g>
						<rect x="390.206" y="124.35" fill="#A6DAE9" width="14.46" height="1.172"/>
						<rect x="439.096" y="124.35" fill="#A6DAE9" width="9.189" height="1.172"/>
						<rect x="427.502" y="124.35" fill="#A6DAE9" width="9.188" height="1.172"/>
						<rect x="415.906" y="124.35" fill="#A6DAE9" width="9.189" height="1.172"/>
						<g>
							<g>
								<rect x="390.206" y="129.974" fill="#A6DAE9" width="26.148" height="25.902"/>
								<path fill="#A6DAE9" d="M416.705,156.191h-26.851v-26.534h26.851V156.191L416.705,156.191z M390.556,155.56h25.448v-25.269
									h-25.448V155.56L390.556,155.56z"/>
							</g>
							<g>
								<path fill="#A6DAE9" d="M416.354,156.191h-26.148c-0.14,0-0.265-0.074-0.321-0.188c-0.058-0.114-0.033-0.249,0.061-0.341
									l26.149-25.901c0.098-0.096,0.25-0.129,0.387-0.082c0.137,0.047,0.225,0.164,0.225,0.294v25.902
									C416.705,156.05,416.547,156.191,416.354,156.191L416.354,156.191z M391,155.56h25.004v-24.767L391,155.56L391,155.56z"/>
							</g>
							<g>
								<path fill="#A6DAE9" d="M416.354,156.191h-26.148c-0.193,0-0.352-0.142-0.352-0.316v-25.902c0-0.13,0.089-0.248,0.225-0.294
									c0.138-0.047,0.289-0.014,0.386,0.082l26.151,25.901c0.092,0.093,0.117,0.227,0.061,0.341S416.494,156.191,416.354,156.191
									L416.354,156.191z M390.556,155.56h25.004l-25.004-24.767V155.56L390.556,155.56z"/>
							</g>
						</g>
						<rect x="420.184" y="130.467" fill="#FD6120" width="15.516" height="1.905"/>
						<rect x="420.184" y="135.312" fill="#A6DAE9" width="28.043" height="1.172"/>
						<rect x="420.184" y="138.911" fill="#A6DAE9" width="23.832" height="1.174"/>
						<rect x="420.184" y="142.512" fill="#A6DAE9" width="26.41" height="1.173"/>
						<rect x="420.184" y="146.112" fill="#A6DAE9" width="20.553" height="1.173"/>
						<g>
							<rect x="420.184" y="150.677" fill="#FD6120" width="9.076" height="3.426"/>
							<rect x="421.707" y="151.803" fill="#FFFFFF" width="6.031" height="1.172"/>
						</g>
					</g>
					<g>
						<path fill="#A6DAE9" d="M451.277,116.89h-62.752c-1.046,0-1.895,0.763-1.895,1.706v3.232h66.542v-3.232
							C453.172,117.653,452.324,116.89,451.277,116.89z"/>
						<g>
							<ellipse fill="#FFFFFF" cx="389.451" cy="119.412" rx="1.058" ry="0.951"/>
							<ellipse fill="#FFFFFF" cx="392.412" cy="119.412" rx="1.059" ry="0.951"/>
							<ellipse fill="#FFFFFF" cx="395.371" cy="119.412" rx="1.058" ry="0.951"/>
						</g>
						<rect x="399.39" y="118.556" fill="#FFFFFF" width="51.018" height="1.713"/>
					</g>
				</g>
			</g>
		</g>
		<g id="icon">
			<g>
				<path fill="#FFFFFF" d="M753.469,311.457c0.599-0.576,1.161-1.15,1.681-1.72c0.339,0.132,0.706,0.208,1.092,0.208
					c1.657,0,3.001-1.344,3.001-3.002c0-0.726-0.258-1.392-0.687-1.911c1.185-2.3,1.439-4.346,0.553-5.884
					c-0.95-1.644-3.039-2.512-6.045-2.512c-2.148,0-4.687,0.436-7.437,1.236c-1.653-6.689-4.517-11.032-7.838-11.032
					s-6.185,4.342-7.839,11.032c-1.22-0.355-2.396-0.638-3.517-0.841c-0.003-1.656-1.345-2.997-3.001-2.997
					c-1.576,0-2.867,1.216-2.989,2.762c-1.904,0.321-3.261,1.118-3.974,2.352c-1.661,2.877,0.67,7.53,5.639,12.309
					c-4.969,4.779-7.3,9.432-5.639,12.309c0.949,1.643,3.039,2.512,6.043,2.512h0.001c2.148,0,4.687-0.436,7.437-1.236
					c0.26,1.049,0.547,2.043,0.864,2.969c-0.457,0.526-0.734,1.211-0.734,1.963c0,1.658,1.345,3.001,3.002,3.001
					c0.034,0,0.065-0.004,0.099-0.005c1.353,1.979,2.921,3.104,4.608,3.104c3.321,0,6.185-4.342,7.838-11.032
					c2.75,0.801,5.288,1.236,7.437,1.236c3.006,0,5.095-0.869,6.045-2.512C760.769,320.889,758.438,316.236,753.469,311.457z
					 M753.063,298.18c1.689,0,3.877,0.302,4.707,1.741c0.581,1.005,0.41,2.473-0.45,4.224c-0.336-0.13-0.698-0.204-1.079-0.204
					c-1.658,0-3.002,1.345-3.002,3.002c0,0.72,0.254,1.38,0.677,1.898c-0.481,0.519-1.003,1.047-1.563,1.581
					c-1.594-1.428-3.412-2.856-5.423-4.242c-0.194-2.429-0.521-4.714-0.959-6.805C748.604,298.601,751.025,298.18,753.063,298.18z
					 M741.692,318.217c-1.303,0.752-2.608,1.447-3.903,2.083c-1.295-0.635-2.601-1.331-3.903-2.083
					c-1.328-0.767-2.578-1.549-3.757-2.338c-0.094-1.415-0.146-2.888-0.146-4.421s0.052-3.007,0.146-4.422
					c1.179-0.789,2.429-1.571,3.757-2.337c1.303-0.752,2.608-1.447,3.903-2.083c1.294,0.635,2.601,1.331,3.903,2.083
					c1.327,0.767,2.577,1.549,3.756,2.337c0.094,1.415,0.146,2.889,0.146,4.422s-0.053,3.007-0.146,4.422
					C744.27,316.668,743.021,317.45,741.692,318.217z M745.289,317.827c-0.186,1.884-0.45,3.642-0.779,5.256
					c-1.595-0.532-3.254-1.187-4.945-1.95c0.966-0.496,1.934-1.021,2.899-1.579C743.438,318.991,744.379,318.414,745.289,317.827z
					 M736.013,321.133c-1.69,0.763-3.35,1.417-4.945,1.95c-0.329-1.614-0.594-3.372-0.779-5.256c0.91,0.587,1.851,1.165,2.826,1.728
					C734.079,320.111,735.047,320.637,736.013,321.133z M728.522,314.768c-1.543-1.105-2.936-2.216-4.171-3.311
					c1.235-1.094,2.628-2.205,4.171-3.31c-0.053,1.082-0.083,2.185-0.083,3.311S728.47,313.686,728.522,314.768z M730.288,305.088
					c0.186-1.884,0.45-3.642,0.779-5.256c1.596,0.532,3.255,1.187,4.945,1.95c-0.966,0.496-1.934,1.021-2.898,1.579
					C732.139,303.923,731.198,304.501,730.288,305.088z M739.564,301.782c1.691-0.763,3.35-1.417,4.945-1.95
					c0.329,1.613,0.594,3.372,0.779,5.256c-0.91-0.587-1.851-1.165-2.825-1.728C741.498,302.803,740.53,302.278,739.564,301.782z
					 M747.055,308.146c1.543,1.105,2.936,2.216,4.171,3.311c-1.235,1.095-2.628,2.206-4.171,3.311
					c0.054-1.082,0.083-2.185,0.083-3.311S747.108,309.228,747.055,308.146z M737.789,288.384c2.385,0,4.876,3.715,6.385,9.939
					c-2.054,0.676-4.202,1.545-6.385,2.583c-2.183-1.038-4.332-1.907-6.385-2.583C732.913,292.1,735.403,288.384,737.789,288.384z
					 M717.808,299.921c0.552-0.958,1.705-1.41,2.912-1.606c0.479,1.018,1.513,1.724,2.713,1.724c1.116,0,2.088-0.61,2.605-1.514
					c1.13,0.2,2.325,0.484,3.569,0.85c-0.438,2.09-0.765,4.375-0.96,6.805c-2.01,1.386-3.829,2.814-5.423,4.242
					C718.588,306.002,716.614,301.987,717.808,299.921z M722.514,324.734c-1.688,0-3.876-0.302-4.706-1.74
					c-1.193-2.066,0.78-6.082,5.417-10.501c1.594,1.428,3.413,2.856,5.423,4.242c0.195,2.429,0.521,4.714,0.96,6.805
					C726.974,324.313,724.552,324.734,722.514,324.734z M737.789,334.53c-1.042,0-2.104-0.711-3.096-2.027
					c0.835-0.533,1.39-1.465,1.39-2.529c0-1.658-1.344-3.003-3.001-3.003c-0.337,0-0.661,0.059-0.964,0.162
					c-0.257-0.792-0.496-1.64-0.714-2.542c2.052-0.676,4.201-1.545,6.385-2.583c2.183,1.038,4.331,1.906,6.385,2.583
					C742.665,330.814,740.174,334.53,737.789,334.53z M757.771,322.994c-0.83,1.438-3.018,1.74-4.707,1.74
					c-2.038,0-4.459-0.421-7.093-1.194c0.438-2.091,0.765-4.375,0.959-6.805c2.011-1.386,3.829-2.814,5.423-4.242
					C756.99,316.912,758.964,320.928,757.771,322.994z"/>
				<circle fill="#FFFFFF" cx="737.789" cy="311.457" r="4.696"/>
			</g>
			<path fill="#FFFFFF" d="M272.481,142.859c0-5.785-6.585-10.476-14.71-10.476c-0.037,0-0.074,0.002-0.111,0.002
				c-0.036,0-0.072-0.002-0.108-0.002c-8.246,0-14.93,4.863-14.93,10.861c0,4.355,3.525,8.11,8.612,9.841l0.17,7.352l4.623-6.389
				c0.501,0.038,1.009,0.056,1.524,0.056c8.245,0,14.929-4.863,14.929-10.861c0-0.083-0.006-0.165-0.009-0.247
				C272.474,142.95,272.481,142.906,272.481,142.859z M267.322,139.16h-19.54v-1.778h19.54V139.16z M267.322,142.577h-19.54v-1.778
				h19.54V142.577z M267.322,145.994h-19.54v-1.778h19.54V145.994z M267.322,149.412h-19.54v-1.778h19.54V149.412z"/>
			<path fill="#FFFFFF" d="M502.536,105.966c0.634-1.239,1.047-2.543,1.226-3.869l2.601,0.345c0.22-1.647,0.159-3.316-0.184-4.949
				l-2.58,0.542c-0.277-1.328-0.767-2.609-1.478-3.785l2.233-1.364c-0.864-1.422-1.965-2.678-3.261-3.728l-1.657,2.042
				c-0.181-0.145-0.354-0.296-0.548-0.438c-0.938-0.675-1.95-1.187-2.991-1.556l0.885-2.475c-1.569-0.557-3.213-0.844-4.884-0.844
				l-0.003,2.63c-1.363,0.004-2.72,0.23-4.004,0.685l-0.874-2.48c-1.575,0.554-3.026,1.367-4.322,2.423l1.654,2.045
				c-0.807,0.656-1.554,1.415-2.194,2.3c-0.176,0.245-0.322,0.494-0.478,0.747l-2.241-1.374c-0.874,1.422-1.491,2.975-1.833,4.607
				l2.569,0.542c-0.283,1.339-0.328,2.712-0.147,4.052l-2.612,0.347c0.218,1.652,0.716,3.246,1.474,4.732l2.347-1.197
				c0.604,1.194,1.422,2.297,2.434,3.252l-1.802,1.909c0.464,0.438,0.972,0.856,1.5,1.235c0.817,0.591,1.697,1.097,2.617,1.504
				l1.061-2.393c1.27,0.558,2.604,0.874,3.943,0.974l-0.2,2.621c1.66,0.126,3.316-0.03,4.929-0.466l-0.688-2.536
				c1.306-0.353,2.55-0.936,3.685-1.718l1.504,2.163c1.366-0.946,2.551-2.118,3.525-3.469c0.425-0.593,0.809-1.21,1.134-1.853
				L502.536,105.966z M493.316,105.719l-0.04-0.134c-0.577,0.16-1.186,0.217-1.779,0.17l-0.013,0.15
				c-0.609-0.044-1.218-0.176-1.795-0.428l0.07-0.151c-0.546-0.244-1.07-0.596-1.5-1.002l-0.104,0.1
				c-0.452-0.428-0.819-0.922-1.096-1.458l0.127-0.066c-0.279-0.538-0.453-1.112-0.533-1.708l-0.142,0.022
				c-0.092-0.619-0.069-1.238,0.052-1.852l0.157,0.034c0.122-0.589,0.344-1.15,0.66-1.661l-0.119-0.072
				c0.072-0.114,0.123-0.239,0.204-0.35c0.291-0.406,0.64-0.737,1.007-1.04l0.089,0.11c0.47-0.378,0.989-0.668,1.565-0.87
				l-0.056-0.152c0.587-0.201,1.204-0.298,1.821-0.305v0.151c0.607-0.003,1.198,0.102,1.761,0.3l0.045-0.129
				c0.479,0.173,0.939,0.385,1.37,0.692c0.093,0.064,0.158,0.142,0.247,0.215l-0.095,0.107c0.469,0.381,0.859,0.835,1.176,1.342
				l0.144-0.079c0.322,0.533,0.535,1.12,0.658,1.72l-0.142,0.032c0.123,0.592,0.15,1.197,0.069,1.789l0.139,0.016
				c-0.088,0.602-0.261,1.194-0.548,1.758l-0.126-0.073c-0.122,0.234-0.257,0.461-0.413,0.678c-0.357,0.495-0.788,0.917-1.281,1.257
				l0.077,0.117C494.467,105.308,493.907,105.563,493.316,105.719z"/>
			<path fill="#FFFFFF" d="M110.209,475.229h-1.545H100v8.663v1.586v10.505v24.121h32.834v-24.121V484.18v-8.95H110.209z
				 M116.135,501.623h8.905v1.311h-8.905V501.623z M111.791,494.137l-1.725-2.412c0.225-0.246,0.397-0.542,0.506-0.869l2.958,0.327
				C113.289,492.354,112.663,493.385,111.791,494.137z M113.379,505.941h-3.976v-3.977
				C111.6,501.965,113.379,503.744,113.379,505.941z M111.005,494.698c-0.786,0.464-1.702,0.73-2.679,0.73
				c-2.935,0-5.312-2.376-5.312-5.309c0-0.813,0.189-1.578,0.514-2.266l2.557,1.505c-0.08,0.241-0.135,0.493-0.135,0.761
				c0,1.313,1.064,2.375,2.376,2.375c0.34,0,0.662-0.078,0.957-0.207L111.005,494.698z M104.019,487.023
				c0.877-1.216,2.25-2.046,3.824-2.188v2.963c-0.5,0.103-0.937,0.365-1.269,0.732L104.019,487.023z M108.334,512.239
				c-2.938,0-5.32-2.381-5.32-5.317c0-2.819,2.194-5.119,4.965-5.299v5.653h5.655C113.452,510.044,111.152,512.239,108.334,512.239z
				 M113.629,490.222l-2.955-0.328c-0.099-1.041-0.86-1.887-1.866-2.096v-2.963c2.705,0.244,4.826,2.516,4.826,5.285
				C113.634,490.155,113.629,490.188,113.629,490.222z M128.936,511.188h-12.8v-1.314h12.8V511.188z M128.936,507.061h-12.8v-1.312
				h12.8V507.061z M128.936,494.4h-12.8v-1.311h12.8V494.4z M128.936,490.274h-12.8v-1.312h12.8V490.274z M128.936,486.15h-12.8
				v-1.315h12.8V486.15z"/>
			<path fill="#FFFFFF" d="M246.579,664.425h-21.649c-1.551,0-2.813,1.26-2.813,2.81v14.163c0,1.551,1.262,2.811,2.813,2.811h21.649
				c1.55,0,2.811-1.26,2.811-2.811v-14.163C249.389,665.685,248.128,664.425,246.579,664.425z M246.579,681.825h-21.649
				c-0.121,0-0.229-0.051-0.306-0.13l7.379-6.581l3.354,2.991c0.113,0.102,0.255,0.151,0.397,0.151c0.142,0,0.283-0.05,0.396-0.151
				l3.354-2.991l7.379,6.58C246.806,681.774,246.699,681.825,246.579,681.825z M235.754,676.863l-11.132-9.926
				c0.078-0.08,0.186-0.13,0.307-0.13h21.649c0.12,0,0.228,0.051,0.305,0.131L235.754,676.863z M224.5,668.426l6.606,5.891
				l-6.606,5.891V668.426z M240.4,674.315l6.604-5.89v11.781L240.4,674.315z"/>
		</g>
		<g id="men_1_">
			<g id="men">
				<circle fill="#FFFFFF" cx="233.144" cy="217.458" r="52.903"/>
			</g>
			<path fill="#D1ECFB" d="M286.041,217.711l-34.442-34.442l-14.911,14.911l-6.681-6.681l-20.241,20.241l6.681,6.681l-0.527,0.527
				l13.611,13.611l-18.514,18.514l19.202,19.202c0.968,0.053,1.942,0.084,2.924,0.084
				C262.276,270.359,285.903,246.809,286.041,217.711z"/>
			<g>
				<g>
					<path fill="#FFFFFF" d="M257.648,243.576c0,10.16-6.958,10.613-15.547,10.613h-17.917c-8.586,0-15.544-0.454-15.544-10.613l0,0
						c0-10.164,6.958-18.396,15.544-18.396h17.917C250.69,225.18,257.648,233.413,257.648,243.576L257.648,243.576z"/>
					<polygon fill="#1695A4" points="236.287,235.529 229.996,235.529 229.209,228.725 237.071,228.725 					"/>
					<polygon fill="#1695A4" points="229.996,236.381 236.287,236.381 237.071,254.189 229.209,254.189 					"/>
					<g>
						<g>
							<polygon fill="#FFFFFF" points="242.623,225.953 241.141,234.365 233.09,229.224 							"/>
						</g>
						<g>
							<polygon fill="#FFFFFF" points="223.575,225.953 225.058,234.365 233.09,229.224 							"/>
						</g>
					</g>
					<path fill="#0E303F" d="M222.671,225.357c-7.865,0.918-14.03,8.675-14.03,18.219c0,10.16,6.958,10.613,15.544,10.613h8.957
						C227.504,239.773,224.316,230.159,222.671,225.357z"/>
					<path fill="#0E303F" d="M243.619,225.357c7.87,0.918,14.029,8.675,14.029,18.219c0,10.16-6.958,10.613-15.541,10.613h-8.966
						C236.647,244.559,241.535,232.126,243.619,225.357z"/>
					<g>
						<path fill="#F5DCA2" d="M216.859,208.396c0,2.541-1.785,4.597-3.998,4.597c-2.202,0-3.99-2.056-3.99-4.597
							c0-2.538,1.788-4.597,3.99-4.597C215.074,203.799,216.859,205.857,216.859,208.396z"/>
						<path fill="#F5DCA2" d="M257.327,208.396c0,2.541-1.784,4.597-3.997,4.597c-2.201,0-3.99-2.056-3.99-4.597
							c0-2.538,1.789-4.597,3.99-4.597C255.543,203.799,257.327,205.857,257.327,208.396z"/>
						<path fill="#F5DCA2" d="M253.334,208.605c0,11.452-9.283,20.735-20.735,20.735l0,0c-11.451,0-20.735-9.284-20.735-20.735
							v-2.617c0-11.452,9.284-20.735,20.735-20.735l0,0c11.452,0,20.735,9.284,20.735,20.735V208.605z"/>
					</g>
				</g>
				<path fill="#0E303F" d="M250.866,207.311c0,2.81,0.807,4.108,1.793,2.885c0.985-1.222,1.792-4.521,1.792-7.33V192.83
					c0-5.874-1.475-8.442-3.24-9.875c-2.745-2.228-6.512-2.226-9.321-2.226h-13.447c-1.677,0-8.063-0.17-11.789,2.979
					s-4.79,7.42-4.79,11.019v9.573c0,2.81,1.227,5.915,2.725,6.9s2.725-0.506,2.725-3.315v-2.834c0-2.809,1.097-6.431,2.438-8.047
					c1.341-1.617,4.736-2.939,7.546-2.939h0.108c2.81,0,5.107,1.129,5.107,2.509c0,1.38,2.151,1.7,4.781,0.71l4.921-1.852
					c2.629-0.989,5.651-1.072,6.717-0.185c1.064,0.887,1.936,3.912,1.936,6.721V207.311z"/>
			</g>
		</g>
	</g>
	<g>
	</g>
	<g>
	</g>
	<g>
	</g>
	<g>
	</g>
	<g>
	</g>
	<g>
	</g>
</g>
</svg>
