<?xml version="1.0" encoding="utf-8"?>
<!-- Generator: Adobe Illustrator 16.0.0, SVG Export Plug-In . SVG Version: 6.00 Build 0)  -->
<!DOCTYPE svg PUBLIC "-//W3C//DTD SVG 1.1//EN" "http://www.w3.org/Graphics/SVG/1.1/DTD/svg11.dtd">
<svg version="1.1" id="Layer_1" xmlns="http://www.w3.org/2000/svg" xmlns:xlink="http://www.w3.org/1999/xlink" x="0px" y="0px"
	 width="250px" height="121px" viewBox="-50 -13.5 250 121" enable-background="new -50 -13.5 250 121" xml:space="preserve">
<g>
	<g>
		<path fill="#000000" d="M-46.583,103.057v-8.134h0.783v8.134H-46.583z"/>
		<path fill="#000000" d="M-40.43,103.057v-8.134h0.802l3.106,6.401v-6.401h0.747v8.134h-0.801l-3.101-6.398v6.398H-40.43z"/>
		<path fill="#000000" d="M-28.904,103.057v-7.176h-1.948v-0.958h4.686v0.958h-1.958v7.176H-28.904z"/>
		<path fill="#000000" d="M-21.332,103.057v-8.134h4.272v0.958h-3.492v2.488h3.27v0.959h-3.27v2.768h3.628v0.961H-21.332
			L-21.332,103.057z"/>
		<path fill="#000000" d="M-9.03,99.868v-0.961l2.505-0.002v3.021c-0.385,0.425-0.781,0.737-1.191,0.951
			c-0.411,0.214-0.831,0.316-1.263,0.316c-0.577,0-1.092-0.161-1.544-0.485c-0.452-0.325-0.811-0.804-1.075-1.428
			c-0.266-0.625-0.395-1.374-0.395-2.255c0-0.887,0.132-1.661,0.397-2.32c0.264-0.658,0.612-1.145,1.042-1.458
			c0.43-0.313,0.938-0.468,1.524-0.468c0.435,0,0.811,0.091,1.134,0.271c0.326,0.18,0.594,0.438,0.804,0.77
			c0.21,0.335,0.368,0.791,0.472,1.372l-0.702,0.264c-0.096-0.456-0.215-0.8-0.358-1.027c-0.144-0.226-0.336-0.406-0.572-0.536
			c-0.233-0.128-0.499-0.194-0.796-0.194c-0.428,0-0.799,0.119-1.108,0.354c-0.31,0.236-0.558,0.599-0.747,1.099
			c-0.189,0.495-0.281,1.099-0.281,1.813c0,1.086,0.204,1.903,0.604,2.444c0.406,0.543,0.928,0.813,1.572,0.813
			c0.31,0,0.625-0.083,0.947-0.248c0.325-0.168,0.579-0.365,0.771-0.593v-1.514L-9.03,99.868L-9.03,99.868z"/>
		<path fill="#000000" d="M-1.363,103.057v-8.134h2.62c0.548,0,0.952,0.076,1.212,0.227c0.261,0.154,0.475,0.405,0.641,0.756
			c0.168,0.355,0.249,0.763,0.249,1.229c0,0.613-0.14,1.11-0.425,1.493c-0.283,0.38-0.693,0.622-1.237,0.729
			c0.221,0.147,0.387,0.298,0.503,0.452c0.23,0.312,0.437,0.656,0.614,1.035l1.031,2.213H2.863l-0.788-1.691
			c-0.306-0.661-0.536-1.107-0.691-1.334c-0.156-0.233-0.309-0.386-0.454-0.467c-0.144-0.079-0.35-0.12-0.61-0.12h-0.905v3.612
			H-1.363z M-0.582,98.513H1.1c0.367,0,0.645-0.049,0.836-0.149c0.192-0.099,0.342-0.258,0.452-0.472
			c0.111-0.214,0.167-0.465,0.167-0.749c0-0.409-0.106-0.734-0.318-0.964c-0.212-0.238-0.53-0.355-0.949-0.355h-1.871V98.513z"/>
		<path fill="#000000" d="M7.98,103.057l2.28-8.134h0.836l2.421,8.134h-0.897l-0.688-2.464H9.447l-0.643,2.464H7.98z M9.677,99.719
			h2.014l-0.614-2.255c-0.192-0.689-0.33-1.253-0.419-1.687c-0.076,0.522-0.182,1.038-0.321,1.555L9.677,99.719z"/>
		<path fill="#000000" d="M19.074,103.057v-7.176h-1.947v-0.958h4.683v0.958h-1.955v7.176H19.074z"/>
		<path fill="#000000" d="M26.647,103.057v-8.134h4.273v0.958h-3.49v2.488h3.27v0.959h-3.27v2.768h3.627v0.961H26.647
			L26.647,103.057z"/>
		<path fill="#000000" d="M36.148,103.057v-8.134h2.04c0.506,0,0.886,0.05,1.15,0.148c0.345,0.131,0.642,0.368,0.894,0.714
			c0.253,0.341,0.451,0.775,0.59,1.3c0.14,0.522,0.21,1.143,0.21,1.861c0,0.921-0.117,1.7-0.359,2.343
			c-0.237,0.64-0.545,1.096-0.921,1.366c-0.377,0.27-0.866,0.401-1.472,0.401H36.148z M36.93,102.097h1.258
			c0.507,0,0.895-0.091,1.155-0.279c0.264-0.188,0.464-0.485,0.604-0.9c0.188-0.553,0.281-1.211,0.281-1.981
			c0-0.826-0.098-1.473-0.297-1.946c-0.197-0.47-0.454-0.785-0.765-0.945c-0.208-0.107-0.543-0.163-1-0.163H36.93V102.097z"/>
		<path fill="#000000" d="M52.46,103.057v-8.134h2.039c0.506,0,0.89,0.05,1.149,0.148c0.345,0.131,0.643,0.368,0.897,0.714
			c0.252,0.341,0.449,0.775,0.589,1.3c0.142,0.522,0.212,1.143,0.212,1.861c0,0.921-0.12,1.7-0.361,2.343
			c-0.239,0.64-0.544,1.096-0.922,1.366c-0.375,0.27-0.864,0.401-1.472,0.401H52.46z M53.241,102.097h1.258
			c0.508,0,0.895-0.091,1.157-0.279c0.262-0.188,0.466-0.485,0.606-0.9c0.186-0.553,0.28-1.211,0.28-1.981
			c0-0.826-0.097-1.473-0.298-1.946c-0.198-0.47-0.454-0.785-0.765-0.945c-0.21-0.107-0.543-0.163-0.998-0.163h-1.238v6.216H53.241z
			"/>
		<path fill="#000000" d="M62.611,103.057v-8.134h0.783v8.134H62.611z"/>
		<path fill="#000000" d="M71.573,99.868v-0.961l2.501-0.002v3.021c-0.382,0.425-0.78,0.737-1.19,0.951
			c-0.41,0.214-0.833,0.316-1.263,0.316c-0.576,0-1.091-0.161-1.543-0.485c-0.453-0.325-0.813-0.804-1.075-1.428
			c-0.264-0.625-0.396-1.374-0.396-2.255c0-0.887,0.131-1.661,0.397-2.32c0.267-0.658,0.613-1.145,1.042-1.458
			c0.431-0.313,0.938-0.468,1.526-0.468c0.432,0,0.81,0.091,1.134,0.271c0.324,0.18,0.592,0.438,0.802,0.77
			c0.21,0.335,0.369,0.791,0.473,1.372l-0.703,0.264c-0.095-0.456-0.216-0.8-0.359-1.027c-0.144-0.226-0.335-0.406-0.571-0.536
			c-0.237-0.128-0.501-0.194-0.795-0.194c-0.432,0-0.8,0.119-1.109,0.354c-0.31,0.236-0.559,0.599-0.749,1.099
			c-0.188,0.495-0.281,1.099-0.281,1.813c0,1.086,0.202,1.903,0.604,2.444c0.403,0.543,0.929,0.813,1.573,0.813
			c0.309,0,0.623-0.083,0.947-0.248c0.323-0.168,0.58-0.365,0.77-0.593v-1.514L71.573,99.868L71.573,99.868z"/>
		<path fill="#000000" d="M79.393,103.057v-8.134h0.78v8.134H79.393z"/>
		<path fill="#000000" d="M87.084,103.057v-7.176h-1.948v-0.958h4.686v0.958h-1.956v7.176H87.084z"/>
		<path fill="#000000" d="M93.385,103.057l2.282-8.134H96.5l2.422,8.134h-0.895l-0.687-2.464h-2.487l-0.641,2.464H93.385z
			 M95.083,99.719h2.013l-0.613-2.255c-0.189-0.689-0.329-1.253-0.417-1.687c-0.076,0.522-0.185,1.038-0.322,1.555L95.083,99.719z"
			/>
		<path fill="#000000" d="M103.523,103.057v-8.134h0.782v7.174h2.908v0.96H103.523z"/>
		<path fill="#000000" d="M117.949,100.438l0.738-0.088c0.037,0.449,0.125,0.797,0.268,1.047c0.141,0.249,0.338,0.449,0.596,0.601
			c0.26,0.151,0.552,0.227,0.875,0.227c0.464,0,0.825-0.128,1.085-0.386c0.255-0.255,0.387-0.588,0.387-0.998
			c0-0.238-0.046-0.452-0.142-0.628c-0.091-0.179-0.233-0.326-0.423-0.441c-0.188-0.113-0.595-0.274-1.223-0.483
			c-0.556-0.189-0.952-0.377-1.188-0.563c-0.236-0.189-0.421-0.431-0.553-0.72c-0.128-0.29-0.193-0.618-0.193-0.985
			c0-0.659,0.188-1.196,0.565-1.613c0.376-0.417,0.884-0.627,1.524-0.627c0.439,0,0.821,0.099,1.154,0.292
			c0.327,0.197,0.584,0.479,0.767,0.845c0.178,0.365,0.279,0.798,0.292,1.294l-0.752,0.077c-0.039-0.525-0.181-0.922-0.421-1.174
			c-0.242-0.255-0.579-0.386-1.015-0.386c-0.443,0-0.777,0.112-1.013,0.336c-0.235,0.226-0.351,0.515-0.351,0.868
			c0,0.331,0.089,0.587,0.255,0.768c0.172,0.181,0.556,0.364,1.152,0.55c0.584,0.182,0.994,0.34,1.228,0.472
			c0.361,0.21,0.633,0.482,0.814,0.821c0.185,0.334,0.279,0.74,0.279,1.208c0,0.467-0.1,0.891-0.292,1.274
			c-0.193,0.381-0.455,0.673-0.79,0.874c-0.33,0.199-0.734,0.299-1.202,0.299c-0.73,0-1.313-0.246-1.749-0.742
			C118.188,101.957,117.966,101.286,117.949,100.438z"/>
		<path fill="#000000" d="M127.529,99.095c0-1.386,0.269-2.452,0.813-3.195c0.539-0.746,1.214-1.12,2.021-1.12
			c0.52,0,0.995,0.169,1.422,0.499c0.432,0.331,0.771,0.818,1.021,1.451c0.251,0.635,0.378,1.392,0.378,2.267
			c0,1.207-0.244,2.189-0.729,2.949c-0.532,0.834-1.235,1.252-2.099,1.252c-0.872,0-1.576-0.431-2.103-1.288
			C127.771,101.132,127.529,100.191,127.529,99.095z M128.335,99.11c0,1.003,0.197,1.781,0.588,2.337
			c0.391,0.551,0.87,0.83,1.433,0.83c0.571,0,1.055-0.279,1.441-0.841c0.388-0.559,0.583-1.377,0.583-2.466
			c0-0.697-0.102-1.324-0.3-1.876c-0.158-0.42-0.389-0.759-0.697-1.012c-0.312-0.253-0.646-0.385-1.015-0.385
			c-0.593,0-1.079,0.279-1.462,0.835C128.527,97.091,128.335,97.948,128.335,99.11z"/>
		<path fill="#000000" d="M138.153,103.057v-8.134h0.784v7.174h2.911v0.96H138.153z"/>
		<path fill="#000000" d="M150.687,94.923h0.781v4.701c0,0.788-0.069,1.434-0.203,1.936c-0.137,0.508-0.385,0.905-0.742,1.198
			c-0.357,0.292-0.815,0.436-1.367,0.436c-0.781,0-1.362-0.26-1.75-0.784c-0.388-0.527-0.582-1.455-0.582-2.785v-4.701h0.783v4.694
			c0,0.737,0.047,1.271,0.149,1.597c0.104,0.329,0.267,0.58,0.5,0.752c0.231,0.171,0.511,0.256,0.845,0.256
			c0.556,0,0.958-0.175,1.212-0.528c0.249-0.356,0.378-1.05,0.378-2.076v-4.694H150.687z"/>
		<path fill="#000000" d="M158.326,103.057v-7.176h-1.947v-0.958h4.684v0.958h-1.954v7.176H158.326z"/>
		<path fill="#000000" d="M166.032,103.057v-8.134h0.782v8.134H166.032z"/>
		<path fill="#000000" d="M171.987,99.095c0-1.386,0.273-2.452,0.812-3.195c0.542-0.746,1.215-1.12,2.021-1.12
			c0.525,0,0.998,0.169,1.425,0.499c0.433,0.331,0.772,0.818,1.021,1.451c0.249,0.635,0.378,1.392,0.378,2.267
			c0,1.207-0.244,2.189-0.729,2.949c-0.532,0.834-1.235,1.252-2.103,1.252c-0.87,0-1.569-0.431-2.102-1.288
			C172.228,101.132,171.987,100.191,171.987,99.095z M172.792,99.11c0,1.003,0.2,1.781,0.591,2.337
			c0.389,0.551,0.867,0.83,1.429,0.83c0.571,0,1.055-0.279,1.442-0.841c0.388-0.559,0.585-1.377,0.585-2.466
			c0-0.697-0.105-1.324-0.303-1.876c-0.154-0.42-0.387-0.759-0.695-1.012c-0.31-0.253-0.651-0.385-1.016-0.385
			c-0.592,0-1.077,0.279-1.459,0.835C172.985,97.091,172.792,97.948,172.792,99.11z"/>
		<path fill="#000000" d="M182.639,103.057v-8.134h0.802l3.11,6.401v-6.401h0.745v8.134h-0.801l-3.101-6.398v6.398H182.639z"/>
		<path fill="#000000" d="M192.384,100.438l0.735-0.088c0.04,0.449,0.13,0.797,0.271,1.047c0.138,0.249,0.338,0.449,0.598,0.601
			c0.256,0.151,0.548,0.227,0.873,0.227c0.464,0,0.828-0.128,1.088-0.386c0.253-0.255,0.385-0.588,0.385-0.998
			c0-0.238-0.05-0.452-0.143-0.628c-0.091-0.179-0.235-0.326-0.423-0.441c-0.188-0.111-0.595-0.274-1.219-0.483
			c-0.559-0.189-0.955-0.377-1.192-0.563c-0.237-0.189-0.42-0.431-0.552-0.72c-0.131-0.29-0.196-0.618-0.196-0.985
			c0-0.659,0.189-1.196,0.563-1.613c0.378-0.417,0.888-0.627,1.528-0.627c0.439,0,0.82,0.099,1.152,0.292
			c0.332,0.197,0.585,0.479,0.766,0.845s0.279,0.798,0.292,1.294l-0.749,0.077c-0.04-0.525-0.181-0.922-0.42-1.174
			c-0.244-0.255-0.582-0.386-1.018-0.386c-0.444,0-0.779,0.112-1.013,0.336c-0.236,0.226-0.351,0.515-0.351,0.868
			c0,0.331,0.088,0.587,0.256,0.768c0.171,0.181,0.551,0.364,1.152,0.55c0.585,0.182,0.991,0.34,1.226,0.472
			c0.361,0.21,0.631,0.482,0.817,0.821c0.184,0.334,0.276,0.74,0.276,1.208c0,0.467-0.099,0.891-0.293,1.274
			c-0.193,0.381-0.453,0.673-0.788,0.874c-0.331,0.199-0.735,0.299-1.201,0.299c-0.733,0-1.314-0.246-1.752-0.742
			C192.621,101.958,192.4,101.286,192.384,100.438z"/>
	</g>
	<g>
		<path fill="#EB2227" d="M-2.064,40.888c0,18.004-7.414,26.991-22.186,26.991c-14.875,0-22.333-8.987-22.333-26.991
			c0-17.925,7.458-26.886,22.333-26.886h12.844V-7.217h9.342V40.888z M-11.406,40.888V24.445H-24.25
			c-4.975,0-8.474,1.507-10.406,4.494c-1.613,2.442-2.442,6.438-2.442,11.948c0,5.507,0.829,9.481,2.442,11.951
			c1.932,3.062,5.43,4.569,10.406,4.569c4.971,0,8.469-1.508,10.404-4.569C-12.234,50.369-11.406,46.395-11.406,40.888z"/>
		<path fill="#EB2227" d="M5.305,14.002h9.343v53.769H5.305V14.002z"/>
		<path fill="#EB2227" d="M65.988,69.306c0,13.067-7.371,19.613-22.199,19.613H26.206V78.524H43.79
			c5.622,0,9.349-1.142,11.234-3.374c1.109-1.245,1.657-3.171,1.657-5.846V67.77H43.789c-14.868,0-22.279-8.937-22.279-26.834
			C21.51,22.96,28.92,14,43.789,14c14.827,0,22.199,8.96,22.199,26.935V69.306z M56.682,57.306V40.938
			c0-5.501-0.828-9.483-2.442-11.924c-1.974-3.063-5.476-4.568-10.451-4.568c-4.97,0-8.468,1.507-10.493,4.568
			c-1.612,2.441-2.443,6.422-2.443,11.924c0,5.404,0.831,9.38,2.443,11.901c2.025,2.982,5.525,4.467,10.493,4.467H56.682z"/>
		<path fill="#EB2227" d="M73.214,14.002h9.344v53.769h-9.344V14.002z"/>
		<path fill="#EB2227" d="M113.772,67.879c-15.931,0-23.853-6.548-23.853-19.587V-7.217h9.351v21.221h14.502v10.443H99.271v23.869
			c0,2.888,0.831,4.994,2.44,6.347c2.209,1.836,6.263,2.747,12.062,2.747V67.879L113.772,67.879z"/>
		<path fill="#EB2227" d="M119.255,14.002h9.342v53.769h-9.342V14.002z"/>
		<path fill="#EB2227" d="M179.936,69.306c0,13.067-7.412,19.613-22.193,19.613h-17.678V78.524h17.678
			c5.528,0,9.303-1.142,11.233-3.374c1.064-1.245,1.613-3.171,1.613-5.846V67.77h-12.847c-14.87,0-22.322-8.937-22.322-26.834
			C135.42,22.96,142.874,14,157.742,14c14.781,0,22.193,8.96,22.193,26.935V69.306z M170.589,57.306V40.938
			c0-5.501-0.828-9.483-2.441-11.924c-1.977-3.063-5.479-4.568-10.405-4.568c-5.016,0-8.468,1.507-10.544,4.568
			c-1.608,2.441-2.438,6.422-2.438,11.924c0,5.404,0.83,9.38,2.438,11.901c2.072,2.982,5.525,4.467,10.544,4.467H170.589z"/>
		<polygon fill="#EB2227" points="187.188,7.008 189.073,4.883 187.188,2.756 185.307,4.883 		"/>
		<polygon fill="#EB2227" points="192.102,9.388 194.539,6.643 192.104,3.9 189.672,6.645 		"/>
		<polygon fill="#EB2227" points="189.944,1.949 191.419,0.285 189.944,-1.38 188.47,0.287 		"/>
		<polygon fill="#EB2227" points="195.541,12.718 197.016,11.053 195.541,9.388 194.066,11.054 		"/>
		<path fill="#EB2227" d="M192.89,14.002l-2.916,3.286l-2.854-3.225v53.708h9.345V14.002H192.89z M195.005,14.013l1.403,1.583
			l-1.403,1.582l-1.402-1.582L195.005,14.013z M187.126,20.068l2.464-2.778l2.331,2.632l-2.46,2.779L187.126,20.068z
			 M194.102,24.968l-2.331-2.632l2.331-2.632l2.336,2.632L194.102,24.968z"/>
		<polygon fill="#EB2227" points="195.808,4.716 197.938,2.312 195.808,-0.095 193.672,2.312 		"/>
	</g>
</g>
</svg>
